<svg width="19" height="18" viewBox="0 0 19 18" fill="none" xmlns="http://www.w3.org/2000/svg">
<path fill-rule="evenodd" clip-rule="evenodd" d="M5.59948 0.453166C6.53668 0.409986 6.8355 0.400391 9.22284 0.400391C11.6102 0.400391 11.909 0.410786 12.8454 0.453166C13.7818 0.495545 14.421 0.645075 14.9803 0.861772C15.5659 1.08327 16.0973 1.4295 16.5367 1.87729C16.9841 2.31628 17.3293 2.84723 17.5498 3.43415C17.7671 3.99389 17.9157 4.63358 17.9589 5.56914C18.002 6.50869 18.0116 6.80775 18.0116 9.19622C18.0116 11.5855 18.0012 11.8845 17.9589 12.8225C17.9165 13.7581 17.7671 14.3978 17.5498 14.9575C17.3293 15.5445 16.9835 16.0763 16.5367 16.5159C16.0973 16.9637 15.5659 17.3092 14.9803 17.5299C14.421 17.7474 13.7818 17.8961 12.847 17.9393C11.909 17.9825 11.6102 17.992 9.22284 17.992C6.8355 17.992 6.53668 17.9817 5.59948 17.9393C4.66467 17.8969 4.02549 17.7474 3.46621 17.5299C2.87969 17.3091 2.34829 16.9631 1.909 16.5159C1.46187 16.0767 1.11586 15.5451 0.895093 14.9583C0.678569 14.3986 0.529959 13.7589 0.486815 12.8233C0.44367 11.8837 0.434082 11.5847 0.434082 9.19622C0.434082 6.80695 0.444469 6.50789 0.486815 5.57074C0.52916 4.63358 0.678569 3.99389 0.895093 3.43415C1.11619 2.8473 1.46246 2.31573 1.9098 1.87649C2.34847 1.4291 2.87933 1.08282 3.46541 0.861772C4.02469 0.645075 4.66387 0.496345 5.59868 0.453166H5.59948ZM12.7743 2.03641C11.8475 1.99403 11.5694 1.98524 9.22284 1.98524C6.87625 1.98524 6.5982 1.99403 5.67139 2.03641C4.81408 2.0756 4.34908 2.21873 4.03907 2.33947C3.6292 2.4994 3.33597 2.68891 3.02837 2.99676C2.73677 3.28067 2.51237 3.62629 2.3716 4.00828C2.25096 4.31853 2.10794 4.78391 2.06879 5.6419C2.02645 6.56946 2.01766 6.84773 2.01766 9.19622C2.01766 11.5447 2.02645 11.823 2.06879 12.7505C2.10794 13.6085 2.25096 14.0739 2.3716 14.3842C2.51222 14.7656 2.73674 15.1118 3.02837 15.3957C3.312 15.6875 3.65796 15.9122 4.03907 16.053C4.34908 16.1737 4.81408 16.3168 5.67139 16.356C6.5982 16.3984 6.87545 16.4072 9.22284 16.4072C11.5702 16.4072 11.8475 16.3984 12.7743 16.356C13.6316 16.3168 14.0966 16.1737 14.4066 16.053C14.8165 15.893 15.1097 15.7035 15.4173 15.3957C15.709 15.1118 15.9335 14.7656 16.0741 14.3842C16.1947 14.0739 16.3377 13.6085 16.3769 12.7505C16.4192 11.823 16.428 11.5447 16.428 9.19622C16.428 6.84773 16.4192 6.56946 16.3769 5.6419C16.3377 4.78391 16.1947 4.31853 16.0741 4.00828C15.9143 3.59807 15.7249 3.30461 15.4173 2.99676C15.1336 2.70495 14.7883 2.48037 14.4066 2.33947C14.0966 2.21873 13.6316 2.0756 12.7743 2.03641V2.03641ZM8.10028 11.9077C8.72721 12.1689 9.42529 12.2042 10.0753 12.0075C10.7253 11.8108 11.2869 11.3943 11.6642 10.8292C12.0415 10.2642 12.2111 9.58553 12.1439 8.90924C12.0768 8.23295 11.7772 7.60095 11.2962 7.1212C10.9896 6.81453 10.6188 6.57971 10.2106 6.43365C9.80247 6.28758 9.367 6.23391 8.93561 6.2765C8.50421 6.31908 8.08762 6.45686 7.71581 6.67992C7.34401 6.90297 7.02625 7.20576 6.7854 7.56647C6.54456 7.92719 6.38662 8.33686 6.32297 8.76599C6.25931 9.19513 6.29151 9.63305 6.41726 10.0482C6.54301 10.4634 6.75918 10.8455 7.0502 11.1671C7.34122 11.4886 7.69985 11.7416 8.10028 11.9077ZM6.02853 5.99934C6.44801 5.57951 6.94601 5.24649 7.49409 5.01929C8.04218 4.79208 8.62961 4.67514 9.22284 4.67514C9.81608 4.67514 10.4035 4.79208 10.9516 5.01929C11.4997 5.24649 11.9977 5.57951 12.4172 5.99934C12.8366 6.41916 13.1694 6.91756 13.3964 7.46608C13.6234 8.0146 13.7403 8.6025 13.7403 9.19622C13.7403 9.78994 13.6234 10.3778 13.3964 10.9264C13.1694 11.4749 12.8366 11.9733 12.4172 12.3931C11.57 13.241 10.4209 13.7173 9.22284 13.7173C8.02474 13.7173 6.87571 13.241 6.02853 12.3931C5.18134 11.5452 4.7054 10.3953 4.7054 9.19622C4.7054 7.99716 5.18134 6.8472 6.02853 5.99934V5.99934ZM14.7422 5.34844C14.8461 5.25031 14.9294 5.13229 14.9869 5.00139C15.0445 4.87048 15.0752 4.72935 15.0773 4.58635C15.0794 4.44335 15.0528 4.30138 14.999 4.16885C14.9453 4.03632 14.8656 3.91593 14.7645 3.8148C14.6635 3.71367 14.5432 3.63386 14.4108 3.5801C14.2783 3.52633 14.1365 3.4997 13.9936 3.50179C13.8507 3.50387 13.7097 3.53463 13.5789 3.59223C13.4481 3.64984 13.3302 3.73313 13.2321 3.83716C13.0414 4.03949 12.937 4.30823 12.9411 4.58635C12.9451 4.86446 13.0573 5.13005 13.2538 5.32673C13.4503 5.52341 13.7157 5.63569 13.9936 5.63975C14.2715 5.6438 14.54 5.53931 14.7422 5.34844V5.34844Z" fill="#0096D1"/>
</svg>
