<svg width="21" height="21" viewBox="0 0 21 21" fill="none" xmlns="http://www.w3.org/2000/svg">
<path fill-rule="evenodd" clip-rule="evenodd" d="M6.74834 1.70695C7.73133 1.66227 8.04475 1.65234 10.5487 1.65234C13.0527 1.65234 13.3662 1.6631 14.3483 1.70695C15.3305 1.75081 16.0009 1.90553 16.5875 2.12976C17.2018 2.35895 17.759 2.71722 18.2199 3.18057C18.6892 3.63481 19.0513 4.18421 19.2825 4.79153C19.5105 5.37072 19.6664 6.03264 19.7116 7.00071C19.7569 7.97291 19.7669 8.28236 19.7669 10.7538C19.7669 13.2261 19.756 13.5356 19.7116 14.5061C19.6672 15.4742 19.5105 16.1361 19.2825 16.7153C19.0512 17.3227 18.6886 17.873 18.2199 18.3279C17.759 18.7913 17.2018 19.1487 16.5875 19.3771C16.0009 19.6021 15.3305 19.756 14.35 19.8007C13.3662 19.8454 13.0527 19.8553 10.5487 19.8553C8.04475 19.8553 7.73133 19.8446 6.74834 19.8007C5.76786 19.7569 5.09745 19.6021 4.51084 19.3771C3.89567 19.1487 3.3383 18.7907 2.87754 18.3279C2.40857 17.8734 2.04566 17.3234 1.8141 16.7161C1.587 16.1369 1.43113 15.475 1.38588 14.507C1.34062 13.5348 1.33057 13.2253 1.33057 10.7538C1.33057 8.28154 1.34146 7.97209 1.38588 7.00236C1.43029 6.03264 1.587 5.37072 1.8141 4.79153C2.046 4.18428 2.40919 3.63425 2.87838 3.17974C3.33849 2.71681 3.89529 2.35849 4.51 2.12976C5.09661 1.90553 5.76702 1.75163 6.7475 1.70695H6.74834ZM14.2737 3.34522C13.3016 3.30137 13.01 3.29227 10.5487 3.29227C8.08749 3.29227 7.79586 3.30137 6.82376 3.34522C5.92457 3.38576 5.43684 3.53387 5.11169 3.65881C4.68179 3.82429 4.37424 4.02039 4.0516 4.33894C3.74577 4.63271 3.5104 4.99034 3.36276 5.38561C3.23621 5.70664 3.08621 6.18819 3.04515 7.076C3.00073 8.0358 2.99151 8.32374 2.99151 10.7538C2.99151 13.1839 3.00073 13.4719 3.04515 14.4317C3.08621 15.3195 3.23621 15.801 3.36276 16.1221C3.51025 16.5167 3.74573 16.875 4.0516 17.1687C4.3491 17.4707 4.71196 17.7032 5.11169 17.8489C5.43684 17.9738 5.92457 18.1219 6.82376 18.1624C7.79586 18.2063 8.08665 18.2154 10.5487 18.2154C13.0108 18.2154 13.3016 18.2063 14.2737 18.1624C15.1729 18.1219 15.6606 17.9738 15.9858 17.8489C16.4157 17.6834 16.7232 17.4873 17.0459 17.1687C17.3518 16.875 17.5872 16.5167 17.7347 16.1221C17.8613 15.801 18.0113 15.3195 18.0523 14.4317C18.0968 13.4719 18.106 13.1839 18.106 10.7538C18.106 8.32374 18.0968 8.0358 18.0523 7.076C18.0113 6.18819 17.8613 5.70664 17.7347 5.38561C17.5671 4.96115 17.3685 4.65749 17.0459 4.33894C16.7483 4.03699 16.3861 3.80461 15.9858 3.65881C15.6606 3.53387 15.1729 3.38576 14.2737 3.34522ZM9.37133 13.5596C10.0289 13.8298 10.7611 13.8663 11.4428 13.6628C12.1246 13.4592 12.7137 13.0283 13.1094 12.4436C13.5051 11.8589 13.683 11.1567 13.6126 10.4569C13.5422 9.75709 13.2279 9.10313 12.7234 8.60671C12.4018 8.28938 12.0129 8.0464 11.5848 7.89526C11.1567 7.74412 10.6999 7.68858 10.2475 7.73265C9.795 7.77671 9.35805 7.91928 8.96808 8.15009C8.57811 8.3809 8.24482 8.6942 7.99221 9.06745C7.7396 9.4407 7.57394 9.86461 7.50718 10.3087C7.44041 10.7527 7.47419 11.2058 7.60608 11.6354C7.73798 12.0651 7.9647 12.4605 8.26994 12.7932C8.57518 13.1259 8.95134 13.3876 9.37133 13.5596ZM7.19835 7.44586C7.63833 7.01145 8.16066 6.66685 8.73553 6.43175C9.31039 6.19665 9.92652 6.07565 10.5487 6.07565C11.171 6.07565 11.7871 6.19665 12.362 6.43175C12.9368 6.66685 13.4592 7.01145 13.8991 7.44586C14.3391 7.88026 14.6881 8.39598 14.9262 8.96357C15.1643 9.53115 15.2869 10.1395 15.2869 10.7538C15.2869 11.3682 15.1643 11.9765 14.9262 12.5441C14.6881 13.1117 14.3391 13.6274 13.8991 14.0618C13.0106 14.9391 11.8054 15.432 10.5487 15.432C9.2921 15.432 8.08693 14.9391 7.19835 14.0618C6.30978 13.1845 5.81058 11.9946 5.81058 10.7538C5.81058 9.5131 6.30978 8.32318 7.19835 7.44586ZM16.3378 6.77235C16.4468 6.6708 16.5341 6.54868 16.5944 6.41323C16.6548 6.27778 16.687 6.13174 16.6892 5.98377C16.6914 5.83579 16.6635 5.68889 16.6072 5.55176C16.5508 5.41463 16.4672 5.29005 16.3612 5.18541C16.2552 5.08077 16.129 4.99818 15.9901 4.94255C15.8512 4.88691 15.7025 4.85936 15.5526 4.86151C15.4027 4.86367 15.2548 4.8955 15.1176 4.95511C14.9804 5.01471 14.8568 5.10089 14.7539 5.20854C14.5539 5.4179 14.4444 5.69599 14.4486 5.98377C14.4529 6.27155 14.5705 6.54636 14.7767 6.74988C14.9828 6.95339 15.2611 7.06957 15.5526 7.07377C15.8441 7.07796 16.1257 6.96984 16.3378 6.77235Z" fill="white"/>
</svg>
