<svg width="138" height="16" viewBox="0 0 138 16" fill="none" xmlns="http://www.w3.org/2000/svg">
<path fill-rule="evenodd" clip-rule="evenodd" d="M33.7045 2.59988L28.6416 13.5729H29.4795L30.8491 10.5217H37.2604L38.6406 13.5694H39.5278L34.4649 2.59634L33.7045 2.59988ZM31.2012 9.78192L34.0777 3.48481L36.933 9.78192H31.2012ZM54.4382 5.76437C54.4421 5.38532 54.3717 5.00921 54.2309 4.65755C54.0902 4.30589 53.8819 3.98556 53.6179 3.71489C52.9666 3.06358 51.8998 2.65298 50.5654 2.65298H46.0166V13.5198H46.8228V9.01735H50.3718L53.8256 13.5198H54.8502L51.2696 8.87576C53.0968 8.62798 54.4382 7.58731 54.4382 5.77145V5.76437ZM46.8158 8.28109V3.41047H50.5196C52.4877 3.41047 53.6355 4.32725 53.6355 5.78561C53.6355 7.38555 52.2871 8.30233 50.4668 8.30233L46.8158 8.28109ZM70.1162 2.64944H69.0177L62.1065 9.78192V2.64944H61.3002V13.5198H62.1065V10.7553L64.8034 8.01208L69.2642 13.5092H70.3204L65.3913 7.43865L70.1162 2.64944ZM90.9732 3.41047H94.7545V13.534H95.5608V3.41047H99.3386V2.64944H90.9732V3.41047ZM105.82 13.534H106.627V2.64944H105.82V13.534ZM121.354 12.1181L113.869 2.64944H113.108V13.5198H113.883V3.86001L121.523 13.5198H122.128V2.64944H121.354V12.1181ZM133.726 7.87049V8.57843H137.247V11.6119C136.299 12.3819 135.12 12.8072 133.902 12.819C131.085 12.819 129.402 10.7837 129.402 8.05101C129.402 5.47058 131.187 3.30074 133.736 3.30074C134.983 3.25745 136.196 3.71318 137.109 4.56795L137.62 3.98036C136.566 3.03821 135.192 2.54007 133.782 2.58926C130.649 2.58926 128.593 5.20156 128.593 8.05101C128.593 11.0527 130.557 13.5128 133.874 13.5128C135.394 13.5011 136.859 12.938 138 11.927V7.86341L133.726 7.87049ZM76.774 3.42817H84.5197V2.6459H76.774V3.42817ZM82.1502 7.72182H76.774V8.49701H82.1502V7.72182ZM76.774 13.5198H84.5197V12.7446H76.774V13.5198Z" fill="white"/>
<path fill-rule="evenodd" clip-rule="evenodd" d="M17.8715 0L14.3223 6.31449L10.7906 0H6.50928V9.38122C7.83486 10.598 9.26836 11.6818 10.7906 12.6181V7.96553L14.1306 13.7586H14.5141L17.8715 7.96553V15.5111H22.1319V0H17.8715Z" fill="white"/>
<path fill-rule="evenodd" clip-rule="evenodd" d="M3.90566 7.10923V0H0C0.936168 2.60332 2.2569 5.00737 3.90566 7.10923Z" fill="white"/>
<path fill-rule="evenodd" clip-rule="evenodd" d="M0 9.04883V15.5118H3.90566V12.09C2.53453 11.1946 1.22854 10.1777 0 9.04883H0Z" fill="white"/>
</svg>
