<svg width="185" height="76" viewBox="0 0 185 76" fill="none" xmlns="http://www.w3.org/2000/svg">
<path fill-rule="evenodd" clip-rule="evenodd" d="M31.1776 38.1934L31.176 38.2931C31.176 47.5556 38.8282 55.1095 48.2101 55.1095C48.3766 55.1095 48.5436 55.1067 48.7088 55.101V55.7687C48.5436 55.7737 48.3766 55.7755 48.2101 55.7755C38.4565 55.7755 30.5025 47.9229 30.5025 38.2931L30.5029 38.1934H31.1776ZM26.1803 38.1934H26.8103L26.809 38.2931C26.809 49.9299 36.4226 59.4214 48.2101 59.4214C48.3766 59.4214 48.5436 59.4206 48.7088 59.4166V60.0382C48.5436 60.0426 48.3766 60.0442 48.2101 60.0442C36.0752 60.0442 26.1791 50.2733 26.1791 38.2931L26.1803 38.1934ZM22.4227 38.1934L22.421 38.2931C22.421 52.3167 34.0049 63.7537 48.2101 63.7537C48.3766 63.7537 48.5436 63.7513 48.7088 63.7477V64.4197C48.5436 64.4226 48.3766 64.4266 48.2101 64.4266C33.6309 64.4266 21.7403 52.6874 21.7403 38.2931L21.7418 38.1934H22.4227ZM17.4241 38.1934L17.4229 38.2931C17.4229 55.0352 31.2525 68.689 48.2101 68.689C48.3766 68.689 48.5436 68.6858 48.7088 68.6834V67.9536C48.5436 67.9552 48.3766 67.9593 48.2101 67.9593C31.6602 67.9593 18.1622 54.6343 18.1622 38.2931L18.1626 38.1934H17.4241Z" fill="#373435"/>
<path fill-rule="evenodd" clip-rule="evenodd" d="M17.5918 37.9327C17.7881 21.5032 31.319 8.14214 47.9589 7.94531V25.282C41.1108 25.373 35.2175 31.234 35.1704 37.9327H17.5918Z" fill="#FEFEFE"/>
<path fill-rule="evenodd" clip-rule="evenodd" d="M27.4105 38.2224C27.4385 38.1563 27.6712 38.1616 27.6712 38.1616C28.0761 37.9577 28.1871 37.8773 28.5748 37.9633C28.9571 38.0463 29.5143 37.8967 29.8276 37.9734C29.966 38.0092 30.431 38.1794 30.7369 38.2224H27.4105ZM33.7651 38.2224C33.8698 38.1866 33.9659 38.1246 34.041 38.0233C34.0616 37.9948 34.0291 37.9058 34.106 37.9088C34.3923 37.9199 34.6677 37.9864 34.9356 37.9948C35.0723 37.9989 35.331 37.949 35.3322 38.2224H33.7651ZM17.7415 35.2545C17.6667 35.9892 17.6191 36.7319 17.5986 37.4796C18.2754 37.5083 19.0383 37.4695 19.5299 37.4853C19.8975 37.4982 20.302 37.7817 20.6228 37.7893C20.6042 38.0598 19.2154 37.9924 19.052 37.9795C18.5752 37.9401 18.0902 37.8939 17.5933 37.8436C17.5921 37.9694 17.5892 38.0954 17.5884 38.2224H21.4354C22.2209 38.1529 22.9634 38.0927 23.6566 38.103C24.2389 38.1109 25.0956 37.9811 25.5531 38.1299C25.6488 38.1612 25.7457 38.1927 25.843 38.2224H27.2997C27.5254 38.1166 27.7538 37.9964 27.7767 37.9648C27.9037 37.7845 26.3863 37.7334 26.2791 37.731C25.9346 37.7203 25.2754 37.5063 24.9392 37.4794C23.3081 37.3462 22.8928 37.1492 22.1882 37.1138C22.1322 37.1114 19.8141 36.935 20.1785 36.6861C20.6737 36.3471 24.8859 36.9208 25.3018 36.9505C25.7175 36.9804 26.3072 36.8847 26.6959 36.9091C26.987 36.9297 30.1321 37.1138 30.1081 37.563C29.6272 37.5469 28.7032 37.5525 28.1658 37.3361C27.8593 37.2132 23.209 36.6772 23.1795 37.0997C25.0323 37.1962 28.3529 37.7766 29.5644 37.8174C30.2153 37.8384 30.7923 37.9438 31.3472 38.0792C31.5791 38.1359 31.0651 38.1166 30.9992 38.1915L30.9434 38.2224H32.7963C32.6156 38.182 32.38 38.0889 32.2408 38.1644C32.2527 37.9627 33.4609 38.0659 33.5725 38.0691L33.8447 37.9884C33.6194 37.9811 33.3638 37.8553 33.1047 37.8452C32.8583 37.8356 31.5286 37.862 31.3466 37.6036L30.9951 37.5152C31.8793 37.5798 32.69 37.6993 33.421 37.7322C33.8551 37.7528 34.3048 37.7552 34.6918 37.8473C34.8861 37.8931 35.1022 37.7837 35.2883 37.7917C35.2965 37.6325 35.3202 37.4994 35.329 37.3125C35.3572 36.7226 34.3232 37.0398 34.0463 37.0133C33.6641 36.9776 33.2448 36.8678 32.8078 36.8244C32.0674 36.7515 32.7499 37.0081 32.9779 37.029C33.0391 37.0343 33.604 37.0696 33.5946 37.2319C32.6522 37.1572 31.5873 37.0757 30.3874 36.9832C30.1809 36.9663 29.5726 37.1439 29.592 36.7717C30.3674 36.8373 31.1148 36.8661 31.7562 36.9225C31.994 36.9424 32.3171 36.7616 32.2345 36.7543C31.4736 36.6788 30.3175 36.5783 29.0089 36.4583C27.5115 36.3223 25.7712 36.1598 24.3458 36.0057C22.4825 35.8034 20.3015 35.537 17.7415 35.2545ZM18.3789 31.4465C18.8794 31.5588 19.3644 31.6678 19.836 31.773C21.7349 32.1991 23.4349 32.5863 24.9227 32.9176C26.2025 33.2045 27.3279 33.5606 28.3591 33.8418C29.2953 34.0954 30.1615 34.2823 30.9771 34.3041C31.4891 34.3186 32.0502 34.4428 32.506 34.547C32.506 34.547 32.9252 34.6102 32.8025 34.7408C32.4823 35.0821 31.7875 34.2587 31.3718 34.6667C31.7409 34.7432 32.093 34.8815 32.4375 34.9511C32.7274 35.0105 33.1305 34.6893 33.4065 34.7521C33.6468 34.8058 33.8895 34.6053 34.1076 34.659C34.6612 34.7931 35.1777 34.8292 35.6598 34.9495C35.7228 34.9651 35.696 35.4835 35.6308 35.4689C35.45 35.4304 35.2578 35.5249 35.0797 35.4893C34.9736 35.4677 34.8431 35.5776 34.7354 35.5602C34.3387 35.4905 33.9212 35.4304 33.483 35.3458C33.4609 35.3424 33.3335 35.2877 33.3946 35.3902C33.5815 35.711 33.7453 35.5059 33.9659 35.6161C34.2074 35.7362 34.4657 35.8578 34.7023 35.8335C34.875 35.816 35.7428 35.3801 35.6796 35.8228C35.6279 36.1797 34.8041 36.1022 34.5976 36.0695C33.9244 35.9619 33.1951 35.9698 32.389 35.8485C32.1443 35.8103 31.8243 35.6339 31.5644 35.5864C30.249 35.3506 28.7275 35.0585 26.9568 34.7717C26.9568 34.7717 26.3979 34.6893 26.6537 34.7644C28.0779 35.1839 29.3546 35.4479 30.5295 35.6222C30.7328 35.653 31.0916 35.7199 31.2879 35.7491C32.1159 35.8707 32.8753 35.9831 33.5733 36.0865C33.9749 36.1468 34.3244 36.2722 34.7018 36.2538C34.7791 36.2506 35.5796 36.1238 35.5704 36.331C35.5518 36.7347 34.2164 36.9047 34.0205 36.8851C32.9648 36.7781 31.757 36.5544 30.3586 36.4055C29.483 36.3114 28.5484 35.926 27.4857 36.0142C25.9827 36.14 24.0058 35.6797 21.939 35.4552C21.939 35.4552 21.8234 35.2784 21.9529 35.2499C23.2106 34.9739 24.6057 35.4304 25.6651 35.5921C25.8031 35.6113 26.951 35.4794 26.9588 35.3648C26.9958 34.7749 23.2537 34.4672 23.0143 34.4311C22.8407 34.4042 21.456 34.183 21.2687 34.1155C21.2053 34.0929 20.6191 33.9076 20.6132 34.015C20.5968 34.2282 20.8675 34.2672 21.0659 34.296C22.7466 34.5405 26.2885 34.9317 26.3961 35.263C26.1806 35.3266 25.0916 35.4774 24.7354 35.2998C24.5329 35.1986 23.944 35.0149 23.6768 34.9788C22.2743 34.7914 20.5903 34.4991 18.861 34.2635C18.861 34.2635 18.7813 34.3114 18.8563 34.3211C19.2121 34.3689 21.7339 35.042 21.7318 35.0765C21.6983 35.5602 18.9522 35.1528 17.7718 34.9808C17.8663 34.1327 17.9965 33.2929 18.1603 32.4662C18.9303 32.6029 20.0218 32.9877 20.741 33.1195C22.2156 33.391 23.411 33.6793 24.6033 33.5959C24.6033 33.5959 25.1267 33.6502 25.2243 33.6704C24.9364 33.475 24.1256 33.3995 23.8083 33.3442C22.1708 33.0607 20.3163 32.6013 18.1973 32.2756C18.2535 31.9974 18.3132 31.7219 18.3789 31.4465ZM19.4918 27.7887C19.8333 27.9143 20.1496 28.032 20.412 28.1315C21.1002 28.3939 21.4045 28.96 21.9997 29.1453C23.94 29.751 25.6661 30.291 27.1821 30.7739C28.5108 31.198 29.6753 31.6436 30.7101 31.9983C30.6416 31.882 30.2519 31.7546 30.0809 31.7011C29.1931 31.4209 28.2429 31.0325 27.1792 30.6891C25.9978 30.3067 24.6941 29.8747 23.2329 29.3759C22.499 29.1249 21.9343 28.5677 21.145 28.2885C20.2776 27.9799 22.9736 28.9356 23.7565 29.2142C24.9523 29.6383 26.0348 29.8117 27.0639 30.1747C27.7017 30.3988 28.3102 30.5873 28.8827 30.7975C30.0417 31.2226 31.2403 31.5695 32.3672 32.1063C33.2118 32.508 34.0571 32.7509 34.7544 33.0034C34.7247 33.5517 33.8813 33.1936 33.5889 33.1534C33.1967 33.0995 32.7869 32.8534 32.3402 32.5863C32.1758 32.4874 31.8564 32.4593 31.6748 32.3978C31.5975 32.3713 31.4476 32.2857 31.3939 32.268C30.9131 32.1063 31.6186 32.5708 31.7269 32.617C32.2318 32.8326 32.8505 32.9796 33.2973 33.1243C34.2074 33.4179 35.0253 33.5723 35.7594 33.816C35.8841 33.8574 35.9847 34.0463 36.0955 34.0802C35.9354 34.4896 35.3404 34.1371 35.0771 34.058C34.8472 33.9888 34.6029 34.0304 34.3643 33.9599C33.9488 33.8398 33.5085 33.6801 33.0489 33.5455C32.8843 33.4966 32.7064 33.4219 32.6937 33.6656C32.9926 33.7479 33.3511 33.8039 33.5995 33.9193C34.142 34.1686 34.6599 34.255 35.1392 34.2425C35.3809 34.2365 35.6639 34.3142 35.8911 34.3808L36.0019 34.3608C35.981 34.8048 35.5138 34.8304 35.2688 34.7672C34.855 34.663 34.4432 34.5766 33.9831 34.5284C33.6234 34.4902 33.2648 34.5766 32.8693 34.3774L32.1758 34.2502C31.5979 34.1123 30.1521 34.0463 29.4342 33.884C29.006 33.7871 29.6712 33.4855 29.2516 33.3821C29.4403 33.2261 30.3545 33.5751 30.5784 33.5723C31.0737 33.5654 31.6965 33.6539 32.1545 33.7758C32.1565 33.7013 32.2633 33.6736 32.3093 33.6874C32.3794 33.6173 31.1996 33.3688 31.0009 33.365C29.5123 33.331 27.6634 32.4987 25.5713 31.9367C25.2373 31.847 22.488 30.9949 22.4514 31.5037C22.5638 31.5321 23.1429 31.4607 23.2595 31.5053C23.8764 31.7453 24.5816 31.8204 25.1654 32.0312C26.1509 32.3899 27.0245 32.572 27.8828 32.7943C28.1435 32.8615 29.5229 33.3088 29.0326 33.7183C28.0511 33.4936 26.8327 33.2687 25.4817 32.9725C23.9549 32.6386 22.2391 32.2153 20.5007 31.6066C19.8793 31.3876 19.196 31.2226 18.4697 31.0783C18.6022 30.5476 18.748 30.0211 18.9074 29.5016L18.9768 29.5307C19.858 29.9066 21.6462 30.4767 22.506 30.6612L26.8721 31.6696C26.0816 31.436 24.133 30.8282 21.8437 30.1137C20.9328 29.8301 19.9554 29.5246 18.9931 29.2263C19.1465 28.7418 19.3135 28.2629 19.4918 27.7887ZM20.7915 24.8271C23.0814 25.9766 25.0237 26.9814 26.6928 27.8149C27.9728 28.4551 29.5436 29.2105 30.8966 29.8583C32.0793 30.4244 33.1262 30.9198 33.8112 31.2543C33.8862 31.2905 33.5192 31.348 33.3039 31.2446C32.7231 30.9697 32.0343 30.6834 31.3311 30.3538C31.1808 30.6947 31.8132 30.7397 32.0022 30.8274C33.0924 31.331 34.0596 31.777 34.9157 32.1727C34.9814 32.0251 34.4644 31.7948 34.4099 31.7693C34.2042 31.6716 33.6558 31.1936 34.3244 31.5192C34.7178 31.7112 35.0713 31.9595 35.415 32.126C35.6659 32.2464 36.7462 32.3081 36.51 32.851C36.4348 33.0236 36.3663 33.1389 36.3012 33.286C36.1293 33.2136 35.8935 33.2342 35.7232 33.1296C35.2284 32.8278 34.3536 32.7412 34.8789 32.9685L34.5955 32.9495C33.6838 32.5843 32.5301 32.2948 32.6784 32.4131C32.7458 32.4662 33.4394 32.6943 33.9195 32.8803C34.2444 33.0066 34.6746 33.3125 35.0513 33.068C35.0807 33.05 35.0807 32.9552 35.1519 32.9848C35.4159 33.0951 35.6504 33.2527 35.8984 33.3533C36.0291 33.4072 36.3012 33.4512 36.179 33.7287C35.9984 34.139 34.9315 33.5224 34.7145 33.4417C34.5421 33.3773 34.2882 33.093 34.1031 33.0359C33.0485 32.7123 32.0347 32.2732 30.6954 31.7705C30.3353 31.6363 29.1727 31.2868 28.7703 31.0167C28.293 30.6955 32.0805 32.2878 32.1097 32.2728C32.1972 32.2258 32.6522 32.4244 32.4567 32.2922C31.9848 31.9724 31.5352 31.5683 30.9336 31.322C29.8141 30.8639 26.912 29.1691 25.2114 28.4349C25.3889 28.0497 29.5522 30.1658 29.7955 30.3871C30.221 30.7767 31.0876 31.091 31.5323 31.2735C31.7147 30.8603 28.8367 29.5977 28.5707 29.4772C28.2165 29.3187 27.6305 29.2041 27.2516 29.0313C26.8721 28.8595 23.1339 26.8601 22.5499 27.006C22.1187 27.1134 24.227 28.0822 24.278 28.1044C24.927 28.381 25.2443 28.7107 26.7239 29.4007C27.0285 29.5438 27.5702 29.9716 27.8894 30.1012C27.9875 30.1422 29.3452 30.6717 29.162 30.7965C29.1001 30.8387 28.2881 30.743 28.2055 30.7127C27.7669 30.5476 27.4003 30.4884 27.066 30.2229C26.6918 29.9252 25.8438 29.7497 25.3009 29.5386C23.6858 28.9134 21.6325 28.5954 19.5221 27.7096C19.5881 27.5368 19.6528 27.3645 19.7217 27.1934C20.1676 27.4132 20.6029 27.624 21.0346 27.825C21.1832 27.8953 22.4587 28.4402 22.572 28.192C22.2749 28.0742 21.9968 27.669 21.6576 27.5295C21.2053 27.3446 20.4811 27.1181 19.8601 26.858C20.1468 26.1688 20.4567 25.4909 20.7915 24.8271ZM22.7511 21.4895C22.5931 21.7243 22.4383 21.9615 22.2858 22.2007C24.1432 23.237 25.7103 24.3075 27.1373 25.1382C27.4146 25.2995 28.1472 25.6522 28.3472 25.934C28.2625 25.8818 27.7912 25.6498 27.7912 25.6498C26.646 25.3125 25.6299 24.6281 24.3458 23.863C23.7257 23.4925 22.8509 22.7636 22.1815 22.3661C21.729 23.0853 21.3065 23.8236 20.9162 24.5815C21.9664 25.1556 24.3745 26.4775 24.5773 26.0382C24.591 26.0071 22.4694 24.5011 22.1541 24.3338C22.0874 24.2978 22.1782 24.2815 22.1782 24.2815C23.7138 25.1025 25.1873 25.9593 26.4327 26.6216C26.6697 26.7482 27.1559 27.1257 27.3083 27.2903C27.58 27.5798 28.6517 27.8166 28.877 27.8321C28.895 27.4845 25.7175 25.889 24.2307 25.0777C24.0557 24.9814 23.8167 24.8508 23.907 24.6562C23.9508 24.5584 24.4352 24.9343 24.4861 24.9777C24.6366 25.1065 25.854 25.7954 26.0074 25.8793C26.2176 25.9968 29.6125 27.5834 29.3669 28.1218C29.3201 28.2276 28.1973 27.9532 28.0763 27.8854C27.1412 27.3678 25.9978 26.4559 24.7215 26.277C24.59 26.2597 24.6358 26.4648 24.6358 26.4648C26.4906 27.3924 28.1781 28.509 29.6292 28.9134C30.6547 29.2 31.3939 29.8844 32.1807 30.2756C33.4357 30.9012 34.4861 31.5301 35.4361 31.9968C35.6126 32.0839 36.9239 32.3881 37.0846 32.0162C37.1686 31.8244 36.3736 31.666 36.2996 31.6432C35.9383 31.5283 35.6582 31.2889 35.3034 31.0938C34.6857 30.7549 34.014 30.3863 33.2826 29.9845C33.1104 29.89 32.798 29.7023 32.618 29.6022C31.5812 29.0313 30.479 28.3416 29.296 27.4548C29.0823 27.2951 29.5771 27.5656 29.5771 27.5656C31.1323 28.4494 32.453 29.2511 33.5987 29.9286C33.8267 30.0627 34.0629 30.3392 34.2788 30.4593C34.9902 30.8534 35.6755 31.1003 36.2677 31.4336C36.4495 31.5357 37.1921 31.8945 37.3682 31.5771C37.5855 31.1849 36.6172 31.2929 36.4501 31.2487C36.2197 31.1897 36.0201 30.9856 35.8381 30.7896C35.6706 30.6101 35.4439 30.745 35.3842 30.3802C35.3633 30.2619 35.4623 30.3578 35.4817 30.3697C35.8616 30.6005 36.2311 30.8025 36.5785 31.0042C36.6722 31.0589 36.8331 31.001 36.9255 31.0569C37.0791 31.153 37.294 31.1314 37.4475 31.2295L37.6598 30.7541C37.2525 30.4735 36.7809 30.2599 36.3113 29.9427C36.1264 29.8172 35.8267 29.9209 35.622 29.7871C35.386 29.6316 34.8936 29.7931 34.6436 29.6367C34.3463 29.4522 34.0653 29.2008 33.7469 29.001C34.2825 28.7626 34.6387 29.7748 35.0587 29.5664C35.2216 29.4863 34.8517 29.2818 34.8517 29.2818C34.462 29.026 33.9798 28.7157 33.5075 28.5245C32.7503 28.2207 32.0067 27.7459 31.2211 27.1825C30.3562 26.5617 29.428 25.8371 28.3317 25.1249C27.0578 24.2978 25.604 23.3466 23.9778 22.2875C23.5823 22.0299 23.1734 21.7636 22.7511 21.4895ZM25.0936 18.4537C24.7576 18.8364 24.4323 19.2281 24.1162 19.6274C24.9047 20.237 25.7038 20.8542 26.4487 21.4316C28.3378 22.894 29.9452 24.1399 30.6017 24.6337L26.8733 22.1743C26.1342 21.7033 24.664 20.5481 23.9712 19.8896L23.9379 19.8577C23.603 20.2881 23.2789 20.728 22.9675 21.1758C23.5885 21.5589 24.161 21.9453 24.6611 22.3616C26.0698 23.5353 27.5264 24.528 28.8363 25.37C29.9963 26.1157 31.0561 26.7494 31.8958 27.3004C32.499 27.088 31.3677 26.1906 31.1479 26.0374C30.4224 25.5315 29.6699 25.0575 28.8749 24.38C28.4038 23.9807 27.7696 23.6631 27.2776 23.2256C27.1854 23.1433 26.618 23.0084 26.5235 22.9438C26.7386 22.4809 29.0089 24.2312 29.2892 24.4315C31.0477 25.6843 32.4823 27.1053 33.8633 27.6528C34.0477 27.7257 35.0644 28.3679 34.9736 28.4093C34.9356 28.381 34.8253 28.3697 34.7967 28.4381C34.4115 28.1652 33.8594 27.8664 33.3946 27.7015C33.1832 27.6252 32.4518 26.9814 32.2205 27.0619C32.5751 27.3046 31.8451 27.3567 32.2128 27.5955C32.826 27.9958 34.1565 28.5609 34.6477 28.8897L35.2529 29.2503C35.551 29.5735 35.9178 29.6179 36.2405 29.777C36.6554 29.9825 37.0093 30.2066 37.3588 30.4486C37.5661 30.5914 38.0129 30.7297 38.1908 30.3219L38.08 30.3019C37.8902 30.1606 37.6536 29.9894 37.4248 29.9114C36.9723 29.7558 36.5161 29.4956 36.1 29.0735C35.907 28.8801 35.5917 28.7036 35.3416 28.5217C35.439 28.2994 35.579 28.4297 35.7171 28.5326C36.1 28.8193 36.4542 29.1209 36.7999 29.3791C36.9979 29.5271 37.2418 29.5735 37.4324 29.7172C37.6508 29.8824 38.0828 30.4184 38.3781 30.0919C38.2873 30.0209 38.2603 29.8089 38.1579 29.7273C37.5579 29.2452 36.8456 28.8161 36.0988 28.2254C33.156 25.8918 35.0098 27.6349 36.59 28.4811C36.8496 28.6196 37.2831 29.1209 37.505 28.617C36.9439 28.1394 36.2385 27.6183 35.5909 26.9489C34.7276 26.0558 33.7285 25.3145 32.7951 24.5146C32.334 24.119 31.8304 23.7312 31.3147 23.3006C30.479 22.6019 29.5286 22.0649 28.5603 21.2525C27.9256 20.7203 25.7424 18.8897 26.4446 19.479C27.0835 20.0154 27.4142 20.7331 28.0121 21.2216C29.2015 22.1979 30.2686 23.0534 31.2391 23.8212C31.6576 24.1517 34.2377 25.9514 34.1166 26.2219C33.274 25.5315 32.3044 24.7603 31.2109 23.9023C29.9652 22.924 28.5406 21.8192 26.9394 20.5786C26.4476 20.1989 26.3642 19.5634 25.8144 19.0795C25.6085 18.8984 25.3621 18.6858 25.0936 18.4537ZM27.3608 16.1327C26.8114 16.64 26.2804 17.1671 25.77 17.7124C26.2546 18.165 26.841 18.6218 27.1942 18.9466C27.463 19.1956 27.5786 19.6716 27.8154 19.8852C27.6199 20.0778 26.6208 19.1247 26.5059 19.0074C26.1798 18.6757 25.8528 18.3335 25.5191 17.9813C25.3962 18.1163 25.2719 18.2536 25.1507 18.3919C26.8053 19.9443 28.6067 20.9515 29.8897 22.0937C30.3228 22.4789 31.055 22.9374 31.2992 23.3466C31.5176 23.711 31.8597 23.8553 32.2116 24.1622C32.2788 24.2213 33.0098 24.6856 33.083 24.6667C33.2981 24.6136 32.1895 23.5909 32.1118 23.518C31.8597 23.2862 31.5049 22.6965 31.2704 22.4577C30.132 21.2977 29.9513 20.8802 29.443 20.3945C29.4031 20.3564 27.7747 18.7179 28.2165 18.7662C28.815 18.8332 31.6041 22.0021 31.8963 22.2952C32.1895 22.5883 32.6974 22.8984 32.973 23.1709C33.1791 23.376 35.4238 25.5573 35.1063 25.881C34.7552 25.5553 34.0555 24.959 33.795 24.4472C33.6468 24.1551 30.5024 20.7294 30.1989 21.0278C31.2522 22.0392 32.1672 23.3446 33.2419 24.5272C34.0508 25.4191 35.0533 26.1696 35.6952 27.0738C35.8136 27.2424 35.8316 27.2022 36.5703 28.0959C36.6762 28.2239 36.9226 28.4206 37.0668 28.5829C37.195 28.7256 37.1739 28.8942 37.3128 29.0139C37.487 29.1651 38.2658 30.1131 38.5821 29.7911C38.7948 29.5735 38.5554 29.4378 38.4519 29.3415C38.2572 29.1619 38.093 28.9323 37.8845 28.7389L37.7608 28.7819C37.3201 28.8788 37.0273 28.4438 36.7687 28.2134C36.6335 28.0931 36.5024 27.7614 36.3106 27.7188C36.4542 27.5745 37.2952 28.4373 37.3766 28.512L37.6352 28.6275C37.4708 28.4763 37.3621 28.2159 37.1739 28.04C36.9946 27.8717 35.9765 27.0284 36.0119 26.7149L35.8054 26.4206C36.429 27.0446 36.9592 27.6601 37.4874 28.1608C37.7998 28.4575 38.137 28.7523 38.3677 29.0722C38.4832 29.2343 38.7181 29.2915 38.8529 29.4193C38.9657 29.3038 39.0721 29.2202 39.204 29.0856C39.6182 28.6582 38.6282 28.2254 38.4376 28.0257C38.1744 27.7509 37.9313 27.3956 37.632 27.0795C37.123 26.5419 37.4651 27.1796 37.6219 27.3425C37.6647 27.3855 38.0671 27.7808 37.9518 27.8961C37.2923 27.2295 36.5448 26.4753 35.7038 25.6256C35.5586 25.4776 34.9826 25.2156 35.2447 24.9489C35.7847 25.5026 36.328 26.0091 36.7748 26.468C36.9402 26.6384 37.303 26.7137 37.2459 26.6529C36.7239 26.1014 35.9203 25.2751 35.0147 24.3346C33.979 23.2582 32.7775 22.0057 31.8065 20.9632C30.5443 19.6066 29.0888 17.997 27.3608 16.1327ZM30.3756 13.6815C30.1435 13.846 29.9151 14.0144 29.6877 14.1866C31.055 15.7988 32.1377 17.3395 33.1759 18.6101C33.3775 18.859 33.9387 19.4425 34.0254 19.7766C33.9643 19.6974 33.6069 19.3163 33.6069 19.3163C32.6538 18.6032 31.9468 17.6098 31.0166 16.447C30.5702 15.8892 30.0149 14.9107 29.5319 14.3051C28.8531 14.8257 28.1961 15.373 27.5641 15.9455C28.3501 16.8562 30.1151 18.9032 30.4584 18.5647C30.4831 18.5399 29.0326 16.3935 28.7972 16.1272L28.8387 16.0878C29.9846 17.3883 31.0571 18.7026 31.9883 19.754C32.1651 19.955 32.4858 20.4777 32.5708 20.6836C32.7201 21.0504 33.6402 21.6431 33.8447 21.7364C33.9856 21.4174 31.5807 18.8209 30.4762 17.5446C30.3467 17.3942 30.1697 17.1885 30.323 17.0381C30.4001 16.962 30.7183 17.4818 30.7508 17.5398C30.8465 17.7124 31.7409 18.7795 31.8539 18.9121C32.0095 19.0954 34.6229 21.7588 34.2013 22.1783C34.1195 22.2607 33.1666 21.6137 33.0769 21.5089C32.3851 20.6985 31.6398 19.4485 30.5085 18.8388C30.3915 18.7763 30.3615 18.984 30.3615 18.984C31.7685 20.4959 32.9499 22.127 34.1647 23.0104C35.0233 23.6332 35.4709 24.5316 36.0673 25.1714C37.02 26.1927 37.7796 27.1451 38.5036 27.9114C38.638 28.055 39.7558 28.7945 40.04 28.5029C40.1858 28.3525 39.498 27.9276 39.4371 27.8805C39.1402 27.649 38.9623 27.3268 38.6999 27.0203C38.2425 26.4896 37.7452 25.9108 37.2032 25.2808C37.0754 25.1318 36.8505 24.8479 36.7169 24.6923C35.9493 23.7974 35.1642 22.7704 34.372 21.5285C34.2295 21.306 34.5947 21.7293 34.5947 21.7293C35.7375 23.0977 36.6873 24.3061 37.5195 25.3397C37.6841 25.5432 37.8076 25.8838 37.9671 26.0707C38.4926 26.6866 39.0469 27.156 39.482 27.673C39.6154 27.8321 40.1836 28.4256 40.4602 28.1896C40.8034 27.8983 39.8589 27.6625 39.7176 27.5636C39.5229 27.4269 39.4097 27.1681 39.3086 26.921C39.2162 26.6955 38.9561 26.7434 39.0289 26.3804C39.0526 26.2629 39.1103 26.3877 39.1246 26.4048C39.399 26.7523 39.6724 27.0698 39.9257 27.3795C39.9932 27.4627 40.166 27.4643 40.2314 27.5501C40.341 27.6924 40.5492 27.7465 40.659 27.8931L41.0285 27.5194C40.7447 27.116 40.3807 26.7539 40.0535 26.2926C39.9257 26.1117 39.6076 26.104 39.463 25.9072C39.2982 25.6811 38.7805 25.6601 38.6014 25.4281C38.3879 25.1516 38.2157 24.8183 37.9888 24.5211C38.574 24.4842 38.5476 25.5553 39.0154 25.5059C39.196 25.4873 38.923 25.1681 38.923 25.1681C38.6484 24.7932 38.3082 24.3346 37.9325 23.9916C37.3326 23.4451 36.8057 22.7415 36.2718 21.9413C35.6821 21.0607 35.0723 20.0604 34.299 19.0127C33.4012 17.7967 32.379 16.4008 31.2325 14.8447C30.9559 14.4696 30.6694 14.082 30.3756 13.6815ZM33.6418 11.6425C33.191 11.8858 32.7483 12.1399 32.3113 12.4048C32.8325 13.2488 33.3603 14.1034 33.851 14.9022C35.0989 16.9271 36.1593 18.6507 36.5992 19.3407L33.9852 15.7437C33.4603 15.0474 32.4945 13.4548 32.0813 12.599L32.0621 12.5592C31.5949 12.8485 31.1377 13.1479 30.688 13.4612C31.1303 14.0321 31.5274 14.5905 31.8457 15.1513C32.7483 16.7409 33.757 18.1751 34.6836 19.4176C35.5042 20.5189 36.2706 21.4798 36.8603 22.2871C37.5017 22.2972 36.7621 21.0658 36.6106 20.8449C36.1121 20.1183 35.5762 19.4136 35.0723 18.5035C34.7744 17.9659 34.2939 17.4501 33.9884 16.8683C33.931 16.7605 33.448 16.4369 33.3824 16.342C33.748 15.9845 35.2509 18.4111 35.4418 18.6957C36.6417 20.4791 37.4794 22.3081 38.5777 23.2995C38.7243 23.4316 39.4465 24.3856 39.3467 24.3925C39.1784 24.1319 38.4368 23.4467 38.1202 23.1822C37.9497 23.0391 37.4943 22.1809 37.2492 22.1769C37.4956 22.5259 36.7938 22.3216 37.0521 22.6727C37.4833 23.261 38.528 24.2504 38.8717 24.7298L39.3095 25.2767C39.4732 25.6831 39.8006 25.8517 40.0458 26.1129C40.3619 26.4494 40.614 26.7821 40.8547 27.1302C40.9976 27.3365 41.3657 27.6207 41.6781 27.2991L41.5808 27.2432C41.4544 27.0446 41.2943 26.8025 41.107 26.6501C40.7385 26.3475 40.405 25.9458 40.1648 25.4057C40.0535 25.1576 39.8206 24.8829 39.6515 24.6257C39.8227 24.4519 39.9065 24.6224 39.9989 24.7664C40.2556 25.1673 40.4797 25.5737 40.7117 25.934C40.8453 26.1416 41.0563 26.2698 41.1829 26.4708C41.3282 26.7012 41.5425 27.3534 41.9359 27.15C41.8756 27.051 41.9253 26.8435 41.8584 26.7321C41.4687 26.0723 40.9547 25.4241 40.4658 24.6099C38.5419 21.4037 39.8403 23.6936 41.0183 25.0329C41.2117 25.2537 41.255 25.8612 41.6435 25.4659C40.8107 23.9661 39.7123 22.4638 39.051 20.8827C38.9144 20.5566 38.8512 20.2776 38.695 19.9906C38.4034 19.4598 38.0712 18.9226 37.7403 18.34C37.2077 17.3974 36.5088 16.5639 35.8911 15.4671C35.4866 14.749 34.0948 12.277 34.5421 13.0728C34.9491 13.7961 35.0045 14.5824 35.3893 15.2488C36.1563 16.5744 36.8496 17.7453 37.4849 18.8025C38.0564 19.7511 38.5895 20.6129 39.0721 21.4011C40.2343 23.3092 37.5661 19.0918 37.4297 18.8679C36.6118 17.5194 35.6706 15.9905 34.6135 14.2738C34.2902 13.7487 34.4385 13.1231 34.0948 12.4789C33.9668 12.2384 33.8103 11.9522 33.6418 11.6425ZM36.5887 10.2481C35.8923 10.5336 35.2073 10.8453 34.5374 11.1786C34.8309 11.7733 35.2192 12.406 35.4337 12.8344C35.597 13.1604 35.5355 13.6463 35.6805 13.928C35.43 14.041 34.8333 12.8013 34.7675 12.6529C34.581 12.2279 34.3957 11.7921 34.2082 11.3445C34.0436 11.4293 33.8797 11.5147 33.7163 11.6023C34.7133 13.6312 36.0414 15.2006 36.8363 16.7155C37.1046 17.2262 37.6258 17.9098 37.7095 18.3786C37.7843 18.7954 37.8618 19.2305 38.0828 19.6387C38.1239 19.7174 38.8339 20.2245 38.9091 20.2334C39.1312 20.2586 38.457 18.9149 38.41 18.8209C38.2572 18.5164 38.1341 17.841 38.0002 17.5357C37.3469 16.0554 37.3275 15.6013 37.0232 14.97C36.9991 14.921 36.0585 12.8207 36.4552 13.0205C36.992 13.291 38.4725 17.225 38.6429 17.6009C38.8138 17.9776 39.2269 18.4264 39.3395 18.7948C40.093 21.2751 39.7885 20.7331 39.6544 20.2748C39.5628 19.9607 37.8968 15.6512 37.505 15.8258C37.8845 16.621 38.5866 18.4016 39.1013 20.0392C39.9681 22.8033 39.3804 21.1223 39.2888 20.9269C39.1234 20.5708 39.0573 20.4902 38.684 20.235C38.684 20.235 38.5206 19.9229 38.4636 20.0826C38.3773 20.3222 39.3446 21.4186 39.9834 22.6543C40.5627 23.7758 41.0823 24.9658 41.2256 25.2059C41.3241 25.3712 41.2346 25.61 41.3217 25.7709C41.4313 25.9726 41.8227 27.131 42.2322 26.9392C42.5097 26.8098 42.3345 26.5986 42.2711 26.4729C42.1525 26.2369 42.0813 25.9653 41.9549 25.712C41.9216 25.6425 41.858 25.7136 41.8227 25.709C41.3779 25.6478 41.2577 25.1382 41.097 24.8324C40.4705 23.6417 41.2477 24.7117 41.5595 25.3238L41.7619 25.521C41.6605 25.3222 41.6519 25.0413 41.5388 24.8114C40.3337 22.3669 40.5968 22.5738 41.7893 25.0327C41.977 25.4193 42.1872 25.8125 42.2884 26.1918C42.3385 26.3832 42.5381 26.5191 42.6197 26.6852C42.7659 26.616 42.8957 26.5742 43.0659 26.4937C43.6069 26.2381 42.8346 25.4893 42.726 25.2359C42.5786 24.8871 42.4774 24.4696 42.3085 24.0695C42.0239 23.391 42.1167 24.1068 42.2062 24.3136C42.2312 24.3687 42.4661 24.8786 42.3179 24.9465C41.9032 24.0164 40.5402 21.3841 40.8334 21.2472C41.1422 21.9526 41.4708 22.617 41.7241 23.2006C41.8186 23.4178 42.132 23.6133 42.1003 23.5375C41.8067 22.8405 41.3501 21.7869 40.8371 20.5919C40.2494 19.2252 39.5718 17.6354 39.0342 16.3228C38.3341 14.6123 37.5432 12.597 36.5887 10.2481ZM40.2842 8.99931C40.4189 9.47938 40.5492 9.9445 40.6749 10.3961C41.1935 12.2506 41.6536 13.9118 42.0617 15.3633C42.4124 16.6109 42.6273 17.7602 42.8649 18.7884C43.081 19.7239 43.3245 20.5643 43.6907 21.2844C43.9199 21.7364 44.0756 22.2835 44.1984 22.7294C44.1984 22.7294 44.3403 23.1235 44.1651 23.0777C43.7089 22.961 44.115 21.9675 43.5541 21.7994C43.6605 22.1565 43.7034 22.5284 43.805 22.8607C43.8899 23.1413 44.3671 23.3407 44.442 23.6084C44.5056 23.8436 44.8004 23.9605 44.8566 24.1749C44.9988 24.7193 45.211 25.1861 45.3314 25.6615C45.3474 25.7241 44.8726 25.9466 44.8546 25.883C44.8025 25.7079 44.6266 25.585 44.5757 25.4134C44.5442 25.31 44.3841 25.2489 44.3495 25.1467C44.223 24.77 44.0796 24.3772 43.9469 23.9571C43.94 23.9361 43.9298 23.7994 43.8658 23.9011C43.6678 24.2155 43.9289 24.2613 43.9351 24.5045C43.942 24.7704 43.9557 25.0526 44.0903 25.2473C44.186 25.3904 44.9877 25.9389 44.5634 26.0927C44.2181 26.2175 43.8972 25.4637 43.8304 25.2691C43.6061 24.6333 43.2546 24.0013 42.9824 23.242C42.8998 23.0121 42.9051 22.6511 42.824 22.4022C42.4124 21.1473 41.9529 19.6857 41.3714 18.0095C41.3714 18.0095 41.1796 17.4846 41.2342 17.7432C41.5327 19.1792 41.9028 20.4143 42.3024 21.518C42.3725 21.7106 42.4825 22.0548 42.5487 22.2377C42.8317 23.0153 43.0908 23.7295 43.3294 24.3864C43.4662 24.7635 43.5175 25.1265 43.7138 25.4467C43.7541 25.5131 44.2459 26.1496 44.0567 26.2381C43.6879 26.4137 42.9031 25.3329 42.8289 25.152C42.2633 23.7994 41.6589 22.0657 41.0579 20.5726C40.84 20.0319 40.7993 19.4927 40.5122 19.0581C39.6896 17.8097 39.1645 15.872 38.3863 13.9689C38.3863 13.9689 38.4889 13.7848 38.5748 13.8833C39.417 14.8475 39.6704 16.2758 40.0282 17.2741C40.0748 17.4031 40.7373 18.34 40.8428 18.2913C41.3861 18.0444 39.8894 14.6448 39.8088 14.4193C39.7499 14.256 39.2921 12.946 39.2639 12.7522C39.254 12.6862 39.1414 12.0884 39.0436 12.1327C38.8451 12.2215 38.9373 12.4744 39.006 12.6614C39.5847 14.2386 40.9119 17.5044 40.6668 17.7542C40.5085 17.5961 39.8589 16.722 39.8478 16.3275C39.8417 16.1044 39.7282 15.5044 39.6338 15.2549C39.1373 13.9457 38.6005 12.343 37.9916 10.7278C37.9916 10.7278 37.9127 10.6816 37.9387 10.7516C38.0646 11.0833 38.6574 13.5951 38.6253 13.6086C38.1822 13.8072 37.2553 11.2646 36.8449 10.144C37.6381 9.8268 38.447 9.54054 39.2708 9.2888C39.5103 10.0234 39.6818 11.14 39.9016 11.8214C40.359 13.2315 40.6668 14.4076 41.3053 15.4059C41.3053 15.4059 41.5049 15.8866 41.5327 15.9819C41.5714 15.6393 41.255 14.8978 41.1532 14.5954C40.6343 13.0433 40.1672 11.2204 39.4598 9.23248C39.7333 9.15193 40.0084 9.0732 40.2842 8.99931ZM44.0694 8.23258C44.1187 8.58163 44.1627 8.90402 44.1968 9.17454C44.2886 9.89706 43.9273 10.4306 44.0434 11.0338C44.4217 13.0092 44.7585 14.7664 45.0439 16.3131C45.7872 20.3267 45.9285 20.746 45.1192 16.2699C44.9006 15.0619 44.6681 13.7237 44.4221 12.2158C44.2994 11.4592 44.5285 10.7042 44.4041 9.88536C44.2694 8.98559 44.6922 11.7824 44.8143 12.5954C45.002 13.8355 45.3601 14.86 45.5238 15.9276C46.0303 19.2266 45.825 21.2458 45.7226 20.9719C45.0969 19.3086 45.1811 19.0742 45.8418 22.7436C46.0095 23.6742 46.2597 24.4595 46.39 25.2127C46.4123 25.3401 46.291 25.5172 46.3129 25.6296C45.8727 25.6843 45.9054 25 45.8508 24.7339C45.804 24.5011 45.6516 24.3079 45.6007 24.0667C45.512 23.6494 45.4463 23.1911 45.3486 22.7266C45.3136 22.5597 45.2956 22.3709 45.0738 22.4757C45.1409 22.7744 45.2611 23.1114 45.2768 23.3831C45.3096 23.9722 45.4776 24.4636 45.7154 24.8746C45.8361 25.0827 45.9005 25.3643 45.9481 25.5947L46.0189 25.6811C45.6122 25.8729 45.3691 25.4792 45.3079 25.2372C45.2061 24.8271 45.0887 24.4282 44.9141 24.0049C44.7777 23.6742 44.5309 23.4025 44.5219 22.9658L44.306 22.3008C44.1549 21.7344 43.5302 20.4448 43.336 19.7437C43.2192 19.3262 43.8034 19.7608 43.6973 19.348C43.9249 19.4372 44.0463 20.3977 44.1549 20.5919C44.3949 21.0185 44.6115 21.6017 44.7194 22.0588C44.7869 22.0251 44.8624 22.1042 44.872 22.1513C44.9679 22.1789 44.6307 21.0351 44.5405 20.8611C43.8649 19.5511 43.7326 17.5486 43.2452 15.4614C43.1665 15.1297 42.6246 12.3357 42.1541 12.5445C42.1823 12.6549 42.5199 13.1249 42.5342 13.2468C42.6127 13.8971 42.8796 14.5475 42.9671 15.1534C43.1149 16.1805 43.3646 17.0264 43.573 17.8795C43.637 18.1381 43.8903 19.5482 43.2932 19.3163C43.0293 18.3561 42.6534 17.1905 42.278 15.8753C41.8527 14.3903 41.4178 12.6961 41.1393 10.8958C41.0412 10.2578 40.8673 9.59283 40.6547 8.89918C41.1857 8.76413 41.7233 8.64219 42.2645 8.5352L42.2698 8.58788C42.3504 9.53328 42.688 11.3591 42.9311 12.1926L44.0976 16.4674C43.9326 15.669 43.5531 13.6867 43.1055 11.3574C42.9295 10.4387 42.7409 9.45212 42.5524 8.47968C43.0546 8.3856 43.5603 8.30283 44.0694 8.23258ZM47.3259 7.95681C46.5683 7.98084 45.8171 8.03191 45.0744 8.10984C45.1372 8.76816 45.2752 9.49633 45.3233 9.97236C45.3609 10.3341 45.1304 10.7672 45.1662 11.0821C44.89 11.1005 44.7732 9.73233 44.765 9.57022C44.7403 9.10792 44.7235 8.63533 44.708 8.15122C44.5227 8.17303 44.3387 8.19644 44.1549 8.22047C44.3655 10.4668 45.0505 12.3973 45.255 14.0921C45.3576 14.9436 46.3513 20.2988 45.9782 16.6097C45.9432 16.2699 46.069 15.5971 46.052 15.2644C45.9678 13.6518 46.1107 13.2196 46.052 12.5231C46.0471 12.4684 45.9138 10.1769 46.2139 10.5015C46.62 10.9402 46.6053 15.1374 46.6323 15.548C46.6574 15.9597 46.8327 16.5237 46.8574 16.9073C46.8775 17.1949 47.1124 20.296 46.6574 20.3335C46.6098 19.8605 46.4808 18.9563 46.6258 18.4022C46.709 18.0862 46.6262 13.4636 46.1978 13.4921C46.3481 15.3183 46.2743 18.6386 46.3309 19.8345C46.3456 20.1537 46.2099 20.2431 46.2072 20.1131C46.1917 19.2654 45.981 18.8976 45.7835 18.9109C45.705 18.917 45.659 21.5232 46.0561 23.5428C46.0931 23.7312 46.2056 23.9458 46.2287 24.1266C46.2597 24.3529 46.215 25.5737 46.6664 25.5359C46.9715 25.5111 46.8828 25.2529 46.8681 25.1134C46.8407 24.8508 46.8709 24.5722 46.8431 24.2908C46.8366 24.2142 46.7515 24.2591 46.7219 24.2425C46.3252 24.0301 46.3957 23.5119 46.3538 23.1701C46.1912 21.8369 46.5366 23.1102 46.6118 23.7901L46.7296 24.0463C46.7063 23.825 46.7983 23.5581 46.7752 23.3036C46.7515 23.0599 46.5474 21.7628 46.7822 21.5501L46.8233 21.1948C46.8775 22.0693 46.866 22.8778 46.9296 23.5975C46.9674 24.0245 47.0249 24.4656 46.9846 24.856C46.9633 25.0526 47.1018 25.2489 47.1185 25.4326C47.2809 25.4193 47.4171 25.4245 47.6056 25.4086C48.2035 25.3567 47.7452 24.3885 47.735 24.1139C47.7201 23.735 47.7747 23.31 47.7592 22.8774C47.7338 22.1424 47.5669 22.8449 47.5768 23.0692C47.5802 23.1295 47.6203 23.6879 47.4553 23.7005C47.404 22.7684 47.3443 21.7166 47.2778 20.5298C47.2664 20.3247 47.0077 19.7532 47.3831 19.7227C47.4212 20.4898 47.4919 21.2244 47.5213 21.8601C47.5328 22.0961 47.7567 22.3877 47.7538 22.3057C47.7268 21.5515 47.6743 20.4066 47.6203 19.11C47.5567 17.628 47.4878 15.9033 47.452 14.4868C47.406 12.6444 47.3831 10.4849 47.3259 7.95681ZM48.2303 10.5291C48.1427 11.1945 48.0536 11.805 48.0356 11.8058C47.5514 11.8371 47.5884 9.14204 47.6023 7.94732C47.8113 7.94349 48.0207 7.94107 48.2303 7.93945V10.5291ZM48.2303 15.4992V14.7195L48.2125 14.7744C48.1571 14.9331 48.1796 15.2143 48.2303 15.4992ZM48.2303 25.1709C48.0137 24.7858 47.8643 24.1975 47.8602 24.0709C47.8277 23.023 47.8902 21.8111 47.854 20.4238C47.8307 19.5543 47.836 18.5619 47.7657 17.5616C47.6594 16.0751 47.7346 14.1109 47.6837 12.0588C47.6837 12.0588 47.8454 11.9223 47.891 12.0446C48.3358 13.2383 48.0646 14.6638 48.0446 15.7229C48.043 15.7996 48.1313 16.1763 48.2303 16.4944V25.1709Z" fill="#0096D1"/>
<path d="M47.959 75.8231V0.332031H48.7059V75.8231H47.959Z" fill="#373435"/>
<path fill-rule="evenodd" clip-rule="evenodd" d="M48.3313 25.1641C48.4578 25.1641 48.583 25.1657 48.7071 25.1705V51.4183C48.583 51.4213 48.4576 51.4237 48.3313 51.4237C41.0072 51.4237 35.0337 45.5253 35.0337 38.2936C35.0337 31.0629 41.0072 25.1641 48.3313 25.1641Z" fill="#373435"/>
<path fill-rule="evenodd" clip-rule="evenodd" d="M35.064 37.9258H48.6766V38.6628H35.064V37.9258Z" fill="#FEFEFE"/>
<path d="M161.723 18.2532C161.723 18.2532 157.143 28.0928 156.819 28.788C156.497 28.0928 151.939 18.2532 151.939 18.2532H142.331V35.2639H147.766C147.766 35.2639 147.644 23.1877 147.64 22.8195H148.238C148.342 23.0226 154.579 35.2639 154.579 35.2639H159.084C159.084 35.2639 165.321 23.0226 165.423 22.8195H165.973C165.969 23.1877 165.846 35.2639 165.846 35.2639H171.281V18.2532H161.723ZM134.905 26.0976L134.854 27.8097C134.779 29.3791 134.65 29.7671 134.3 30.1329C133.797 30.6746 132.725 30.8225 129.31 30.8225C124.785 30.8225 124.078 30.5151 123.839 29.3759C123.716 28.7244 123.716 28.7244 123.667 26.1267L123.665 18.2532H118.156V26.0976L118.208 29.3488C118.339 31.8747 118.641 32.911 119.499 33.7859C120.81 35.1577 122.838 35.5136 129.361 35.5136C133.239 35.5136 134.979 35.4151 136.521 35.111C138.544 34.6905 139.869 33.3153 140.158 31.3367C140.315 30.1245 140.339 29.8271 140.413 26.1008V18.2532H134.905V26.0976ZM78.9023 35.2639H84.4125V29.5029H96.4613V25.3113H84.4125V22.5449H104.187V35.2639H109.949V22.5449H117.453V18.2532H78.9023V35.2639ZM71.0701 30.264C70.4446 30.7444 69.6644 30.8225 65.5039 30.8225C61.3206 30.8225 60.5411 30.7444 59.9392 30.2658C59.3949 29.839 59.2538 29.2029 59.2538 27.17C59.2538 25.0993 59.3542 24.1749 59.6366 23.6413C60.0774 22.8136 60.4602 22.6941 65.3015 22.6941C70.279 22.6941 70.6804 22.7797 71.194 23.3769C71.6183 23.8878 71.7547 24.8288 71.7547 27.2449C71.7547 29.1534 71.5956 29.8584 71.0701 30.264ZM75.5213 19.1895L75.5203 19.1883C74.1808 18.2026 72.5217 18.0039 65.6567 18.0039C58.3424 18.0039 56.8222 18.1812 55.4863 19.1895C54.1352 20.2359 53.7446 21.9357 53.7446 26.7705C53.7446 31.6127 54.1352 33.3069 55.4863 34.3276C56.8222 35.3359 58.3201 35.5136 65.5039 35.5136C72.6873 35.5136 74.1865 35.3359 75.5213 34.3276C76.8735 33.3069 77.2649 31.6117 77.2649 26.7705C77.2649 21.9104 76.8735 20.21 75.5213 19.1895Z" fill="#373435"/>
<path d="M61.641 49.2379H65.1819V48.347H62.5853V46.9849H64.9877V46.094H62.5853V44.8719H65.168V43.981H61.641V49.2379ZM67.744 48.1409L69.3407 43.981H68.4034L67.4107 46.6462L66.4595 43.981H65.4737L66.8899 47.8978C66.7232 48.2366 66.6331 48.325 66.4525 48.325C66.4664 48.325 66.3762 48.3028 66.3276 48.2808C66.2928 48.266 66.043 48.1776 66.0082 48.1703V49.1864C66.2096 49.2674 66.4803 49.3188 66.6053 49.3188C67.1121 49.3188 67.4176 48.9066 67.744 48.1409ZM69.7713 49.2379H70.7084V47.228H71.9651C72.9859 47.228 73.5482 46.6242 73.5482 45.6081C73.5482 44.5848 72.9859 43.981 71.9651 43.981H69.7713V49.2379ZM70.7084 44.8719H71.757C72.3401 44.8719 72.6039 45.1297 72.6039 45.6081C72.6039 46.072 72.3471 46.3371 71.7778 46.3371H70.7084V44.8719ZM74.0203 46.6094C74.0203 48.0305 74.8188 49.3558 76.4016 49.3558C77.9846 49.3558 78.7831 48.0305 78.7831 46.6094C78.7831 45.1884 77.9846 43.8633 76.4016 43.8633C74.8188 43.8633 74.0203 45.1884 74.0203 46.6094ZM74.9576 46.6094C74.9576 45.7038 75.388 44.7614 76.4016 44.7614C77.4084 44.7614 77.8389 45.7038 77.8389 46.6094C77.8389 47.5151 77.4084 48.4574 76.4016 48.4574C75.388 48.4574 74.9576 47.5151 74.9576 46.6094ZM79.5468 49.2379H80.4911V44.8719H82.6086V49.2379H83.5459V43.981H79.5468V49.2379ZM84.1291 49.2379H85.1081C85.2678 48.774 85.469 48.2366 85.6287 47.7581H87.3714L87.8714 49.2379H88.8989L86.9688 43.9295H86.0663L84.1291 49.2379ZM86.4967 45.2106C86.7188 45.8879 86.8646 46.2854 87.059 46.8672H85.9411L86.4967 45.2106ZM88.9336 49.1864C89.135 49.2674 89.4058 49.3188 89.5307 49.3188C90.2596 49.3188 90.8152 48.6563 90.8569 44.8719H92.2453V49.2379H93.1896V43.981H89.9196C89.864 46.477 89.8223 48.3617 89.3362 48.3617C89.3017 48.3617 89.1003 48.347 88.9336 48.288V49.1864ZM98.501 49.2379H99.4383V43.981H98.501V49.2379ZM95.1474 46.094V43.981H94.2033V49.2379H96.5985C97.0776 49.2379 97.4665 49.076 97.7581 48.752C98.0358 48.4502 98.1607 48.0894 98.1607 47.655C98.1607 47.228 98.0288 46.8745 97.7718 46.6094C97.4457 46.2707 96.9249 46.094 96.2098 46.094H95.1474ZM95.1474 48.347V46.9849H96.3834C96.9457 46.9849 97.2234 47.2058 97.2234 47.6329C97.2234 47.8538 97.1611 48.0304 97.0429 48.1481C96.9179 48.2733 96.7513 48.347 96.5223 48.347H95.1474ZM103.132 49.2379H103.292V50.6H104.187V48.347H103.708C103.201 47.6182 102.729 46.9777 102.229 46.2561L104.236 43.981H103L101.209 46.0498V43.981H100.264V49.2379H101.209V47.4119L101.57 46.9997L103.132 49.2379ZM53.0249 56.7007C53.2263 56.7817 53.497 56.8331 53.6222 56.8331C54.3511 56.8331 54.9065 56.1706 54.9482 52.3862H56.3368V56.7522H57.281V51.4953H54.0109C53.9553 53.9911 53.9138 55.876 53.4277 55.876C53.393 55.876 53.1915 55.8613 53.0249 55.8024V56.7007ZM57.8642 56.7522H58.8432C59.0029 56.2883 59.2041 55.7509 59.3638 55.2722H61.1065L61.6065 56.7522H62.634L60.7039 51.4438H59.8012L57.8642 56.7522ZM60.2318 52.7249C60.4539 53.4022 60.5996 53.7997 60.7941 54.3813H59.6762L60.2318 52.7249ZM64.1405 54.3666C65.2028 54.3666 65.7097 54.5654 65.7097 55.125C65.7097 55.4563 65.3625 55.9128 64.7793 55.9128C64.2379 55.9128 63.8142 55.6182 63.5087 55.0072L62.6618 55.4048C63.1478 56.3547 63.8628 56.8406 64.8002 56.8406C65.7929 56.8406 66.6261 56.0379 66.6261 55.0441C66.6261 54.5065 66.3762 54.1017 65.9804 53.8734C66.2859 53.6378 66.4942 53.2991 66.4942 52.8206C66.4942 51.8928 65.8346 51.4216 64.71 51.4143C63.8768 51.4143 63.2241 51.8118 62.745 52.5998L63.5296 53.012C63.8142 52.5186 64.217 52.2535 64.7306 52.2535C65.2445 52.2535 65.5847 52.4304 65.5847 52.7764C65.5847 53.2918 65.0848 53.4537 64.1405 53.4537V54.3666ZM67.3412 56.7522H70.882V55.8613H68.2854V54.4992H70.6878V53.6083H68.2854V52.3862H70.8681V51.4953H67.3412V56.7522ZM71.5903 56.7522H72.5276V54.7421H73.7843C74.8049 54.7421 75.3672 54.1385 75.3672 53.1224C75.3672 52.0991 74.8049 51.4953 73.7843 51.4953H71.5903V56.7522ZM72.5276 52.3862H73.576C74.1591 52.3862 74.4229 52.6438 74.4229 53.1224C74.4229 53.5863 74.1661 53.8514 73.5968 53.8514H72.5276V52.3862ZM75.7074 56.7007C75.9088 56.7817 76.1796 56.8331 76.3045 56.8331C77.0334 56.8331 77.589 56.1706 77.6307 52.3862H79.0193V56.7522H79.9633V51.4953H76.6934C76.6378 53.9911 76.5961 55.876 76.11 55.876C76.0755 55.876 75.8741 55.8613 75.7074 55.8024V56.7007ZM80.9493 56.7522H81.8936V51.4953H80.9493V56.7522ZM85.6496 56.7522H86.8437C86.2121 55.8613 85.3927 54.6833 84.747 53.763L86.7466 51.4953H85.5107L83.7195 53.5641V51.4953H82.7822V56.7522H83.7195V54.9262L84.0804 54.514L85.6496 56.7522ZM94.967 54.1237C94.967 55.5447 95.7655 56.8699 97.3483 56.8699C98.9314 56.8699 99.7299 55.5447 99.7299 54.1237C99.7299 52.7027 98.9314 51.3774 97.3483 51.3774C95.7655 51.3774 94.967 52.7027 94.967 54.1237ZM97.3483 55.9717C96.4597 55.9717 96.0223 55.287 95.9322 54.4992H98.7578C98.6468 55.2575 98.2094 55.9717 97.3483 55.9717ZM97.3483 52.2757C98.1677 52.2757 98.605 52.8941 98.7369 53.6083H95.9528C96.0779 52.8941 96.5223 52.2757 97.3483 52.2757ZM101.584 54.3666C102.646 54.3666 103.153 54.5654 103.153 55.125C103.153 55.4563 102.806 55.9128 102.222 55.9128C101.681 55.9128 101.257 55.6182 100.952 55.0072L100.105 55.4048C100.591 56.3547 101.306 56.8406 102.243 56.8406C103.236 56.8406 104.069 56.0379 104.069 55.0441C104.069 54.5065 103.819 54.1017 103.423 53.8734C103.729 53.6378 103.937 53.2991 103.937 52.8206C103.937 51.8928 103.278 51.4216 102.153 51.4143C101.32 51.4143 100.667 51.8118 100.188 52.5998L100.973 53.012C101.257 52.5186 101.66 52.2535 102.174 52.2535C102.688 52.2535 103.028 52.4304 103.028 52.7764C103.028 53.2918 102.528 53.4537 101.584 53.4537V54.3666ZM93.6063 56.7522H94.8004C94.1686 55.8613 93.3492 54.6833 92.7037 53.763L94.7033 51.4953H93.4672L91.676 53.5641V51.4953H90.7387V56.7522H91.676V54.9262L92.0371 54.514L93.6063 56.7522ZM68.2785 64.2665H69.3685L70.5626 62.3816L71.7153 64.2665H72.8679C72.354 63.4565 71.6597 62.4038 71.1252 61.5718L72.7706 59.0096H71.6805C71.3266 59.5839 70.9446 60.2097 70.5766 60.7914L69.4935 59.0096H68.3688L69.9934 61.5718L68.2785 64.2665ZM73.2635 64.2665H74.3675L76.3253 60.622V64.2665H77.2627V59.0096H76.1587L74.2078 62.6541V59.0096H73.2635V64.2665ZM78.2762 64.2665H79.2135V62.2564H80.4702C81.4908 62.2564 82.0533 61.6528 82.0533 60.6367C82.0533 59.6132 81.4908 59.0096 80.4702 59.0096H78.2762V64.2665ZM79.2135 59.9005H80.2619C80.8452 59.9005 81.109 60.1581 81.109 60.6367C81.109 61.1004 80.8522 61.3655 80.2827 61.3655H79.2135V59.9005ZM84.629 63.1695L86.226 59.0096H85.2887L84.2957 61.6748L83.3445 59.0096H82.3588L83.7752 62.9264C83.6085 63.2652 83.5181 63.3534 83.3376 63.3534C83.3515 63.3534 83.2613 63.3314 83.2126 63.3094C83.1779 63.2946 82.928 63.2062 82.8933 63.1989V64.2148C83.0947 64.296 83.3654 64.3474 83.4903 64.3474C83.9972 64.3474 84.3027 63.9352 84.629 63.1695ZM86.6564 64.2665H87.5937V62.2564H88.8502C89.8709 62.2564 90.4332 61.6528 90.4332 60.6367C90.4332 59.6132 89.8709 59.0096 88.8502 59.0096H86.6564V64.2665ZM87.5937 59.9005H88.642C89.2252 59.9005 89.489 60.1581 89.489 60.6367C89.489 61.1004 89.2322 61.3655 88.6629 61.3655H87.5937V59.9005ZM91.1485 64.2665H92.0856V59.9005H94.5158V59.0096H91.1485V64.2665ZM95.0225 64.2665H96.1264L98.0843 60.622V64.2665H99.0216V59.0096H97.9176L95.9667 62.6541V59.0096H95.0225V64.2665ZM101.139 62.5289C101.153 62.5509 101.181 62.1017 101.674 62.1017H102.84V64.2665H103.784V59.0096H101.938C101.223 59.0096 100.702 59.142 100.376 59.4808C100.119 59.7458 99.9867 60.0991 99.9867 60.5263C99.9867 60.9605 100.112 61.3215 100.389 61.6233C100.445 61.6895 100.507 61.741 100.577 61.7927C100.445 61.9104 100.348 62.1682 100.348 62.1534L99.6534 64.2665H100.695C100.841 63.6849 101.125 62.5067 101.139 62.5289ZM102.84 59.9005V61.1741H101.674C101.445 61.1741 101.229 61.1446 101.105 61.0195C100.987 60.9018 100.924 60.7249 100.924 60.5041C100.924 60.0771 101.202 59.9005 101.764 59.9005H102.84ZM65.2028 69.1523C65.2028 70.5731 66.0012 71.8985 67.5843 71.8985C69.1671 71.8985 69.9656 70.5731 69.9656 69.1523C69.9656 67.7313 69.1671 66.406 67.5843 66.406C66.0012 66.406 65.2028 67.7313 65.2028 69.1523ZM66.1401 69.1523C66.1401 68.2467 66.5705 67.3043 67.5843 67.3043C68.5909 67.3043 69.0213 68.2467 69.0213 69.1523C69.0213 70.058 68.5909 71.0003 67.5843 71.0003C66.5705 71.0003 66.1401 70.058 66.1401 69.1523ZM70.7293 71.7808H71.6666V69.7707H72.9233C73.9438 69.7707 74.5063 69.1671 74.5063 68.151C74.5063 67.1275 73.9438 66.5239 72.9233 66.5239H70.7293V71.7808ZM71.6666 67.4148H72.7149C73.2983 67.4148 73.5621 67.6724 73.5621 68.151C73.5621 68.6147 73.3053 68.8798 72.7358 68.8798H71.6666V67.4148ZM76.3879 71.7808H77.332V67.4148H78.8733V66.5239H74.8466V67.4148H76.3879V71.7808ZM78.422 71.7808H79.401C79.5607 71.3169 79.7621 70.7795 79.9218 70.3008H81.6644L82.1643 71.7808H83.1918L81.2618 66.4722H80.3592L78.422 71.7808ZM80.7896 67.7533C81.0117 68.4308 81.1575 68.8283 81.3519 69.4099H80.2341L80.7896 67.7533ZM83.2265 71.7291C83.428 71.8103 83.6987 71.8617 83.8236 71.8617C84.5526 71.8617 85.1081 71.199 85.1498 67.4148H86.5384V71.7808H87.4825V66.5239H84.2125C84.1569 69.0197 84.1152 70.9046 83.6294 70.9046C83.5946 70.9046 83.3932 70.8899 83.2265 70.831V71.7291ZM92.7939 71.7808H93.7312V66.5239H92.7939V71.7808ZM89.4405 68.6369V66.5239H88.4963V71.7808H90.8915C91.3705 71.7808 91.7595 71.6187 92.051 71.2949C92.3287 70.9929 92.4536 70.6321 92.4536 70.1977C92.4536 69.7707 92.3218 69.4174 92.0649 69.1523C91.7386 68.8136 91.2178 68.6369 90.5028 68.6369H89.4405ZM89.4405 70.8899V69.5278H90.6764C91.2387 69.5278 91.5163 69.7487 91.5163 70.1757C91.5163 70.3965 91.454 70.5732 91.3358 70.691C91.2109 70.8162 91.0442 70.8899 90.8152 70.8899H89.4405ZM94.2103 69.5278H94.8836V71.7808H95.8279V69.5278H97.1469V68.6369H95.8279V67.4148H98.2509V66.5239H94.8836V68.6369H94.2103V69.5278ZM103.028 71.7808H103.965V66.5239H103.028V71.7808ZM99.6742 68.6369V66.5239H98.73V71.7808H101.125C101.604 71.7808 101.993 71.6187 102.285 71.2949C102.562 70.9929 102.688 70.6321 102.688 70.1977C102.688 69.7707 102.555 69.4174 102.299 69.1523C101.972 68.8136 101.452 68.6369 100.736 68.6369H99.6742ZM99.6742 70.8899V69.5278H100.91C101.472 69.5278 101.75 69.7487 101.75 70.1757C101.75 70.3965 101.688 70.5732 101.57 70.691C101.445 70.8162 101.278 70.8899 101.049 70.8899H99.6742Z" fill="#0096D1"/>
<path d="M109.351 49.2537H112.892V48.3629H110.295V47.0008H112.697V46.1099H110.295V44.8877H112.878V43.9968H109.351V49.2537ZM114.544 47.0008H115.787C116.224 47.0008 116.634 47.1479 116.634 47.6486C116.634 48.083 116.356 48.3629 115.926 48.3629H114.544V47.0008ZM113.6 49.2537H116.002C117.03 49.2537 117.571 48.4805 117.571 47.6708C117.571 47.1037 117.349 46.6768 116.905 46.4484C117.21 46.1981 117.377 45.8374 117.377 45.3736C117.377 44.8213 117.106 44.4238 116.752 44.203C116.433 43.9968 115.87 43.9968 115.447 43.9968H113.6V49.2537ZM114.544 44.8877H115.613C116.058 44.8877 116.44 44.9687 116.44 45.4988C116.44 45.9038 116.197 46.1099 115.613 46.1099H114.544V44.8877ZM118.307 49.2537H119.245V47.2436H120.501C121.522 47.2436 122.084 46.64 122.084 45.624C122.084 44.6005 121.522 43.9968 120.501 43.9968H118.307V49.2537ZM119.245 44.8877H120.293C120.876 44.8877 121.14 45.1453 121.14 45.624C121.14 46.0877 120.883 46.3527 120.314 46.3527H119.245V44.8877ZM122.556 46.6253C122.556 48.0463 123.355 49.3714 124.938 49.3714C126.521 49.3714 127.319 48.0463 127.319 46.6253C127.319 45.2043 126.521 43.8789 124.938 43.8789C123.355 43.8789 122.556 45.2043 122.556 46.6253ZM123.494 46.6253C123.494 45.7197 123.924 44.7773 124.938 44.7773C125.945 44.7773 126.375 45.7197 126.375 46.6253C126.375 47.5309 125.945 48.4733 124.938 48.4733C123.924 48.4733 123.494 47.5309 123.494 46.6253ZM128.083 49.2537H129.027V44.8877H131.145V49.2537H132.082V43.9968H128.083V49.2537ZM133.089 49.2537H136.63V48.3629H134.033V47.0008H136.435V46.1099H134.033V44.8877H136.616V43.9968H133.089V49.2537ZM137.338 49.2537H138.442L140.4 45.6165V49.2537H141.337V43.9968H140.233L138.282 47.6413V43.9968H137.338V49.2537ZM139.337 43.9599C140.08 43.9599 140.865 43.8495 140.865 42.6348H139.928C139.928 43.0912 139.587 43.1649 139.337 43.1649C139.094 43.1649 138.754 43.0912 138.754 42.6348H137.817C137.817 43.8495 138.601 43.9599 139.337 43.9599ZM146.579 45.8226C146.405 44.549 145.531 43.8789 144.482 43.8789C142.948 43.8789 142.128 45.1158 142.128 46.64C142.128 48.164 142.878 49.3714 144.427 49.3714C145.697 49.3714 146.482 48.4953 146.614 47.0595H145.669C145.614 47.8695 145.197 48.4733 144.482 48.4733C143.489 48.4733 143.066 47.6191 143.066 46.5883C143.066 45.6535 143.489 44.7773 144.475 44.7773C145.038 44.7773 145.51 45.1233 145.635 45.8226H146.579ZM150.238 49.2537H151.432C150.8 48.3629 149.981 47.1847 149.335 46.2645L151.335 43.9968H150.099L148.308 46.0657V43.9968H147.37V49.2537H148.308V47.4278L148.669 47.0155L150.238 49.2537ZM151.849 49.2537H152.952L154.91 45.6092V49.2537H155.848V43.9968H154.744L152.793 47.6413V43.9968H151.849V49.2537ZM156.861 49.2537H157.965L159.923 45.6165V49.2537H160.86V43.9968H159.756L157.806 47.6413V43.9968H156.861V49.2537ZM158.861 43.9599C159.604 43.9599 160.388 43.8495 160.388 42.6348H159.451C159.451 43.0912 159.111 43.1649 158.861 43.1649C158.618 43.1649 158.278 43.0912 158.278 42.6348H157.34C157.34 43.8495 158.125 43.9599 158.861 43.9599ZM109.365 56.768H112.809V58.1301H113.704V55.8771H113.364V51.5111H112.42V55.8771H110.309V51.5111H109.365V56.768ZM114.329 56.768H117.87V55.8771H115.273V54.5151H117.676V53.6242H115.273V52.402H117.856V51.5111H114.329V56.768ZM118.578 56.768H119.522V54.5151H121.64V56.768H122.577V51.5111H121.64V53.6242H119.522V51.5111H118.578V56.768ZM124.75 56.768H125.695V52.402H127.236V51.5111H123.209V52.402H124.75V56.768ZM127.701 56.768H128.638V54.7579H129.895C130.916 54.7579 131.478 54.1543 131.478 53.1383C131.478 52.1148 130.916 51.5111 129.895 51.5111H127.701V56.768ZM128.638 52.402H129.687C130.27 52.402 130.534 52.6596 130.534 53.1383C130.534 53.602 130.277 53.8671 129.707 53.8671H128.638V52.402ZM135.29 56.7164C135.491 56.7973 135.762 56.849 135.887 56.849C136.616 56.849 137.171 56.1862 137.213 52.402H138.601V56.768H139.546V51.5111H136.276C136.22 54.007 136.178 55.8919 135.692 55.8919C135.658 55.8919 135.456 55.8772 135.29 55.8182V56.7164ZM140.129 56.768H141.108C141.267 56.3041 141.469 55.7667 141.629 55.2881H143.371L143.871 56.768H144.899L142.968 51.4595H142.066L140.129 56.768ZM142.496 52.7406C142.719 53.4179 142.864 53.8156 143.059 54.3972H141.941L142.496 52.7406ZM146.405 54.3824C147.467 54.3824 147.974 54.5813 147.974 55.1409C147.974 55.4722 147.627 55.9286 147.044 55.9286C146.502 55.9286 146.079 55.6341 145.773 55.023L144.926 55.4205C145.412 56.3703 146.128 56.8563 147.065 56.8563C148.058 56.8563 148.891 56.0538 148.891 55.0598C148.891 54.5224 148.641 54.1174 148.245 53.8893C148.551 53.6537 148.759 53.3149 148.759 52.8363C148.759 51.9086 148.099 51.4374 146.975 51.43C146.141 51.43 145.489 51.8277 145.01 52.6154L145.794 53.0279C146.079 52.5345 146.482 52.2694 146.995 52.2694C147.509 52.2694 147.849 52.446 147.849 52.7921C147.849 53.3074 147.35 53.4696 146.405 53.4696V54.3824ZM149.606 56.768H153.147V55.8771H150.55V54.5151H152.952V53.6242H150.55V52.402H153.133V51.5111H149.606V56.768ZM153.855 56.768H154.792V54.7579H156.049C157.07 54.7579 157.632 54.1543 157.632 53.1383C157.632 52.1148 157.07 51.5111 156.049 51.5111H153.855V56.768ZM154.792 52.402H155.841C156.424 52.402 156.688 52.6596 156.688 53.1383C156.688 53.602 156.431 53.8671 155.861 53.8671H154.792V52.402ZM158.354 56.768H159.298V54.5151H161.416V56.768H162.353V51.5111H161.416V53.6242H159.298V51.5111H158.354V56.768ZM163.117 54.1396C163.117 55.5604 163.915 56.8857 165.498 56.8857C167.081 56.8857 167.88 55.5604 167.88 54.1396C167.88 52.7186 167.081 51.3932 165.498 51.3932C163.915 51.3932 163.117 52.7186 163.117 54.1396ZM164.054 54.1396C164.054 53.234 164.484 52.2914 165.498 52.2914C166.505 52.2914 166.935 53.234 166.935 54.1396C166.935 55.045 166.505 55.9876 165.498 55.9876C164.484 55.9876 164.054 55.045 164.054 54.1396ZM168.643 56.768H169.747L171.705 53.1308V56.768H172.642V51.5111H171.538L169.588 55.1556V51.5111H168.643V56.768ZM170.643 51.4742C171.386 51.4742 172.17 51.3638 172.17 50.1491H171.233C171.233 50.6055 170.893 50.679 170.643 50.679C170.4 50.679 170.06 50.6055 170.06 50.1491H169.122C169.122 51.3638 169.907 51.4742 170.643 51.4742ZM108.907 64.2821H109.997L111.191 62.3974L112.343 64.2821H113.496C112.982 63.4724 112.288 62.4194 111.753 61.5875L113.399 59.0252H112.309C111.955 59.5996 111.573 60.2254 111.205 60.807L110.122 59.0252H108.997L110.621 61.5875L108.907 64.2821ZM113.892 64.2821H114.996L116.953 60.6378V64.2821H117.891V59.0252H116.787L114.836 62.6697V59.0252H113.892V64.2821ZM118.905 64.2821H119.842V62.2722H121.098C122.119 62.2722 122.681 61.6684 122.681 60.6524C122.681 59.6291 122.119 59.0252 121.098 59.0252H118.905V64.2821ZM119.842 59.9161H120.89C121.473 59.9161 121.737 60.1739 121.737 60.6524C121.737 61.1163 121.48 61.3813 120.911 61.3813H119.842V59.9161ZM125.257 63.1851L126.854 59.0252H125.917L124.924 61.6906L123.973 59.0252H122.987L124.403 62.9423C124.237 63.2808 124.146 63.3692 123.966 63.3692C123.98 63.3692 123.889 63.3472 123.841 63.325C123.806 63.3103 123.556 63.2221 123.522 63.2146V64.2307C123.723 64.3116 123.993 64.3633 124.119 64.3633C124.625 64.3633 124.931 63.9509 125.257 63.1851ZM127.284 64.2821H128.222V62.2722H129.478C130.499 62.2722 131.062 61.6684 131.062 60.6524C131.062 59.6291 130.499 59.0252 129.478 59.0252H127.284V64.2821ZM128.222 59.9161H129.27C129.853 59.9161 130.117 60.1739 130.117 60.6524C130.117 61.1163 129.86 61.3813 129.291 61.3813H128.222V59.9161ZM131.777 64.2821H132.714V59.9161H135.144V59.0252H131.777V64.2821ZM135.651 64.2821H136.755L138.713 60.6378V64.2821H139.65V59.0252H138.546L136.595 62.6697V59.0252H135.651V64.2821ZM140.663 64.2821H141.767L143.725 60.6378V64.2821H144.663V59.0252H143.559L141.608 62.6697V59.0252H140.663V64.2821ZM109.351 71.7964H110.288V67.4304H112.718V66.5395H109.351V71.7964ZM112.843 71.745C113.045 71.8259 113.315 71.8774 113.44 71.8774C114.169 71.8774 114.725 71.2148 114.766 67.4304H116.155V71.7964H117.099V66.5395H113.829C113.774 69.0356 113.732 70.9203 113.246 70.9203C113.211 70.9203 113.01 70.9056 112.843 70.8468V71.745ZM117.683 71.7964H118.661C118.821 71.3327 119.022 70.7951 119.182 70.3167H120.925L121.425 71.7964H122.452L120.522 66.4881H119.62L117.683 71.7964ZM120.05 67.7692C120.272 68.4465 120.418 68.8442 120.612 69.4258H119.495L120.05 67.7692ZM123.959 69.411C125.021 69.411 125.528 69.6099 125.528 70.1693C125.528 70.5006 125.181 70.9572 124.598 70.9572C124.056 70.9572 123.633 70.6627 123.327 70.0516L122.48 70.4491C122.966 71.3989 123.681 71.8849 124.619 71.8849C125.611 71.8849 126.444 71.0824 126.444 70.0884C126.444 69.551 126.194 69.146 125.799 68.9177C126.104 68.6821 126.312 68.3435 126.312 67.8649C126.312 66.9372 125.653 66.466 124.528 66.4586C123.695 66.4586 123.042 66.8563 122.563 67.644L123.348 68.0562C123.633 67.5631 124.035 67.298 124.549 67.298C125.063 67.298 125.403 67.4746 125.403 67.8207C125.403 68.336 124.903 68.498 123.959 68.498V69.411Z" fill="#373435"/>
</svg>
