<svg width="198" height="82" viewBox="0 0 198 82" fill="none" xmlns="http://www.w3.org/2000/svg">
<path fill-rule="evenodd" clip-rule="evenodd" d="M33.0125 40.9531L33.0107 41.061C33.0107 51.0775 41.2312 59.2462 51.3098 59.2462C51.4886 59.2462 51.668 59.2431 51.8455 59.237V59.959C51.668 59.9644 51.4886 59.9664 51.3098 59.9664C40.8319 59.9664 32.2872 51.4746 32.2872 41.061L32.2876 40.9531H33.0125ZM27.6441 40.9531H28.3208L28.3195 41.061C28.3195 53.645 38.6469 63.9091 51.3098 63.9091C51.4886 63.9091 51.668 63.9082 51.8455 63.9038V64.576C51.668 64.5808 51.4886 64.5825 51.3098 64.5825C38.2737 64.5825 27.6427 54.0163 27.6427 41.061L27.6441 40.9531ZM23.6074 40.9531L23.6056 41.061C23.6056 56.2261 36.0497 68.594 51.3098 68.594C51.4886 68.594 51.668 68.5914 51.8455 68.5874V69.3142C51.668 69.3173 51.4886 69.3216 51.3098 69.3216C35.648 69.3216 22.8744 56.6269 22.8744 41.061L22.8759 40.9531H23.6074ZM18.2376 40.9531L18.2363 41.061C18.2363 59.1658 33.0929 73.931 51.3098 73.931C51.4886 73.931 51.668 73.9275 51.8455 73.9249V73.1357C51.668 73.1375 51.4886 73.1418 51.3098 73.1418C33.5309 73.1418 19.0306 58.7323 19.0306 41.061L19.0311 40.9531H18.2376Z" fill="white"/>
<path fill-rule="evenodd" clip-rule="evenodd" d="M18.418 40.6704C18.6288 22.9037 33.1645 8.45504 51.04 8.24219V26.99C43.6835 27.0884 37.3525 33.4264 37.302 40.6704H18.418Z" fill="#FEFEFE"/>
<path fill-rule="evenodd" clip-rule="evenodd" d="M28.9655 40.9841C28.9956 40.9127 29.2456 40.9184 29.2456 40.9184C29.6805 40.6979 29.7998 40.611 30.2163 40.704C30.627 40.7938 31.2256 40.632 31.5621 40.7149C31.7108 40.7536 32.2103 40.9376 32.5389 40.9841H28.9655ZM35.7921 40.9841C35.9045 40.9455 36.0078 40.8784 36.0884 40.7689C36.1106 40.7381 36.0757 40.6418 36.1582 40.6451C36.4658 40.6571 36.7616 40.7289 37.0494 40.7381C37.1963 40.7425 37.4742 40.6885 37.4755 40.9841H35.7921ZM18.5786 37.7747C18.4982 38.5692 18.447 39.3723 18.425 40.181C19.1521 40.212 19.9717 40.17 20.4997 40.1871C20.8947 40.201 21.3291 40.5075 21.6738 40.5158C21.6538 40.8084 20.1619 40.7355 19.9864 40.7215C19.4741 40.6789 18.9531 40.6289 18.4193 40.5746C18.418 40.7106 18.4149 40.8468 18.4141 40.9841H22.5467C23.3906 40.909 24.1882 40.844 24.9328 40.8551C25.5584 40.8636 26.4788 40.7232 26.9702 40.8841C27.073 40.918 27.1771 40.952 27.2816 40.9841H28.8465C29.089 40.8697 29.3344 40.7398 29.359 40.7056C29.4954 40.5106 27.8653 40.4554 27.7502 40.4527C27.3801 40.4412 26.6719 40.2098 26.3108 40.1807C24.5586 40.0366 24.1124 39.8236 23.3555 39.7854C23.2953 39.7828 20.805 39.592 21.1965 39.3228C21.7285 38.9562 26.2534 39.5767 26.7002 39.6088C27.1468 39.6411 27.7803 39.5376 28.1978 39.564C28.5106 39.5863 31.8892 39.7854 31.8635 40.2711C31.3469 40.2537 30.3542 40.2598 29.777 40.0257C29.4477 39.8928 24.452 39.3132 24.4204 39.7701C26.4107 39.8744 29.978 40.5021 31.2794 40.5462C31.9786 40.5689 32.5985 40.6828 33.1946 40.8293C33.4437 40.8907 32.8915 40.8697 32.8208 40.9507L32.7608 40.9841H34.7513C34.5572 40.9405 34.3041 40.8398 34.1545 40.9215C34.1673 40.7034 35.4652 40.8149 35.5852 40.8184L35.8775 40.7311C35.6355 40.7232 35.3609 40.5872 35.0826 40.5763C34.8179 40.5658 33.3895 40.5944 33.194 40.315L32.8164 40.2194C33.7662 40.2892 34.6371 40.4185 35.4224 40.4541C35.8887 40.4763 36.3718 40.479 36.7876 40.5785C36.9962 40.6281 37.2284 40.5097 37.4283 40.5185C37.4371 40.3462 37.4626 40.2023 37.472 40.0002C37.5023 39.3623 36.3915 39.7053 36.0941 39.6767C35.6836 39.638 35.233 39.5193 34.7636 39.4723C33.9683 39.3935 34.7015 39.671 34.9464 39.6937C35.0121 39.6994 35.619 39.7376 35.6089 39.9131C34.5965 39.8323 33.4525 39.7441 32.1635 39.6441C31.9417 39.6258 31.2882 39.8179 31.3091 39.4153C32.142 39.4863 32.9449 39.5175 33.6339 39.5784C33.8894 39.6 34.2365 39.4044 34.1477 39.3966C33.3304 39.3149 32.0884 39.2062 30.6826 39.0765C29.0741 38.9294 27.2046 38.7536 25.6733 38.5871C23.6716 38.3683 21.3287 38.0802 18.5786 37.7747ZM19.2633 33.6568C19.801 33.7781 20.322 33.896 20.8285 34.0098C22.8685 34.4706 24.6947 34.8893 26.293 35.2476C27.6678 35.5578 28.8768 35.9429 29.9845 36.247C30.9904 36.5212 31.9208 36.7234 32.797 36.7469C33.3471 36.7627 33.9498 36.8969 34.4394 37.0096C34.4394 37.0096 34.8897 37.0779 34.7579 37.2191C34.4139 37.5883 33.6675 36.6978 33.221 37.139C33.6175 37.2218 33.9957 37.3713 34.3658 37.4466C34.6773 37.5108 35.1103 37.1635 35.4068 37.2314C35.6649 37.2894 35.9256 37.0727 36.16 37.1307C36.7546 37.2757 37.3095 37.3148 37.8274 37.4449C37.8951 37.4617 37.8663 38.0223 37.7962 38.0066C37.6021 37.9649 37.3956 38.0671 37.2043 38.0286C37.0903 38.0053 36.9501 38.124 36.8344 38.1053C36.4082 38.0299 35.9597 37.9649 35.4889 37.8734C35.4652 37.8697 35.3284 37.8105 35.3941 37.9214C35.5948 38.2683 35.7708 38.0465 36.0078 38.1657C36.2672 38.2956 36.5446 38.4271 36.7988 38.4009C36.9844 38.3819 37.9166 37.9105 37.8487 38.3893C37.7932 38.7753 36.9082 38.6914 36.6863 38.6561C35.9632 38.5397 35.1797 38.5482 34.3138 38.417C34.0508 38.3757 33.7071 38.1849 33.4279 38.1336C32.0148 37.8787 30.3804 37.5628 28.4781 37.2525C28.4781 37.2525 27.8778 37.1635 28.1526 37.2447C29.6825 37.6983 31.0541 37.9839 32.3162 38.1723C32.5345 38.2057 32.92 38.2779 33.1309 38.3096C34.0203 38.441 34.8361 38.5626 35.586 38.6744C36.0174 38.7397 36.3928 38.8752 36.7983 38.8554C36.8814 38.8519 37.7413 38.7148 37.7314 38.9388C37.7114 39.3754 36.2769 39.5592 36.0664 39.538C34.9323 39.4223 33.6348 39.1804 32.1326 39.0193C31.192 38.9176 30.1879 38.5008 29.0464 38.5962C27.4317 38.7323 25.308 38.2345 23.0877 37.9917C23.0877 37.9917 22.9636 37.8005 23.1027 37.7697C24.4538 37.4713 25.9525 37.9649 27.0905 38.1398C27.2388 38.1605 28.472 38.0179 28.4803 37.8939C28.5201 37.256 24.5001 36.9233 24.2429 36.8843C24.0564 36.8552 22.5689 36.616 22.3677 36.543C22.2996 36.5186 21.6698 36.3182 21.6635 36.4343C21.6459 36.6649 21.9367 36.707 22.1498 36.7382C23.9554 37.0026 27.7603 37.4257 27.8758 37.7839C27.6443 37.8527 26.4744 38.0158 26.0918 37.8236C25.8743 37.7143 25.2417 37.5156 24.9546 37.4765C23.448 37.2739 21.6389 36.9578 19.7812 36.7031C19.7812 36.7031 19.6955 36.7548 19.7762 36.7653C20.1584 36.817 22.8674 37.5449 22.8652 37.5822C22.8292 38.1053 19.8792 37.6647 18.6111 37.4787C18.7126 36.5616 18.8525 35.6534 19.0284 34.7595C19.8557 34.9072 21.0282 35.3233 21.8007 35.4659C23.3849 35.7595 24.669 36.0713 25.9499 35.9811C25.9499 35.9811 26.5122 36.0398 26.617 36.0617C26.3077 35.8503 25.4367 35.7687 25.0958 35.7089C23.3368 35.4024 21.3445 34.9055 19.0682 34.5534C19.1286 34.2525 19.1927 33.9545 19.2633 33.6568ZM20.4589 29.7012C20.8257 29.837 21.1655 29.9643 21.4473 30.0719C22.1867 30.3557 22.5135 30.9678 23.153 31.1683C25.2373 31.8232 27.0916 32.4072 28.7202 32.9294C30.1475 33.388 31.3985 33.8698 32.5102 34.2534C32.4366 34.1277 32.0179 33.9899 31.8343 33.9321C30.8805 33.629 29.8598 33.209 28.7171 32.8377C27.4479 32.4242 26.0474 31.957 24.4777 31.4176C23.6894 31.1462 23.0827 30.5437 22.2348 30.2417C21.303 29.9079 24.1992 30.9414 25.0403 31.2427C26.3248 31.7014 27.4877 31.8889 28.5932 32.2814C29.2783 32.5237 29.932 32.7276 30.5471 32.9549C31.7921 33.4147 33.0797 33.7897 34.2903 34.3702C35.1977 34.8046 36.1057 35.0673 36.8548 35.3404C36.8229 35.9333 35.9168 35.546 35.6027 35.5026C35.1814 35.4443 34.7412 35.1782 34.2613 34.8893C34.0847 34.7824 33.7416 34.752 33.5465 34.6854C33.4635 34.6568 33.3025 34.5643 33.2447 34.5451C32.7283 34.3702 33.4861 34.8725 33.6025 34.9225C34.1449 35.1557 34.8095 35.3146 35.2895 35.4711C36.2672 35.7886 37.1458 35.9556 37.9344 36.2191C38.0684 36.2638 38.1765 36.4682 38.2955 36.5048C38.1235 36.9476 37.4843 36.5664 37.2014 36.4808C36.9545 36.4059 36.692 36.4509 36.4357 36.3747C35.9893 36.2448 35.5164 36.0721 35.0226 35.9265C34.8458 35.8737 34.6547 35.7929 34.6411 36.0564C34.9622 36.1455 35.3473 36.206 35.6142 36.3308C36.1969 36.6005 36.7533 36.6939 37.2682 36.6804C37.5278 36.6738 37.8318 36.7579 38.0759 36.8299L38.1949 36.8083C38.1725 37.2883 37.6706 37.3161 37.4074 37.2477C36.9629 37.1351 36.5205 37.0417 36.0262 36.9895C35.6399 36.9482 35.2546 37.0417 34.8298 36.8262L34.0847 36.6887C33.4639 36.5395 31.9107 36.4682 31.1395 36.2926C30.6795 36.1879 31.3941 35.8617 30.9433 35.7499C31.1461 35.5812 32.1282 35.9586 32.3687 35.9556C32.9007 35.9481 33.5698 36.0438 34.0618 36.1756C34.064 36.0951 34.1787 36.0652 34.2281 36.08C34.3035 36.0043 33.036 35.7355 32.8225 35.7314C31.2234 35.6947 29.2373 34.7946 26.9897 34.1868C26.631 34.0899 23.6775 33.1684 23.6382 33.7185C23.759 33.7493 24.3811 33.6721 24.5063 33.7203C25.169 33.9799 25.9266 34.0611 26.5537 34.289C27.6125 34.6769 28.5508 34.8738 29.473 35.1142C29.753 35.1869 31.2348 35.6707 30.7081 36.1134C29.6537 35.8704 28.3448 35.6272 26.8935 35.307C25.2533 34.9459 23.4102 34.4881 21.5426 33.8299C20.8751 33.593 20.141 33.4147 19.3608 33.2586C19.5031 32.6846 19.6597 32.1153 19.8311 31.5536L19.9055 31.585C20.8523 31.9915 22.7732 32.608 23.6968 32.8075L28.3872 33.898C27.538 33.6454 25.4446 32.9881 22.9854 32.2155C22.0068 31.9088 20.9568 31.5785 19.9231 31.2558C20.0879 30.7318 20.2673 30.214 20.4589 29.7012ZM21.855 26.4986C24.3149 27.7417 26.4015 28.8282 28.1945 29.7296C29.5696 30.4218 31.257 31.2388 32.7105 31.9393C33.981 32.5515 35.1056 33.0872 35.8415 33.4489C35.9221 33.488 35.5278 33.5502 35.2965 33.4385C34.6727 33.1411 33.9327 32.8316 33.1773 32.4751C33.0158 32.8438 33.6952 32.8925 33.8982 32.9872C35.0694 33.5319 36.1084 34.0141 37.0281 34.442C37.0986 34.2824 36.5433 34.0334 36.4847 34.0058C36.2637 33.9002 35.6746 33.3832 36.3928 33.7354C36.8155 33.943 37.1952 34.2115 37.5645 34.3916C37.834 34.5217 38.9945 34.5885 38.7408 35.1755C38.6599 35.3622 38.5863 35.4869 38.5165 35.646C38.3318 35.5676 38.0785 35.5899 37.8955 35.4768C37.3639 35.1504 36.4242 35.0568 36.9886 35.3026L36.6841 35.2821C35.7047 34.8872 34.4653 34.5741 34.6246 34.702C34.6971 34.7594 35.4422 35.0061 35.9579 35.2072C36.307 35.3439 36.7691 35.6746 37.1737 35.4102C37.2054 35.3908 37.2054 35.2882 37.2818 35.3203C37.5654 35.4395 37.8173 35.61 38.0838 35.7187C38.2241 35.777 38.5165 35.8246 38.3851 36.1248C38.1912 36.5684 37.045 35.9016 36.8119 35.8143C36.6268 35.7447 36.354 35.4373 36.1552 35.3755C35.0222 35.0256 33.9331 34.5507 32.4944 34.0071C32.1075 33.862 30.8586 33.4841 30.4263 33.192C29.9136 32.8447 33.9823 34.5665 34.0137 34.5503C34.1077 34.4994 34.5965 34.7143 34.3865 34.5713C33.8795 34.2255 33.3965 33.7884 32.7503 33.5221C31.5476 33.0267 28.43 31.194 26.6031 30.4C26.7938 29.9835 31.2662 32.2718 31.5276 32.5111C31.9847 32.9324 32.9157 33.2723 33.3934 33.4697C33.5893 33.0228 30.4977 31.6575 30.2119 31.5272C29.8314 31.3558 29.2019 31.2318 28.7949 31.0449C28.3872 30.8591 24.3714 28.697 23.7441 28.8548C23.2808 28.971 25.5457 30.0186 25.6004 30.0426C26.2976 30.3417 26.6385 30.6982 28.2279 31.4444C28.5552 31.5992 29.1371 32.0618 29.48 32.2019C29.5854 32.2463 31.044 32.8189 30.8471 32.9538C30.7806 32.9994 29.9083 32.896 29.8196 32.8632C29.3484 32.6846 28.9546 32.6207 28.5954 32.3336C28.1935 32.0116 27.2825 31.8219 26.6993 31.5935C24.9643 30.9174 22.7585 30.5736 20.4914 29.6156C20.5623 29.4288 20.6317 29.2425 20.7058 29.0574C21.1848 29.2951 21.6525 29.5231 22.1162 29.7405C22.2759 29.8165 23.6461 30.4057 23.7678 30.1374C23.4486 30.0099 23.1499 29.5718 22.7855 29.4209C22.2996 29.2209 21.5216 28.976 20.8545 28.6948C21.1624 27.9495 21.4954 27.2164 21.855 26.4986ZM23.9602 22.8893C23.7904 23.1432 23.6241 23.3997 23.4603 23.6584C25.4556 24.779 27.1391 25.9367 28.6721 26.835C28.9699 27.0094 29.757 27.3908 29.9718 27.6956C29.8809 27.6391 29.3746 27.3882 29.3746 27.3882C28.1442 27.0234 27.0528 26.2833 25.6733 25.456C25.0071 25.0554 24.0674 24.267 23.3482 23.8372C22.8621 24.615 22.4083 25.4134 21.989 26.2329C23.1172 26.8538 25.7041 28.2833 25.922 27.8082C25.9367 27.7746 23.6575 26.146 23.3188 25.9651C23.2472 25.9262 23.3447 25.9085 23.3447 25.9085C24.9944 26.7964 26.5772 27.7229 27.9151 28.4392C28.1697 28.576 28.6921 28.9843 28.8557 29.1622C29.1476 29.4753 30.2989 29.7313 30.5409 29.7481C30.5603 29.3722 27.1468 27.6469 25.5497 26.7695C25.3616 26.6654 25.1048 26.5241 25.2019 26.3137C25.2489 26.208 25.7693 26.6145 25.824 26.6615C25.9857 26.8007 27.2935 27.5456 27.4583 27.6364C27.6841 27.7635 31.331 29.4792 31.0672 30.0614C31.0169 30.1758 29.8108 29.8791 29.6808 29.8058C28.6763 29.246 27.4479 28.2599 26.0768 28.0665C25.9356 28.0477 25.9848 28.2695 25.9848 28.2695C27.9773 29.2727 29.7901 30.4801 31.3491 30.9174C32.4506 31.2274 33.2447 31.9675 34.0899 32.3906C35.4382 33.0671 36.5666 33.7472 37.5871 34.2519C37.7767 34.346 39.1853 34.675 39.358 34.2728C39.4483 34.0654 38.5942 33.8941 38.5147 33.8694C38.1266 33.7452 37.8257 33.4863 37.4446 33.2754C36.781 32.9088 36.0594 32.5102 35.2737 32.0758C35.0887 31.9736 34.7531 31.7706 34.5598 31.6623C33.4459 31.0449 32.262 30.2992 30.991 29.3401C30.7615 29.1674 31.293 29.46 31.293 29.46C32.9638 30.4157 34.3825 31.2826 35.6133 32.0153C35.8582 32.1603 36.1119 32.4593 36.3439 32.5892C37.108 33.0154 37.8443 33.2824 38.4805 33.6428C38.6757 33.7533 39.4735 34.1412 39.6627 33.798C39.8962 33.3738 38.8559 33.4906 38.6764 33.4428C38.4288 33.3791 38.2145 33.1584 38.019 32.9464C37.8391 32.7523 37.5955 32.8981 37.5313 32.5037C37.5089 32.3757 37.6152 32.4794 37.6361 32.4923C38.0442 32.7418 38.4411 32.9604 38.8143 33.1784C38.915 33.2376 39.0878 33.175 39.1871 33.2354C39.3521 33.3393 39.5829 33.316 39.7479 33.4221L39.9759 32.908C39.5383 32.6045 39.0318 32.3735 38.5273 32.0306C38.3287 31.8948 38.0067 32.007 37.7868 31.8623C37.5333 31.6942 37.0044 31.8688 36.7357 31.6996C36.4163 31.5001 36.1145 31.2283 35.7725 31.0122C36.3478 30.7543 36.7305 31.8489 37.1816 31.6236C37.3567 31.537 36.9593 31.3158 36.9593 31.3158C36.5407 31.0392 36.0227 30.7037 35.5153 30.497C34.7019 30.1684 33.903 29.6549 33.0591 29.0456C32.1299 28.3743 31.1329 27.5908 29.9551 26.8206C28.5866 25.9262 27.0249 24.8975 25.2779 23.7523C24.8531 23.4737 24.4138 23.1857 23.9602 22.8893ZM26.4766 19.6063C26.1157 20.0203 25.7662 20.4438 25.4266 20.8756C26.2736 21.5349 27.1321 22.2023 27.9323 22.8266C29.9617 24.4081 31.6884 25.7555 32.3937 26.2895L28.3885 23.6298C27.5944 23.1205 26.0151 21.8713 25.2709 21.1592L25.2351 21.1247C24.8753 21.5901 24.5271 22.0658 24.1926 22.55C24.8597 22.9644 25.4747 23.3822 26.012 23.8324C27.5252 25.1016 29.0901 26.1751 30.4972 27.0856C31.7433 27.8921 32.8818 28.5774 33.784 29.1731C34.432 28.9435 33.2166 27.9731 32.9805 27.8074C32.2011 27.2603 31.3928 26.7477 30.5387 26.015C30.0326 25.5832 29.3513 25.2398 28.8228 24.7667C28.7237 24.6777 28.1142 24.5318 28.0127 24.462C28.2438 23.9614 30.6826 25.8542 30.9838 26.0707C32.8728 27.4256 34.4139 28.9622 35.8975 29.5543C36.0956 29.6331 37.1878 30.3275 37.0903 30.3723C37.0494 30.3417 36.931 30.3295 36.9002 30.4035C36.4864 30.1084 35.8933 29.7853 35.3941 29.6069C35.1669 29.5244 34.3812 28.8282 34.1328 28.9153C34.5137 29.1777 33.7295 29.234 34.1244 29.4923C34.7832 29.9252 36.2125 30.5362 36.7401 30.8919L37.3903 31.2818C37.7106 31.6313 38.1046 31.6793 38.4513 31.8513C38.8969 32.0736 39.2772 32.3159 39.6526 32.5777C39.8753 32.732 40.3552 32.8815 40.5463 32.4406L40.4273 32.4189C40.2235 32.2661 39.9693 32.081 39.7235 31.9967C39.2374 31.8284 38.7474 31.547 38.3003 31.0905C38.093 30.8814 37.7543 30.6906 37.4856 30.4939C37.5902 30.2535 37.7407 30.3943 37.8889 30.5057C38.3003 30.8157 38.6808 31.1418 39.0522 31.421C39.2649 31.5811 39.5269 31.6313 39.7316 31.7867C39.9662 31.9653 40.4304 32.5449 40.7476 32.1919C40.65 32.1151 40.621 31.8858 40.511 31.7976C39.8665 31.2763 39.1012 30.8122 38.299 30.1734C35.1377 27.65 37.1291 29.5349 38.8266 30.45C39.1056 30.5998 39.5713 31.1418 39.8096 30.5969C39.2069 30.0804 38.4491 29.517 37.7534 28.793C36.826 27.8272 35.7528 27.0256 34.75 26.1607C34.2547 25.7328 33.7137 25.3134 33.1597 24.8477C32.262 24.0922 31.241 23.5115 30.2007 22.633C29.5189 22.0575 27.1736 20.0779 27.9279 20.7151C28.6143 21.2952 28.9695 22.0713 29.6118 22.5996C30.8895 23.6553 32.0359 24.5805 33.0784 25.4108C33.5281 25.7681 36.2997 27.7144 36.1697 28.0069C35.2645 27.2603 34.2228 26.4263 33.0481 25.4985C31.71 24.4406 30.1796 23.2458 28.4595 21.9043C27.9312 21.4936 27.8416 20.8064 27.2509 20.2831C27.0297 20.0873 26.765 19.8574 26.4766 19.6063ZM28.9122 17.0964C28.3219 17.645 27.7515 18.2151 27.2032 18.8047C27.7238 19.2942 28.3538 19.7882 28.7332 20.1395C29.022 20.4086 29.1461 20.9234 29.4005 21.1544C29.1905 21.3626 28.1172 20.332 27.9938 20.2052C27.6434 19.8465 27.2922 19.4764 26.9337 19.0955C26.8017 19.2415 26.6681 19.39 26.5379 19.5395C28.3154 21.2183 30.2505 22.3075 31.6289 23.5427C32.0941 23.9592 32.8807 24.455 33.143 24.8975C33.3776 25.2916 33.7451 25.4477 34.1231 25.7795C34.1954 25.8435 34.9807 26.3456 35.0593 26.325C35.2904 26.2676 34.0994 25.1617 34.0159 25.0829C33.7451 24.8322 33.364 24.1946 33.112 23.9363C31.8892 22.6819 31.695 22.2304 31.1489 21.7052C31.1061 21.6639 29.3568 19.8921 29.8314 19.9443C30.4744 20.0168 33.4705 23.4436 33.7844 23.7606C34.0994 24.0775 34.645 24.4129 34.9411 24.7076C35.1625 24.9294 37.5739 27.2882 37.2328 27.6382C36.8557 27.286 36.104 26.6412 35.8241 26.0877C35.6649 25.7718 32.287 22.0674 31.961 22.39C33.0925 23.4837 34.0754 24.8953 35.23 26.1742C36.0989 27.1387 37.1759 27.9504 37.8654 28.9282C37.9926 29.1105 38.0119 29.067 38.8056 30.0335C38.9193 30.1719 39.184 30.3845 39.3389 30.56C39.4766 30.7144 39.454 30.8967 39.6031 31.0261C39.7903 31.1896 40.627 32.2148 40.9668 31.8666C41.1952 31.6313 40.938 31.4846 40.8269 31.3804C40.6177 31.1862 40.4414 30.9379 40.2173 30.7288L40.0844 30.7753C39.611 30.8801 39.2965 30.4096 39.0186 30.1605C38.8734 30.0304 38.7326 29.6717 38.5266 29.6257C38.6808 29.4696 39.5842 30.4026 39.6717 30.4834L39.9495 30.6083C39.7729 30.4448 39.6561 30.1632 39.454 29.973C39.2614 29.7909 38.1677 28.8791 38.2057 28.54L37.9838 28.2217C38.6538 28.8965 39.2233 29.5621 39.7907 30.1036C40.1264 30.4245 40.4886 30.7432 40.7364 31.0892C40.8605 31.2645 41.1128 31.3263 41.2576 31.4645C41.3789 31.3396 41.4931 31.2492 41.6348 31.1036C42.0798 30.6415 41.0162 30.1734 40.8115 29.9575C40.5288 29.6604 40.2676 29.2762 39.946 28.9343C39.3993 28.3529 39.7668 29.0426 39.9353 29.2187C39.9812 29.2652 40.4135 29.6927 40.2896 29.8173C39.5812 29.0965 38.7781 28.2809 37.8747 27.362C37.7187 27.202 37.0999 26.9186 37.3815 26.6302C37.9616 27.2291 38.5453 27.7768 39.0252 28.273C39.2029 28.4573 39.5926 28.5387 39.5313 28.473C38.9705 27.8766 38.1073 26.983 37.1344 25.9659C36.0218 24.8019 34.7311 23.4475 33.688 22.3202C32.332 20.8531 30.7685 19.1125 28.9122 17.0964ZM32.1508 14.4457C31.9015 14.6236 31.6561 14.8057 31.4119 14.9919C32.8807 16.7353 34.0438 18.4015 35.159 19.7755C35.3756 20.0447 35.9786 20.6756 36.0717 21.0369C36.006 20.9514 35.6221 20.5392 35.6221 20.5392C34.5982 19.7681 33.8387 18.6938 32.8394 17.4363C32.3599 16.8332 31.7633 15.775 31.2445 15.1201C30.5152 15.6831 29.8095 16.2749 29.1305 16.8941C29.9749 17.8789 31.871 20.0925 32.2398 19.7264C32.2663 19.6996 30.7081 17.3785 30.4553 17.0905L30.4999 17.048C31.7308 18.4543 32.8829 19.8755 33.8832 21.0125C34.0733 21.2299 34.4177 21.7951 34.5091 22.0178C34.6694 22.4145 35.6579 23.0554 35.8775 23.1563C36.0289 22.8114 33.4455 20.0034 32.2589 18.6233C32.1198 18.4607 31.9296 18.2382 32.0944 18.0755C32.1772 17.9932 32.519 18.5554 32.5539 18.618C32.6567 18.8047 33.6175 19.9587 33.7389 20.1021C33.9061 20.3003 36.7135 23.1805 36.2606 23.6342C36.1727 23.7232 35.1491 23.0236 35.0527 22.9102C34.3096 22.034 33.509 20.6822 32.2936 20.0229C32.1679 19.9552 32.1356 20.1798 32.1356 20.1798C33.6471 21.8148 34.9163 23.5787 36.2213 24.534C37.1436 25.2075 37.6245 26.179 38.2652 26.8708C39.2886 27.9753 40.1046 29.0052 40.8824 29.8339C41.0267 29.9892 42.2276 30.7888 42.5329 30.4736C42.6896 30.3109 41.9506 29.8514 41.8852 29.8005C41.5662 29.5501 41.3751 29.2017 41.0933 28.8703C40.6019 28.2964 40.0677 27.6705 39.4854 26.9891C39.3481 26.828 39.1065 26.5211 38.9631 26.3528C38.1385 25.385 37.295 24.2745 36.444 22.9314C36.2909 22.6908 36.6832 23.1486 36.6832 23.1486C37.9109 24.6283 38.9312 25.9351 39.8252 27.0529C40.002 27.2729 40.1347 27.6412 40.306 27.8434C40.8706 28.5095 41.4661 29.017 41.9335 29.5761C42.0767 29.7481 42.6871 30.39 42.9843 30.1348C43.3529 29.8197 42.3383 29.5648 42.1865 29.4578C41.9774 29.31 41.8557 29.0301 41.7472 28.7629C41.6479 28.5191 41.3685 28.5708 41.4467 28.1783C41.4722 28.0512 41.5342 28.1861 41.5495 28.2047C41.8443 28.5804 42.138 28.9238 42.4101 29.2587C42.4826 29.3486 42.6682 29.3504 42.7385 29.4432C42.8563 29.5971 43.0799 29.6556 43.1978 29.8141L43.5948 29.41C43.2899 28.9738 42.8989 28.5822 42.5474 28.0833C42.4101 27.8877 42.0684 27.8794 41.9131 27.6666C41.736 27.4221 41.1798 27.3993 40.9874 27.1485C40.7581 26.8494 40.5731 26.489 40.3293 26.1676C40.958 26.1277 40.9297 27.286 41.4322 27.2326C41.6262 27.2125 41.3329 26.8673 41.3329 26.8673C41.0379 26.4619 40.6724 25.9659 40.2689 25.595C39.6244 25.0041 39.0584 24.2432 38.4849 23.3779C37.8514 22.4256 37.1963 21.3439 36.3656 20.2108C35.4011 18.896 34.303 17.3863 33.0714 15.7036C32.7742 15.298 32.4665 14.8788 32.1508 14.4457ZM35.6596 12.2408C35.1753 12.5039 34.6997 12.7787 34.2303 13.0651C34.7902 13.9779 35.3572 14.902 35.8843 15.7658C37.2249 17.9555 38.364 19.8194 38.8365 20.5656L36.0284 16.6758C35.4646 15.9228 34.4271 14.2006 33.9832 13.2751L33.9625 13.2321C33.4606 13.545 32.9695 13.8687 32.4864 14.2075C32.9616 14.8249 33.3881 15.4288 33.7301 16.0352C34.6997 17.7542 35.7833 19.3051 36.7788 20.6488C37.6603 21.8396 38.4835 22.8788 39.117 23.7518C39.8061 23.7627 39.0116 22.4311 38.8488 22.1922C38.3133 21.4065 37.7376 20.6444 37.1963 19.6603C36.8763 19.0789 36.3601 18.5211 36.0319 17.892C35.9702 17.7754 35.4514 17.4254 35.3809 17.3228C35.7736 16.9362 37.3881 19.5603 37.5933 19.8681C38.8822 21.7966 39.7822 23.7745 40.9619 24.8466C41.1194 24.9894 41.8953 26.0212 41.7881 26.0286C41.6073 25.7467 40.8106 25.0058 40.4706 24.7198C40.2874 24.565 39.7982 23.637 39.5348 23.6326C39.7995 24.0101 39.0456 23.7892 39.3231 24.1688C39.7863 24.805 40.9086 25.8749 41.2778 26.3934L41.7481 26.9848C41.924 27.4242 42.2757 27.6065 42.5391 27.889C42.8787 28.2529 43.1495 28.6127 43.4081 28.9891C43.5616 29.2122 43.957 29.5196 44.2926 29.1718L44.1881 29.1113C44.0523 28.8965 43.8803 28.6348 43.6791 28.4699C43.2833 28.1427 42.925 27.7083 42.6669 27.1243C42.5474 26.856 42.2972 26.5589 42.1156 26.2807C42.2994 26.0928 42.3895 26.2772 42.4888 26.4329C42.7645 26.8665 43.0052 27.3059 43.2545 27.6956C43.3979 27.92 43.6246 28.0586 43.7606 28.2761C43.9168 28.5252 44.147 29.2305 44.5696 29.0105C44.5048 28.9035 44.5582 28.6791 44.4864 28.5586C44.0677 27.8451 43.5155 27.1441 42.9903 26.2637C40.9235 22.7965 42.3183 25.2728 43.5838 26.7211C43.7916 26.9599 43.8381 27.6168 44.2555 27.1893C43.3608 25.5675 42.1808 23.9429 41.4705 22.2331C41.3237 21.8805 41.2558 21.5788 41.088 21.2683C40.7748 20.6944 40.4178 20.1135 40.0624 19.4834C39.4902 18.4641 38.7394 17.5627 38.0759 16.3767C37.6414 15.6001 36.1462 12.9269 36.6268 13.7875C37.0639 14.5697 37.1234 15.42 37.5368 16.1407C38.3608 17.5741 39.1056 18.8403 39.7881 19.9836C40.402 21.0094 40.9747 21.9414 41.4931 22.7937C42.7416 24.8571 39.8753 20.2964 39.7288 20.0543C38.8502 18.596 37.8391 16.9427 36.7034 15.0862C36.3562 14.5184 36.5154 13.8419 36.1462 13.1452C36.0087 12.8852 35.8406 12.5757 35.6596 12.2408ZM38.8253 10.7329C38.0772 11.0416 37.3413 11.3787 36.6217 11.7391C36.9369 12.3822 37.3541 13.0664 37.5845 13.5297C37.76 13.8823 37.6939 14.4077 37.8496 14.7123C37.5805 14.8345 36.9396 13.4939 36.8688 13.3334C36.6685 12.8739 36.4695 12.4026 36.2681 11.9186C36.0912 12.0102 35.9151 12.1026 35.7396 12.1973C36.8106 14.3914 38.2373 16.0885 39.0913 17.7267C39.3795 18.279 39.9394 19.0182 40.0293 19.5251C40.1097 19.9759 40.1929 20.4464 40.4304 20.8878C40.4745 20.973 41.2372 21.5214 41.318 21.531C41.5566 21.5583 40.8323 20.1052 40.7818 20.0034C40.6177 19.6742 40.4855 18.9438 40.3416 18.6137C39.6398 17.0128 39.619 16.5218 39.2921 15.8392C39.2662 15.7861 38.2558 13.5148 38.6819 13.731C39.2585 14.0235 40.849 18.2777 41.032 18.6842C41.2156 19.0916 41.6594 19.5769 41.7804 19.9753C42.5898 22.6574 42.2628 22.0713 42.1187 21.5757C42.0203 21.236 40.2305 16.5758 39.8096 16.7646C40.2173 17.6245 40.9716 19.55 41.5245 21.3209C42.4556 24.31 41.8243 22.4922 41.7259 22.2809C41.5482 21.8958 41.4773 21.8087 41.0762 21.5327C41.0762 21.5327 40.9007 21.1952 40.8394 21.3679C40.7467 21.627 41.7859 22.8127 42.4721 24.1489C43.0944 25.3616 43.6525 26.6486 43.8065 26.9082C43.9124 27.087 43.8162 27.3452 43.9097 27.5192C44.0275 27.7373 44.4479 28.99 44.8879 28.7826C45.186 28.6426 44.9977 28.4143 44.9296 28.2783C44.8022 28.0231 44.7258 27.7294 44.59 27.4555C44.5542 27.3804 44.4859 27.4572 44.4479 27.4522C43.9702 27.386 43.841 26.835 43.6683 26.5043C42.9953 25.2167 43.8302 26.3737 44.1652 27.0356L44.3827 27.2489C44.2737 27.0339 44.2645 26.7302 44.143 26.4816C42.8484 23.8381 43.1311 24.0618 44.4121 26.7208C44.6138 27.1389 44.8396 27.5642 44.9483 27.9744C45.0021 28.1813 45.2165 28.3283 45.3041 28.5079C45.4612 28.433 45.6007 28.3879 45.7834 28.3008C46.3646 28.0244 45.535 27.2147 45.4184 26.9407C45.26 26.5634 45.1513 26.112 44.9698 25.6793C44.6641 24.9455 44.7638 25.7197 44.86 25.9432C44.8868 26.0028 45.1392 26.5543 44.9799 26.6276C44.5345 25.6219 43.0702 22.7753 43.3852 22.6273C43.7169 23.3901 44.0699 24.1085 44.342 24.7397C44.4435 24.9746 44.7803 25.1859 44.7462 25.104C44.4308 24.3502 43.9403 23.2109 43.3892 21.9187C42.7579 20.4407 42.0299 18.7215 41.4524 17.3021C40.7003 15.4523 39.8507 13.273 38.8253 10.7329ZM42.7952 9.38245C42.94 9.9016 43.0799 10.4046 43.215 10.8929C43.772 12.8983 44.2663 14.6948 44.7047 16.2645C45.0814 17.6136 45.3123 18.8564 45.5675 19.9683C45.7997 20.9799 46.0613 21.8888 46.4547 22.6675C46.7009 23.1563 46.8681 23.7479 47.0001 24.2301C47.0001 24.2301 47.1526 24.6563 46.9643 24.6067C46.4743 24.4806 46.9105 23.4062 46.308 23.2244C46.4222 23.6106 46.4683 24.0127 46.5775 24.372C46.6687 24.6755 47.1813 24.8912 47.2617 25.1807C47.33 25.435 47.6468 25.5614 47.7072 25.7932C47.8599 26.382 48.0879 26.8868 48.2172 27.4009C48.2344 27.4686 47.7243 27.7091 47.705 27.6404C47.649 27.4511 47.4601 27.3181 47.4054 27.1326C47.3716 27.0208 47.1996 26.9547 47.1624 26.8442C47.0265 26.4368 46.8725 26.012 46.7299 25.5577C46.7225 25.535 46.7115 25.3872 46.6427 25.4972C46.4301 25.8371 46.7106 25.8867 46.7172 26.1497C46.7247 26.4373 46.7394 26.7425 46.8839 26.9529C46.9867 27.1077 47.848 27.7008 47.3922 27.8672C47.0212 28.0021 46.6766 27.1869 46.6047 26.9765C46.3638 26.289 45.9862 25.6055 45.6938 24.7844C45.6051 24.5358 45.6108 24.1454 45.5236 23.8763C45.0814 22.5193 44.5878 20.9387 43.9631 19.1261C43.9631 19.1261 43.7571 18.5585 43.8157 18.8381C44.1364 20.3909 44.534 21.7266 44.9632 22.9201C45.0386 23.1283 45.1567 23.5005 45.2279 23.6983C45.5319 24.5393 45.8102 25.3116 46.0666 26.022C46.2135 26.4298 46.2687 26.8224 46.4795 27.1686C46.5228 27.2404 47.0511 27.9288 46.8479 28.0244C46.4516 28.2143 45.6086 27.0455 45.5289 26.8499C44.9213 25.3872 44.272 23.5123 43.6264 21.8977C43.3922 21.3131 43.3485 20.73 43.0401 20.26C42.1564 18.9099 41.5924 16.8146 40.7563 14.7566C40.7563 14.7566 40.8666 14.5575 40.9589 14.664C41.8636 15.7067 42.1358 17.2512 42.5202 18.3308C42.5703 18.4703 43.282 19.4834 43.3953 19.4308C43.9789 19.1638 42.371 15.4875 42.2845 15.2436C42.2212 15.067 41.7294 13.6504 41.6991 13.4408C41.6886 13.3694 41.5675 12.723 41.4625 12.7708C41.2493 12.8669 41.3483 13.1404 41.4221 13.3426C42.0438 15.0482 43.4696 18.5798 43.2062 18.8499C43.0362 18.679 42.3383 17.7337 42.3265 17.3071C42.3199 17.0659 42.198 16.4171 42.0965 16.1472C41.5631 14.7315 40.9865 12.9983 40.3324 11.2516C40.3324 11.2516 40.2476 11.2016 40.2755 11.2774C40.4108 11.6361 41.0476 14.3523 41.0131 14.3669C40.5371 14.5817 39.5414 11.8321 39.1006 10.6203C39.9526 10.2773 40.8216 9.96774 41.7066 9.69551C41.9638 10.4899 42.1481 11.6974 42.3842 12.4342C42.8756 13.9591 43.2062 15.231 43.8922 16.3105C43.8922 16.3105 44.1066 16.8303 44.1364 16.9334C44.178 16.5629 43.8381 15.761 43.7288 15.434C43.1713 13.7556 42.6696 11.7843 41.9095 9.6346C42.2034 9.5475 42.4989 9.46236 42.7952 9.38245ZM46.8615 8.55331C46.9144 8.93077 46.9617 9.27941 46.9984 9.57195C47.097 10.3533 46.7089 10.9303 46.8336 11.5826C47.24 13.7187 47.6018 15.6189 47.9084 17.2916C48.7069 21.6318 48.8586 22.0852 47.9892 17.2449C47.7544 15.9385 47.5047 14.4913 47.2404 12.8608C47.1086 12.0426 47.3546 11.2261 47.2211 10.3406C47.0763 9.36761 47.5306 12.3921 47.6617 13.2712C47.8634 14.6123 48.248 15.7202 48.4239 16.8746C48.968 20.4423 48.7475 22.6258 48.6374 22.3295C47.9653 20.5309 48.0558 20.2774 48.7655 24.2454C48.9456 25.2518 49.2145 26.1011 49.3544 26.9156C49.3784 27.0533 49.2481 27.2448 49.2716 27.3664C48.7987 27.4255 48.8338 26.6855 48.7752 26.3977C48.7249 26.146 48.5612 25.9371 48.5065 25.6762C48.4112 25.225 48.3407 24.7294 48.2357 24.2271C48.1981 24.0465 48.1788 23.8424 47.9405 23.9557C48.0125 24.2788 48.1417 24.6432 48.1586 24.937C48.1937 25.5741 48.3743 26.1054 48.6298 26.5499C48.7594 26.775 48.8285 27.0795 48.8797 27.3286L48.9557 27.4221C48.5188 27.6294 48.2577 27.2037 48.192 26.942C48.0826 26.4986 47.9565 26.0672 47.7689 25.6094C47.6224 25.2518 47.3573 24.958 47.3476 24.4858L47.1157 23.7667C46.9533 23.1541 46.2823 21.7595 46.0736 21.0013C45.9482 20.5499 46.5757 21.0199 46.4617 20.5735C46.7062 20.67 46.8367 21.7087 46.9533 21.9187C47.2112 22.38 47.4438 23.0107 47.5598 23.5049C47.6323 23.4685 47.7133 23.554 47.7237 23.6049C47.8267 23.6348 47.4645 22.3979 47.3676 22.2097C46.6419 20.7931 46.4997 18.6277 45.9761 16.3706C45.8915 16.0119 45.3094 12.9905 44.804 13.2162C44.8343 13.3356 45.1969 13.8438 45.2123 13.9757C45.2967 14.6789 45.5833 15.3823 45.6773 16.0374C45.8361 17.1482 46.1044 18.0629 46.3282 18.9855C46.3969 19.2651 46.6691 20.79 46.0277 20.5392C45.7441 19.5009 45.3404 18.2404 44.9371 16.8181C44.4802 15.2122 44.013 13.3801 43.7138 11.4333C43.6084 10.7434 43.4217 10.0243 43.1932 9.27417C43.7637 9.12812 44.3412 8.99626 44.9226 8.88056L44.9283 8.93754C45.0148 9.95988 45.3775 11.9343 45.6387 12.8357L46.8918 17.4584C46.7146 16.595 46.3069 14.4514 45.826 11.9325C45.6369 10.939 45.4344 9.87212 45.2319 8.82053C45.7714 8.71879 46.3146 8.62929 46.8615 8.55331ZM50.3598 8.2551C49.546 8.28108 48.7389 8.33631 47.9411 8.42058C48.0086 9.13249 48.1568 9.91993 48.2085 10.4347C48.2489 10.8259 48.0013 11.2942 48.0398 11.6348C47.743 11.6546 47.6176 10.1751 47.6088 9.99984C47.5822 9.49991 47.5642 8.98884 47.5475 8.46533C47.3485 8.48891 47.1508 8.51423 46.9533 8.54021C47.1796 10.9693 47.9154 13.057 48.1351 14.8898C48.2454 15.8106 49.3129 21.6017 48.912 17.6123C48.8745 17.2449 49.0095 16.5173 48.9913 16.1575C48.9008 14.4136 49.0544 13.9462 48.9913 13.193C48.986 13.1339 48.8428 10.6559 49.1653 11.0069C49.6015 11.4813 49.5857 16.0202 49.6147 16.4642C49.6417 16.9093 49.83 17.5193 49.8565 17.9341C49.8781 18.2452 50.1305 21.5986 49.6417 21.6392C49.5905 21.1277 49.4519 20.1499 49.6077 19.5507C49.6971 19.209 49.6081 14.2102 49.1479 14.2409C49.3094 16.2158 49.2301 19.8063 49.2909 21.0996C49.3067 21.4447 49.1609 21.5414 49.158 21.4009C49.1413 20.4842 48.9151 20.0864 48.7029 20.1008C48.6186 20.1074 48.5691 22.9257 48.9957 25.1097C49.0355 25.3134 49.1563 25.5455 49.1811 25.7411C49.2145 25.9858 49.1664 27.3059 49.6514 27.2651C49.9791 27.2382 49.8838 26.959 49.868 26.8082C49.8385 26.5241 49.871 26.2229 49.8412 25.9186C49.8341 25.8358 49.7428 25.8843 49.7109 25.8664C49.2848 25.6367 49.3606 25.0763 49.3155 24.7067C49.1409 23.265 49.5119 24.6419 49.5927 25.3771L49.7193 25.6542C49.6942 25.4149 49.7931 25.1263 49.7682 24.851C49.7428 24.5875 49.5235 23.1849 49.7757 22.9548L49.8199 22.5706C49.8781 23.5163 49.8658 24.3906 49.9341 25.1689C49.9747 25.6306 50.0364 26.1076 49.9932 26.5298C49.9703 26.7425 50.119 26.9547 50.1371 27.1533C50.3115 27.1389 50.4578 27.1446 50.6603 27.1273C51.3026 27.0712 50.8103 26.0242 50.7993 25.7273C50.7833 25.3175 50.8419 24.858 50.8252 24.3902C50.798 23.5953 50.6188 24.355 50.6293 24.5976C50.633 24.6628 50.6761 25.2667 50.4988 25.2802C50.4437 24.2723 50.3796 23.1349 50.3082 21.8514C50.2959 21.6296 50.018 21.0116 50.4213 20.9786C50.4621 21.8082 50.5381 22.6026 50.5698 23.2901C50.5821 23.5453 50.8226 23.8605 50.8195 23.7719C50.7905 22.9563 50.7341 21.7183 50.6761 20.3161C50.6078 18.7135 50.5338 16.8484 50.4953 15.3166C50.4459 13.3243 50.4213 10.989 50.3598 8.2551ZM51.3313 11.0368C51.2373 11.7564 51.1415 12.4165 51.1222 12.4174C50.6021 12.4512 50.6418 9.5368 50.6568 8.24484C50.8813 8.24069 51.1062 8.23807 51.3313 8.23633V11.0368ZM51.3313 16.4114V15.5683L51.3122 15.6276C51.2527 15.7992 51.2769 16.1033 51.3313 16.4114ZM51.3313 26.8704C51.0987 26.4539 50.9381 25.8177 50.9338 25.6808C50.8988 24.5476 50.966 23.2371 50.9272 21.7368C50.9021 20.7966 50.9078 19.7234 50.8323 18.6416C50.718 17.0342 50.7989 14.9101 50.7442 12.6909C50.7442 12.6909 50.9179 12.5434 50.9669 12.6757C51.4447 13.9665 51.1534 15.508 51.1319 16.6533C51.1301 16.7362 51.225 17.1436 51.3313 17.4876V26.8704Z" fill="#0096D1"/>
<path d="M51.04 81.6454V0.00976562H51.8424V81.6454H51.04Z" fill="white"/>
<path fill-rule="evenodd" clip-rule="evenodd" d="M51.4403 26.8633C51.5763 26.8633 51.7107 26.865 51.844 26.8703V55.2545C51.7107 55.2578 51.576 55.2604 51.4403 55.2604C43.5724 55.2604 37.1553 48.8818 37.1553 41.0615C37.1553 33.2423 43.5724 26.8633 51.4403 26.8633Z" fill="#373435"/>
<path fill-rule="evenodd" clip-rule="evenodd" d="M37.1875 40.6641H51.811V41.4611H37.1875V40.6641Z" fill="#373435"/>
<path d="M173.252 19.3888C173.252 19.3888 168.333 30.0292 167.985 30.781C167.638 30.0292 162.741 19.3888 162.741 19.3888H152.421V37.784H158.258C158.258 37.784 158.128 24.7249 158.123 24.3267H158.766C158.878 24.5463 165.578 37.784 165.578 37.784H170.417C170.417 37.784 177.117 24.5463 177.228 24.3267H177.818C177.814 24.7249 177.681 37.784 177.681 37.784H183.52V19.3888H173.252ZM144.442 27.8716L144.388 29.7231C144.307 31.4202 144.169 31.8398 143.793 32.2354C143.253 32.8211 142.101 32.9812 138.432 32.9812C133.572 32.9812 132.812 32.6487 132.555 31.4168C132.423 30.7123 132.423 30.7123 132.37 27.9031L132.369 19.3888H126.45V27.8716L126.506 31.3875C126.647 34.119 126.971 35.2396 127.893 36.1857C129.301 37.6691 131.48 38.054 138.487 38.054C142.653 38.054 144.523 37.9475 146.179 37.6187C148.352 37.164 149.775 35.6769 150.086 33.5372C150.255 32.2262 150.28 31.9047 150.36 27.8751V19.3888H144.442V27.8716ZM84.2817 37.784H90.201V31.5541H103.145V27.0213H90.201V24.0298H111.444V37.784H117.634V24.0298H125.695V19.3888H84.2817V37.784ZM75.8679 32.3771C75.196 32.8967 74.3578 32.9812 69.8884 32.9812C65.3944 32.9812 64.5571 32.8967 63.9104 32.3791C63.3257 31.9176 63.1741 31.2297 63.1741 29.0313C63.1741 26.7921 63.282 25.7924 63.5853 25.2154C64.0589 24.3204 64.4701 24.1911 69.6709 24.1911C75.0181 24.1911 75.4492 24.2837 76.001 24.9295C76.4568 25.482 76.6033 26.4995 76.6033 29.1123C76.6033 31.1762 76.4324 31.9385 75.8679 32.3771ZM80.6496 20.4013L80.6485 20.4C79.2096 19.334 77.4273 19.1191 70.0525 19.1191C62.1951 19.1191 60.5619 19.3108 59.1269 20.4013C57.6754 21.5328 57.2559 23.3709 57.2559 28.5992C57.2559 33.8356 57.6754 35.6677 59.1269 36.7715C60.5619 37.8619 62.1711 38.054 69.8884 38.054C77.6052 38.054 79.2157 37.8619 80.6496 36.7715C82.1022 35.6677 82.5227 33.8345 82.5227 28.5992C82.5227 23.3437 82.1022 21.5048 80.6496 20.4013Z" fill="white"/>
<path d="M65.7384 52.898H69.5422V51.9346H66.7527V50.4617H69.3335V49.4983H66.7527V48.1766H69.5272V47.2132H65.7384V52.898ZM72.2945 51.7117L74.0098 47.2132H73.0029L71.9365 50.0953L70.9146 47.2132H69.8556L71.377 51.4489C71.198 51.8152 71.1011 51.9108 70.9071 51.9108C70.9221 51.9108 70.8252 51.8868 70.7729 51.863C70.7356 51.8471 70.4672 51.7514 70.4298 51.7436V52.8423C70.6462 52.9299 70.937 52.9855 71.0712 52.9855C71.6158 52.9855 71.9439 52.5398 72.2945 51.7117ZM74.4724 52.898H75.4791V50.7245H76.8291C77.9256 50.7245 78.5297 50.0715 78.5297 48.9728C78.5297 47.8662 77.9256 47.2132 76.8291 47.2132H74.4724V52.898ZM75.4791 48.1766H76.6055C77.232 48.1766 77.5153 48.4554 77.5153 48.9728C77.5153 49.4745 77.2394 49.7611 76.6279 49.7611H75.4791V48.1766ZM79.0369 50.0556C79.0369 51.5923 79.8947 53.0255 81.595 53.0255C83.2956 53.0255 84.1534 51.5923 84.1534 50.0556C84.1534 48.5189 83.2956 47.0859 81.595 47.0859C79.8947 47.0859 79.0369 48.5189 79.0369 50.0556ZM80.0438 50.0556C80.0438 49.0763 80.5062 48.0572 81.595 48.0572C82.6766 48.0572 83.139 49.0763 83.139 50.0556C83.139 51.035 82.6766 52.054 81.595 52.054C80.5062 52.054 80.0438 51.035 80.0438 50.0556ZM84.9738 52.898H85.9882V48.1766H88.263V52.898H89.2699V47.2132H84.9738V52.898ZM89.8963 52.898H90.9481C91.1196 52.3963 91.3358 51.8152 91.5073 51.2978H93.3795L93.9165 52.898H95.0203L92.9469 47.1575H91.9774L89.8963 52.898ZM92.4398 48.5429C92.6783 49.2754 92.8349 49.7052 93.0438 50.3344H91.8429L92.4398 48.5429ZM95.0576 52.8423C95.274 52.9299 95.5648 52.9855 95.699 52.9855C96.4821 52.9855 97.0789 52.269 97.1237 48.1766H98.6152V52.898H99.6296V47.2132H96.1168C96.0571 49.9124 96.0123 51.9505 95.4901 51.9505C95.453 51.9505 95.2367 51.9346 95.0576 51.8709V52.8423ZM105.335 52.898H106.342V47.2132H105.335V52.898ZM101.733 49.4983V47.2132H100.719V52.898H103.292C103.806 52.898 104.224 52.7229 104.537 52.3725C104.836 52.0462 104.97 51.656 104.97 51.1862C104.97 50.7245 104.828 50.3423 104.552 50.0556C104.202 49.6893 103.642 49.4983 102.874 49.4983H101.733ZM101.733 51.9346V50.4617H103.061C103.665 50.4617 103.963 50.7005 103.963 51.1624C103.963 51.4013 103.896 51.5923 103.769 51.7196C103.635 51.8549 103.456 51.9346 103.21 51.9346H101.733ZM110.31 52.898H110.482V54.3709H111.444V51.9346H110.929C110.385 51.1465 109.878 50.4538 109.341 49.6736L111.496 47.2132H110.168L108.244 49.4505V47.2132H107.23V52.898H108.244V50.9234L108.632 50.4776L110.31 52.898ZM56.4824 60.9683C56.6988 61.0558 56.9896 61.1115 57.124 61.1115C57.9071 61.1115 58.5037 60.395 58.5485 56.3025H60.0402V61.0239H61.0546V55.3391H57.5416C57.4819 58.0381 57.4373 60.0765 56.9151 60.0765C56.8778 60.0765 56.6614 60.0605 56.4824 59.9968V60.9683ZM61.6811 61.0239H62.7328C62.9043 60.5223 63.1205 59.9411 63.292 59.4235H65.1642L65.7012 61.0239H66.805L64.7317 55.2835H63.7619L61.6811 61.0239ZM64.2245 56.6689C64.463 57.4013 64.6196 57.8312 64.8285 58.4601H63.6277L64.2245 56.6689ZM68.4235 58.4442C69.5646 58.4442 70.1091 58.6592 70.1091 59.2644C70.1091 59.6226 69.7361 60.1162 69.1097 60.1162C68.528 60.1162 68.0729 59.7977 67.7447 59.1369L66.8349 59.5669C67.357 60.5941 68.1252 61.1196 69.1321 61.1196C70.1985 61.1196 71.0936 60.2516 71.0936 59.1768C71.0936 58.5955 70.8252 58.1577 70.3999 57.9108C70.7281 57.6561 70.9519 57.2897 70.9519 56.7724C70.9519 55.769 70.2433 55.2595 69.0352 55.2516C68.1401 55.2516 67.439 55.6815 66.9243 56.5335L67.7671 56.9793C68.0729 56.4458 68.5056 56.1591 69.0574 56.1591C69.6094 56.1591 69.9749 56.3504 69.9749 56.7245C69.9749 57.2819 69.4378 57.457 68.4235 57.457V58.4442ZM71.8618 61.0239H75.6656V60.0605H72.8761V58.5876H75.4569V57.6242H72.8761V56.3025H75.6506V55.3391H71.8618V61.0239ZM76.4265 61.0239H77.4334V58.8502H78.7834C79.8797 58.8502 80.4838 58.1975 80.4838 57.0987C80.4838 55.9921 79.8797 55.3391 78.7834 55.3391H76.4265V61.0239ZM77.4334 56.3025H78.5596C79.186 56.3025 79.4694 56.5811 79.4694 57.0987C79.4694 57.6004 79.1935 57.887 78.582 57.887H77.4334V56.3025ZM80.8493 60.9683C81.0657 61.0558 81.3565 61.1115 81.4907 61.1115C82.2738 61.1115 82.8706 60.395 82.9154 56.3025H84.4071V61.0239H85.4212V55.3391H81.9085C81.8487 58.0381 81.8039 60.0765 81.2818 60.0765C81.2447 60.0765 81.0283 60.0605 80.8493 59.9968V60.9683ZM86.4804 61.0239H87.4948V55.3391H86.4804V61.0239ZM91.5297 61.0239H92.8125C92.134 60.0605 91.2538 58.7867 90.5601 57.7914L92.7082 55.3391H91.3806L89.4564 57.5764V55.3391H88.4495V61.0239H89.4564V59.0493L89.8441 58.6035L91.5297 61.0239ZM101.539 58.1815C101.539 59.7182 102.397 61.1512 104.097 61.1512C105.798 61.1512 106.656 59.7182 106.656 58.1815C106.656 56.6449 105.798 55.2116 104.097 55.2116C102.397 55.2116 101.539 56.6449 101.539 58.1815ZM104.097 60.1799C103.143 60.1799 102.673 59.4394 102.576 58.5876H105.611C105.492 59.4076 105.022 60.1799 104.097 60.1799ZM104.097 56.1831C104.977 56.1831 105.447 56.8518 105.589 57.6242H102.598C102.732 56.8518 103.21 56.1831 104.097 56.1831ZM108.647 58.4442C109.788 58.4442 110.332 58.6592 110.332 59.2644C110.332 59.6226 109.96 60.1162 109.333 60.1162C108.751 60.1162 108.296 59.7977 107.968 59.1369L107.058 59.5669C107.58 60.5941 108.349 61.1196 109.356 61.1196C110.422 61.1196 111.317 60.2516 111.317 59.1768C111.317 58.5955 111.049 58.1577 110.623 57.9108C110.952 57.6561 111.175 57.2897 111.175 56.7724C111.175 55.769 110.467 55.2595 109.259 55.2516C108.363 55.2516 107.662 55.6815 107.148 56.5335L107.991 56.9793C108.296 56.4458 108.729 56.1591 109.281 56.1591C109.833 56.1591 110.198 56.3504 110.198 56.7245C110.198 57.2819 109.661 57.457 108.647 57.457V58.4442ZM100.077 61.0239H101.36C100.681 60.0605 99.8012 58.7867 99.1077 57.7914L101.256 55.3391H99.9279L98.0037 57.5764V55.3391H96.9968V61.0239H98.0037V59.0493L98.3916 58.6035L100.077 61.0239ZM72.8687 69.1499H74.0397L75.3225 67.1115L76.5607 69.1499H77.7989C77.2469 68.274 76.5009 67.1355 75.9268 66.2359L77.6943 63.4651H76.5233C76.1431 64.0862 75.7328 64.7629 75.3374 65.3919L74.1739 63.4651H72.9658L74.7109 66.2359L72.8687 69.1499ZM78.2239 69.1499H79.4099L81.5131 65.2087V69.1499H82.52V63.4651H81.3341L79.2383 67.4062V63.4651H78.2239V69.1499ZM83.6088 69.1499H84.6158V66.9762H85.9658C87.0621 66.9762 87.6664 66.3234 87.6664 65.2247C87.6664 64.1178 87.0621 63.4651 85.9658 63.4651H83.6088V69.1499ZM84.6158 64.4285H85.7419C86.3686 64.4285 86.652 64.707 86.652 65.2247C86.652 65.7261 86.3761 66.0128 85.7644 66.0128H84.6158V64.4285ZM90.4334 67.9636L92.1489 63.4651H91.142L90.0754 66.3472L89.0535 63.4651H87.9945L89.5161 67.7007C89.3371 68.067 89.24 68.1624 89.046 68.1624C89.061 68.1624 88.9641 68.1387 88.9118 68.1149C88.8745 68.0989 88.6061 68.0033 88.5687 67.9954V69.094C88.7851 69.1817 89.0759 69.2374 89.2101 69.2374C89.7547 69.2374 90.0828 68.7916 90.4334 67.9636ZM92.6113 69.1499H93.6182V66.9762H94.968C96.0646 66.9762 96.6686 66.3234 96.6686 65.2247C96.6686 64.1178 96.0646 63.4651 94.968 63.4651H92.6113V69.1499ZM93.6182 64.4285H94.7444C95.3709 64.4285 95.6542 64.707 95.6542 65.2247C95.6542 65.7261 95.3783 66.0128 94.7668 66.0128H93.6182V64.4285ZM97.437 69.1499H98.4437V64.4285H101.054V63.4651H97.437V69.1499ZM101.599 69.1499H102.785L104.888 65.2087V69.1499H105.895V63.4651H104.709L102.613 67.4062V63.4651H101.599V69.1499ZM108.17 67.2709C108.184 67.2947 108.214 66.8089 108.744 66.8089H109.997V69.1499H111.011V63.4651H109.027C108.259 63.4651 107.7 63.6083 107.349 63.9746C107.073 64.2613 106.931 64.6433 106.931 65.1052C106.931 65.5748 107.066 65.9652 107.364 66.2915C107.424 66.3631 107.491 66.4188 107.565 66.4747C107.424 66.602 107.319 66.8807 107.319 66.8648L106.573 69.1499H107.692C107.849 68.5209 108.155 67.2469 108.17 67.2709ZM109.997 64.4285V65.8058H108.744C108.498 65.8058 108.267 65.7739 108.132 65.6386C108.006 65.5113 107.938 65.3201 107.938 65.0812C107.938 64.6195 108.237 64.4285 108.841 64.4285H109.997ZM69.5646 74.4334C69.5646 75.9699 70.4223 77.4031 72.1229 77.4031C73.8233 77.4031 74.6811 75.9699 74.6811 74.4334C74.6811 72.8967 73.8233 71.4635 72.1229 71.4635C70.4223 71.4635 69.5646 72.8967 69.5646 74.4334ZM70.5715 74.4334C70.5715 73.4541 71.0339 72.435 72.1229 72.435C73.2043 72.435 73.6667 73.4541 73.6667 74.4334C73.6667 75.4127 73.2043 76.4318 72.1229 76.4318C71.0339 76.4318 70.5715 75.4127 70.5715 74.4334ZM75.5015 77.2758H76.5084V75.1021H77.8584C78.9547 75.1021 79.559 74.4493 79.559 73.3506C79.559 72.2438 78.9547 71.591 77.8584 71.591H75.5015V77.2758ZM76.5084 72.5544H77.6346C78.2613 72.5544 78.5446 72.833 78.5446 73.3506C78.5446 73.852 78.2687 74.1387 77.657 74.1387H76.5084V72.5544ZM81.5803 77.2758H82.5945V72.5544H84.2502V71.591H79.9245V72.5544H81.5803V77.2758ZM83.7655 77.2758H84.8172C84.9887 76.7741 85.2051 76.193 85.3767 75.6754H87.2486L87.7856 77.2758H88.8894L86.8161 71.5351H85.8465L83.7655 77.2758ZM86.3089 72.9205C86.5474 73.6532 86.7041 74.083 86.9129 74.712H85.7121L86.3089 72.9205ZM88.9268 77.2199C89.1431 77.3077 89.434 77.3633 89.5682 77.3633C90.3512 77.3633 90.9481 76.6466 90.9929 72.5544H92.4846V77.2758H93.4987V71.591H89.986C89.9262 74.29 89.8814 76.3283 89.3595 76.3283C89.3222 76.3283 89.1058 76.3124 88.9268 76.2487V77.2199ZM99.2046 77.2758H100.211V71.591H99.2046V77.2758ZM95.6022 73.8761V71.591H94.5878V77.2758H97.1609C97.6755 77.2758 98.0933 77.1005 98.4065 76.7503C98.7048 76.4237 98.8391 76.0336 98.8391 75.5638C98.8391 75.1021 98.6974 74.72 98.4215 74.4334C98.0709 74.0671 97.5114 73.8761 96.7433 73.8761H95.6022ZM95.6022 76.3124V74.8395H96.9298C97.5338 74.8395 97.8321 75.0783 97.8321 75.54C97.8321 75.7788 97.7651 75.9699 97.6382 76.0974C97.504 76.2327 97.3249 76.3124 97.0789 76.3124H95.6022ZM100.726 74.8395H101.449V77.2758H102.464V74.8395H103.881V73.8761H102.464V72.5544H105.067V71.591H101.449V73.8761H100.726V74.8395ZM110.198 77.2758H111.205V71.591H110.198V77.2758ZM106.596 73.8761V71.591H105.581V77.2758H108.155C108.669 77.2758 109.087 77.1005 109.4 76.7503C109.698 76.4237 109.833 76.0336 109.833 75.5638C109.833 75.1021 109.691 74.72 109.415 74.4334C109.065 74.0671 108.505 73.8761 107.737 73.8761H106.596ZM106.596 76.3124V74.8395H107.923C108.527 74.8395 108.826 75.0783 108.826 75.54C108.826 75.7788 108.759 75.9699 108.632 76.0974C108.498 76.2327 108.319 76.3124 108.073 76.3124H106.596Z" fill="#6AD0FF"/>
<path d="M116.991 52.9136H120.795V51.9502H118.005V50.4772H120.586V49.5138H118.005V48.1922H120.78V47.2288H116.991V52.9136ZM122.57 50.4772H123.905C124.375 50.4772 124.815 50.6364 124.815 51.1778C124.815 51.6476 124.516 51.9502 124.054 51.9502H122.57V50.4772ZM121.555 52.9136H124.136C125.24 52.9136 125.822 52.0775 125.822 51.2018C125.822 50.5886 125.583 50.1269 125.106 49.88C125.434 49.6093 125.613 49.2191 125.613 48.7177C125.613 48.1204 125.322 47.6905 124.942 47.4517C124.599 47.2288 123.994 47.2288 123.539 47.2288H121.555V52.9136ZM122.57 48.1922H123.718C124.196 48.1922 124.606 48.2797 124.606 48.853C124.606 49.291 124.345 49.5138 123.718 49.5138H122.57V48.1922ZM126.612 52.9136H127.619V50.7399H128.969C130.066 50.7399 130.67 50.0871 130.67 48.9884C130.67 47.8815 130.066 47.2288 128.969 47.2288H126.612V52.9136ZM127.619 48.1922H128.746C129.372 48.1922 129.655 48.4708 129.655 48.9884C129.655 49.4898 129.379 49.7765 128.768 49.7765H127.619V48.1922ZM131.177 50.0712C131.177 51.6079 132.035 53.0409 133.735 53.0409C135.436 53.0409 136.293 51.6079 136.293 50.0712C136.293 48.5345 135.436 47.1013 133.735 47.1013C132.035 47.1013 131.177 48.5345 131.177 50.0712ZM132.184 50.0712C132.184 49.0919 132.646 48.0728 133.735 48.0728C134.817 48.0728 135.279 49.0919 135.279 50.0712C135.279 51.0505 134.817 52.0696 133.735 52.0696C132.646 52.0696 132.184 51.0505 132.184 50.0712ZM137.114 52.9136H138.128V48.1922H140.403V52.9136H141.41V47.2288H137.114V52.9136ZM142.491 52.9136H146.295V51.9502H143.506V50.4772H146.086V49.5138H143.506V48.1922H146.28V47.2288H142.491V52.9136ZM147.056 52.9136H148.242L150.345 48.9803V52.9136H151.352V47.2288H150.166L148.07 51.1699V47.2288H147.056V52.9136ZM149.204 47.1888C150.002 47.1888 150.845 47.0694 150.845 45.7559H149.838C149.838 46.2495 149.472 46.3291 149.204 46.3291C148.943 46.3291 148.578 46.2495 148.578 45.7559H147.571C147.571 47.0694 148.413 47.1888 149.204 47.1888ZM156.983 49.2032C156.797 47.8259 155.857 47.1013 154.731 47.1013C153.082 47.1013 152.202 48.4389 152.202 50.0871C152.202 51.7351 153.008 53.0409 154.671 53.0409C156.036 53.0409 156.879 52.0934 157.021 50.5408H156.006C155.946 51.4166 155.499 52.0696 154.731 52.0696C153.664 52.0696 153.209 51.1459 153.209 50.0312C153.209 49.0203 153.664 48.0728 154.723 48.0728C155.327 48.0728 155.835 48.447 155.969 49.2032H156.983ZM160.914 52.9136H162.197C161.518 51.9502 160.638 50.6761 159.944 49.6811L162.092 47.2288H160.765L158.84 49.466V47.2288H157.834V52.9136H158.84V50.939L159.228 50.4932L160.914 52.9136ZM162.644 52.9136H163.83L165.933 48.9724V52.9136H166.94V47.2288H165.754L163.658 51.1699V47.2288H162.644V52.9136ZM168.029 52.9136H169.215L171.318 48.9803V52.9136H172.325V47.2288H171.139L169.044 51.1699V47.2288H168.029V52.9136ZM170.177 47.1888C170.975 47.1888 171.818 47.0694 171.818 45.7559H170.811C170.811 46.2495 170.446 46.3291 170.177 46.3291C169.916 46.3291 169.551 46.2495 169.551 45.7559H168.544C168.544 47.0694 169.387 47.1888 170.177 47.1888ZM117.006 61.0395H120.705V62.5125H121.667V60.0761H121.302V55.3547H120.288V60.0761H118.02V55.3547H117.006V61.0395ZM122.339 61.0395H126.142V60.0761H123.353V58.6032H125.934V57.6398H123.353V56.3181H126.127V55.3547H122.339V61.0395ZM126.903 61.0395H127.918V58.6032H130.192V61.0395H131.199V55.3547H130.192V57.6398H127.918V55.3547H126.903V61.0395ZM133.534 61.0395H134.548V56.3181H136.204V55.3547H131.878V56.3181H133.534V61.0395ZM136.704 61.0395H137.71V58.8658H139.06C140.157 58.8658 140.761 58.2131 140.761 57.1143C140.761 56.0075 140.157 55.3547 139.06 55.3547H136.704V61.0395ZM137.71 56.3181H138.837C139.463 56.3181 139.747 56.5967 139.747 57.1143C139.747 57.6158 139.471 57.9024 138.859 57.9024H137.71V56.3181ZM144.856 60.9836C145.072 61.0712 145.363 61.1271 145.497 61.1271C146.28 61.1271 146.877 60.4104 146.922 56.3181H148.413V61.0395H149.428V55.3547H145.915C145.855 58.0537 145.81 60.092 145.288 60.092C145.251 60.092 145.035 60.0761 144.856 60.0124V60.9836ZM150.054 61.0395H151.106C151.277 60.5378 151.494 59.9567 151.665 59.4391H153.537L154.074 61.0395H155.178L153.105 55.2988H152.135L150.054 61.0395ZM152.598 56.6842C152.836 57.4167 152.993 57.8467 153.202 58.4757H152.001L152.598 56.6842ZM156.797 58.4597C157.938 58.4597 158.482 58.6748 158.482 59.2799C158.482 59.6382 158.109 60.1318 157.483 60.1318C156.901 60.1318 156.446 59.8133 156.118 59.1524L155.208 59.5823C155.73 60.6095 156.498 61.1349 157.505 61.1349C158.572 61.1349 159.467 60.2671 159.467 59.1922C159.467 58.611 159.198 58.1731 158.773 57.9264C159.101 57.6717 159.325 57.3053 159.325 56.7877C159.325 55.7846 158.617 55.275 157.408 55.267C156.513 55.267 155.812 55.697 155.298 56.5489L156.14 56.9949C156.446 56.4613 156.879 56.1747 157.431 56.1747C157.983 56.1747 158.348 56.3657 158.348 56.7399C158.348 57.2972 157.811 57.4726 156.797 57.4726V58.4597ZM160.235 61.0395H164.039V60.0761H161.249V58.6032H163.83V57.6398H161.249V56.3181H164.024V55.3547H160.235V61.0395ZM164.8 61.0395H165.806V58.8658H167.156C168.253 58.8658 168.857 58.2131 168.857 57.1143C168.857 56.0075 168.253 55.3547 167.156 55.3547H164.8V61.0395ZM165.806 56.3181H166.933C167.559 56.3181 167.843 56.5967 167.843 57.1143C167.843 57.6158 167.567 57.9024 166.955 57.9024H165.806V56.3181ZM169.633 61.0395H170.647V58.6032H172.922V61.0395H173.929V55.3547H172.922V57.6398H170.647V55.3547H169.633V61.0395ZM174.749 58.1971C174.749 59.7336 175.607 61.1668 177.308 61.1668C179.008 61.1668 179.866 59.7336 179.866 58.1971C179.866 56.6604 179.008 55.2272 177.308 55.2272C175.607 55.2272 174.749 56.6604 174.749 58.1971ZM175.756 58.1971C175.756 57.2178 176.218 56.1985 177.308 56.1985C178.389 56.1985 178.851 57.2178 178.851 58.1971C178.851 59.1762 178.389 60.1955 177.308 60.1955C176.218 60.1955 175.756 59.1762 175.756 58.1971ZM180.686 61.0395H181.872L183.975 57.1062V61.0395H184.982V55.3547H183.796L181.7 59.2959V55.3547H180.686V61.0395ZM182.834 55.3148C183.632 55.3148 184.475 55.1954 184.475 53.8818H183.468C183.468 54.3754 183.103 54.4549 182.834 54.4549C182.573 54.4549 182.208 54.3754 182.208 53.8818H181.201C181.201 55.1954 182.044 55.3148 182.834 55.3148ZM116.514 69.1652H117.685L118.967 67.1271L120.205 69.1652H121.444C120.892 68.2896 120.146 67.1509 119.572 66.2512L121.339 63.4804H120.168C119.788 64.1015 119.378 64.7783 118.982 65.4072L117.819 63.4804H116.611L118.356 66.2512L116.514 69.1652ZM121.869 69.1652H123.055L125.158 65.2243V69.1652H126.165V63.4804H124.979L122.883 67.4216V63.4804H121.869V69.1652ZM127.254 69.1652H128.261V66.9917H129.611C130.707 66.9917 131.311 66.3388 131.311 65.24C131.311 64.1334 130.707 63.4804 129.611 63.4804H127.254V69.1652ZM128.261 64.4438H129.387C130.013 64.4438 130.297 64.7226 130.297 65.24C130.297 65.7417 130.021 66.0283 129.409 66.0283H128.261V64.4438ZM134.078 67.9789L135.794 63.4804H134.787L133.72 66.3628L132.699 63.4804H131.639L133.161 67.7163C132.982 68.0824 132.885 68.178 132.691 68.178C132.706 68.178 132.609 68.1542 132.557 68.1302C132.519 68.1143 132.251 68.0189 132.214 68.0108V69.1096C132.43 69.1971 132.721 69.253 132.855 69.253C133.399 69.253 133.728 68.807 134.078 67.9789ZM136.256 69.1652H137.263V66.9917H138.613C139.709 66.9917 140.314 66.3388 140.314 65.24C140.314 64.1334 139.709 63.4804 138.613 63.4804H136.256V69.1652ZM137.263 64.4438H138.389C139.016 64.4438 139.299 64.7226 139.299 65.24C139.299 65.7417 139.023 66.0283 138.412 66.0283H137.263V64.4438ZM141.082 69.1652H142.089V64.4438H144.699V63.4804H141.082V69.1652ZM145.244 69.1652H146.43L148.533 65.2243V69.1652H149.54V63.4804H148.354L146.258 67.4216V63.4804H145.244V69.1652ZM150.629 69.1652H151.814L153.918 65.2243V69.1652H154.925V63.4804H153.739L151.643 67.4216V63.4804H150.629V69.1652ZM116.991 77.2912H117.998V72.5698H120.608V71.6064H116.991V77.2912ZM120.743 77.2355C120.959 77.323 121.25 77.3787 121.384 77.3787C122.167 77.3787 122.764 76.6622 122.808 72.5698H124.3V77.2912H125.314V71.6064H121.802C121.742 74.3056 121.697 76.3437 121.175 76.3437C121.138 76.3437 120.922 76.3278 120.743 76.2642V77.2355ZM125.941 77.2912H126.993C127.164 76.7897 127.381 76.2083 127.552 75.6909H129.424L129.961 77.2912H131.065L128.992 71.5507H128.022L125.941 77.2912ZM128.484 72.9361C128.723 73.6685 128.88 74.0986 129.088 74.7275H127.888L128.484 72.9361ZM132.684 74.7116C133.825 74.7116 134.369 74.9266 134.369 75.5316C134.369 75.8898 133.996 76.3836 133.37 76.3836C132.788 76.3836 132.333 76.0651 132.005 75.4043L131.095 75.8342C131.617 76.8613 132.385 77.3868 133.392 77.3868C134.459 77.3868 135.354 76.519 135.354 75.444C135.354 74.8629 135.085 74.425 134.66 74.1781C134.988 73.9233 135.212 73.5572 135.212 73.0396C135.212 72.0364 134.503 71.5269 133.295 71.5188C132.4 71.5188 131.699 71.9489 131.184 72.8007L132.027 73.2465C132.333 72.7132 132.765 72.4266 133.318 72.4266C133.87 72.4266 134.235 72.6176 134.235 72.9918C134.235 73.5491 133.698 73.7242 132.684 73.7242V74.7116Z" fill="white"/>
</svg>
