<svg width="23" height="20" viewBox="0 0 23 20" fill="none" xmlns="http://www.w3.org/2000/svg">
<path d="M22.2086 12.0943C22.9359 12.7718 21.8102 13.8533 21.1039 13.1548L18.9219 11.0601L16.7398 13.1548C16.0337 13.8533 14.9079 12.7718 15.6352 12.0943L17.8171 9.99955L15.6352 7.9048C14.9079 7.22725 16.0336 6.1459 16.7398 6.8443L18.9219 8.93897L21.1039 6.8443C21.8101 6.1459 22.9359 7.22725 22.2086 7.9048L20.0266 9.99955L22.2086 12.0943ZM12.1668 1.2112L5.78508 5.49955H2.90625C2.28465 5.49955 1.68851 5.7366 1.24897 6.15856C0.80943 6.58051 0.5625 7.15281 0.5625 7.74955V12.2495C0.5625 12.8463 0.80943 13.4186 1.24897 13.8405C1.68851 14.2625 2.28465 14.4995 2.90625 14.4995H5.78508L12.1668 18.7879C12.4018 18.9417 12.6758 19.0314 12.9597 19.0475C13.2436 19.0636 13.5267 19.0055 13.7789 18.8794C14.0312 18.7533 14.243 18.5639 14.392 18.3314C14.541 18.0988 14.6215 17.8319 14.625 17.5589V2.44022C14.6214 2.16728 14.5408 1.90037 14.3918 1.66788C14.2428 1.4354 14.031 1.24605 13.7788 1.11996C13.5266 0.993871 13.2435 0.935771 12.9597 0.951837C12.6758 0.967903 12.4018 1.05754 12.1668 1.2112ZM5.25 12.9995H2.90625C2.69905 12.9995 2.50034 12.9205 2.35382 12.7799C2.20731 12.6392 2.125 12.4485 2.125 12.2495V7.74955C2.125 7.55064 2.20731 7.35987 2.35382 7.21922C2.50034 7.07857 2.69905 6.99955 2.90625 6.99955H5.25V12.9995ZM13.0633 17.5595H13.0625L6.8125 13.3595V6.6403L13.0625 2.4403L13.0671 17.5615L13.0633 17.5595Z" fill="#A9A9A9"/>
</svg>
