<svg width="67" height="69" viewBox="0 0 67 69" fill="none" xmlns="http://www.w3.org/2000/svg">
<ellipse cx="33.1302" cy="34.5" rx="33.1302" ry="34.5" fill="#0B83CF"/>
<path d="M28.0303 45.156C28.2201 45.2467 28.4332 45.2882 28.6467 45.2761C28.8603 45.2639 29.0662 45.1986 29.2424 45.087L44.496 35.3839C44.6519 35.2847 44.7793 35.1522 44.8672 34.9979C44.9552 34.8435 45.0012 34.6719 45.0012 34.4977C45.0012 34.3234 44.9552 34.1518 44.8672 33.9975C44.7793 33.8431 44.6519 33.7107 44.496 33.6115L29.2424 23.9083C29.0663 23.7964 28.8603 23.7309 28.6467 23.7188C28.433 23.7068 28.2198 23.7486 28.0302 23.8399C27.8406 23.9312 27.6818 24.0684 27.5709 24.2367C27.4601 24.4049 27.4014 24.5979 27.4014 24.7946V44.2008C27.4013 44.3976 27.4599 44.5907 27.5708 44.759C27.6816 44.9274 27.8406 45.0647 28.0303 45.156Z" fill="white"/>
</svg>
