<svg width="46" height="39" viewBox="0 0 46 39" fill="none" xmlns="http://www.w3.org/2000/svg">
<path opacity="0.5" fill-rule="evenodd" clip-rule="evenodd" d="M9.91312 0.0439763C4.14799 0.56518 -0.251049 5.51282 0.0111349 11.1808C0.123939 13.6189 0.94799 15.7299 2.52548 17.6216C5.20833 20.8388 9.82199 22.2455 13.8977 21.0889L14.5064 20.9162L14.4738 21.0738C13.9847 23.4396 13.5089 25.1331 12.75 27.2082C11.8873 29.5672 10.2884 32.8407 8.51775 35.8737C6.84468 38.7393 6.68423 39.1483 7.3121 38.9458C7.94182 38.7428 11.5399 36.2136 12.9342 34.9939C13.6843 34.3378 14.776 33.1689 15.5572 32.1856C17.4254 29.8335 19.1117 26.4861 20.184 23.0004C20.9451 20.5269 21.547 17.3801 21.7683 14.7192C21.7941 14.4087 21.8355 13.9513 21.8603 13.7029C21.8851 13.4544 21.9054 12.4719 21.9054 11.5196C21.9053 8.95865 21.6666 7.79789 20.7752 6.02371C19.8061 4.09458 18.4466 2.63072 16.6092 1.53802C14.6579 0.377568 12.2257 -0.165093 9.91312 0.0439763ZM34.0907 0.0399861C29.0948 0.492906 25.1119 4.1268 24.2587 9.01037C24.0576 10.1613 24.0907 11.8621 24.3354 12.95C24.8051 15.0389 25.8036 16.8272 27.3412 18.3338C30.1102 21.0466 33.9885 22.092 37.7871 21.1495C38.1856 21.0507 38.5266 20.9844 38.5449 21.0024C38.6721 21.127 37.9116 24.1544 37.2955 25.9757C36.2006 29.2128 34.871 32.0238 32.5141 36.0846C31.1381 38.4554 30.9519 38.8582 31.1702 38.9905C31.3654 39.1086 32.9557 38.1171 35.1415 36.5145C36.9577 35.1828 38.0138 34.1961 39.3687 32.5645C43.5821 27.4908 46.1536 19.1415 45.9929 11.0569C45.9612 9.46224 45.9263 8.99479 45.7994 8.4705C44.8884 4.70575 42.2792 1.83668 38.6196 0.575871C37.3175 0.127242 35.5001 -0.087774 34.0907 0.0399861Z" fill="white"/>
</svg>
