<svg width="7" height="5" viewBox="0 0 7 5" fill="none" xmlns="http://www.w3.org/2000/svg">
<path d="M3.12618 4.56913C3.15743 4.61092 3.19925 4.64509 3.24804 4.66869C3.29683 4.69229 3.35111 4.70463 3.40623 4.70463C3.46134 4.70463 3.51563 4.69229 3.56442 4.66869C3.6132 4.64509 3.65502 4.61092 3.68628 4.56913L6.75254 0.49207C6.78803 0.445045 6.80885 0.389965 6.81272 0.332816C6.81659 0.275666 6.80338 0.218632 6.77451 0.16791C6.74564 0.117189 6.70223 0.0747195 6.64898 0.0451169C6.59574 0.0155142 6.53469 -8.98033e-05 6.47249 3.8878e-07H0.339967C0.277907 0.00023636 0.217091 0.016041 0.164059 0.0457146C0.111028 0.0753882 0.0677863 0.117808 0.0389859 0.168412C0.0101855 0.219017 -0.00308437 0.275891 0.000603303 0.332918C0.00429098 0.389945 0.0247967 0.444969 0.0599152 0.49207L3.12618 4.56913Z" fill="#0096D1"/>
</svg>
