<svg width="21" height="20" viewBox="0 0 21 20" fill="none" xmlns="http://www.w3.org/2000/svg">
<path d="M14.6365 11.6327C14.4131 11.5241 13.3002 11.0083 13.0932 10.9385C12.8862 10.8648 12.7346 10.8299 12.585 11.0471C12.4333 11.2623 12.0029 11.7413 11.8677 11.8868C11.7365 12.0303 11.6033 12.0477 11.3799 11.9411C10.0518 11.3128 9.18076 10.8202 8.30563 9.39874C8.07404 9.02058 8.53722 9.04773 8.96967 8.23131C9.04345 8.08781 9.00656 7.96564 8.94917 7.85704C8.89178 7.74844 8.4409 6.69738 8.25234 6.2688C8.06994 5.85187 7.88138 5.91005 7.74407 5.90229C7.6129 5.89453 7.46329 5.89453 7.31162 5.89453C7.15996 5.89453 6.91607 5.94883 6.70907 6.16021C6.50207 6.37546 5.91797 6.89324 5.91797 7.94431C5.91797 8.99537 6.72752 10.0135 6.83819 10.157C6.95296 10.3005 8.43065 12.4569 10.6994 13.3858C12.1341 13.9715 12.6956 14.0219 13.413 13.921C13.8495 13.859 14.7492 13.4052 14.9357 12.9029C15.1222 12.4026 15.1222 11.974 15.0669 11.8848C15.0116 11.7898 14.8599 11.7355 14.6365 11.6327Z" fill="white"/>
<path d="M18.9751 6.56346C18.5119 5.52209 17.8478 4.58737 17.0014 3.78453C16.155 2.98362 15.1671 2.35337 14.0645 1.91704C12.9373 1.46908 11.7404 1.24219 10.5066 1.24219H10.4656C9.22357 1.24801 8.02052 1.48071 6.8892 1.93837C5.79682 2.38052 4.81716 3.00883 3.97892 3.80974C3.14067 4.61064 2.48279 5.54148 2.0278 6.57897C1.55642 7.65331 1.31867 8.79552 1.32482 9.9707C1.33097 11.3165 1.67119 12.6527 2.30858 13.8472V16.7949C2.30858 17.2874 2.73078 17.6869 3.25135 17.6869H6.36863C7.63112 18.29 9.04322 18.6119 10.4656 18.6178H10.5086C11.7363 18.6178 12.927 18.3928 14.0481 17.9526C15.1446 17.5202 16.1304 16.8996 16.9748 16.1064C17.8212 15.3133 18.4873 14.3863 18.9525 13.3527C19.4362 12.2823 19.6821 11.1439 19.6883 9.96876C19.6944 8.78776 19.4526 7.64167 18.9751 6.56346ZM15.8783 15.0573C14.4416 16.4032 12.5356 17.1439 10.5066 17.1439H10.4717C9.23587 17.1381 8.00822 16.8472 6.92404 16.3004L6.75188 16.2131H3.8662V13.4827L3.77397 13.3198C3.19601 12.2939 2.88859 11.1323 2.88244 9.96294C2.87424 8.02952 3.6551 6.21439 5.08769 4.84723C6.51824 3.48007 8.43042 2.72377 10.4738 2.71601H10.5086C11.5334 2.71601 12.5274 2.90411 13.464 3.27645C14.378 3.63909 15.1978 4.16074 15.9029 4.82784C16.6058 5.493 17.1592 6.27063 17.5425 7.13553C17.9401 8.03146 18.1389 8.98169 18.1348 9.96294C18.1225 11.8944 17.3211 13.7037 15.8783 15.0573Z" fill="white"/>
</svg>
