<svg width="18" height="17" viewBox="0 0 18 17" fill="none" xmlns="http://www.w3.org/2000/svg">
<path d="M13.1835 10.0455C12.9705 9.94055 11.9095 9.44203 11.7121 9.37456C11.5148 9.30335 11.3702 9.26961 11.2275 9.47951C11.0829 9.68754 10.6726 10.1504 10.5436 10.291C10.4186 10.4297 10.2915 10.4466 10.0786 10.3435C8.81235 9.73627 7.98189 9.26024 7.14753 7.88652C6.92672 7.52107 7.36833 7.54731 7.78063 6.7583C7.85097 6.61962 7.8158 6.50155 7.76109 6.3966C7.70638 6.29165 7.27649 5.27588 7.09672 4.8617C6.92281 4.45877 6.74304 4.51499 6.61213 4.5075C6.48707 4.5 6.34442 4.5 6.19983 4.5C6.05523 4.5 5.8227 4.55248 5.62535 4.75675C5.42799 4.96478 4.87109 5.46517 4.87109 6.48094C4.87109 7.4967 5.64293 8.48061 5.74845 8.6193C5.85787 8.75798 7.26672 10.842 9.42982 11.7397C10.7976 12.3057 11.333 12.3544 12.0169 12.2569C12.4332 12.197 13.291 11.7584 13.4688 11.273C13.6466 10.7895 13.6466 10.3753 13.5938 10.2891C13.5411 10.1973 13.3965 10.1448 13.1835 10.0455Z" fill="#0096D1"/>
<path d="M17.3198 5.14256C16.8782 4.13616 16.2451 3.23284 15.4381 2.45696C14.6311 1.68295 13.6892 1.07387 12.638 0.652191C11.5633 0.219271 10.4221 0 9.24581 0H9.20673C8.02259 0.00562233 6.87558 0.230516 5.79697 0.672806C4.75548 1.1001 3.82146 1.70732 3.02226 2.48132C2.22307 3.25533 1.59583 4.1549 1.16204 5.15755C0.712614 6.19581 0.485948 7.29966 0.49181 8.43537C0.497672 9.73601 0.822039 11.0273 1.42974 12.1817V15.0304C1.42974 15.5064 1.83227 15.8925 2.32859 15.8925H5.30065C6.50432 16.4753 7.85064 16.7864 9.20673 16.792H9.24776C10.4182 16.792 11.5535 16.5746 12.6223 16.1492C13.6677 15.7313 14.6076 15.1316 15.4127 14.3651C16.2197 13.5986 16.8547 12.7027 17.2983 11.7038C17.7595 10.6693 17.9939 9.56921 17.9998 8.4335C18.0057 7.29217 17.7751 6.18457 17.3198 5.14256V5.14256ZM14.3673 13.3512C12.9975 14.6518 11.1803 15.3677 9.24581 15.3677H9.21259C8.03432 15.3621 6.86386 15.081 5.83018 14.5525L5.66605 14.4681H2.91479V11.8294L2.82686 11.672C2.27583 10.6806 1.98273 9.55797 1.97686 8.42788C1.96905 6.55939 2.71353 4.80522 4.07939 3.48397C5.44329 2.16272 7.26639 1.43182 9.21454 1.42432H9.24776C10.2248 1.42432 11.1725 1.60611 12.0655 1.96594C12.9369 2.3164 13.7186 2.82054 14.3907 3.46523C15.061 4.10805 15.5885 4.85957 15.9539 5.69542C16.333 6.56126 16.5226 7.47958 16.5187 8.42788C16.5069 10.2945 15.7429 12.043 14.3673 13.3512V13.3512Z" fill="#0096D1"/>
</svg>
