<svg width="118" height="96" viewBox="0 0 118 96" fill="none" xmlns="http://www.w3.org/2000/svg">
<path d="M115.199 9.83337H106.422L112.163 3.99765H115.199C116.256 3.99765 117.113 3.12667 117.113 2.05242C117.113 0.978158 116.256 0.107178 115.199 0.107178H2.28081C1.22388 0.107178 0.366943 0.978158 0.366943 2.05242C0.366943 3.12667 1.22388 3.99765 2.28081 3.99765H11.0578L5.31619 9.83337H2.28081C1.22388 9.83337 0.366943 10.7043 0.366943 11.7786C0.366943 12.8529 1.22388 13.7238 2.28081 13.7238H8.10086L8.0224 21.1488L4.53917 24.8603C1.36311 28.2465 1.48488 33.6071 4.81093 36.8411L12.6195 44.4275C12.9755 44.7742 13.4492 44.9678 13.942 44.9683H13.986C14.2149 44.9573 14.4403 44.906 14.652 44.8165L35.9859 75.9715L31.2382 91.2991C30.9043 92.3196 30.2342 94.9523 31.2382 95.2917C32.2423 95.6312 33.711 94.1688 34.045 93.1483L38.7169 79.9573L44.7322 88.7458C45.3358 89.6278 46.5286 89.8456 47.3963 89.2322C48.264 88.6187 48.4784 87.4063 47.8748 86.5244L40.2193 75.3529L51.9379 39.6189C51.9967 39.4224 52.0238 39.2174 52.0183 39.0119H63.5416C63.5354 39.2366 63.5687 39.4603 63.6393 39.6733L71.9626 63.1057L70.5142 65.2092C69.8824 66.0704 70.0231 67.3667 70.8704 68.0086C71.7178 68.6505 71.7131 68.4327 71.9222 68.5202C72.5213 68.5202 72.457 68.5118 72.6674 68.3978L73.5531 67.5797L82.6631 91.923C82.937 92.6933 83.7433 94.9758 84.5491 94.976C84.7711 94.9763 85.6155 95.0536 85.8238 94.976C86.8171 94.6103 86.4932 92.3089 86.1344 91.2991L76.2325 63.6814L93.2161 39.0236L105.392 43.2545L95.5278 84.8813C95.2728 85.9239 94.8411 87.783 95.8669 88.0422L96.4568 88.2527C96.6097 88.2899 97.1562 88.2525 97.3136 88.2527C98.1926 88.2523 98.8098 86.8844 99.0215 86.0173L109.04 44.4819C109.171 44.5187 109.305 44.5415 109.44 44.55C110.258 44.5498 110.986 44.0204 111.25 43.2331L114.747 32.8475C116.236 28.4196 113.912 23.6037 109.557 22.0884L109.457 22.0514V13.7238H115.199C116.256 13.7238 117.113 12.8529 117.113 11.7786C117.113 10.7043 116.256 9.83337 115.199 9.83337ZM106.751 3.99765L101.802 9.02804L96.8524 3.99765H106.751ZM97.1816 9.83337H87.2831L92.2324 4.80298L97.1816 9.83337ZM87.6123 3.99765L82.6631 9.02804L77.7138 3.99765H87.6123ZM78.043 9.83337H68.1445L73.0937 4.80298L78.043 9.83337ZM68.4737 3.99765L63.5244 9.02804L58.5752 3.99765H68.4737ZM58.9044 9.83337H49.0059L53.9551 4.80298L58.9044 9.83337ZM49.335 3.99765L44.3858 9.02804L39.4365 3.99765H49.335ZM39.7657 9.83337H29.8672L34.8165 4.80298L39.7657 9.83337ZM30.1964 3.99765L25.2472 9.02804L20.2979 3.99765H30.1964ZM15.6778 4.80298L20.6271 9.83337H10.7286L15.6778 4.80298ZM13.8807 40.2666L7.44824 34.0282C5.64777 32.2785 5.58174 29.3772 7.30087 27.5448L11.6587 22.9229C12.481 22.0424 13.6149 21.532 14.809 21.5048H14.9123C16.0731 21.5021 17.1893 21.9576 18.0262 22.775L24.451 29.0095L13.8807 40.2666ZM37.4959 71.3749L17.4558 42.0932L25.4003 33.6372L45.2719 46.4894C45.3788 46.5505 45.4911 46.602 45.6068 46.6431L37.4959 71.3749ZM48.1159 38.9925L46.8375 42.883L28.0969 30.7622L28.5448 30.2856C29.2746 29.5085 29.2464 28.2771 28.4818 27.5353L20.673 19.9486C19.0833 18.381 16.9345 17.5382 14.7209 17.6143C13.7482 17.6442 12.7882 17.8477 11.8846 18.2154L11.9305 13.7238H55.869V17.6143H54.6384C50.0355 17.6206 46.3059 21.4117 46.2997 26.0897V37.0667C46.3028 38.0984 47.102 38.9458 48.1159 38.9925ZM65.4383 35.1215H50.1274V26.0897C50.1317 23.5592 52.1487 21.5092 54.6384 21.5048H60.9273C63.417 21.5092 65.434 23.5592 65.4383 26.0897V35.1215ZM93.0171 25.2941L89.5223 35.6817C89.3577 36.1699 89.3908 36.7044 89.6142 37.1679C89.6429 37.2243 89.6927 37.2612 89.7252 37.3157L74.6478 59.2074L67.4651 38.9886C68.472 38.9349 69.2624 38.0914 69.266 37.0667V26.0897C69.2598 21.4114 65.5299 17.6206 60.9273 17.6143H59.6967V13.7238H105.629V20.7267L103.606 20.0225C99.2505 18.5147 94.5154 20.8721 93.0171 25.2941ZM111.136 31.5909L108.265 40.1343L93.7635 35.0981L96.6343 26.5624C97.4366 24.163 100.001 22.8786 102.362 23.6942C102.367 23.6959 102.371 23.6973 102.376 23.699L108.328 25.7668C110.684 26.5884 111.941 29.1948 111.136 31.5909Z" fill="#FF889E"/>
</svg>
