<svg width="184" height="102" viewBox="0 0 184 102" fill="none" xmlns="http://www.w3.org/2000/svg">
<g clip-path="url(#clip0)">
<path d="M50.2534 7.62899L49.5481 7.62311C44.6075 7.58194 40.2393 9.67817 37.2473 13.5279C34.0453 17.6472 32.4531 23.4837 32.5147 30.8751L32.7899 63.8982C32.8324 69.0044 36.574 73.2892 41.4439 74.1904L42.2566 91.0015C42.3104 92.1156 43.2335 93.0029 44.348 93.0122L56.8777 93.1166C57.9916 93.1259 58.9006 92.2542 58.9359 91.1405L59.4683 74.3425C64.2391 73.5452 67.9955 69.4008 67.9522 64.1913L67.677 31.1681C67.6154 23.7767 65.9256 17.9129 62.6545 13.7396C59.5984 9.84028 55.1942 7.67016 50.2534 7.62899ZM54.8479 88.947L46.3084 88.8758L45.608 74.3869L55.3069 74.4677L54.8479 88.947ZM59.402 16.2676C62.0457 19.6405 63.4709 24.781 63.524 31.1335L63.7991 64.1566C63.8277 67.5995 61.0649 70.363 57.6214 70.3343L52.4993 70.2916L52.4521 64.6214L54.8055 64.641C55.9522 64.6506 56.8743 63.7288 56.8647 62.5818L56.5075 19.7241C56.4981 18.5779 55.5603 17.6398 54.4137 17.6303L45.5539 17.5565C44.4071 17.5468 43.4852 18.4689 43.4947 19.6157L43.8519 62.4733C43.8614 63.6194 44.7992 64.5576 45.9457 64.5671L48.2992 64.5867L48.3464 70.2569L43.2243 70.2142C39.7809 70.1854 36.9715 67.376 36.9428 63.9327L36.6675 30.9098C36.6147 24.5573 37.9545 19.4397 40.5424 16.1104C42.7118 13.3195 45.8009 11.7448 49.5829 11.7761L50.2882 11.782C53.9745 11.8127 57.126 13.3639 59.402 16.2676ZM47.9875 60.4314L47.6652 21.7267L52.372 21.7659L52.6944 60.4706L47.9875 60.4314Z" fill="#79C4EF"/>
</g>
<g clip-path="url(#clip1)">
<path d="M91.4363 8.04293L90.7309 8.03705C85.7903 7.99588 81.4221 10.0921 78.4302 13.9418C75.2282 18.0612 73.6359 23.8977 73.6975 31.289L73.9728 64.3122C74.0153 69.4183 77.7568 73.7031 82.6268 74.6044L83.4394 91.4155C83.4932 92.5295 84.4163 93.4168 85.5309 93.4261L98.0605 93.5305C99.1745 93.5398 100.083 92.6681 100.119 91.5544L100.651 74.7564C105.422 73.9591 109.178 69.8148 109.135 64.6053L108.86 31.582C108.798 24.1907 107.108 18.3268 103.837 14.1535C100.781 10.2542 96.3771 8.0841 91.4363 8.04293ZM96.0308 89.3609L87.4912 89.2898L86.7908 74.8009L96.4898 74.8817L96.0308 89.3609ZM100.585 16.6815C103.229 20.0544 104.654 25.195 104.707 31.5474L104.982 64.5706C105.011 68.0134 102.248 70.777 98.8043 70.7483L93.6822 70.7056L93.6349 65.0353L95.9884 65.0549C97.1351 65.0646 98.0572 64.1427 98.0475 62.9957L97.6904 20.138C97.6809 18.9919 96.7432 18.0537 95.5966 18.0442L86.7368 17.9704C85.59 17.9608 84.6681 18.8829 84.6776 20.0296L85.0348 62.8872C85.0443 64.0334 85.982 64.9715 87.1286 64.981L89.482 65.0006L89.5293 70.6709L84.4072 70.6282C80.9638 70.5994 78.1544 67.79 78.1257 64.3467L77.8504 31.3237C77.7976 24.9713 79.1374 19.8536 81.7252 16.5244C83.8947 13.7334 86.9837 12.1587 90.7657 12.19L91.4711 12.1959C95.1574 12.2266 98.3089 13.7778 100.585 16.6815ZM89.1704 60.8453L88.8481 22.1406L93.5549 22.1798L93.8772 60.8845L89.1704 60.8453Z" fill="#79C4EF"/>
</g>
<g clip-path="url(#clip2)">
<path d="M133.297 8.45772L132.592 8.45185C127.651 8.41067 123.283 10.5069 120.291 14.3566C117.089 18.476 115.497 24.3125 115.558 31.7038L115.833 64.727C115.876 69.8331 119.617 74.1179 124.487 75.0191L125.3 91.8302C125.354 92.9443 126.277 93.8316 127.391 93.8409L139.921 93.9453C141.035 93.9546 141.944 93.0829 141.979 91.9692L142.512 75.1712C147.283 74.3739 151.039 70.2296 150.996 65.0201L150.72 31.9968C150.659 24.6055 148.969 18.7416 145.698 14.5683C142.642 10.669 138.238 8.4989 133.297 8.45772ZM137.891 89.7757L129.352 89.7046L128.651 75.2156L138.35 75.2965L137.891 89.7757ZM142.446 17.0963C145.089 20.4692 146.514 25.6098 146.567 31.9622L146.843 64.9854C146.871 68.4282 144.108 71.1917 140.665 71.163L135.543 71.1204L135.496 65.4501L137.849 65.4697C138.996 65.4794 139.918 64.5575 139.908 63.4105L139.551 20.5528C139.542 19.4067 138.604 18.4685 137.457 18.459L128.597 18.3852C127.451 18.3756 126.529 19.2976 126.538 20.4444L126.895 63.302C126.905 64.4482 127.843 65.3863 128.989 65.3958L131.343 65.4154L131.39 71.0857L126.268 71.043C122.824 71.0142 120.015 68.2048 119.986 64.7615L119.711 31.7385C119.658 25.3861 120.998 20.2684 123.586 16.9391C125.755 14.1482 128.844 12.5735 132.626 12.6048L133.332 12.6107C137.018 12.6414 140.169 14.1926 142.446 17.0963ZM131.031 61.2601L130.709 22.5554L135.415 22.5946L135.738 61.2993L131.031 61.2601Z" fill="#79C4EF"/>
</g>
<defs>
<clipPath id="clip0">
<rect width="69.7253" height="70.8972" fill="white" transform="translate(0.539795 50.0574) rotate(-45)"/>
</clipPath>
<clipPath id="clip1">
<rect width="69.7253" height="70.8972" fill="white" transform="translate(41.7227 50.4713) rotate(-45)"/>
</clipPath>
<clipPath id="clip2">
<rect width="69.7253" height="71.3547" fill="white" transform="translate(83.5833 50.8861) rotate(-45)"/>
</clipPath>
</defs>
</svg>
