<svg width="109" height="108" viewBox="0 0 109 108" fill="none" xmlns="http://www.w3.org/2000/svg">
<path d="M77.9385 27.5774C77.9385 28.5694 78.2354 29.5391 78.7917 30.3639C79.3479 31.1887 80.1386 31.8316 81.0636 32.2112C81.9887 32.5908 83.0066 32.6902 83.9886 32.4966C84.9706 32.3031 85.8727 31.8254 86.5807 31.124C87.2887 30.4225 87.7709 29.5288 87.9662 28.5559C88.1615 27.583 88.0613 26.5745 87.6781 25.658C87.2949 24.7415 86.6461 23.9582 85.8135 23.4071C84.981 22.8559 84.0022 22.5618 83.001 22.5618C81.6583 22.5618 80.3706 23.0902 79.4212 24.0308C78.4718 24.9714 77.9385 26.2472 77.9385 27.5774ZM84.6885 27.5774C84.6885 27.9081 84.5895 28.2313 84.4041 28.5062C84.2187 28.7812 83.9551 28.9955 83.6468 29.122C83.3384 29.2485 82.9991 29.2817 82.6718 29.2171C82.3444 29.1526 82.0437 28.9934 81.8077 28.7596C81.5717 28.5258 81.411 28.2279 81.3459 27.9036C81.2808 27.5792 81.3142 27.2431 81.4419 26.9376C81.5696 26.6321 81.7859 26.371 82.0634 26.1873C82.341 26.0036 82.6672 25.9055 83.001 25.9055C83.4485 25.9055 83.8777 26.0817 84.1942 26.3952C84.5107 26.7087 84.6885 27.134 84.6885 27.5774Z" fill="#FFF49A"/>
<path d="M23.9385 27.5774C23.9385 28.5694 24.2354 29.5391 24.7917 30.3639C25.3479 31.1887 26.1386 31.8316 27.0636 32.2112C27.9887 32.5908 29.0066 32.6902 29.9886 32.4966C30.9706 32.3031 31.8727 31.8254 32.5807 31.124C33.2887 30.4225 33.7709 29.5288 33.9662 28.5559C34.1615 27.583 34.0613 26.5745 33.6781 25.658C33.2949 24.7415 32.6461 23.9582 31.8135 23.4071C30.981 22.8559 30.0022 22.5618 29.001 22.5618C27.6583 22.5618 26.3707 23.0902 25.4213 24.0308C24.4718 24.9714 23.9385 26.2472 23.9385 27.5774ZM30.6885 27.5774C30.6885 27.9081 30.5895 28.2313 30.4041 28.5062C30.2187 28.7812 29.9551 28.9955 29.6468 29.122C29.3384 29.2485 28.9991 29.2817 28.6718 29.2171C28.3444 29.1526 28.0437 28.9934 27.8077 28.7596C27.5717 28.5258 27.411 28.2279 27.3459 27.9036C27.2808 27.5792 27.3142 27.2431 27.4419 26.9376C27.5697 26.6321 27.7859 26.371 28.0635 26.1873C28.341 26.0036 28.6672 25.9055 29.001 25.9055C29.4485 25.9055 29.8778 26.0817 30.1942 26.3952C30.5107 26.7087 30.6885 27.134 30.6885 27.5774Z" fill="#FFF49A"/>
<path d="M50.9385 27.5774C50.9385 28.5694 51.2354 29.5391 51.7917 30.3639C52.3479 31.1887 53.1386 31.8316 54.0636 32.2112C54.9887 32.5908 56.0066 32.6902 56.9886 32.4966C57.9706 32.3031 58.8727 31.8254 59.5807 31.124C60.2887 30.4225 60.7709 29.5288 60.9662 28.5559C61.1615 27.583 61.0613 26.5745 60.6781 25.658C60.2949 24.7415 59.6461 23.9582 58.8135 23.4071C57.981 22.8559 57.0022 22.5618 56.001 22.5618C54.6583 22.5618 53.3706 23.0902 52.4212 24.0308C51.4718 24.9714 50.9385 26.2472 50.9385 27.5774ZM57.6885 27.5774C57.6885 27.9081 57.5895 28.2313 57.4041 28.5062C57.2187 28.7812 56.9551 28.9955 56.6467 29.122C56.3384 29.2485 55.9991 29.2817 55.6718 29.2171C55.3444 29.1526 55.0437 28.9934 54.8077 28.7596C54.5717 28.5258 54.411 28.2279 54.3459 27.9036C54.2808 27.5792 54.3142 27.2431 54.4419 26.9376C54.5696 26.6321 54.7859 26.371 55.0634 26.1873C55.341 26.0036 55.6672 25.9055 56.001 25.9055C56.4485 25.9055 56.8777 26.0817 57.1942 26.3952C57.5107 26.7087 57.6885 27.134 57.6885 27.5774Z" fill="#FFF49A"/>
<path d="M3.68848 20.8899L3.68848 34.2649C3.68848 34.7083 3.86627 35.1335 4.18274 35.4471C4.49921 35.7606 4.92843 35.9368 5.37598 35.9368L88.0635 35.9368L88.0635 45.968L18.876 45.968C18.4285 45.9681 17.9993 46.1443 17.6829 46.4579L4.18292 59.8329C3.86643 60.1463 3.68857 60.5715 3.68848 61.0149L3.68848 74.3899C3.68857 74.8333 3.86643 75.2584 4.18292 75.5719L17.6829 88.9469C17.9993 89.2605 18.4285 89.4367 18.876 89.4368L103.251 89.4368C103.699 89.4368 104.128 89.2606 104.444 88.9471C104.761 88.6336 104.938 88.2083 104.938 87.7649L104.938 74.3899C104.938 73.9465 104.761 73.5212 104.444 73.2077C104.128 72.8942 103.699 72.718 103.251 72.718L20.5635 72.718L20.5635 62.6868L103.251 62.6868C103.699 62.6868 104.128 62.5106 104.444 62.1971C104.761 61.8836 104.938 61.4583 104.938 61.0149L104.938 34.2649C104.938 33.8215 104.761 33.3963 104.444 33.0829L90.944 19.7079C90.6276 19.3943 90.1985 19.2181 89.751 19.218L5.37598 19.218C4.92843 19.218 4.49921 19.3942 4.18274 19.7077C3.86627 20.0212 3.68848 20.4465 3.68848 20.8899ZM25.626 76.0618L101.563 76.0618L101.563 86.093L19.5746 86.093L9.44961 76.0618L25.626 76.0618ZM17.1885 62.6868L17.1885 72.718L7.06348 72.718L7.06348 62.6868L17.1885 62.6868ZM25.626 49.3118L101.563 49.3118L101.563 59.343L9.44961 59.343L19.5746 49.3118L25.626 49.3118ZM101.563 35.9368L101.563 45.968L91.4385 45.968L91.4385 35.9368L101.563 35.9368ZM15.501 22.5618L89.0524 22.5618L99.1774 32.593L7.06348 32.593L7.06348 22.5618L15.501 22.5618Z" fill="#FFF49A"/>
<path d="M34.0635 81.0774C34.0635 82.0694 34.3604 83.0391 34.9167 83.8639C35.473 84.6887 36.2636 85.3316 37.1887 85.7112C38.1137 86.0908 39.1316 86.1902 40.1136 85.9966C41.0957 85.8031 41.9977 85.3254 42.7057 84.624C43.4137 83.9225 43.8959 83.0288 44.0912 82.0559C44.2865 81.083 44.1863 80.0745 43.8031 79.158C43.4199 78.2415 42.7711 77.4582 41.9386 76.9071C41.106 76.3559 40.1272 76.0618 39.126 76.0618C37.7833 76.0618 36.4957 76.5902 35.5463 77.5308C34.5969 78.4714 34.0635 79.7472 34.0635 81.0774ZM40.8135 81.0774C40.8135 81.4081 40.7145 81.7313 40.5291 82.0062C40.3437 82.2812 40.0801 82.4955 39.7718 82.622C39.4634 82.7485 39.1241 82.7816 38.7968 82.7171C38.4694 82.6526 38.1687 82.4934 37.9327 82.2596C37.6967 82.0258 37.536 81.7279 37.4709 81.4036C37.4058 81.0792 37.4392 80.7431 37.5669 80.4376C37.6947 80.1321 37.911 79.871 38.1885 79.6873C38.466 79.5036 38.7922 79.4055 39.126 79.4055C39.5735 79.4055 40.0028 79.5817 40.3192 79.8952C40.6357 80.2087 40.8135 80.634 40.8135 81.0774Z" fill="#FFF49A"/>
<path d="M61.0635 81.0774C61.0635 82.0694 61.3604 83.0391 61.9167 83.8639C62.4729 84.6887 63.2636 85.3316 64.1886 85.7112C65.1137 86.0908 66.1316 86.1902 67.1136 85.9966C68.0956 85.8031 68.9977 85.3254 69.7057 84.624C70.4137 83.9225 70.8959 83.0288 71.0912 82.0559C71.2865 81.083 71.1863 80.0745 70.8031 79.158C70.4199 78.2415 69.7711 77.4582 68.9385 76.9071C68.106 76.3559 67.1272 76.0618 66.126 76.0618C64.7833 76.0618 63.4956 76.5902 62.5462 77.5308C61.5968 78.4714 61.0635 79.7472 61.0635 81.0774ZM67.8135 81.0774C67.8135 81.4081 67.7145 81.7313 67.5291 82.0062C67.3437 82.2812 67.0801 82.4955 66.7718 82.622C66.4634 82.7485 66.1241 82.7817 65.7968 82.7171C65.4694 82.6526 65.1687 82.4934 64.9327 82.2596C64.6967 82.0258 64.536 81.7279 64.4709 81.4036C64.4058 81.0792 64.4392 80.7431 64.5669 80.4376C64.6947 80.1321 64.9109 79.871 65.1884 79.6873C65.466 79.5036 65.7922 79.4055 66.126 79.4055C66.5735 79.4055 67.0028 79.5817 67.3192 79.8952C67.6357 80.2087 67.8135 80.634 67.8135 81.0774Z" fill="#FFF49A"/>
<path d="M88.0635 81.0774C88.0635 82.0694 88.3604 83.0391 88.9167 83.8639C89.4729 84.6887 90.2636 85.3316 91.1886 85.7112C92.1137 86.0909 93.1316 86.1902 94.1136 85.9967C95.0956 85.8031 95.9977 85.3254 96.7057 84.624C97.4137 83.9225 97.8959 83.0288 98.0912 82.0559C98.2865 81.083 98.1863 80.0745 97.8031 79.158C97.4199 78.2415 96.7711 77.4582 95.9385 76.9071C95.106 76.3559 94.1272 76.0618 93.126 76.0618C91.7833 76.0618 90.4956 76.5902 89.5462 77.5308C88.5968 78.4714 88.0635 79.7472 88.0635 81.0774ZM94.8135 81.0774C94.8135 81.4081 94.7145 81.7313 94.5291 82.0062C94.3437 82.2812 94.0801 82.4955 93.7718 82.622C93.4634 82.7485 93.1241 82.7817 92.7968 82.7172C92.4694 82.6526 92.1687 82.4934 91.9327 82.2596C91.6967 82.0258 91.536 81.7279 91.4709 81.4036C91.4058 81.0793 91.4392 80.7431 91.5669 80.4376C91.6947 80.1321 91.9109 79.871 92.1884 79.6873C92.466 79.5036 92.7922 79.4055 93.126 79.4055C93.5735 79.4055 94.0027 79.5817 94.3192 79.8952C94.6357 80.2087 94.8135 80.634 94.8135 81.0774Z" fill="#FFF49A"/>
<path d="M20.5635 54.3274C20.5635 55.3194 20.8604 56.2891 21.4167 57.1139C21.9729 57.9387 22.7636 58.5816 23.6886 58.9612C24.6137 59.3408 25.6316 59.4402 26.6136 59.2466C27.5956 59.0531 28.4977 58.5754 29.2057 57.874C29.9137 57.1725 30.3959 56.2788 30.5912 55.3059C30.7865 54.333 30.6863 53.3245 30.3031 52.408C29.9199 51.4915 29.2711 50.7082 28.4385 50.1571C27.606 49.6059 26.6272 49.3118 25.626 49.3118C24.2833 49.3118 22.9957 49.8402 22.0463 50.7808C21.0968 51.7214 20.5635 52.9972 20.5635 54.3274ZM27.3135 54.3274C27.3135 54.6581 27.2145 54.9813 27.0291 55.2562C26.8437 55.5312 26.5801 55.7455 26.2718 55.872C25.9634 55.9985 25.6241 56.0316 25.2968 55.9671C24.9694 55.9026 24.6687 55.7434 24.4327 55.5096C24.1967 55.2758 24.036 54.9779 23.9709 54.6536C23.9058 54.3292 23.9392 53.9931 24.0669 53.6876C24.1947 53.3821 24.4109 53.121 24.6885 52.9373C24.966 52.7536 25.2922 52.6555 25.626 52.6555C26.0735 52.6555 26.5028 52.8317 26.8192 53.1452C27.1357 53.4587 27.3135 53.884 27.3135 54.3274Z" fill="#FFF49A"/>
<path d="M74.5635 54.3274C74.5635 55.3194 74.8604 56.2891 75.4167 57.1139C75.9729 57.9387 76.7636 58.5816 77.6886 58.9612C78.6137 59.3408 79.6316 59.4402 80.6136 59.2466C81.5956 59.0531 82.4977 58.5754 83.2057 57.874C83.9137 57.1725 84.3959 56.2788 84.5912 55.3059C84.7865 54.333 84.6863 53.3245 84.3031 52.408C83.9199 51.4915 83.2711 50.7082 82.4385 50.1571C81.606 49.6059 80.6272 49.3118 79.626 49.3118C78.2833 49.3118 76.9956 49.8402 76.0462 50.7808C75.0968 51.7214 74.5635 52.9972 74.5635 54.3274ZM81.3135 54.3274C81.3135 54.6581 81.2145 54.9813 81.0291 55.2562C80.8437 55.5312 80.5801 55.7455 80.2717 55.872C79.9634 55.9985 79.6241 56.0317 79.2968 55.9671C78.9694 55.9026 78.6687 55.7434 78.4327 55.5096C78.1967 55.2758 78.036 54.9779 77.9709 54.6536C77.9058 54.3293 77.9392 53.9931 78.0669 53.6876C78.1946 53.3821 78.4109 53.121 78.6884 52.9373C78.966 52.7536 79.2922 52.6555 79.626 52.6555C80.0735 52.6555 80.5027 52.8317 80.8192 53.1452C81.1357 53.4587 81.3135 53.884 81.3135 54.3274Z" fill="#FFF49A"/>
<path d="M47.5635 54.3274C47.5635 55.3194 47.8604 56.2891 48.4167 57.1139C48.9729 57.9387 49.7636 58.5816 50.6886 58.9612C51.6137 59.3408 52.6316 59.4402 53.6136 59.2466C54.5956 59.0531 55.4977 58.5754 56.2057 57.874C56.9137 57.1725 57.3959 56.2788 57.5912 55.3059C57.7865 54.333 57.6863 53.3245 57.3031 52.408C56.9199 51.4915 56.2711 50.7082 55.4385 50.1571C54.606 49.6059 53.6272 49.3118 52.626 49.3118C51.2833 49.3118 49.9957 49.8402 49.0463 50.7808C48.0969 51.7214 47.5635 52.9972 47.5635 54.3274ZM54.3135 54.3274C54.3135 54.6581 54.2145 54.9813 54.0291 55.2562C53.8437 55.5312 53.5801 55.7455 53.2718 55.872C52.9634 55.9985 52.6241 56.0316 52.2968 55.9671C51.9694 55.9026 51.6687 55.7434 51.4327 55.5096C51.1967 55.2758 51.036 54.9779 50.9709 54.6536C50.9058 54.3292 50.9392 53.9931 51.0669 53.6876C51.1947 53.3821 51.4109 53.121 51.6885 52.9373C51.966 52.7536 52.2922 52.6555 52.626 52.6555C53.0735 52.6555 53.5028 52.8317 53.8192 53.1452C54.1357 53.4587 54.3135 53.884 54.3135 54.3274Z" fill="#FFF49A"/>
<path d="M98.1885 39.2805L98.1885 42.6243L94.8135 42.6243L94.8135 39.2805L98.1885 39.2805Z" fill="#FFF49A"/>
<path d="M13.8135 66.0305L13.8135 69.3743L10.4385 69.3743L10.4385 66.0305L13.8135 66.0305Z" fill="#FFF49A"/>
<path d="M56.001 7.51489L56.001 15.8743L52.626 15.8743L52.626 7.51489L56.001 7.51489Z" fill="#FFF49A"/>
<path d="M63.0884 8.18359L65.7884 10.1898L60.7259 16.8773L58.0259 14.8711L63.0884 8.18359Z" fill="#FFF49A"/>
<path d="M45.53 8.17529L50.5925 14.8628L47.8925 16.869L42.83 10.1815L45.53 8.17529Z" fill="#FFF49A"/>
<path d="M56.001 92.7805L56.001 101.14L52.626 101.14L52.626 92.7805L56.001 92.7805Z" fill="#FFF49A"/>
<path d="M60.7058 91.7808L65.7683 98.4683L63.0683 100.475L58.0058 93.787L60.7058 91.7808Z" fill="#FFF49A"/>
<path d="M47.9009 91.7773L50.6009 93.7836L45.5384 100.471L42.8384 98.4648L47.9009 91.7773Z" fill="#FFF49A"/>
</svg>
