<svg width="110" height="111" viewBox="0 0 110 111" fill="none" xmlns="http://www.w3.org/2000/svg">
<g clip-path="url(#clip0)">
<path d="M107.757 17.1069H2.45195C1.43169 17.1069 0.604492 17.9417 0.604492 18.9713V91.6832C0.604492 92.7128 1.43169 93.5476 2.45195 93.5476H107.757C108.777 93.5476 109.604 92.7128 109.604 91.6832V18.9713C109.604 17.9417 108.777 17.1069 107.757 17.1069ZM105.91 89.8188H4.29941V20.8357H105.91V89.8188Z" fill="#C68EFF"/>
<path d="M21.8501 32.0223C18.279 32.0223 15.384 34.9439 15.384 38.5478C15.384 42.1517 18.279 45.0732 21.8501 45.0732C25.4213 45.0732 28.3162 42.1517 28.3162 38.5478C28.3162 34.9439 25.4213 32.0223 21.8501 32.0223ZM21.8501 41.3444C20.3197 41.3444 19.0789 40.0922 19.0789 38.5478C19.0789 37.0033 20.3197 35.7512 21.8501 35.7512C23.3805 35.7512 24.6213 37.0033 24.6213 38.5478C24.6213 40.0922 23.3805 41.3444 21.8501 41.3444Z" fill="#C68EFF"/>
<path d="M38.4773 32.0223C34.9062 32.0223 32.0112 34.9439 32.0112 38.5478C32.0112 42.1517 34.9062 45.0732 38.4773 45.0732C42.0485 45.0732 44.9434 42.1517 44.9434 38.5478C44.9434 34.9439 42.0485 32.0223 38.4773 32.0223ZM38.4773 41.3444C36.9469 41.3444 35.7061 40.0922 35.7061 38.5478C35.7061 37.0033 36.9469 35.7512 38.4773 35.7512C40.0077 35.7512 41.2485 37.0033 41.2485 38.5478C41.2485 40.0922 40.0077 41.3444 38.4773 41.3444Z" fill="#C68EFF"/>
<path d="M55.1045 32.0223C51.5334 32.0223 48.6384 34.9439 48.6384 38.5478C48.6384 42.1517 51.5334 45.0732 55.1045 45.0732C58.6757 45.0732 61.5706 42.1517 61.5706 38.5478C61.5706 34.9439 58.6757 32.0223 55.1045 32.0223ZM55.1045 41.3444C53.5741 41.3444 52.3333 40.0922 52.3333 38.5478C52.3333 37.0033 53.5741 35.7512 55.1045 35.7512C56.6349 35.7512 57.8757 37.0033 57.8757 38.5478C57.8757 40.0922 56.6349 41.3444 55.1045 41.3444Z" fill="#C68EFF"/>
<path d="M71.7317 32.0223C68.1606 32.0223 65.2656 34.9439 65.2656 38.5478C65.2656 42.1517 68.1606 45.0732 71.7317 45.0732C75.3029 45.0732 78.1978 42.1517 78.1978 38.5478C78.1978 34.9439 75.3029 32.0223 71.7317 32.0223ZM71.7317 41.3444C70.2013 41.3444 68.9605 40.0922 68.9605 38.5478C68.9605 37.0033 70.2013 35.7512 71.7317 35.7512C73.2621 35.7512 74.5029 37.0033 74.5029 38.5478C74.5029 40.0922 73.2621 41.3444 71.7317 41.3444Z" fill="#C68EFF"/>
<path d="M88.3587 32.0223C84.7875 32.0223 81.8926 34.9439 81.8926 38.5478C81.8926 42.1517 84.7875 45.0732 88.3587 45.0732C91.9298 45.0732 94.8248 42.1517 94.8248 38.5478C94.8248 34.9439 91.9298 32.0223 88.3587 32.0223ZM88.3587 41.3444C86.8283 41.3444 85.5875 40.0922 85.5875 38.5478C85.5875 37.0033 86.8283 35.7512 88.3587 35.7512C89.8891 35.7512 91.1299 37.0033 91.1299 38.5478C91.1299 40.0922 89.8891 41.3444 88.3587 41.3444Z" fill="#C68EFF"/>
<path d="M21.8501 48.802C18.279 48.802 15.384 51.7235 15.384 55.3274C15.384 58.9313 18.279 61.8529 21.8501 61.8529C25.4213 61.8529 28.3162 58.9313 28.3162 55.3274C28.3162 51.7235 25.4213 48.802 21.8501 48.802ZM21.8501 58.124C20.3197 58.124 19.0789 56.8719 19.0789 55.3274C19.0789 53.783 20.3197 52.5308 21.8501 52.5308C23.3805 52.5308 24.6213 53.783 24.6213 55.3274C24.6213 56.8719 23.3805 58.124 21.8501 58.124Z" fill="#C68EFF"/>
<path d="M38.4773 48.802C34.9062 48.802 32.0112 51.7235 32.0112 55.3274C32.0112 58.9313 34.9062 61.8529 38.4773 61.8529C42.0485 61.8529 44.9434 58.9313 44.9434 55.3274C44.9434 51.7235 42.0485 48.802 38.4773 48.802ZM38.4773 58.124C36.9469 58.124 35.7061 56.8719 35.7061 55.3274C35.7061 53.783 36.9469 52.5308 38.4773 52.5308C40.0077 52.5308 41.2485 53.783 41.2485 55.3274C41.2485 56.8719 40.0077 58.124 38.4773 58.124Z" fill="#C68EFF"/>
<path d="M55.1045 48.802C51.5334 48.802 48.6384 51.7235 48.6384 55.3274C48.6384 58.9313 51.5334 61.8529 55.1045 61.8529C58.6757 61.8529 61.5706 58.9313 61.5706 55.3274C61.5706 51.7235 58.6757 48.802 55.1045 48.802ZM55.1045 58.124C53.5741 58.124 52.3333 56.8719 52.3333 55.3274C52.3333 53.783 53.5741 52.5308 55.1045 52.5308C56.6349 52.5308 57.8757 53.783 57.8757 55.3274C57.8757 56.8719 56.6349 58.124 55.1045 58.124Z" fill="#C68EFF"/>
<path d="M71.7317 48.802C68.1606 48.802 65.2656 51.7235 65.2656 55.3274C65.2656 58.9313 68.1606 61.8529 71.7317 61.8529C75.3029 61.8529 78.1978 58.9313 78.1978 55.3274C78.1978 51.7235 75.3029 48.802 71.7317 48.802ZM71.7317 58.124C70.2013 58.124 68.9605 56.8719 68.9605 55.3274C68.9605 53.783 70.2013 52.5308 71.7317 52.5308C73.2621 52.5308 74.5029 53.783 74.5029 55.3274C74.5029 56.8719 73.2621 58.124 71.7317 58.124Z" fill="#C68EFF"/>
<path d="M88.3587 48.802C84.7875 48.802 81.8926 51.7235 81.8926 55.3274C81.8926 58.9313 84.7875 61.8529 88.3587 61.8529C91.9298 61.8529 94.8248 58.9313 94.8248 55.3274C94.8248 51.7235 91.9298 48.802 88.3587 48.802ZM88.3587 58.124C86.8283 58.124 85.5875 56.8719 85.5875 55.3274C85.5875 53.783 86.8283 52.5308 88.3587 52.5308C89.8891 52.5308 91.1299 53.783 91.1299 55.3274C91.1299 56.8719 89.8891 58.124 88.3587 58.124Z" fill="#C68EFF"/>
<path d="M21.8501 65.5815C18.279 65.5815 15.384 68.5031 15.384 72.107C15.384 75.7109 18.279 78.6324 21.8501 78.6324C25.4213 78.6324 28.3162 75.7109 28.3162 72.107C28.3162 68.5031 25.4213 65.5815 21.8501 65.5815ZM21.8501 74.9036C20.3197 74.9036 19.0789 73.6514 19.0789 72.107C19.0789 70.5625 20.3197 69.3104 21.8501 69.3104C23.3805 69.3104 24.6213 70.5625 24.6213 72.107C24.6213 73.6514 23.3805 74.9036 21.8501 74.9036Z" fill="#C68EFF"/>
<path d="M38.4773 65.5815C34.9062 65.5815 32.0112 68.5031 32.0112 72.107C32.0112 75.7109 34.9062 78.6324 38.4773 78.6324C42.0485 78.6324 44.9434 75.7109 44.9434 72.107C44.9434 68.5031 42.0485 65.5815 38.4773 65.5815ZM38.4773 74.9036C36.9469 74.9036 35.7061 73.6514 35.7061 72.107C35.7061 70.5625 36.9469 69.3104 38.4773 69.3104C40.0077 69.3104 41.2485 70.5625 41.2485 72.107C41.2485 73.6514 40.0077 74.9036 38.4773 74.9036Z" fill="#C68EFF"/>
<path d="M55.1045 65.5815C51.5334 65.5815 48.6384 68.5031 48.6384 72.107C48.6384 75.7109 51.5334 78.6324 55.1045 78.6324C58.6757 78.6324 61.5706 75.7109 61.5706 72.107C61.5706 68.5031 58.6757 65.5815 55.1045 65.5815ZM55.1045 74.9036C53.5741 74.9036 52.3333 73.6514 52.3333 72.107C52.3333 70.5625 53.5741 69.3104 55.1045 69.3104C56.6349 69.3104 57.8757 70.5625 57.8757 72.107C57.8757 73.6514 56.6349 74.9036 55.1045 74.9036Z" fill="#C68EFF"/>
<path d="M71.7317 65.5815C68.1606 65.5815 65.2656 68.5031 65.2656 72.107C65.2656 75.7109 68.1606 78.6324 71.7317 78.6324C75.3029 78.6324 78.1978 75.7109 78.1978 72.107C78.1978 68.5031 75.3029 65.5815 71.7317 65.5815ZM71.7317 74.9036C70.2013 74.9036 68.9605 73.6514 68.9605 72.107C68.9605 70.5625 70.2013 69.3104 71.7317 69.3104C73.2621 69.3104 74.5029 70.5625 74.5029 72.107C74.5029 73.6514 73.2621 74.9036 71.7317 74.9036Z" fill="#C68EFF"/>
<path d="M88.3587 65.5815C84.7875 65.5815 81.8926 68.5031 81.8926 72.107C81.8926 75.7109 84.7875 78.6324 88.3587 78.6324C91.9298 78.6324 94.8248 75.7109 94.8248 72.107C94.8248 68.5031 91.9298 65.5815 88.3587 65.5815ZM88.3587 74.9036C86.8283 74.9036 85.5875 73.6514 85.5875 72.107C85.5875 70.5625 86.8283 69.3104 88.3587 69.3104C89.8891 69.3104 91.1299 70.5625 91.1299 72.107C91.1299 73.6514 89.8891 74.9036 88.3587 74.9036Z" fill="#C68EFF"/>
</g>
<defs>
<clipPath id="clip0">
<rect width="109" height="110" fill="white" transform="translate(0.604492 0.327393)"/>
</clipPath>
</defs>
</svg>
