<svg width="118" height="83" viewBox="0 0 118 83" fill="none" xmlns="http://www.w3.org/2000/svg">
<path d="M115.077 0.780029H1.98409C0.888377 0.780029 0 1.66841 0 2.76412V80.1437C0 81.2394 0.888377 82.1278 1.98409 82.1278H115.077C116.173 82.1278 117.061 81.2394 117.061 80.1437V2.76412C117.061 1.66841 116.173 0.780029 115.077 0.780029ZM113.093 78.1596H3.96818V4.74821H113.093V78.1596Z" fill="#C8FFBA"/>
<path d="M107.141 8.71631H9.92061C8.8249 8.71631 7.93652 9.60469 7.93652 10.7004V72.2072C7.93652 73.303 8.8249 74.1913 9.92061 74.1913H107.141C108.237 74.1913 109.125 73.303 109.125 72.2072V10.7004C109.125 9.60469 108.237 8.71631 107.141 8.71631ZM105.157 70.2231H11.9047V12.6845H105.157V70.2231Z" fill="#C8FFBA"/>
<rect x="64.1262" y="25.8059" width="3.83097" height="31.3174" rx="1.91548" transform="rotate(55.8102 64.1262 25.8059)" fill="#C8FFBA"/>
<rect x="70.6973" y="44.6068" width="3.83097" height="16.5963" rx="1.91548" transform="rotate(55.8102 70.6973 44.6068)" fill="#C8FFBA"/>
<rect x="76.6877" y="28.6039" width="3.83097" height="45.0739" rx="1.91548" transform="rotate(55.8102 76.6877 28.6039)" fill="#C8FFBA"/>
</svg>
