<svg width="11" height="16" viewBox="0 0 11 16" fill="none" xmlns="http://www.w3.org/2000/svg">
<path d="M5.5 0.363525C2.46732 0.363525 0 2.76388 0 5.71425C0 9.42255 5.50541 15.7571 5.50541 15.7571C5.50541 15.7571 11 9.24019 11 5.71425C11 2.76388 8.53277 0.363525 5.5 0.363525ZM7.15946 7.28095C6.70189 7.72601 6.10099 7.94859 5.5 7.94859C4.8991 7.94859 4.29802 7.72601 3.84063 7.28095C2.92558 6.39082 2.92558 4.94241 3.84063 4.05219C4.28372 3.62094 4.87313 3.38342 5.5 3.38342C6.12687 3.38342 6.71618 3.62103 7.15946 4.05219C8.07452 4.94241 8.07452 6.39082 7.15946 7.28095Z" fill="white" fill-opacity="0.8"/>
</svg>
