<svg width="13" height="14" viewBox="0 0 13 14" fill="none" xmlns="http://www.w3.org/2000/svg">
<path d="M12.6591 10.1964L10.8411 8.44734C10.1918 7.82269 9.08802 8.07257 8.82831 8.88461C8.63352 9.44682 7.98423 9.75915 7.39987 9.6342C6.1013 9.32187 4.34822 7.69775 4.02358 6.38597C3.82879 5.82375 4.21836 5.1991 4.80272 5.01172C5.6468 4.76186 5.90651 3.69994 5.25722 3.07528L3.43922 1.32624C2.91979 0.888976 2.14064 0.888976 1.68614 1.32624L0.452493 2.51309C-0.781154 3.76241 0.582351 7.0731 3.634 10.009C6.68566 12.9449 10.1269 14.3192 11.4255 13.0698L12.6591 11.883C13.1136 11.3832 13.1136 10.6336 12.6591 10.1964Z" fill="white" fill-opacity="0.8"/>
</svg>
