<svg width="19" height="19" viewBox="0 0 19 19" fill="none" xmlns="http://www.w3.org/2000/svg">
<path d="M18.5018 13.9436L15.8447 11.3873C14.8957 10.4744 13.2825 10.8396 12.9029 12.0264C12.6182 12.8481 11.6693 13.3046 10.8152 13.122C8.91728 12.6655 6.35509 10.2918 5.88061 8.37455C5.59592 7.55284 6.1653 6.63988 7.01936 6.36603C8.25301 6.00084 8.63259 4.44881 7.68363 3.53584L5.02655 0.979549C4.26738 0.340476 3.12863 0.340476 2.46436 0.979549L0.661336 2.71418C-1.14169 4.5401 0.851128 9.3788 5.31124 13.6697C9.77134 17.9607 14.8008 19.9692 16.6987 18.1432L18.5018 16.4086C19.1661 15.6782 19.1661 14.5827 18.5018 13.9436Z" fill="white" fill-opacity="0.8"/>
</svg>
