<svg width="91" height="92" viewBox="0 0 91 92" fill="none" xmlns="http://www.w3.org/2000/svg">
<g clip-path="url(#clip0)" filter="url(#filter0_f)">
<path d="M70.6022 20.7609C63.8972 14.056 54.9824 10.3633 45.5 10.3633C36.0175 10.3633 27.1025 14.056 20.3976 20.7609C13.6926 27.466 10 36.3809 10 45.8633C10 55.3457 13.6926 64.2605 20.3976 70.9655C27.1027 77.6706 36.0175 81.3633 45.5 81.3633C54.9824 81.3633 63.8972 77.6706 70.6022 70.9655C77.3073 64.2605 81 55.3457 81 45.8633C81 36.3809 77.3073 27.4661 70.6022 20.7609ZM45.5 77.2031C28.2191 77.2031 14.1602 63.1442 14.1602 45.8633C14.1602 28.5824 28.2191 14.5234 45.5 14.5234C62.7809 14.5234 76.8398 28.5824 76.8398 45.8633C76.8398 63.1442 62.7809 77.2031 45.5 77.2031Z" fill="#6AA6FF"/>
<path d="M62.4603 34.4727C61.6481 33.6606 60.331 33.6606 59.5188 34.4728L41.1505 52.8412L31.4813 43.172C30.6691 42.3598 29.352 42.3598 28.5397 43.172C27.7273 43.9842 27.7273 45.3013 28.5397 46.1137L39.6796 57.2536C40.0858 57.6597 40.6181 57.8628 41.1504 57.8628C41.6826 57.8628 42.2151 57.6596 42.6211 57.2536L62.4603 37.4144C63.2727 36.6022 63.2727 35.285 62.4603 34.4727Z" fill="#6AA6FF"/>
</g>
<g clip-path="url(#clip1)">
<path d="M70.6022 20.7609C63.8972 14.056 54.9824 10.3633 45.5 10.3633C36.0175 10.3633 27.1025 14.056 20.3976 20.7609C13.6926 27.466 10 36.3809 10 45.8633C10 55.3457 13.6926 64.2605 20.3976 70.9655C27.1027 77.6706 36.0175 81.3633 45.5 81.3633C54.9824 81.3633 63.8972 77.6706 70.6022 70.9655C77.3073 64.2605 81 55.3457 81 45.8633C81 36.3809 77.3073 27.4661 70.6022 20.7609ZM45.5 77.2031C28.2191 77.2031 14.1602 63.1442 14.1602 45.8633C14.1602 28.5824 28.2191 14.5234 45.5 14.5234C62.7809 14.5234 76.8398 28.5824 76.8398 45.8633C76.8398 63.1442 62.7809 77.2031 45.5 77.2031Z" fill="#6AE4FF"/>
<path d="M62.4603 34.4727C61.6481 33.6606 60.331 33.6606 59.5188 34.4728L41.1505 52.8412L31.4813 43.172C30.6691 42.3598 29.352 42.3598 28.5397 43.172C27.7273 43.9842 27.7273 45.3013 28.5397 46.1137L39.6796 57.2536C40.0858 57.6597 40.6181 57.8628 41.1504 57.8628C41.6826 57.8628 42.2151 57.6596 42.6211 57.2536L62.4603 37.4144C63.2727 36.6022 63.2727 35.285 62.4603 34.4727Z" fill="#6AE4FF"/>
</g>
<defs>
<filter id="filter0_f" x="0" y="0.363281" width="91" height="91" filterUnits="userSpaceOnUse" color-interpolation-filters="sRGB">
<feFlood flood-opacity="0" result="BackgroundImageFix"/>
<feBlend mode="normal" in="SourceGraphic" in2="BackgroundImageFix" result="shape"/>
<feGaussianBlur stdDeviation="5" result="effect1_foregroundBlur"/>
</filter>
<clipPath id="clip0">
<rect width="71" height="71" fill="white" transform="translate(10 10.3633)"/>
</clipPath>
<clipPath id="clip1">
<rect width="71" height="71" fill="white" transform="translate(10 10.3633)"/>
</clipPath>
</defs>
</svg>
