<svg width="103" height="78" viewBox="0 0 103 78" fill="none" xmlns="http://www.w3.org/2000/svg">
<g filter="url(#filter0_f)">
<path d="M90.9833 10.3879H11.763C10.9955 10.3879 10.3732 11.0102 10.3732 11.7778V65.9812C10.3732 66.7487 10.9955 67.371 11.763 67.371H90.9833C91.7509 67.371 92.3732 66.7487 92.3732 65.9812V11.7778C92.3732 11.0102 91.7509 10.3879 90.9833 10.3879ZM89.5935 64.5913H13.1528V13.1676H89.5935V64.5913Z" fill="#6AA6FF"/>
<path d="M85.424 15.947H17.3223C16.5548 15.947 15.9325 16.5693 15.9325 17.3369V60.4216C15.9325 61.1891 16.5548 61.8114 17.3223 61.8114H85.424C86.1915 61.8114 86.8138 61.1891 86.8138 60.4216V17.3369C86.8138 16.5693 86.1915 15.947 85.424 15.947ZM84.0342 59.0318H18.7122V18.7267H84.0342V59.0318Z" fill="#6AA6FF"/>
<rect x="55.2927" y="27.9182" width="2.68354" height="21.9374" rx="1.34177" transform="rotate(55.8102 55.2927 27.9182)" fill="#6AA6FF"/>
<rect x="59.8958" y="41.088" width="2.68354" height="11.6255" rx="1.34177" transform="rotate(55.8102 59.8958 41.088)" fill="#6AA6FF"/>
<rect x="64.0918" y="29.8781" width="2.68354" height="31.5737" rx="1.34177" transform="rotate(55.8102 64.0918 29.8781)" fill="#6AA6FF"/>
</g>
<path d="M90.9833 10.3879H11.763C10.9955 10.3879 10.3732 11.0102 10.3732 11.7778V65.9812C10.3732 66.7487 10.9955 67.371 11.763 67.371H90.9833C91.7509 67.371 92.3732 66.7487 92.3732 65.9812V11.7778C92.3732 11.0102 91.7509 10.3879 90.9833 10.3879ZM89.5935 64.5913H13.1528V13.1676H89.5935V64.5913Z" fill="#6AE4FF"/>
<path d="M85.424 15.947H17.3223C16.5548 15.947 15.9325 16.5693 15.9325 17.3369V60.4216C15.9325 61.1891 16.5548 61.8114 17.3223 61.8114H85.424C86.1915 61.8114 86.8138 61.1891 86.8138 60.4216V17.3369C86.8138 16.5693 86.1915 15.947 85.424 15.947ZM84.0342 59.0318H18.7122V18.7267H84.0342V59.0318Z" fill="#6AE4FF"/>
<rect x="55.2927" y="27.9182" width="2.68354" height="21.9374" rx="1.34177" transform="rotate(55.8102 55.2927 27.9182)" fill="#6AE4FF"/>
<rect x="59.8958" y="41.088" width="2.68354" height="11.6255" rx="1.34177" transform="rotate(55.8102 59.8958 41.088)" fill="#6AE4FF"/>
<rect x="64.0918" y="29.8781" width="2.68354" height="31.5737" rx="1.34177" transform="rotate(55.8102 64.0918 29.8781)" fill="#6AE4FF"/>
<defs>
<filter id="filter0_f" x="0.373169" y="0.387939" width="102" height="76.983" filterUnits="userSpaceOnUse" color-interpolation-filters="sRGB">
<feFlood flood-opacity="0" result="BackgroundImageFix"/>
<feBlend mode="normal" in="SourceGraphic" in2="BackgroundImageFix" result="shape"/>
<feGaussianBlur stdDeviation="5" result="effect1_foregroundBlur"/>
</filter>
</defs>
</svg>
