<svg width="91" height="92" viewBox="0 0 91 92" fill="none" xmlns="http://www.w3.org/2000/svg">
<g filter="url(#filter0_f)">
<path d="M79.4841 51.7229C79.7949 51.7229 80.093 51.5994 80.3128 51.3797C80.5325 51.1599 80.656 50.8618 80.656 50.551V41.176C80.656 40.8652 80.5325 40.5672 80.3128 40.3474C80.093 40.1276 79.7949 40.0042 79.4841 40.0042H73.0001C72.2878 36.6433 70.9622 33.4426 69.0896 30.5624L73.6693 25.9721C73.8886 25.7524 74.0118 25.4546 74.0118 25.1442C74.0118 24.8337 73.8886 24.536 73.6693 24.3163L67.0482 17.6952C66.8285 17.4758 66.5307 17.3526 66.2203 17.3526C65.9098 17.3526 65.612 17.4758 65.3923 17.6952L60.8009 22.2737C57.9207 20.4011 54.7199 19.0754 51.3591 18.3631V11.8792C51.3591 11.5683 51.2357 11.2703 51.0159 11.0505C50.7961 10.8307 50.4981 10.7073 50.1873 10.7073H40.8123C40.5015 10.7073 40.2034 10.8307 39.9836 11.0505C39.7638 11.2703 39.6404 11.5683 39.6404 11.8792V18.3631C36.2796 19.0754 33.0788 20.4011 30.1986 22.2737L25.6083 17.694C25.3886 17.4747 25.0909 17.3515 24.7804 17.3515C24.47 17.3515 24.1722 17.4747 23.9525 17.694L17.3314 24.3151C17.1121 24.5348 16.9889 24.8326 16.9889 25.143C16.9889 25.4535 17.1121 25.7512 17.3314 25.9709L21.9111 30.5612C20.038 33.4417 18.7119 36.6429 17.9994 40.0042H11.5154C11.2046 40.0042 10.9065 40.1276 10.6867 40.3474C10.467 40.5672 10.3435 40.8652 10.3435 41.176V50.551C10.3435 50.8618 10.467 51.1599 10.6867 51.3797C10.9065 51.5994 11.2046 51.7229 11.5154 51.7229H17.9994C18.7117 55.0837 20.0373 58.2844 21.9099 61.1647L17.3302 65.7549C17.1109 65.9746 16.9877 66.2724 16.9877 66.5829C16.9877 66.8933 17.1109 67.1911 17.3302 67.4108L23.9513 74.0319C24.171 74.2512 24.4688 74.3744 24.7792 74.3744C25.0897 74.3744 25.3875 74.2512 25.6072 74.0319L30.1974 69.4522C33.0779 71.3253 36.2791 72.6514 39.6404 73.3639V79.8479C39.6404 80.1587 39.7638 80.4568 39.9836 80.6765C40.2034 80.8963 40.5015 81.0198 40.8123 81.0198H50.1873C50.4981 81.0198 50.7961 80.8963 51.0159 80.6765C51.2357 80.4568 51.3591 80.1587 51.3591 79.8479V73.3639C54.7189 72.6488 57.9184 71.3212 60.7974 69.4475L70.3587 79.0088C71.4592 80.0997 72.947 80.7103 74.4966 80.7069C76.0461 80.7035 77.5313 80.0864 78.627 78.9907C79.7227 77.895 80.3397 76.4099 80.3431 74.8604C80.3465 73.3108 79.736 71.823 78.6451 70.7225L69.0837 61.1612C70.9574 58.2821 72.285 55.0827 73.0001 51.7229H79.4841ZM76.988 77.3518C76.6616 77.6783 76.274 77.9373 75.8474 78.1141C75.4208 78.2908 74.9636 78.3817 74.5019 78.3817C74.0402 78.3817 73.583 78.2908 73.1564 78.1141C72.7298 77.9373 72.3422 77.6783 72.0158 77.3518L49.5767 54.9139C49.0317 54.3696 48.3843 53.9386 47.6719 53.6458C46.9595 53.3529 46.1962 53.204 45.4259 53.2077C45.1815 53.2076 44.9374 53.2221 44.6947 53.251C43.1743 53.4336 41.6323 53.2407 40.2038 52.6891C38.7753 52.1376 37.5038 51.2442 36.5007 50.0872C35.4975 48.9303 34.7933 47.545 34.4497 46.0527C34.1061 44.5605 34.1336 43.0067 34.5298 41.5276L39.699 46.6979C39.9187 46.9177 40.2167 47.0412 40.5275 47.0413H45.4998C45.8106 47.0413 46.1086 46.9178 46.3284 46.698C46.5482 46.4783 46.6716 46.1802 46.6716 45.8694V40.8913C46.6716 40.5805 46.5481 40.2825 46.3283 40.0627L41.1638 34.8936C42.6427 34.4983 44.1959 34.4715 45.6875 34.8156C47.1791 35.1596 48.5637 35.8639 49.72 36.8669C50.8764 37.87 51.7693 39.1411 52.3206 40.5691C52.872 41.9972 53.0649 43.5386 52.8826 45.0584C52.7695 45.9451 52.8605 46.8459 53.1487 47.692C53.4369 48.5381 53.9147 49.3072 54.5455 49.9405L76.988 72.3795C77.3146 72.706 77.5736 73.0936 77.7503 73.5202C77.927 73.9467 78.018 74.4039 78.018 74.8657C78.018 75.3274 77.927 75.7846 77.7503 76.2112C77.5736 76.6378 77.3146 77.0253 76.988 77.3518ZM56.2072 48.2893C55.8281 47.9062 55.5416 47.4414 55.3698 46.9306C55.198 46.4198 55.1453 45.8764 55.2158 45.342C55.4669 43.259 55.1538 41.1468 54.3092 39.2263C53.4646 37.3057 52.1196 35.6473 50.4147 34.4245C48.7098 33.2016 46.7077 32.4593 44.6177 32.2751C42.5277 32.0908 40.4266 32.4715 38.5341 33.3772C38.3652 33.4583 38.2183 33.5786 38.1055 33.7282C37.9927 33.8778 37.9174 34.0523 37.886 34.2369C37.8545 34.4216 37.8678 34.6111 37.9247 34.7896C37.9816 34.9681 38.0805 35.1303 38.213 35.2627L44.3279 41.3764V44.6917H41.0126L34.899 38.5768C34.7666 38.4443 34.6043 38.3454 34.4259 38.2885C34.2474 38.2316 34.0578 38.2183 33.8732 38.2498C33.6885 38.2812 33.514 38.3565 33.3645 38.4693C33.2149 38.582 33.0945 38.729 33.0134 38.8979C32.108 40.7899 31.7274 42.8903 31.9114 44.9797C32.0953 47.0691 32.8371 49.0707 34.0593 50.7753C35.2814 52.4799 36.939 53.825 38.8587 54.6699C40.7785 55.5148 42.8899 55.8286 44.9724 55.5784C45.5068 55.5081 46.0503 55.561 46.5611 55.7331C47.0719 55.9051 47.5366 56.1917 47.9197 56.5709L53.9478 62.5979C49.9655 64.6097 45.3965 65.1365 41.0609 64.0837C36.7252 63.0309 32.9066 60.4674 30.2904 56.8534C27.6741 53.2393 26.4315 48.8112 26.7854 44.3636C27.1393 39.916 29.0666 35.7401 32.2214 32.5852C35.3763 29.4303 39.5522 27.503 43.9998 27.1491C48.4474 26.7952 52.8755 28.0379 56.4896 30.6542C60.1037 33.2704 62.6671 37.089 63.7199 41.4246C64.7727 45.7603 64.2459 50.3292 62.2341 54.3116L56.2072 48.2893ZM70.8767 50.3588C70.3116 53.5932 69.1283 56.6884 67.3916 59.4749L63.965 56.0483C66.4235 51.5933 67.1908 46.4004 66.1258 41.4248C65.0608 36.4492 62.2352 32.0253 58.1686 28.9669C54.102 25.9085 49.0678 24.4212 43.9921 24.7786C38.9163 25.1359 34.1402 27.3139 30.5422 30.9119C26.9442 34.5099 24.7663 39.2859 24.4089 44.3617C24.0516 49.4375 25.5389 54.4716 28.5973 58.5382C31.6557 62.6048 36.0795 65.4305 41.0552 66.4954C46.0308 67.5604 51.2237 66.7931 55.6787 64.3346L59.1052 67.7612C56.3188 69.4979 53.2236 70.6812 49.9892 71.2463C49.7178 71.2929 49.4715 71.4335 49.2934 71.6435C49.1154 71.8535 49.0169 72.1194 49.0154 72.3948V78.676H41.9841V72.3948C41.984 72.1184 41.8861 71.8511 41.708 71.6398C41.5298 71.4286 41.2827 71.2872 41.0103 71.2405C37.3136 70.5934 33.8049 69.1394 30.7341 66.9819C30.5085 66.8233 30.2341 66.7494 29.9593 66.7732C29.6845 66.797 29.4268 66.9169 29.2318 67.112L24.788 71.5475L19.8216 66.5811L24.2572 62.1374C24.4522 61.9423 24.5722 61.6847 24.596 61.4099C24.6198 61.1351 24.5458 60.8607 24.3873 60.635C22.229 57.5625 20.7749 54.0518 20.1287 50.353C20.0818 50.0796 19.9395 49.8317 19.7271 49.6534C19.5146 49.4751 19.2458 49.3779 18.9685 49.3792H12.6873V42.3479H18.9685C19.2448 42.3477 19.5122 42.2499 19.7234 42.0717C19.9347 41.8935 20.0761 41.6464 20.1228 41.3741C20.7699 37.6773 22.2239 34.1687 24.3814 31.0979C24.54 30.8722 24.6139 30.5978 24.5901 30.323C24.5663 30.0482 24.4463 29.7906 24.2513 29.5956L19.8158 25.1518L24.7822 20.1854L29.2259 24.6209C29.421 24.816 29.6786 24.9359 29.9534 24.9597C30.2282 24.9835 30.5026 24.9096 30.7283 24.751C33.8008 22.5928 37.3115 21.1387 41.0103 20.4924C41.2837 20.4456 41.5315 20.3033 41.7098 20.0908C41.8882 19.8784 41.9853 19.6096 41.9841 19.3323V13.051H49.0154V19.3323C49.0156 19.6086 49.1134 19.876 49.2916 20.0872C49.4697 20.2984 49.7168 20.4399 49.9892 20.4866C53.688 21.1328 57.1987 22.5869 60.2712 24.7452C60.4969 24.9038 60.7713 24.9777 61.0461 24.9539C61.3209 24.9301 61.5785 24.8101 61.7736 24.6151L66.2173 20.1795L71.1837 25.1459L66.7482 29.5897C66.5532 29.7848 66.4332 30.0424 66.4094 30.3172C66.3856 30.592 66.4595 30.8664 66.6181 31.092C68.7764 34.1646 70.2304 37.6753 70.8767 41.3741C70.9234 41.6464 71.0649 41.8935 71.2761 42.0717C71.4873 42.2499 71.7547 42.3477 72.031 42.3479H78.3123V49.3792H72.031C71.7547 49.3793 71.4873 49.4771 71.2761 49.6553C71.0649 49.8335 70.9234 50.0806 70.8767 50.353V50.3588Z" fill="#6AA6FF"/>
<path d="M52.9574 51.6643C52.8493 51.5524 52.72 51.4631 52.577 51.4017C52.4341 51.3403 52.2803 51.3079 52.1247 51.3066C51.9691 51.3052 51.8148 51.3349 51.6708 51.3938C51.5267 51.4527 51.3959 51.5398 51.2859 51.6498C51.1758 51.7598 51.0888 51.8907 51.0299 52.0347C50.971 52.1787 50.9413 52.333 50.9427 52.4886C50.944 52.6442 50.9764 52.798 51.0378 52.941C51.0992 53.0839 51.1885 53.2132 51.3004 53.3213L52.1289 54.1498C52.3499 54.3633 52.6459 54.4814 52.9532 54.4788C53.2605 54.4761 53.5544 54.3528 53.7717 54.1356C53.9889 53.9183 54.1122 53.6244 54.1148 53.3171C54.1175 53.0099 53.9994 52.7138 53.7859 52.4928L52.9574 51.6643Z" fill="#6AA6FF"/>
<path d="M69.5301 71.551C69.7512 71.7645 70.0472 71.8826 70.3544 71.8799C70.6617 71.8772 70.9556 71.754 71.1729 71.5367C71.3902 71.3195 71.5134 71.0255 71.5161 70.7183C71.5188 70.411 71.4006 70.115 71.1872 69.894L57.1012 55.8069C56.8813 55.587 56.5831 55.4634 56.2721 55.4634C55.9612 55.4634 55.6629 55.587 55.443 55.8069C55.2231 56.0268 55.0996 56.325 55.0996 56.636C55.0996 56.9469 55.2231 57.2452 55.443 57.4651L69.5301 71.551Z" fill="#6AA6FF"/>
<path d="M73.6741 75.6948C73.8951 75.9083 74.1911 76.0264 74.4984 76.0238C74.8056 76.0211 75.0996 75.8978 75.3168 75.6806C75.5341 75.4633 75.6574 75.1694 75.66 74.8621C75.6627 74.5548 75.5446 74.2588 75.3311 74.0378L74.5026 73.2081C74.2827 72.9882 73.9845 72.8647 73.6735 72.8647C73.3625 72.8647 73.0643 72.9882 72.8444 73.2081C72.6245 73.428 72.501 73.7262 72.501 74.0372C72.501 74.3482 72.6245 74.6464 72.8444 74.8663L73.6741 75.6948Z" fill="#6AA6FF"/>
</g>
<path d="M79.4841 51.7229C79.7949 51.7229 80.093 51.5994 80.3128 51.3797C80.5325 51.1599 80.656 50.8618 80.656 50.551V41.176C80.656 40.8652 80.5325 40.5672 80.3128 40.3474C80.093 40.1276 79.7949 40.0042 79.4841 40.0042H73.0001C72.2878 36.6433 70.9622 33.4426 69.0896 30.5624L73.6693 25.9721C73.8886 25.7524 74.0118 25.4546 74.0118 25.1442C74.0118 24.8337 73.8886 24.536 73.6693 24.3163L67.0482 17.6952C66.8285 17.4758 66.5307 17.3526 66.2203 17.3526C65.9098 17.3526 65.612 17.4758 65.3923 17.6952L60.8009 22.2737C57.9207 20.4011 54.7199 19.0754 51.3591 18.3631V11.8792C51.3591 11.5683 51.2357 11.2703 51.0159 11.0505C50.7961 10.8307 50.4981 10.7073 50.1873 10.7073H40.8123C40.5015 10.7073 40.2034 10.8307 39.9836 11.0505C39.7638 11.2703 39.6404 11.5683 39.6404 11.8792V18.3631C36.2796 19.0754 33.0788 20.4011 30.1986 22.2737L25.6083 17.694C25.3886 17.4747 25.0909 17.3515 24.7804 17.3515C24.47 17.3515 24.1722 17.4747 23.9525 17.694L17.3314 24.3151C17.1121 24.5348 16.9889 24.8326 16.9889 25.143C16.9889 25.4535 17.1121 25.7512 17.3314 25.9709L21.9111 30.5612C20.038 33.4417 18.7119 36.6429 17.9994 40.0042H11.5154C11.2046 40.0042 10.9065 40.1276 10.6867 40.3474C10.467 40.5672 10.3435 40.8652 10.3435 41.176V50.551C10.3435 50.8618 10.467 51.1599 10.6867 51.3797C10.9065 51.5994 11.2046 51.7229 11.5154 51.7229H17.9994C18.7117 55.0837 20.0373 58.2844 21.9099 61.1647L17.3302 65.7549C17.1109 65.9746 16.9877 66.2724 16.9877 66.5829C16.9877 66.8933 17.1109 67.1911 17.3302 67.4108L23.9513 74.0319C24.171 74.2512 24.4688 74.3744 24.7792 74.3744C25.0897 74.3744 25.3875 74.2512 25.6072 74.0319L30.1974 69.4522C33.0779 71.3253 36.2791 72.6514 39.6404 73.3639V79.8479C39.6404 80.1587 39.7638 80.4568 39.9836 80.6765C40.2034 80.8963 40.5015 81.0198 40.8123 81.0198H50.1873C50.4981 81.0198 50.7961 80.8963 51.0159 80.6765C51.2357 80.4568 51.3591 80.1587 51.3591 79.8479V73.3639C54.7189 72.6488 57.9184 71.3212 60.7974 69.4475L70.3587 79.0088C71.4592 80.0997 72.947 80.7103 74.4966 80.7069C76.0461 80.7035 77.5313 80.0864 78.627 78.9907C79.7227 77.895 80.3397 76.4099 80.3431 74.8604C80.3465 73.3108 79.736 71.823 78.6451 70.7225L69.0837 61.1612C70.9574 58.2821 72.285 55.0827 73.0001 51.7229H79.4841ZM76.988 77.3518C76.6616 77.6783 76.274 77.9373 75.8474 78.1141C75.4208 78.2908 74.9636 78.3817 74.5019 78.3817C74.0402 78.3817 73.583 78.2908 73.1564 78.1141C72.7298 77.9373 72.3422 77.6783 72.0158 77.3518L49.5767 54.9139C49.0317 54.3696 48.3843 53.9386 47.6719 53.6458C46.9595 53.3529 46.1962 53.204 45.4259 53.2077C45.1815 53.2076 44.9374 53.2221 44.6947 53.251C43.1743 53.4336 41.6323 53.2407 40.2038 52.6891C38.7753 52.1376 37.5038 51.2442 36.5007 50.0872C35.4975 48.9303 34.7933 47.545 34.4497 46.0527C34.1061 44.5605 34.1336 43.0067 34.5298 41.5276L39.699 46.6979C39.9187 46.9177 40.2167 47.0412 40.5275 47.0413H45.4998C45.8106 47.0413 46.1086 46.9178 46.3284 46.698C46.5482 46.4783 46.6716 46.1802 46.6716 45.8694V40.8913C46.6716 40.5805 46.5481 40.2825 46.3283 40.0627L41.1638 34.8936C42.6427 34.4983 44.1959 34.4715 45.6875 34.8156C47.1791 35.1596 48.5637 35.8639 49.72 36.8669C50.8764 37.87 51.7693 39.1411 52.3206 40.5691C52.872 41.9972 53.0649 43.5386 52.8826 45.0584C52.7695 45.9451 52.8605 46.8459 53.1487 47.692C53.4369 48.5381 53.9147 49.3072 54.5455 49.9405L76.988 72.3795C77.3146 72.706 77.5736 73.0936 77.7503 73.5202C77.927 73.9467 78.018 74.4039 78.018 74.8657C78.018 75.3274 77.927 75.7846 77.7503 76.2112C77.5736 76.6378 77.3146 77.0253 76.988 77.3518ZM56.2072 48.2893C55.8281 47.9062 55.5416 47.4414 55.3698 46.9306C55.198 46.4198 55.1453 45.8764 55.2158 45.342C55.4669 43.259 55.1538 41.1468 54.3092 39.2263C53.4646 37.3057 52.1196 35.6473 50.4147 34.4245C48.7098 33.2016 46.7077 32.4593 44.6177 32.2751C42.5277 32.0908 40.4266 32.4715 38.5341 33.3772C38.3652 33.4583 38.2183 33.5786 38.1055 33.7282C37.9927 33.8778 37.9174 34.0523 37.886 34.2369C37.8545 34.4216 37.8678 34.6111 37.9247 34.7896C37.9816 34.9681 38.0805 35.1303 38.213 35.2627L44.3279 41.3764V44.6917H41.0126L34.899 38.5768C34.7666 38.4443 34.6043 38.3454 34.4259 38.2885C34.2474 38.2316 34.0578 38.2183 33.8732 38.2498C33.6885 38.2812 33.514 38.3565 33.3645 38.4693C33.2149 38.582 33.0945 38.729 33.0134 38.8979C32.108 40.7899 31.7274 42.8903 31.9114 44.9797C32.0953 47.0691 32.8371 49.0707 34.0593 50.7753C35.2814 52.4799 36.939 53.825 38.8587 54.6699C40.7785 55.5148 42.8899 55.8286 44.9724 55.5784C45.5068 55.5081 46.0503 55.561 46.5611 55.7331C47.0719 55.9051 47.5366 56.1917 47.9197 56.5709L53.9478 62.5979C49.9655 64.6097 45.3965 65.1365 41.0609 64.0837C36.7252 63.0309 32.9066 60.4674 30.2904 56.8534C27.6741 53.2393 26.4315 48.8112 26.7854 44.3636C27.1393 39.916 29.0666 35.7401 32.2214 32.5852C35.3763 29.4303 39.5522 27.503 43.9998 27.1491C48.4474 26.7952 52.8755 28.0379 56.4896 30.6542C60.1037 33.2704 62.6671 37.089 63.7199 41.4246C64.7727 45.7603 64.2459 50.3292 62.2341 54.3116L56.2072 48.2893ZM70.8767 50.3588C70.3116 53.5932 69.1283 56.6884 67.3916 59.4749L63.965 56.0483C66.4235 51.5933 67.1908 46.4004 66.1258 41.4248C65.0608 36.4492 62.2352 32.0253 58.1686 28.9669C54.102 25.9085 49.0678 24.4212 43.9921 24.7786C38.9163 25.1359 34.1402 27.3139 30.5422 30.9119C26.9442 34.5099 24.7663 39.2859 24.4089 44.3617C24.0516 49.4375 25.5389 54.4716 28.5973 58.5382C31.6557 62.6048 36.0795 65.4305 41.0552 66.4954C46.0308 67.5604 51.2237 66.7931 55.6787 64.3346L59.1052 67.7612C56.3188 69.4979 53.2236 70.6812 49.9892 71.2463C49.7178 71.2929 49.4715 71.4335 49.2934 71.6435C49.1154 71.8535 49.0169 72.1194 49.0154 72.3948V78.676H41.9841V72.3948C41.984 72.1184 41.8861 71.8511 41.708 71.6398C41.5298 71.4286 41.2827 71.2872 41.0103 71.2405C37.3136 70.5934 33.8049 69.1394 30.7341 66.9819C30.5085 66.8233 30.2341 66.7494 29.9593 66.7732C29.6845 66.797 29.4268 66.9169 29.2318 67.112L24.788 71.5475L19.8216 66.5811L24.2572 62.1374C24.4522 61.9423 24.5722 61.6847 24.596 61.4099C24.6198 61.1351 24.5458 60.8607 24.3873 60.635C22.229 57.5625 20.7749 54.0518 20.1287 50.353C20.0818 50.0796 19.9395 49.8317 19.7271 49.6534C19.5146 49.4751 19.2458 49.3779 18.9685 49.3792H12.6873V42.3479H18.9685C19.2448 42.3477 19.5122 42.2499 19.7234 42.0717C19.9347 41.8935 20.0761 41.6464 20.1228 41.3741C20.7699 37.6773 22.2239 34.1687 24.3814 31.0979C24.54 30.8722 24.6139 30.5978 24.5901 30.323C24.5663 30.0482 24.4463 29.7906 24.2513 29.5956L19.8158 25.1518L24.7822 20.1854L29.2259 24.6209C29.421 24.816 29.6786 24.9359 29.9534 24.9597C30.2282 24.9835 30.5026 24.9096 30.7283 24.751C33.8008 22.5928 37.3115 21.1387 41.0103 20.4924C41.2837 20.4456 41.5315 20.3033 41.7098 20.0908C41.8882 19.8784 41.9853 19.6096 41.9841 19.3323V13.051H49.0154V19.3323C49.0156 19.6086 49.1134 19.876 49.2916 20.0872C49.4697 20.2984 49.7168 20.4399 49.9892 20.4866C53.688 21.1328 57.1987 22.5869 60.2712 24.7452C60.4969 24.9038 60.7713 24.9777 61.0461 24.9539C61.3209 24.9301 61.5785 24.8101 61.7736 24.6151L66.2173 20.1795L71.1837 25.1459L66.7482 29.5897C66.5532 29.7848 66.4332 30.0424 66.4094 30.3172C66.3856 30.592 66.4595 30.8664 66.6181 31.092C68.7764 34.1646 70.2304 37.6753 70.8767 41.3741C70.9234 41.6464 71.0649 41.8935 71.2761 42.0717C71.4873 42.2499 71.7547 42.3477 72.031 42.3479H78.3123V49.3792H72.031C71.7547 49.3793 71.4873 49.4771 71.2761 49.6553C71.0649 49.8335 70.9234 50.0806 70.8767 50.353V50.3588Z" fill="#6AE4FF"/>
<path d="M52.9574 51.6643C52.8493 51.5524 52.72 51.4631 52.577 51.4017C52.4341 51.3403 52.2803 51.3079 52.1247 51.3066C51.9691 51.3052 51.8148 51.3349 51.6708 51.3938C51.5267 51.4527 51.3959 51.5398 51.2859 51.6498C51.1758 51.7598 51.0888 51.8907 51.0299 52.0347C50.971 52.1787 50.9413 52.333 50.9427 52.4886C50.944 52.6442 50.9764 52.798 51.0378 52.941C51.0992 53.0839 51.1885 53.2132 51.3004 53.3213L52.1289 54.1498C52.3499 54.3633 52.6459 54.4814 52.9532 54.4788C53.2605 54.4761 53.5544 54.3528 53.7717 54.1356C53.9889 53.9183 54.1122 53.6244 54.1148 53.3171C54.1175 53.0099 53.9994 52.7138 53.7859 52.4928L52.9574 51.6643Z" fill="#6AE4FF"/>
<path d="M69.5301 71.551C69.7512 71.7645 70.0472 71.8826 70.3544 71.8799C70.6617 71.8772 70.9556 71.754 71.1729 71.5367C71.3902 71.3195 71.5134 71.0255 71.5161 70.7183C71.5188 70.411 71.4006 70.115 71.1872 69.894L57.1012 55.8069C56.8813 55.587 56.5831 55.4634 56.2721 55.4634C55.9612 55.4634 55.6629 55.587 55.443 55.8069C55.2231 56.0268 55.0996 56.325 55.0996 56.636C55.0996 56.9469 55.2231 57.2452 55.443 57.4651L69.5301 71.551Z" fill="#6AE4FF"/>
<path d="M73.6741 75.6948C73.8951 75.9083 74.1911 76.0264 74.4984 76.0238C74.8056 76.0211 75.0996 75.8978 75.3168 75.6806C75.5341 75.4633 75.6574 75.1694 75.66 74.8621C75.6627 74.5548 75.5446 74.2588 75.3311 74.0378L74.5026 73.2081C74.2827 72.9882 73.9845 72.8647 73.6735 72.8647C73.3625 72.8647 73.0643 72.9882 72.8444 73.2081C72.6245 73.428 72.501 73.7262 72.501 74.0372C72.501 74.3482 72.6245 74.6464 72.8444 74.8663L73.6741 75.6948Z" fill="#6AE4FF"/>
<defs>
<filter id="filter0_f" x="-2.00024" y="-1.63647" width="95" height="95" filterUnits="userSpaceOnUse" color-interpolation-filters="sRGB">
<feFlood flood-opacity="0" result="BackgroundImageFix"/>
<feBlend mode="normal" in="SourceGraphic" in2="BackgroundImageFix" result="shape"/>
<feGaussianBlur stdDeviation="5" result="effect1_foregroundBlur"/>
</filter>
</defs>
</svg>
