<svg width="109" height="90" viewBox="0 0 109 90" fill="none" xmlns="http://www.w3.org/2000/svg">
<g filter="url(#filter0_f)">
<path d="M92.7697 40.5809L90.4649 31.3619C91.095 31.2281 91.5678 30.669 91.5678 29.9993V28.5129C91.5678 25.2856 88.9421 22.6601 85.715 22.6601H75.2172V19.5941C75.2172 18.006 73.9253 16.7141 72.3372 16.7141H18.8256C17.2375 16.7141 15.9456 18.006 15.9456 19.5941V44.8635C15.9456 45.633 16.5695 46.2571 17.3392 46.2571C18.1087 46.2571 18.7328 45.6332 18.7328 44.8635V19.5941C18.7328 19.5428 18.7743 19.5013 18.8256 19.5013H72.337C72.3883 19.5013 72.4299 19.5428 72.4299 19.5941V44.8638C72.4299 45.6334 73.0537 46.2574 73.8234 46.2574C74.593 46.2574 75.217 45.6335 75.217 44.8638V43.2841H91.6558C91.6572 43.2841 91.6582 43.2844 91.6594 43.2844C91.6608 43.2844 91.662 43.2843 91.6632 43.2843C93.6861 43.2856 95.4037 44.6133 95.9936 46.4429H91.6605C90.8909 46.4429 90.2669 47.0668 90.2669 47.8365V50.8093C90.2669 53.217 92.2256 55.1757 94.6333 55.1757H96.2127V61.3071H92.5689C91.3719 57.8509 88.0864 55.3613 84.2283 55.3613C80.3701 55.3613 77.0844 57.8509 75.8876 61.3071H75.2167V50.8091C75.2167 50.0396 74.5928 49.4155 73.8231 49.4155C73.0535 49.4155 72.4295 50.0394 72.4295 50.8091V61.3068H43.517C42.32 57.8505 39.0345 55.361 35.1764 55.361C31.3183 55.361 28.0326 57.8505 26.8358 61.3068H18.8256C18.7743 61.3068 18.7328 61.2652 18.7328 61.2139V58.1481H24.7714C25.5409 58.1481 26.165 57.5243 26.165 56.7545C26.165 55.9848 25.5411 55.361 24.7714 55.361H11.3936C10.624 55.361 10 55.9848 10 56.7545C10 57.5243 10.6239 58.1481 11.3936 58.1481H15.9458V61.2139C15.9458 62.802 17.2377 64.0939 18.8258 64.0939H26.3532C26.3529 64.1249 26.3508 64.1556 26.3508 64.1867C26.3508 69.0532 30.3101 73.0123 35.1764 73.0123C40.0427 73.0123 44.002 69.0532 44.002 64.1867C44.002 64.1555 43.9999 64.1249 43.9996 64.0939H75.4051C75.4047 64.1249 75.4027 64.1556 75.4027 64.1867C75.4027 69.0532 79.3619 73.0123 84.2283 73.0123C89.0946 73.0123 93.0539 69.0532 93.0539 64.1867C93.0539 64.1555 93.0518 64.1249 93.0514 64.0939H97.6063C98.3758 64.0939 98.9998 63.47 98.9998 62.7003V47.8361C99 44.1663 96.2923 41.1171 92.7697 40.5809ZM75.2172 25.4471H85.715C87.4055 25.4471 88.7808 26.8224 88.7808 28.5129V28.6057H75.2172V25.4471ZM75.2172 40.4971V31.3927H87.5998L89.8759 40.4971H75.2172ZM35.1764 70.2257C31.8467 70.2257 29.1378 67.5169 29.1378 64.1871C29.1378 60.8572 31.8467 58.1485 35.1764 58.1485C38.5061 58.1485 41.215 60.8572 41.215 64.1871C41.215 67.5169 38.5061 70.2257 35.1764 70.2257ZM84.2286 70.2257C80.8989 70.2257 78.19 67.5169 78.19 64.1871C78.19 60.8572 80.8989 58.1485 84.2286 58.1485C87.5583 58.1485 90.2672 60.8572 90.2672 64.1871C90.2672 67.5169 87.5583 70.2257 84.2286 70.2257ZM96.213 52.3885H94.6336C93.7627 52.3885 93.0542 51.68 93.0542 50.8091V49.2297H96.2128V52.3885H96.213Z" fill="#6AA6FF"/>
<path d="M35.1764 61.3071C33.5883 61.3071 32.2964 62.599 32.2964 64.1871C32.2964 65.7752 33.5883 67.0671 35.1764 67.0671C36.7645 67.0671 38.0564 65.7752 38.0564 64.1871C38.0564 62.599 36.7645 61.3071 35.1764 61.3071Z" fill="#6AA6FF"/>
<path d="M84.2286 61.3071C82.6405 61.3071 81.3486 62.599 81.3486 64.1871C81.3486 65.7752 82.6405 67.0671 84.2286 67.0671C85.8167 67.0671 87.1086 65.7752 87.1086 64.1871C87.1086 62.599 85.8167 61.3071 84.2286 61.3071Z" fill="#6AA6FF"/>
<path d="M67.8779 55.3615H47.0679C46.2984 55.3615 45.6743 55.9854 45.6743 56.7551C45.6743 57.5248 46.2982 58.1487 47.0679 58.1487H67.8779C68.6474 58.1487 69.2715 57.5248 69.2715 56.7551C69.2715 55.9854 68.6476 55.3615 67.8779 55.3615Z" fill="#6AA6FF"/>
<path d="M32.2037 49.4158H14.3665C13.5969 49.4158 12.9729 50.0396 12.9729 50.8093C12.9729 51.5791 13.5968 52.2029 14.3665 52.2029H32.2037C32.9732 52.2029 33.5973 51.5791 33.5973 50.8093C33.5973 50.0396 32.9732 49.4158 32.2037 49.4158Z" fill="#6AA6FF"/>
<path d="M58.4582 30.5001C57.9141 29.956 57.0316 29.956 56.4875 30.5003L44.0949 42.8927L37.6482 36.4459C37.1039 35.9016 36.2216 35.9016 35.6775 36.4459C35.1332 36.9902 35.1332 37.8723 35.6775 38.4166L43.1097 45.8488C43.3817 46.121 43.7384 46.2569 44.0949 46.2569C44.4515 46.2569 44.8083 46.121 45.0802 45.8488L58.458 32.471C59.0023 31.9265 59.0023 31.0444 58.4582 30.5001Z" fill="#6AA6FF"/>
</g>
<path d="M92.7697 40.5809L90.4649 31.3619C91.095 31.2281 91.5678 30.669 91.5678 29.9993V28.5129C91.5678 25.2856 88.9421 22.6601 85.715 22.6601H75.2172V19.5941C75.2172 18.006 73.9253 16.7141 72.3372 16.7141H18.8256C17.2375 16.7141 15.9456 18.006 15.9456 19.5941V44.8635C15.9456 45.633 16.5695 46.2571 17.3392 46.2571C18.1087 46.2571 18.7328 45.6332 18.7328 44.8635V19.5941C18.7328 19.5428 18.7743 19.5013 18.8256 19.5013H72.337C72.3883 19.5013 72.4299 19.5428 72.4299 19.5941V44.8638C72.4299 45.6334 73.0537 46.2574 73.8234 46.2574C74.593 46.2574 75.217 45.6335 75.217 44.8638V43.2841H91.6558C91.6572 43.2841 91.6582 43.2844 91.6594 43.2844C91.6608 43.2844 91.662 43.2843 91.6632 43.2843C93.6861 43.2856 95.4037 44.6133 95.9936 46.4429H91.6605C90.8909 46.4429 90.2669 47.0668 90.2669 47.8365V50.8093C90.2669 53.217 92.2256 55.1757 94.6333 55.1757H96.2127V61.3071H92.5689C91.3719 57.8509 88.0864 55.3613 84.2283 55.3613C80.3701 55.3613 77.0844 57.8509 75.8876 61.3071H75.2167V50.8091C75.2167 50.0396 74.5928 49.4155 73.8231 49.4155C73.0535 49.4155 72.4295 50.0394 72.4295 50.8091V61.3068H43.517C42.32 57.8505 39.0345 55.361 35.1764 55.361C31.3183 55.361 28.0326 57.8505 26.8358 61.3068H18.8256C18.7743 61.3068 18.7328 61.2652 18.7328 61.2139V58.1481H24.7714C25.5409 58.1481 26.165 57.5243 26.165 56.7545C26.165 55.9848 25.5411 55.361 24.7714 55.361H11.3936C10.624 55.361 10 55.9848 10 56.7545C10 57.5243 10.6239 58.1481 11.3936 58.1481H15.9458V61.2139C15.9458 62.802 17.2377 64.0939 18.8258 64.0939H26.3532C26.3529 64.1249 26.3508 64.1556 26.3508 64.1867C26.3508 69.0532 30.3101 73.0123 35.1764 73.0123C40.0427 73.0123 44.002 69.0532 44.002 64.1867C44.002 64.1555 43.9999 64.1249 43.9996 64.0939H75.4051C75.4047 64.1249 75.4027 64.1556 75.4027 64.1867C75.4027 69.0532 79.3619 73.0123 84.2283 73.0123C89.0946 73.0123 93.0539 69.0532 93.0539 64.1867C93.0539 64.1555 93.0518 64.1249 93.0514 64.0939H97.6063C98.3758 64.0939 98.9998 63.47 98.9998 62.7003V47.8361C99 44.1663 96.2923 41.1171 92.7697 40.5809ZM75.2172 25.4471H85.715C87.4055 25.4471 88.7808 26.8224 88.7808 28.5129V28.6057H75.2172V25.4471ZM75.2172 40.4971V31.3927H87.5998L89.8759 40.4971H75.2172ZM35.1764 70.2257C31.8467 70.2257 29.1378 67.5169 29.1378 64.1871C29.1378 60.8572 31.8467 58.1485 35.1764 58.1485C38.5061 58.1485 41.215 60.8572 41.215 64.1871C41.215 67.5169 38.5061 70.2257 35.1764 70.2257ZM84.2286 70.2257C80.8989 70.2257 78.19 67.5169 78.19 64.1871C78.19 60.8572 80.8989 58.1485 84.2286 58.1485C87.5583 58.1485 90.2672 60.8572 90.2672 64.1871C90.2672 67.5169 87.5583 70.2257 84.2286 70.2257ZM96.213 52.3885H94.6336C93.7627 52.3885 93.0542 51.68 93.0542 50.8091V49.2297H96.2128V52.3885H96.213Z" fill="#6AE4FF"/>
<path d="M35.1764 61.3071C33.5883 61.3071 32.2964 62.599 32.2964 64.1871C32.2964 65.7752 33.5883 67.0671 35.1764 67.0671C36.7645 67.0671 38.0564 65.7752 38.0564 64.1871C38.0564 62.599 36.7645 61.3071 35.1764 61.3071Z" fill="#6AE4FF"/>
<path d="M84.2286 61.3071C82.6405 61.3071 81.3486 62.599 81.3486 64.1871C81.3486 65.7752 82.6405 67.0671 84.2286 67.0671C85.8167 67.0671 87.1086 65.7752 87.1086 64.1871C87.1086 62.599 85.8167 61.3071 84.2286 61.3071Z" fill="#6AE4FF"/>
<path d="M67.8779 55.3615H47.0679C46.2984 55.3615 45.6743 55.9854 45.6743 56.7551C45.6743 57.5248 46.2982 58.1487 47.0679 58.1487H67.8779C68.6474 58.1487 69.2715 57.5248 69.2715 56.7551C69.2715 55.9854 68.6476 55.3615 67.8779 55.3615Z" fill="#6AE4FF"/>
<path d="M32.2037 49.4158H14.3665C13.5969 49.4158 12.9729 50.0396 12.9729 50.8093C12.9729 51.5791 13.5968 52.2029 14.3665 52.2029H32.2037C32.9732 52.2029 33.5973 51.5791 33.5973 50.8093C33.5973 50.0396 32.9732 49.4158 32.2037 49.4158Z" fill="#6AE4FF"/>
<path d="M58.4582 30.5001C57.9141 29.956 57.0316 29.956 56.4875 30.5003L44.0949 42.8927L37.6482 36.4459C37.1039 35.9016 36.2216 35.9016 35.6775 36.4459C35.1332 36.9902 35.1332 37.8723 35.6775 38.4166L43.1097 45.8488C43.3817 46.121 43.7384 46.2569 44.0949 46.2569C44.4515 46.2569 44.8083 46.121 45.0802 45.8488L58.458 32.471C59.0023 31.9265 59.0023 31.0444 58.4582 30.5001Z" fill="#6AE4FF"/>
<defs>
<filter id="filter0_f" x="0" y="-9.63647" width="109" height="109" filterUnits="userSpaceOnUse" color-interpolation-filters="sRGB">
<feFlood flood-opacity="0" result="BackgroundImageFix"/>
<feBlend mode="normal" in="SourceGraphic" in2="BackgroundImageFix" result="shape"/>
<feGaussianBlur stdDeviation="5" result="effect1_foregroundBlur"/>
</filter>
</defs>
</svg>
