<svg width="82" height="95" viewBox="0 0 82 95" fill="none" xmlns="http://www.w3.org/2000/svg">
<g clip-path="url(#clip0)" filter="url(#filter0_f)">
<path d="M40.4726 46.0095C45.3697 46.0095 49.6096 44.2531 53.075 40.7877C56.5392 37.3229 58.2962 33.0836 58.2962 28.1859C58.2962 23.2899 56.5398 19.0499 53.0744 15.584C49.6091 12.1198 45.3691 10.3634 40.4726 10.3634C35.5749 10.3634 31.3355 12.1198 27.8707 15.5846C24.4059 19.0494 22.6489 23.2893 22.6489 28.1859C22.6489 33.0836 24.4059 37.3235 27.8707 40.7883C31.3366 44.2525 35.5766 46.0095 40.4726 46.0095ZM30.9375 18.6508C33.596 15.9922 36.7148 14.6999 40.4726 14.6999C44.2298 14.6999 47.3491 15.9922 50.0082 18.6508C52.6668 21.3099 53.9597 24.4292 53.9597 28.1859C53.9597 31.9437 52.6668 35.0624 50.0082 37.7215C47.3491 40.3807 44.2298 41.673 40.4726 41.673C36.7159 41.673 33.5972 40.3801 30.9375 37.7215C28.2783 35.063 26.9854 31.9437 26.9854 28.1859C26.9854 24.4292 28.2783 21.3099 30.9375 18.6508Z" fill="#6AA6FF"/>
<path d="M71.6593 67.2658C71.5593 65.8238 71.3572 64.2509 71.0597 62.59C70.7593 60.9166 70.3726 59.3346 69.9096 57.8887C69.4309 56.3943 68.7811 54.9185 67.9765 53.5043C67.1427 52.0364 66.1626 50.7582 65.0628 49.7064C63.9127 48.606 62.5047 47.7213 60.8764 47.076C59.2538 46.4341 57.4557 46.1089 55.5322 46.1089C54.7768 46.1089 54.0462 46.4189 52.6353 47.3374C51.767 47.9037 50.7513 48.5586 49.6177 49.2829C48.6483 49.9006 47.3351 50.4793 45.7131 51.0032C44.1306 51.5153 42.5238 51.775 40.9373 51.775C39.352 51.775 37.7452 51.5153 36.1616 51.0032C34.5413 50.4798 33.2275 49.9011 32.2598 49.2835C31.1369 48.5659 30.1206 47.911 29.2393 47.3369C27.8296 46.4183 27.099 46.1083 26.3436 46.1083C24.4196 46.1083 22.6219 46.4341 20.9999 47.0766C19.3728 47.7208 17.9642 48.6054 16.813 49.7069C15.7132 50.7593 14.7331 52.0369 13.8998 53.5043C13.0964 54.9185 12.446 56.3937 11.9673 57.8893C11.5049 59.3352 11.1182 60.9166 10.8178 62.59C10.5197 64.2487 10.3182 65.8221 10.2182 67.2674C10.12 68.6806 10.0703 70.1513 10.0703 71.6373C10.0703 75.5001 11.2983 78.6272 13.7197 80.9335C16.1113 83.2093 19.2751 84.3633 23.1239 84.3633H58.7553C62.6029 84.3633 65.7668 83.2093 68.1589 80.9335C70.5809 78.6289 71.8089 75.5006 71.8089 71.6367C71.8083 70.1456 71.7581 68.6749 71.6593 67.2658ZM65.1689 77.7917C63.5887 79.2957 61.4907 80.0268 58.7548 80.0268H23.1239C20.3874 80.0268 18.2894 79.2957 16.7097 77.7922C15.16 76.317 14.4068 74.3032 14.4068 71.6373C14.4068 70.2507 14.4525 68.8816 14.544 67.5672C14.6332 66.2777 14.8156 64.8612 15.086 63.3561C15.353 61.8696 15.6929 60.4745 16.0972 59.2115C16.485 58.0005 17.014 56.8014 17.6701 55.6463C18.2962 54.5453 19.0166 53.6008 19.8115 52.8398C20.555 52.1278 21.4922 51.5452 22.5965 51.1082C23.6179 50.704 24.7656 50.4827 26.0117 50.4493C26.1635 50.5301 26.434 50.6842 26.8721 50.9699C27.7635 51.5508 28.7911 52.2136 29.927 52.9391C31.2074 53.7555 32.8571 54.4928 34.8281 55.1291C36.843 55.7806 38.8981 56.1115 40.9379 56.1115C42.9777 56.1115 45.0333 55.7806 47.0472 55.1297C49.0198 54.4923 50.6689 53.7555 51.9511 52.938C53.1135 52.195 54.1123 51.5514 55.0037 50.9699C55.4418 50.6848 55.7123 50.5301 55.8641 50.4493C57.1107 50.4827 58.2585 50.704 59.2804 51.1082C60.3841 51.5452 61.3213 52.1284 62.0649 52.8398C62.8598 53.6002 63.5802 54.5448 64.2063 55.6468C64.8629 56.8014 65.3925 58.0011 65.7798 59.211C66.1846 60.4756 66.525 61.8701 66.7915 63.3555C67.0614 64.8635 67.2443 66.2806 67.3335 67.5678V67.5689C67.4255 68.8782 67.4718 70.2467 67.4724 71.6373C67.4718 74.3037 66.7187 76.317 65.1689 77.7917Z" fill="#6AA6FF"/>
</g>
<g clip-path="url(#clip1)">
<path d="M40.4726 46.0095C45.3697 46.0095 49.6096 44.2531 53.075 40.7877C56.5392 37.3229 58.2962 33.0836 58.2962 28.1859C58.2962 23.2899 56.5398 19.0499 53.0744 15.584C49.6091 12.1198 45.3691 10.3634 40.4726 10.3634C35.5749 10.3634 31.3355 12.1198 27.8707 15.5846C24.4059 19.0494 22.6489 23.2893 22.6489 28.1859C22.6489 33.0836 24.4059 37.3235 27.8707 40.7883C31.3366 44.2525 35.5766 46.0095 40.4726 46.0095ZM30.9375 18.6508C33.596 15.9922 36.7148 14.6999 40.4726 14.6999C44.2298 14.6999 47.3491 15.9922 50.0082 18.6508C52.6668 21.3099 53.9597 24.4292 53.9597 28.1859C53.9597 31.9437 52.6668 35.0624 50.0082 37.7215C47.3491 40.3807 44.2298 41.673 40.4726 41.673C36.7159 41.673 33.5972 40.3801 30.9375 37.7215C28.2783 35.063 26.9854 31.9437 26.9854 28.1859C26.9854 24.4292 28.2783 21.3099 30.9375 18.6508Z" fill="#6AE4FF"/>
<path d="M71.6593 67.2658C71.5593 65.8238 71.3572 64.2509 71.0597 62.59C70.7593 60.9166 70.3726 59.3346 69.9096 57.8887C69.4309 56.3943 68.7811 54.9185 67.9765 53.5043C67.1427 52.0364 66.1626 50.7582 65.0628 49.7064C63.9127 48.606 62.5047 47.7213 60.8764 47.076C59.2538 46.4341 57.4557 46.1089 55.5322 46.1089C54.7768 46.1089 54.0462 46.4189 52.6353 47.3374C51.767 47.9037 50.7513 48.5586 49.6177 49.2829C48.6483 49.9006 47.3351 50.4793 45.7131 51.0032C44.1306 51.5153 42.5238 51.775 40.9373 51.775C39.352 51.775 37.7452 51.5153 36.1616 51.0032C34.5413 50.4798 33.2275 49.9011 32.2598 49.2835C31.1369 48.5659 30.1206 47.911 29.2393 47.3369C27.8296 46.4183 27.099 46.1083 26.3436 46.1083C24.4196 46.1083 22.6219 46.4341 20.9999 47.0766C19.3728 47.7208 17.9642 48.6054 16.813 49.7069C15.7132 50.7593 14.7331 52.0369 13.8998 53.5043C13.0964 54.9185 12.446 56.3937 11.9673 57.8893C11.5049 59.3352 11.1182 60.9166 10.8178 62.59C10.5197 64.2487 10.3182 65.8221 10.2182 67.2674C10.12 68.6806 10.0703 70.1513 10.0703 71.6373C10.0703 75.5001 11.2983 78.6272 13.7197 80.9335C16.1113 83.2093 19.2751 84.3633 23.1239 84.3633H58.7553C62.6029 84.3633 65.7668 83.2093 68.1589 80.9335C70.5809 78.6289 71.8089 75.5006 71.8089 71.6367C71.8083 70.1456 71.7581 68.6749 71.6593 67.2658ZM65.1689 77.7917C63.5887 79.2957 61.4907 80.0268 58.7548 80.0268H23.1239C20.3874 80.0268 18.2894 79.2957 16.7097 77.7922C15.16 76.317 14.4068 74.3032 14.4068 71.6373C14.4068 70.2507 14.4525 68.8816 14.544 67.5672C14.6332 66.2777 14.8156 64.8612 15.086 63.3561C15.353 61.8696 15.6929 60.4745 16.0972 59.2115C16.485 58.0005 17.014 56.8014 17.6701 55.6463C18.2962 54.5453 19.0166 53.6008 19.8115 52.8398C20.555 52.1278 21.4922 51.5452 22.5965 51.1082C23.6179 50.704 24.7656 50.4827 26.0117 50.4493C26.1635 50.5301 26.434 50.6842 26.8721 50.9699C27.7635 51.5508 28.7911 52.2136 29.927 52.9391C31.2074 53.7555 32.8571 54.4928 34.8281 55.1291C36.843 55.7806 38.8981 56.1115 40.9379 56.1115C42.9777 56.1115 45.0333 55.7806 47.0472 55.1297C49.0198 54.4923 50.6689 53.7555 51.9511 52.938C53.1135 52.195 54.1123 51.5514 55.0037 50.9699C55.4418 50.6848 55.7123 50.5301 55.8641 50.4493C57.1107 50.4827 58.2585 50.704 59.2804 51.1082C60.3841 51.5452 61.3213 52.1284 62.0649 52.8398C62.8598 53.6002 63.5802 54.5448 64.2063 55.6468C64.8629 56.8014 65.3925 58.0011 65.7798 59.211C66.1846 60.4756 66.525 61.8701 66.7915 63.3555C67.0614 64.8635 67.2443 66.2806 67.3335 67.5678V67.5689C67.4255 68.8782 67.4718 70.2467 67.4724 71.6373C67.4718 74.3037 66.7187 76.317 65.1689 77.7917Z" fill="#6AE4FF"/>
</g>
<defs>
<filter id="filter0_f" x="-6" y="0.363403" width="94" height="94" filterUnits="userSpaceOnUse" color-interpolation-filters="sRGB">
<feFlood flood-opacity="0" result="BackgroundImageFix"/>
<feBlend mode="normal" in="SourceGraphic" in2="BackgroundImageFix" result="shape"/>
<feGaussianBlur stdDeviation="5" result="effect1_foregroundBlur"/>
</filter>
<clipPath id="clip0">
<rect width="74" height="74" fill="white" transform="translate(4 10.3634)"/>
</clipPath>
<clipPath id="clip1">
<rect width="74" height="74" fill="white" transform="translate(4 10.3634)"/>
</clipPath>
</defs>
</svg>
