<svg width="18" height="14" viewBox="0 0 18 14" fill="none" xmlns="http://www.w3.org/2000/svg">
<path d="M16.2288 0.863281H2.21704C1.3942 0.863281 0.7229 1.53385 0.7229 2.35742V12.3184C0.7229 13.1391 1.39121 13.8125 2.21704 13.8125H16.2288C17.0495 13.8125 17.7229 13.1442 17.7229 12.3184V2.35742C17.7229 1.53664 17.0546 0.863281 16.2288 0.863281ZM16.0224 1.85938L9.25458 8.62727L2.42818 1.85938H16.0224ZM1.71899 12.1121V2.55893L6.51615 7.31495L1.71899 12.1121ZM2.42333 12.8164L7.22351 8.01623L8.90548 9.68376C9.10018 9.8768 9.41438 9.87617 9.60829 9.68223L11.2483 8.04223L16.0225 12.8164H2.42333ZM16.7268 12.1121L11.9526 7.33789L16.7268 2.56368V12.1121Z" fill="black"/>
</svg>
