<svg width="26" height="26" viewBox="0 0 26 26" fill="none" xmlns="http://www.w3.org/2000/svg">
<path d="M25.2229 13.2363C25.2229 6.33203 19.6272 0.736328 12.7229 0.736328C5.8186 0.736328 0.2229 6.33203 0.2229 13.2363C0.2229 20.1406 5.8186 25.7363 12.7229 25.7363C12.7961 25.7363 12.8694 25.7363 12.9426 25.7314V16.0049H10.2571V12.875H12.9426V10.5703C12.9426 7.89941 14.5735 6.44434 16.9563 6.44434C18.0989 6.44434 19.0803 6.52734 19.3635 6.56641V9.35938H17.7229C16.429 9.35938 16.175 9.97461 16.175 10.8779V12.8701H19.2756L18.8704 16H16.175V25.2529C21.3997 23.7539 25.2229 18.9443 25.2229 13.2363Z" fill="#6B6B6B"/>
</svg>
