<svg width="26" height="26" viewBox="0 0 26 26" fill="none" xmlns="http://www.w3.org/2000/svg">
<path d="M15.1152 13.2363C15.1152 14.5577 14.0441 15.6289 12.7227 15.6289C11.4012 15.6289 10.3301 14.5577 10.3301 13.2363C10.3301 11.9149 11.4012 10.8438 12.7227 10.8438C14.0441 10.8438 15.1152 11.9149 15.1152 13.2363Z" fill="#6B6B6B"/>
<path d="M18.3183 9.00471C18.2033 8.69305 18.0198 8.41095 17.7814 8.1794C17.5499 7.94098 17.268 7.75749 16.9561 7.64248C16.7032 7.54425 16.3232 7.42733 15.6234 7.39548C14.8664 7.36095 14.6394 7.35352 12.7229 7.35352C10.8062 7.35352 10.5793 7.36076 9.82243 7.39529C9.12262 7.42733 8.74249 7.54425 8.48976 7.64248C8.17791 7.75749 7.89581 7.94098 7.66445 8.1794C7.42603 8.41095 7.24255 8.69286 7.12734 9.00471C7.02911 9.25762 6.91219 9.63776 6.88034 10.3376C6.84582 11.0944 6.83838 11.3214 6.83838 13.2381C6.83838 15.1546 6.84582 15.3815 6.88034 16.1386C6.91219 16.8384 7.02911 17.2183 7.12734 17.4712C7.24255 17.7831 7.42584 18.065 7.66426 18.2965C7.89581 18.535 8.17772 18.7185 8.48957 18.8335C8.74249 18.9319 9.12262 19.0488 9.82243 19.0807C10.5793 19.1152 10.806 19.1224 12.7227 19.1224C14.6396 19.1224 14.8666 19.1152 15.6232 19.0807C16.3231 19.0488 16.7032 18.9319 16.9561 18.8335C17.5821 18.592 18.0769 18.0972 18.3183 17.4712C18.4166 17.2183 18.5335 16.8384 18.5655 16.1386C18.6 15.3815 18.6073 15.1546 18.6073 13.2381C18.6073 11.3214 18.6 11.0944 18.5655 10.3376C18.5337 9.63776 18.4167 9.25762 18.3183 9.00471ZM12.7229 16.9236C10.6872 16.9236 9.03698 15.2736 9.03698 13.2379C9.03698 11.2022 10.6872 9.55212 12.7229 9.55212C14.7585 9.55212 16.4087 11.2022 16.4087 13.2379C16.4087 15.2736 14.7585 16.9236 12.7229 16.9236ZM16.5544 10.2678C16.0787 10.2678 15.6931 9.88209 15.6931 9.4064C15.6931 8.9307 16.0787 8.54504 16.5544 8.54504C17.0301 8.54504 17.4158 8.9307 17.4158 9.4064C17.4156 9.88209 17.0301 10.2678 16.5544 10.2678Z" fill="#6B6B6B"/>
<path d="M12.7227 0.736328C5.82015 0.736328 0.222656 6.33382 0.222656 13.2363C0.222656 20.1388 5.82015 25.7363 12.7227 25.7363C19.6252 25.7363 25.2227 20.1388 25.2227 13.2363C25.2227 6.33382 19.6252 0.736328 12.7227 0.736328ZM19.8571 16.1956C19.8224 16.9597 19.7009 17.4813 19.5235 17.9379C19.1506 18.9021 18.3884 19.6643 17.4243 20.0372C16.9678 20.2146 16.446 20.3359 15.6821 20.3708C14.9167 20.4057 14.6722 20.4141 12.7228 20.4141C10.7733 20.4141 10.529 20.4057 9.7634 20.3708C8.99951 20.3359 8.47766 20.2146 8.02123 20.0372C7.54211 19.8569 7.10838 19.5744 6.74979 19.2092C6.38473 18.8508 6.10225 18.4169 5.922 17.9379C5.74462 17.4815 5.62312 16.9597 5.58841 16.1958C5.55312 15.4302 5.54492 15.1856 5.54492 13.2363C5.54492 11.287 5.55312 11.0425 5.58822 10.2771C5.62293 9.51299 5.74424 8.99133 5.92162 8.53471C6.10187 8.05578 6.38454 7.62186 6.74979 7.26347C7.10818 6.89821 7.54211 6.61573 8.02104 6.43549C8.47766 6.2581 8.99932 6.1368 9.7634 6.10189C10.5288 6.06699 10.7733 6.05859 12.7227 6.05859C14.672 6.05859 14.9165 6.06699 15.6819 6.10208C16.446 6.1368 16.9677 6.2581 17.4243 6.4353C17.9032 6.61554 18.3371 6.89821 18.6957 7.26347C19.0608 7.62205 19.3434 8.05578 19.5235 8.53471C19.7011 8.99133 19.8224 9.51299 19.8573 10.2771C19.8922 11.0425 19.9004 11.287 19.9004 13.2363C19.9004 15.1856 19.8922 15.4302 19.8571 16.1956Z" fill="#6B6B6B"/>
</svg>
