<svg width="18" height="18" viewBox="0 0 18 18" fill="none" xmlns="http://www.w3.org/2000/svg">
<path d="M16.2288 7.68359C15.5795 7.68359 15.0259 8.09999 14.8203 8.67969H13.6775C13.5816 7.81641 13.2397 7.02644 12.7235 6.3815L13.5095 5.59545C14.0679 5.86151 14.7528 5.76087 15.2098 5.30386C15.7938 4.71995 15.7938 3.77479 15.2098 3.19081C14.6273 2.60826 13.6794 2.60823 13.0968 3.19081C12.6316 3.65602 12.542 4.34326 12.8046 4.89174L12.0191 5.67716C11.3742 5.16095 10.5842 4.81899 9.72095 4.72314V3.58035C10.3006 3.37476 10.717 2.82116 10.717 2.17188C10.717 1.34801 10.0468 0.677734 9.2229 0.677734C8.39903 0.677734 7.72876 1.34801 7.72876 2.17188C7.72876 2.82116 8.14516 3.37476 8.72485 3.58035V4.72314C7.86157 4.81899 7.0716 5.16095 6.42667 5.67716L5.64121 4.89174C5.90544 4.33974 5.81148 3.65333 5.34899 3.19081C4.76644 2.60826 3.81853 2.60823 3.23598 3.19081C2.65204 3.77472 2.652 4.71988 3.23598 5.30386C3.69558 5.76349 4.38086 5.85998 4.93624 5.59542L5.72233 6.3815C5.20612 7.02644 4.86416 7.81641 4.7683 8.67969H3.62552C3.41992 8.09999 2.86633 7.68359 2.21704 7.68359C1.39317 7.68359 0.7229 8.35387 0.7229 9.17773C0.7229 10.0016 1.39317 10.6719 2.21704 10.6719C2.86633 10.6719 3.41992 10.2555 3.62552 9.67578H4.7683C4.86419 10.5391 5.20612 11.329 5.72233 11.974L4.93624 12.7601C4.38096 12.4955 3.69504 12.5925 3.23598 13.0516C2.65204 13.6356 2.652 14.5807 3.23598 15.1647C3.81899 15.7477 4.76694 15.7468 5.34899 15.1647C5.81483 14.6988 5.90348 14.0116 5.64121 13.4638L6.42663 12.6783C7.0716 13.1945 7.86157 13.5365 8.72485 13.6323V14.7751C8.14516 14.9807 7.72876 15.5343 7.72876 16.1836C7.72876 17.0075 8.39903 17.6777 9.2229 17.6777C10.0468 17.6777 10.717 17.0075 10.717 16.1836C10.717 15.5343 10.3006 14.9807 9.72095 14.7751V13.6323C10.5842 13.5365 11.3742 13.1945 12.0191 12.6783L12.8046 13.4638C12.5403 14.0158 12.6343 14.7022 13.0968 15.1647C13.6798 15.7477 14.6277 15.7468 15.2098 15.1647C15.7937 14.5808 15.7938 13.6356 15.2098 13.0516C14.7507 12.5925 14.0648 12.4955 13.5095 12.7601L12.7234 11.974C13.2397 11.329 13.5816 10.5391 13.6775 9.67578H14.8203C15.0259 10.2555 15.5795 10.6719 16.2288 10.6719C17.0526 10.6719 17.7229 10.0016 17.7229 9.17773C17.7229 8.35387 17.0526 7.68359 16.2288 7.68359ZM13.8011 3.89515C13.9953 3.70098 14.3113 3.70095 14.5055 3.89515C14.7001 4.08979 14.7002 4.40482 14.5055 4.59949C14.3113 4.79369 13.9953 4.79366 13.8011 4.59949C13.6065 4.40482 13.6065 4.08982 13.8011 3.89515ZM4.64465 4.59949C4.45048 4.79369 4.13452 4.79366 3.94032 4.59949C3.74568 4.40485 3.74565 4.08982 3.94032 3.89515C4.13449 3.70098 4.45048 3.70095 4.64465 3.89515C4.83932 4.08982 4.83932 4.40482 4.64465 4.59949ZM2.21704 9.67578C1.94242 9.67578 1.71899 9.45236 1.71899 9.17773C1.71899 8.90311 1.94242 8.67969 2.21704 8.67969C2.49166 8.67969 2.71509 8.90311 2.71509 9.17773C2.71509 9.45236 2.49166 9.67578 2.21704 9.67578ZM4.64465 14.4603C4.45045 14.6545 4.13449 14.6545 3.94032 14.4603C3.74568 14.2657 3.74565 13.9507 3.94032 13.756C4.13449 13.5618 4.45048 13.5618 4.64465 13.756C4.83932 13.9507 4.83932 14.2656 4.64465 14.4603ZM13.8011 13.756C13.9953 13.5618 14.3113 13.5618 14.5055 13.756C14.7001 13.9506 14.7002 14.2656 14.5055 14.4603C14.3113 14.6545 13.9953 14.6545 13.8011 14.4603C13.6065 14.2656 13.6065 13.9507 13.8011 13.756ZM9.2229 1.67383C9.49752 1.67383 9.72095 1.89725 9.72095 2.17188C9.72095 2.4465 9.49752 2.66992 9.2229 2.66992C8.94828 2.66992 8.72485 2.4465 8.72485 2.17188C8.72485 1.89725 8.94828 1.67383 9.2229 1.67383ZM5.7723 9.67578H7.2422C7.28141 10.5547 7.43272 11.5421 7.77053 12.3467C6.71567 11.8614 5.9431 10.8645 5.7723 9.67578ZM7.2422 8.67969H5.7723C5.9431 7.49095 6.71567 6.49409 7.77053 6.00873C7.43272 6.81334 7.28145 7.8007 7.2422 8.67969ZM9.2229 16.6816C8.94828 16.6816 8.72485 16.4582 8.72485 16.1836C8.72485 15.909 8.94828 15.6855 9.2229 15.6855C9.49752 15.6855 9.72095 15.909 9.72095 16.1836C9.72095 16.4582 9.49752 16.6816 9.2229 16.6816ZM9.81305 11.8202C9.5548 12.509 9.29392 12.6641 9.2229 12.6641C9.15188 12.6641 8.891 12.509 8.63272 11.8202C8.41474 11.239 8.27867 10.4841 8.23913 9.66914H10.2066C10.1671 10.4841 10.031 11.239 9.81305 11.8202ZM8.23916 8.67969C8.2787 7.86475 8.41477 7.11652 8.63275 6.53523C8.891 5.84643 9.15188 5.69141 9.2229 5.69141C9.29392 5.69141 9.5548 5.84643 9.81309 6.53523C10.0311 7.11648 10.1671 7.86475 10.2067 8.67969H8.23916ZM10.6753 12.3467C11.0131 11.5421 11.1644 10.5481 11.2036 9.66914H12.6735C12.5027 10.8579 11.7301 11.8614 10.6753 12.3467ZM11.2036 8.67969C11.1644 7.80073 11.0131 6.81337 10.6753 6.00873C11.7301 6.49409 12.5027 7.49095 12.6735 8.67969H11.2036ZM16.2288 9.67578C15.9541 9.67578 15.7307 9.45236 15.7307 9.17773C15.7307 8.90311 15.9541 8.67969 16.2288 8.67969C16.5034 8.67969 16.7268 8.90311 16.7268 9.17773C16.7268 9.45236 16.5034 9.67578 16.2288 9.67578Z" fill="black"/>
</svg>
