<svg width="26" height="26" viewBox="0 0 26 26" fill="none" xmlns="http://www.w3.org/2000/svg">
<path d="M12.7231 0.736328C5.82064 0.736328 0.223145 6.33382 0.223145 13.2363C0.223145 20.1388 5.82064 25.7363 12.7231 25.7363C19.6256 25.7363 25.2231 20.1388 25.2231 13.2363C25.2231 6.33382 19.6256 0.736328 12.7231 0.736328ZM18.4305 10.4825C18.436 10.6055 18.4387 10.7291 18.4387 10.8533C18.4387 14.6445 15.5529 19.0164 10.2754 19.0165H10.2756H10.2754C8.65515 19.0165 7.14739 18.5416 5.87767 17.7278C6.10217 17.7543 6.33067 17.7674 6.56203 17.7674C7.90633 17.7674 9.14343 17.3089 10.1255 16.5393C8.86954 16.516 7.81058 15.6865 7.44513 14.5465C7.62003 14.5801 7.7999 14.5984 7.98434 14.5984C8.24622 14.5984 8.49989 14.5631 8.74098 14.4973C7.42815 14.2344 6.43919 13.0742 6.43919 11.6849C6.43919 11.6719 6.43919 11.6603 6.43958 11.6483C6.82619 11.8632 7.26832 11.9925 7.73905 12.007C6.96867 11.493 6.46227 10.6143 6.46227 9.61885C6.46227 9.09319 6.60437 8.60071 6.8508 8.1767C8.26567 9.91277 10.3802 11.0545 12.7647 11.1745C12.7155 10.9643 12.6901 10.7453 12.6901 10.5203C12.6901 8.9364 13.9751 7.65142 15.5596 7.65142C16.3849 7.65142 17.1303 8.00027 17.6538 8.55798C18.3075 8.42905 18.9213 8.19025 19.4757 7.86161C19.2612 8.53128 18.8064 9.09319 18.214 9.44852C18.7944 9.3791 19.3476 9.22517 19.8616 8.99667C19.4776 9.57212 18.9907 10.0776 18.4305 10.4825Z" fill="#6B6B6B"/>
</svg>
