<svg width="26" height="26" viewBox="0 0 26 26" fill="none" xmlns="http://www.w3.org/2000/svg">
<path d="M12.7229 0.736328C5.81958 0.736328 0.2229 6.33275 0.2229 13.2363C0.2229 20.1399 5.81958 25.7363 12.7229 25.7363C19.6262 25.7363 25.2229 20.1399 25.2229 13.2363C25.2229 6.33275 19.6262 0.736328 12.7229 0.736328ZM19.0636 14.5882C19.6462 15.1573 20.2625 15.6929 20.7856 16.3207C21.0173 16.5985 21.2357 16.8857 21.4019 17.2087C21.6393 17.6693 21.4249 18.1744 21.0127 18.2018L18.4518 18.2013C17.7904 18.256 17.2641 17.9893 16.8203 17.5371C16.4661 17.1767 16.1375 16.7918 15.7963 16.4192C15.6569 16.2663 15.5101 16.1223 15.3352 16.009C14.9861 15.7819 14.6827 15.8514 14.4827 16.2161C14.2789 16.5872 14.2324 16.9985 14.2129 17.4115C14.185 18.0154 14.003 18.1732 13.3971 18.2015C12.1024 18.2622 10.8741 18.0657 9.73236 17.4131C8.7252 16.8374 7.94566 16.0248 7.26638 15.1049C5.94362 13.3115 4.93057 11.3432 4.02034 9.31843C3.81548 8.86242 3.96536 8.61842 4.46842 8.60896C5.30423 8.59285 6.14004 8.5949 6.97584 8.60819C7.31599 8.61357 7.54106 8.8082 7.67175 9.12917C8.12341 10.2404 8.67712 11.2977 9.37098 12.2783C9.55589 12.5394 9.74464 12.7998 10.0134 12.9842C10.3101 13.1877 10.5362 13.1205 10.6761 12.7893C10.7656 12.5788 10.8042 12.3537 10.8237 12.1281C10.8902 11.3555 10.8981 10.5831 10.783 9.81357C10.7114 9.33198 10.4405 9.02098 9.9605 8.92993C9.71599 8.88364 9.7518 8.79311 9.87073 8.65346C10.0771 8.41203 10.2705 8.26267 10.6569 8.26267L13.5503 8.26216C14.0063 8.35167 14.1086 8.55628 14.1705 9.01561L14.173 12.231C14.1677 12.4087 14.2623 12.9356 14.5815 13.0519C14.8372 13.1363 15.006 12.9312 15.159 12.7693C15.8528 12.033 16.3472 11.1639 16.7899 10.2645C16.9853 9.86779 17.1538 9.4573 17.3175 9.04605C17.4393 8.74195 17.6285 8.59234 17.9718 8.59745L20.7579 8.60078C20.84 8.60078 20.9234 8.60155 21.0047 8.61561C21.4743 8.69592 21.603 8.89796 21.4577 9.35602C21.229 10.0757 20.7848 10.6752 20.3505 11.2762C19.885 11.9197 19.3886 12.5407 18.9278 13.187C18.5042 13.7778 18.5377 14.0752 19.0636 14.5882Z" fill="#6B6B6B"/>
</svg>
