<svg width="25" height="25" viewBox="0 0 25 25" fill="none" xmlns="http://www.w3.org/2000/svg">
<path d="M10.9431 10.1581L15.0091 12.5L10.9431 14.8418V10.1581Z" fill="#FFED00"/>
<path d="M12.5 25C5.5975 25 0 19.4025 0 12.5C0 5.5975 5.5975 0 12.5 0C19.4025 0 25 5.5975 25 12.5C25 19.4025 19.4025 25 12.5 25ZM20.3106 12.4872C20.3106 12.4872 20.3106 9.95216 19.989 8.72974C19.8088 8.06065 19.2812 7.53307 18.6121 7.35302C17.3897 7.03125 12.5 7.03125 12.5 7.03125C12.5 7.03125 7.6231 7.03125 6.3879 7.3658C5.7188 7.54585 5.19123 8.07362 5.01099 8.74271C4.68922 9.95216 4.68922 12.5 4.68922 12.5C4.68922 12.5 4.68922 15.0349 5.01099 16.2573C5.19104 16.9264 5.73158 17.4669 6.3879 17.647C7.61032 17.9688 12.5 17.9688 12.5 17.9688C12.5 17.9688 17.3897 17.9688 18.6121 17.6342C19.2812 17.4541 19.8088 16.9264 19.989 16.2573C20.3236 15.0349 20.3106 12.4872 20.3106 12.4872Z" fill="#FFED00"/>
</svg>
