<svg  viewBox="0 0 100 100" fill="none" xmlns="http://www.w3.org/2000/svg">
<rect x="100" y="100" width="100" height="100" transform="rotate(-180 100 100)" fill="#B31F1F"/>
<path d="M40.442 35.1772L54.9043 50.0295L40.442 64.8818C40.1831 65.1472 40.0381 65.5034 40.0381 65.8743C40.0381 66.2453 40.1831 66.6015 40.442 66.8669C40.5677 66.9954 40.7179 67.0974 40.8835 67.1671C41.0492 67.2368 41.2271 67.2727 41.4067 67.2727C41.5864 67.2727 41.7643 67.2368 41.93 67.1671C42.0956 67.0974 42.2457 66.9954 42.3715 66.8669L57.76 51.0666C58.0302 50.7891 58.1814 50.417 58.1814 50.0295C58.1814 49.642 58.0302 49.2699 57.76 48.9924L42.3745 33.1921C42.2486 33.0627 42.0981 32.9599 41.9319 32.8896C41.7657 32.8194 41.5872 32.7832 41.4067 32.7832C41.2263 32.7832 41.0478 32.8194 40.8816 32.8896C40.7153 32.9599 40.5649 33.0627 40.439 33.1921C40.1801 33.4575 40.0352 33.8137 40.0352 34.1846C40.0352 34.5556 40.1801 34.9118 40.439 35.1772L40.442 35.1772Z" fill="white"/>
</svg>
