<svg viewBox="0 0 100 100" fill="none" xmlns="http://www.w3.org/2000/svg">
<rect width="100" height="100" fill="#333333"/>
<path d="M59.558 64.8228L45.0957 49.9705L59.558 35.1182C59.8169 34.8528 59.9619 34.4966 59.9619 34.1257C59.9619 33.7547 59.8169 33.3985 59.558 33.1331C59.4323 33.0046 59.2821 32.9026 59.1165 32.8329C58.9508 32.7632 58.7729 32.7273 58.5933 32.7273C58.4136 32.7273 58.2357 32.7632 58.07 32.8329C57.9044 32.9026 57.7543 33.0046 57.6285 33.1331L42.24 48.9334C41.9698 49.2109 41.8186 49.583 41.8186 49.9705C41.8186 50.358 41.9698 50.7301 42.24 51.0076L57.6255 66.8079C57.7514 66.9373 57.9019 67.0401 58.0681 67.1104C58.2343 67.1806 58.4129 67.2168 58.5933 67.2168C58.7737 67.2168 58.9522 67.1806 59.1184 67.1104C59.2847 67.0401 59.4351 66.9373 59.561 66.8079C59.8199 66.5425 59.9648 66.1863 59.9648 65.8154C59.9648 65.4444 59.8199 65.0882 59.561 64.8228L59.558 64.8228Z" fill="white"/>
</svg>
