<svg width="23" height="22" viewBox="0 0 23 22" fill="none" xmlns="http://www.w3.org/2000/svg">
<path d="M16.675 0C14.674 0 12.7535 0.971117 11.5 2.50572C10.2465 0.971117 8.326 0 6.325 0C2.783 0 0 2.90136 0 6.59401C0 11.1259 3.91 14.8185 9.8325 20.4294L11.5 22L13.1675 20.4174C19.09 14.8185 23 11.1259 23 6.59401C23 2.90136 20.217 0 16.675 0ZM11.615 18.643L11.5 18.7629L11.385 18.643C5.911 13.4757 2.3 10.0589 2.3 6.59401C2.3 4.19619 4.025 2.39782 6.325 2.39782C8.096 2.39782 9.821 3.58474 10.4305 5.22725H12.581C13.179 3.58474 14.904 2.39782 16.675 2.39782C18.975 2.39782 20.7 4.19619 20.7 6.59401C20.7 10.0589 17.089 13.4757 11.615 18.643Z" fill="#333333"/>
</svg>
