<svg width="151" height="17" viewBox="0 0 151 17" fill="none" xmlns="http://www.w3.org/2000/svg">
<g clip-path="url(#clip0_109_86)">
<path fill-rule="evenodd" clip-rule="evenodd" d="M37.0362 2.58255L31.5518 14.5166H32.4595L33.9431 11.1982H40.8882L42.3833 14.5128H43.3444L37.86 2.5787L37.0362 2.58255ZM34.3245 10.3936L37.4405 3.54498L40.5335 10.3936H34.3245ZM59.4962 6.02419C59.5004 5.61194 59.4241 5.20289 59.2716 4.82043C59.1191 4.43797 58.8935 4.08959 58.6075 3.79521C57.902 3.08686 56.7464 2.64029 55.3009 2.64029H50.3734V14.4589H51.2467V9.56207H55.0911L58.8325 14.4589H59.9424L56.0637 9.40808C58.0431 9.1386 59.4962 8.00679 59.4962 6.03189V6.02419ZM51.2391 8.76133V3.46413H55.2513C57.3833 3.46413 58.6266 4.46121 58.6266 6.04728C58.6266 7.78735 57.1659 8.78443 55.1941 8.78443L51.2391 8.76133ZM76.4794 2.63644H75.2895L67.8028 10.3936V2.63644H66.9294V14.4589H67.8028V11.4523L70.7242 8.46875L75.5564 14.4473H76.7006L71.3611 7.8451L76.4794 2.63644ZM99.0728 3.46413H103.169V14.4743H104.043V3.46413H108.135V2.63644H99.0728V3.46413ZM115.156 14.4743H116.03V2.63644H115.156V14.4743ZM131.983 12.9344L123.875 2.63644H123.051V14.4589H123.89V3.95304L132.166 14.4589H132.822V2.63644H131.983V12.9344ZM145.385 8.31476V9.0847H149.199V12.3839C148.172 13.2212 146.896 13.6838 145.576 13.6967C142.525 13.6967 140.702 11.4831 140.702 8.5111C140.702 5.70466 142.635 3.34479 145.397 3.34479C146.747 3.2977 148.061 3.79335 149.05 4.72299L149.603 4.08393C148.462 3.05927 146.973 2.5175 145.446 2.571C142.052 2.571 139.825 5.41208 139.825 8.5111C139.825 11.7756 141.953 14.4512 145.545 14.4512C147.192 14.4385 148.78 13.826 150.015 12.7265V8.30706L145.385 8.31476ZM83.6914 3.48338H92.082V2.63259H83.6914V3.48338ZM89.5152 8.15307H83.6914V8.99616H89.5152V8.15307ZM83.6914 14.4589H92.082V13.6158H83.6914V14.4589Z" fill="#CCCCCC"/>
<path fill-rule="evenodd" clip-rule="evenodd" d="M19.4509 0L15.5683 6.71389L11.7049 0H7.02148V9.97459C8.47157 11.2684 10.0397 12.4207 11.7049 13.4162V8.46936L15.3586 14.6289H15.7781L19.4509 8.46936V16.4921H24.1114V0H19.4509Z" fill="#CCCCCC"/>
<path fill-rule="evenodd" clip-rule="evenodd" d="M4.68345 7.60317V0H0C1.1226 2.78419 2.70635 5.35527 4.68345 7.60317Z" fill="#CCCCCC"/>
<path fill-rule="evenodd" clip-rule="evenodd" d="M0 9.57031V16.4998H4.68345V12.831C3.03926 11.8709 1.47319 10.7806 0 9.57031Z" fill="#CCCCCC"/>
<path fill-rule="evenodd" clip-rule="evenodd" d="M7.02148 14.082V16.4919H11.7049V15.9722C10.1021 15.4528 8.5372 14.8212 7.02148 14.082Z" fill="#CCCCCC"/>
</g>
<defs>
<clipPath id="clip0_109_86">
<rect width="151" height="17" fill="white"/>
</clipPath>
</defs>
</svg>
