<svg width="19" height="19" viewBox="0 0 19 19" fill="none" xmlns="http://www.w3.org/2000/svg">
<path d="M9.44443 0C6.877 0 6.55703 0.0123974 5.55225 0.0549026C4.54334 0.104492 3.86089 0.260935 3.25874 0.494714C2.62852 0.732638 2.05776 1.10515 1.58627 1.58627C1.1038 2.05666 0.731089 2.62773 0.494714 3.25874C0.260935 3.86089 0.104492 4.54334 0.0549026 5.55225C0.00944562 6.55762 0 6.877 0 9.44443C0 12.0119 0.0123974 12.3318 0.0549026 13.3366C0.104492 14.3426 0.260935 15.028 0.494714 15.6301C0.732638 16.2604 1.10515 16.8311 1.58627 17.3026C2.05666 17.7851 2.62773 18.1578 3.25874 18.3942C3.86089 18.625 4.54629 18.7844 5.55225 18.834C6.55762 18.8794 6.877 18.8889 9.44443 18.8889C12.0119 18.8889 12.3318 18.8765 13.3366 18.834C14.3426 18.7844 15.028 18.6244 15.6301 18.3942C16.2604 18.1562 16.8311 17.7837 17.3026 17.3026C17.7857 16.8327 18.1585 16.2615 18.3942 15.6301C18.625 15.028 18.7844 14.3426 18.834 13.3366C18.8794 12.3312 18.8889 12.0119 18.8889 9.44443C18.8889 6.877 18.8765 6.55703 18.834 5.55225C18.7844 4.54629 18.6244 3.85735 18.3942 3.25874C18.1562 2.62851 17.7837 2.05776 17.3026 1.58627C16.8327 1.10318 16.2615 0.73037 15.6301 0.494714C15.028 0.260935 14.3426 0.104492 13.3366 0.0549026C12.3313 0.00944562 12.0119 0 9.44443 0ZM9.44443 1.70021C11.9658 1.70021 12.2669 1.71261 13.2634 1.75511C14.1826 1.79821 14.6832 1.9517 15.0156 2.08158C15.4265 2.23325 15.7984 2.47466 16.1042 2.78823C16.4172 3.09275 16.6577 3.46379 16.8079 3.87388C16.9378 4.20625 17.0912 4.70687 17.1343 5.62604C17.1768 6.62256 17.1892 6.92422 17.1892 9.44502C17.1892 11.9658 17.1769 12.2675 17.1308 13.264C17.0812 14.1832 16.9277 14.6838 16.7984 15.0162C16.6196 15.4595 16.42 15.7695 16.0906 16.1048C15.7838 16.4164 15.4121 16.6566 15.002 16.8085C14.6738 16.9383 14.1661 17.0918 13.2433 17.1349C12.2415 17.1774 11.9463 17.1898 9.41846 17.1898C6.89058 17.1898 6.59599 17.1774 5.59298 17.1314C4.67381 17.0818 4.1667 16.9283 3.83433 16.799C3.38566 16.6201 3.07809 16.4206 2.74867 16.0912C2.41631 15.7588 2.20496 15.4424 2.04202 15.0026C1.90979 14.6744 1.75866 14.1666 1.70966 13.2439C1.67601 12.2539 1.66007 11.9469 1.66007 9.43086C1.66007 6.91596 1.67601 6.60839 1.70966 5.60597C1.75866 4.68325 1.90979 4.17673 2.04202 3.84732C2.20496 3.39806 2.4169 3.09108 2.74867 2.75871C3.0775 2.42988 3.38566 2.21736 3.83433 2.05088C4.1667 1.92159 4.66141 1.7681 5.58413 1.72205C6.58596 1.68604 6.88113 1.67305 9.40547 1.67305L9.44443 1.70021ZM9.44443 4.59706C8.80765 4.59683 8.17706 4.72208 7.5887 4.96566C7.00034 5.20924 6.46575 5.56638 6.01547 6.01665C5.5652 6.46693 5.20806 7.00152 4.96448 7.58988C4.7209 8.17824 4.59565 8.80883 4.59588 9.44561C4.59565 10.0824 4.7209 10.713 4.96448 11.3013C5.20806 11.8897 5.5652 12.4243 6.01547 12.8746C6.46575 13.3249 7.00034 13.682 7.5887 13.9256C8.17706 14.1691 8.80765 14.2944 9.44443 14.2942C10.0812 14.2944 10.7118 14.1691 11.3002 13.9256C11.8885 13.682 12.4231 13.3249 12.8734 12.8746C13.3237 12.4243 13.6808 11.8897 13.9244 11.3013C14.168 10.713 14.2932 10.0824 14.293 9.44561C14.2932 8.80883 14.168 8.17824 13.9244 7.58988C13.6808 7.00152 13.3237 6.46693 12.8734 6.01665C12.4231 5.56638 11.8885 5.20924 11.3002 4.96566C10.7118 4.72208 10.0812 4.59683 9.44443 4.59706ZM9.44443 12.594C7.70408 12.594 6.29609 11.186 6.29609 9.44561C6.29609 7.70526 7.70408 6.29727 9.44443 6.29727C11.1848 6.29727 12.5928 7.70526 12.5928 9.44561C12.5928 11.186 11.1848 12.594 9.44443 12.594ZM15.6219 4.40343C15.6216 4.70431 15.5018 4.99276 15.2889 5.2054C15.0761 5.41805 14.7875 5.53749 14.4866 5.53749C14.3378 5.53749 14.1905 5.50819 14.0531 5.45126C13.9156 5.39432 13.7907 5.31088 13.6856 5.20568C13.5804 5.10048 13.4969 4.97559 13.44 4.83814C13.383 4.7007 13.3537 4.55338 13.3537 4.40461C13.3537 4.25584 13.383 4.10852 13.44 3.97107C13.4969 3.83362 13.5804 3.70874 13.6856 3.60354C13.7907 3.49834 13.9156 3.41489 14.0531 3.35796C14.1905 3.30103 14.3378 3.27172 14.4866 3.27172C15.1106 3.27172 15.6219 3.77943 15.6219 4.40343Z" fill="white"/>
</svg>
