<svg width="54" height="54" viewBox="0 0 54 54" fill="none" xmlns="http://www.w3.org/2000/svg">
<path d="M27 0C19.6601 0 18.7454 0.0354419 15.8729 0.156957C12.9886 0.298725 11.0376 0.745968 9.31616 1.4143C7.51447 2.09448 5.88279 3.15942 4.53488 4.53488C3.15558 5.87964 2.09006 7.51223 1.4143 9.31616C0.745968 11.0376 0.298725 12.9886 0.156957 15.8729C0.0270034 18.7471 0 19.6601 0 27C0 34.3399 0.0354419 35.2546 0.156957 38.1271C0.298725 41.0029 0.745968 42.9624 1.4143 44.6838C2.09448 46.4855 3.15942 48.1172 4.53488 49.4651C5.87964 50.8444 7.51223 51.9099 9.31616 52.5857C11.0376 53.2456 12.9971 53.7013 15.8729 53.843C18.7471 53.973 19.6601 54 27 54C34.3399 54 35.2546 53.9646 38.1271 53.843C41.0029 53.7013 42.9624 53.2439 44.6838 52.5857C46.4855 51.9055 48.1172 50.8406 49.4651 49.4651C50.8462 48.1218 51.912 46.4888 52.5857 44.6838C53.2456 42.9624 53.7013 41.0029 53.843 38.1271C53.973 35.2529 54 34.3399 54 27C54 19.6601 53.9646 18.7454 53.843 15.8729C53.7013 12.9971 53.2439 11.0275 52.5857 9.31616C51.9055 7.51447 50.8406 5.88279 49.4651 4.53488C48.1218 3.15381 46.4888 2.088 44.6838 1.4143C42.9624 0.745968 41.0029 0.298725 38.1271 0.156957C35.2529 0.0270034 34.3399 0 27 0ZM27 4.86061C34.2082 4.86061 35.0689 4.89605 37.9178 5.01756C40.5456 5.14077 41.9767 5.57957 42.9269 5.95087C44.1016 6.38448 45.1648 7.07463 46.0391 7.97106C46.934 8.84163 47.6215 9.90239 48.0508 11.0748C48.4221 12.0249 48.8609 13.4561 48.9841 16.0839C49.1056 18.9327 49.1411 19.7952 49.1411 27.0017C49.1411 34.2082 49.1056 35.0706 48.974 37.9195C48.8322 40.5473 48.3934 41.9784 48.0238 42.9286C47.5124 44.1961 46.942 45.0821 46.0002 46.0408C45.123 46.9316 44.0605 47.6184 42.8881 48.0525C41.9497 48.4238 40.4983 48.8626 37.8604 48.9858C34.9964 49.1073 34.1525 49.1428 26.9257 49.1428C19.699 49.1428 18.8568 49.1073 15.9894 48.9757C13.3616 48.8339 11.9119 48.3951 10.9617 48.0255C9.67902 47.5141 8.79973 46.9437 7.85798 46.0019C6.9078 45.0518 6.3036 44.1471 5.83779 42.8898C5.45974 41.9514 5.02769 40.5 4.88761 37.8621C4.79141 35.0318 4.74584 34.1542 4.74584 26.9612C4.74584 19.7715 4.79141 18.8922 4.88761 16.0265C5.02769 13.3886 5.45974 11.9406 5.83779 10.9988C6.3036 9.71447 6.90949 8.83685 7.85798 7.88667C8.79804 6.94662 9.67902 6.33904 10.9617 5.86311C11.9119 5.4935 13.3262 5.05469 15.9641 4.92305C18.8281 4.8201 19.672 4.78297 26.8886 4.78297L27 4.86061ZM27 13.1422C25.1795 13.1415 23.3768 13.4996 21.6948 14.196C20.0128 14.8923 18.4845 15.9133 17.1972 17.2006C15.9099 18.4878 14.8889 20.0161 14.1926 21.6981C13.4962 23.3802 13.1382 25.1829 13.1388 27.0034C13.1382 28.8238 13.4962 30.6266 14.1926 32.3086C14.8889 33.9906 15.9099 35.5189 17.1972 36.8062C18.4845 38.0934 20.0128 39.1144 21.6948 39.8108C23.3768 40.5071 25.1795 40.8652 27 40.8645C28.8205 40.8652 30.6232 40.5071 32.3052 39.8108C33.9872 39.1144 35.5155 38.0934 36.8028 36.8062C38.0901 35.5189 39.1111 33.9906 39.8074 32.3086C40.5038 30.6266 40.8618 28.8238 40.8612 27.0034C40.8618 25.1829 40.5038 23.3802 39.8074 21.6981C39.1111 20.0161 38.0901 18.4878 36.8028 17.2006C35.5155 15.9133 33.9872 14.8923 32.3052 14.196C30.6232 13.4996 28.8205 13.1415 27 13.1422ZM27 36.0039C22.0246 36.0039 17.9994 31.9787 17.9994 27.0034C17.9994 22.028 22.0246 18.0028 27 18.0028C31.9754 18.0028 36.0006 22.028 36.0006 27.0034C36.0006 31.9787 31.9754 36.0039 27 36.0039ZM44.6602 12.5886C44.6593 13.4488 44.317 14.2734 43.7084 14.8813C43.0999 15.4893 42.2749 15.8307 41.4147 15.8307C40.9894 15.8307 40.5683 15.747 40.1753 15.5842C39.7824 15.4214 39.4254 15.1829 39.1246 14.8821C38.8239 14.5814 38.5853 14.2244 38.4226 13.8314C38.2598 13.4385 38.176 13.0173 38.176 12.592C38.176 12.1667 38.2598 11.7455 38.4226 11.3526C38.5853 10.9597 38.8239 10.6026 39.1246 10.3019C39.4254 10.0012 39.7824 9.76259 40.1753 9.59983C40.5683 9.43707 40.9894 9.35329 41.4147 9.35329C43.1987 9.35329 44.6602 10.8047 44.6602 12.5886Z" fill="#B31F1F"/>
</svg>
