<svg   viewBox="0 0 84 75" fill="none" xmlns="http://www.w3.org/2000/svg">
<g clip-path="url(#clip0_71_267)">
<path d="M84 0H0V75H84V0Z" fill="#B31F1F"/>
<path d="M62.5035 29.6409L42.1982 9.26965L21.8395 29.5875L42.1448 49.9587L62.5035 29.6409Z" stroke="#FFD31F" stroke-width="2"/>
<path d="M62.5035 34.0053L42.1982 13.634L21.8395 33.9518L42.1448 54.3231L62.5035 34.0053Z" stroke="#FFD31F" stroke-width="2"/>
<path d="M62.5035 38.3693L42.1982 17.998L21.8395 38.3159L42.1448 58.6871L62.5035 38.3693Z" stroke="#FFD31F" stroke-width="2"/>
<path d="M41.87 40.6886V30.6095H36.5205V29.6164H48.3128V30.6095H43.0176V40.6886H41.87Z" fill="white"/>
<path d="M26.5278 66.6315V62.2434H24.8896V61.6563H28.8307V62.2434H27.1858V66.6315H26.5278ZM30.0484 64.2084C30.0484 63.3826 30.27 62.7365 30.7131 62.2705C31.1564 61.8023 31.7284 61.5681 32.4293 61.5681C32.8884 61.5681 33.3021 61.6778 33.6707 61.8971C34.0392 62.1167 34.3196 62.4233 34.5118 62.8169C34.7063 63.2084 34.8034 63.6529 34.8034 64.1507C34.8034 64.6552 34.7018 65.1066 34.4983 65.5047C34.2947 65.903 34.0064 66.205 33.6334 66.4109C33.2602 66.6146 32.8579 66.7164 32.4259 66.7164C31.9579 66.7164 31.5395 66.6032 31.1711 66.3769C30.8024 66.1508 30.5231 65.8419 30.3333 65.4504C30.1434 65.0591 30.0484 64.645 30.0484 64.2084ZM30.7267 64.2186C30.7267 64.8181 30.8872 65.2911 31.2084 65.6371C31.5316 65.9811 31.9364 66.1531 32.4225 66.1531C32.9178 66.1531 33.3247 65.9788 33.6436 65.6303C33.9646 65.282 34.1251 64.7876 34.1251 64.1473C34.1251 63.7422 34.0561 63.3894 33.9182 63.0884C33.7827 62.7852 33.5825 62.5511 33.3179 62.3859C33.0556 62.2185 32.7606 62.1348 32.4327 62.1348C31.967 62.1348 31.5655 62.2954 31.2287 62.6168C30.894 62.9357 30.7267 63.4697 30.7267 64.2186ZM36.5026 66.6315V61.6563H37.493L38.67 65.179C38.7786 65.507 38.8577 65.7525 38.9075 65.9155C38.964 65.7344 39.0522 65.4685 39.1719 65.1179L40.3624 61.6563H41.2477V66.6315H40.6135V62.4674L39.1685 66.6315H38.575L37.137 62.3961V66.6315H36.5026ZM43.2895 66.6315V61.6563H43.9475V66.6315H43.2895ZM45.9893 66.6315V61.6563H48.1938C48.6369 61.6563 48.9739 61.7016 49.2046 61.7921C49.4353 61.8802 49.6194 62.0374 49.7574 62.2637C49.8953 62.49 49.9643 62.7399 49.9643 63.0137C49.9643 63.3668 49.8501 63.6642 49.6217 63.9063C49.3934 64.1484 49.0406 64.3023 48.5636 64.3679C48.7376 64.4517 48.8699 64.5341 48.9603 64.6156C49.1526 64.7921 49.3346 65.0127 49.5063 65.2775L50.3712 66.6315H49.5436L48.8857 65.5964C48.6935 65.2978 48.5353 65.0693 48.4109 64.9109C48.2866 64.7525 48.1746 64.6416 48.0751 64.5782C47.9779 64.5149 47.8783 64.4707 47.7766 64.446C47.7021 64.4302 47.58 64.4223 47.4104 64.4223H46.6473V66.6315H45.9893ZM46.6473 63.852H48.0615C48.3623 63.852 48.5975 63.8214 48.767 63.7603C48.9366 63.697 49.0655 63.5974 49.1537 63.4618C49.2419 63.3238 49.286 63.1744 49.286 63.0137C49.286 62.7784 49.2001 62.5851 49.0282 62.4335C48.8586 62.2818 48.5896 62.206 48.221 62.206H46.6473V63.852ZM51.979 66.6315V61.6563H52.6369V66.6315H51.979ZM54.4447 65.0331L55.0654 64.9788C55.0948 65.2277 55.1626 65.4323 55.2689 65.593C55.3774 65.7514 55.5448 65.8804 55.7708 65.98C55.9969 66.0773 56.2514 66.1259 56.5339 66.1259C56.7849 66.1259 57.0066 66.0886 57.1988 66.0139C57.3909 65.9392 57.5333 65.8374 57.6261 65.7084C57.721 65.5772 57.7685 65.4346 57.7685 65.2809C57.7685 65.1247 57.7233 64.989 57.6329 64.8735C57.5424 64.7559 57.3931 64.6574 57.1852 64.5782C57.0518 64.5262 56.7567 64.446 56.3 64.3374C55.8432 64.2265 55.5233 64.1224 55.3401 64.0251C55.1027 63.9006 54.9251 63.7468 54.8075 63.5636C54.6922 63.3781 54.6347 63.171 54.6347 62.9425C54.6347 62.6914 54.7058 62.4572 54.8482 62.24C54.9907 62.0205 55.1988 61.8542 55.4724 61.7412C55.7459 61.628 56.0501 61.5714 56.3848 61.5714C56.7533 61.5714 57.0778 61.6314 57.3581 61.7514C57.6408 61.8689 57.8579 62.0431 58.0094 62.2739C58.1608 62.5047 58.2422 62.7659 58.2535 63.0579L57.6227 63.1054C57.5887 62.7908 57.4734 62.5534 57.2768 62.3927C57.0823 62.2321 56.794 62.1517 56.4119 62.1517C56.0139 62.1517 55.7233 62.2253 55.5403 62.3724C55.3594 62.5172 55.2689 62.6926 55.2689 62.8983C55.2689 63.0771 55.3333 63.2242 55.4623 63.3396C55.5887 63.455 55.9189 63.5738 56.4525 63.6959C56.9885 63.8158 57.3558 63.921 57.5548 64.0115C57.8443 64.145 58.058 64.3148 58.1958 64.5205C58.3338 64.7242 58.4027 64.9595 58.4027 65.2266C58.4027 65.4912 58.327 65.7412 58.1755 65.9766C58.0241 66.2095 57.8059 66.3917 57.5209 66.5229C57.2384 66.6519 56.9195 66.7164 56.5644 66.7164C56.1145 66.7164 55.7369 66.6508 55.4317 66.5195C55.1287 66.3883 54.8901 66.1915 54.7159 65.929C54.5442 65.6643 54.4538 65.3656 54.4447 65.0331Z" fill="white"/>
</g>
<defs>
<clipPath id="clip0_71_267">
<rect width="84" height="75" fill="white"/>
</clipPath>
</defs>
</svg>
