<svg  viewBox="0 0 50 50" fill="none" xmlns="http://www.w3.org/2000/svg">
<path d="M0 0H50V50H0V0Z" fill="#B31F1F"/>
<path d="M16 20.511C15.5399 20.8047 15.1613 21.2096 14.8991 21.6883C14.6369 22.1671 14.4997 22.7042 14.5 23.25V29.25C14.5 32.15 16.85 34.5 19.75 34.5H28.75C29.9 34.5 30.911 33.902 31.489 33H19.75C18.7554 33 17.8016 32.6049 17.0984 31.9017C16.3951 31.1984 16 30.2446 16 29.25V20.511ZM31.75 17H20.25C19.4199 16.9999 18.6212 17.3176 18.0178 17.8877C17.4144 18.4578 17.052 19.2372 17.005 20.066L17 20.25V28.75C16.9999 29.5801 17.3176 30.3788 17.8877 30.9822C18.4578 31.5856 19.2372 31.948 20.066 31.995L20.25 32H31.75C32.5801 32.0001 33.3788 31.6824 33.9822 31.1123C34.5856 30.5422 34.948 29.7628 34.995 28.934L35 28.75V20.25C35.0001 19.4199 34.6824 18.6212 34.1123 18.0178C33.5422 17.4144 32.7628 17.052 31.934 17.005L31.75 17ZM18.5 21.899L25.65 25.664C25.7421 25.7125 25.8433 25.7412 25.9471 25.7484C26.0509 25.7557 26.1551 25.7412 26.253 25.706L26.349 25.664L33.5 21.9V28.75C33.5 29.1893 33.3347 29.6126 33.037 29.9357C32.7392 30.2588 32.3309 30.4581 31.893 30.494L31.75 30.5H20.25C19.8107 30.5 19.3874 30.3347 19.0643 30.037C18.7412 29.7392 18.5419 29.3309 18.506 28.893L18.5 28.75V21.899ZM20.25 18.5H31.75C32.1892 18.5 32.6123 18.6652 32.9354 18.9627C33.2585 19.2602 33.4579 19.6683 33.494 20.106L33.498 20.206L26 24.152L18.5 20.205C18.5117 19.7487 18.7013 19.3151 19.0282 18.9966C19.3551 18.678 19.7936 18.4998 20.25 18.5V18.5Z" fill="#FFD31F"/>
</svg>
