<svg width="1075" height="844" viewBox="0 0 1075 844" fill="none" xmlns="http://www.w3.org/2000/svg">
<rect width="1075" height="844" fill="#F2F3F7"/>
<path d="M351.796 371.913L36.5546 402.75C32.8357 403.114 30 406.24 30 409.977C30 414.283 33.7264 417.644 38.01 417.2L148.449 405.756C152.84 405.301 156.77 408.489 157.23 412.88L200.348 824.597C200.775 828.671 204.209 831.764 208.305 831.764H209.901C214.664 831.764 218.372 827.628 217.853 822.893L172.686 410.602C172.204 406.199 175.391 402.242 179.796 401.775L352.652 383.47C353.348 383.397 354.05 383.415 354.742 383.524L382.006 387.827C382.658 387.93 383.32 387.952 383.977 387.892L732.402 356.228C736.255 355.878 739.807 358.336 740.837 362.065L835.351 704.285C836.289 707.68 839.379 710.032 842.902 710.032C848.056 710.032 851.806 705.139 850.465 700.162L666.664 17.9189C665.723 14.4267 662.556 12 658.939 12H657.742C652.49 12 648.663 16.975 650.009 22.0514L728.923 319.507C730.193 324.293 726.855 329.071 721.924 329.525L381.062 360.91C380.295 360.98 379.541 361.161 378.825 361.448L353.987 371.38C353.286 371.66 352.548 371.84 351.796 371.913Z" fill="#9198A0"/>
<path d="M484.678 335.762L477.062 243.819C477.062 240.347 477.846 237.323 479.302 234.748C480.87 231.948 483.446 230.156 485.909 228.364C489.269 226.012 492.629 223.437 492.853 218.957C492.853 218.621 492.853 218.621 492.629 216.381C492.293 213.134 491.845 209.886 491.397 206.638L485.797 207.534C486.245 210.558 486.693 213.806 487.029 217.053C487.141 218.061 487.253 218.621 487.253 218.957C487.141 220.637 485.349 221.869 482.662 223.885C479.974 225.788 476.614 228.252 474.486 232.172C472.583 235.644 471.575 239.675 471.575 244.043L479.078 334.082L396.094 340.354L391.614 302.501L386.015 303.173L390.494 340.802L386.911 341.026L374.928 351.665L366.305 339.57L345.698 201.263L340.211 202.047L360.929 341.698L371.792 356.928L373.248 372.383L378.847 371.823L377.503 357.04L389.262 346.401L480.422 339.57L490.949 359.168L495.877 356.48L484.678 335.762Z" fill="#9198A0"/>
<path d="M365.969 200.142C370.336 199.694 374.704 199.135 379.072 198.687C379.072 196.447 379.072 194.095 379.072 191.855C408.525 189.391 437.978 186.928 467.431 184.464C468.439 193.871 469.335 203.39 470.343 212.797C466.199 213.469 462.168 214.141 458.024 214.813C461.72 248.746 465.416 282.679 469.223 316.612C446.713 319.187 424.203 321.763 401.693 324.339C400.462 313.252 399.23 302.277 397.998 291.19C391.614 291.974 385.231 292.758 378.848 293.43C379.408 297.573 379.967 301.605 380.527 305.749C377.616 306.197 374.592 306.757 371.68 307.204C370.672 299.813 369.552 292.31 368.545 284.919C374.816 284.247 381.087 283.575 387.471 282.903C385.679 266.44 383.887 249.978 381.983 233.403C377.616 233.739 373.248 234.187 368.88 234.523C367.873 223.1 366.977 211.677 365.969 200.142Z" fill="#9198A0"/>
<g clip-path="url(#clip0_315_2019)">
<path d="M433.448 595.466C501.613 576.415 569.68 557.365 637.845 538.217C642.442 552.773 646.941 567.232 651.537 581.788C686.255 571.824 720.973 561.859 755.789 551.894C741.511 504.415 727.135 457.033 712.856 409.553L698.382 420.984C694.861 423.719 693.395 428.408 694.568 432.707L720.876 526.005C704.641 530.694 688.505 535.286 672.27 539.975C663.371 506.759 654.373 473.445 645.474 440.229C625.425 426.259 609.777 415.415 589.925 401.542C528.019 407.209 466.21 412.875 404.402 418.444C400.784 419.225 385.723 422.84 375.063 437.396C363.718 453.125 365.968 470.026 366.457 473.348C371.64 494.938 376.921 516.626 382.104 538.217C385.625 537.24 389.244 536.263 392.764 535.188C395.698 546.423 398.534 557.56 401.468 568.795L423.766 562.152C426.994 573.289 430.221 584.328 433.448 595.466Z" fill="#9198A0"/>
<path d="M662.785 455.274C671.098 453.125 679.411 450.976 687.724 448.827C688.408 451.171 689.093 453.516 689.68 455.763C686.941 456.642 684.203 457.424 681.367 458.303C681.856 459.866 682.345 461.429 682.736 462.992C684.105 462.602 685.474 462.113 686.843 461.722C688.115 466.216 689.386 470.612 690.56 475.106C688.995 475.595 687.43 476.083 685.768 476.572C686.257 478.33 686.746 480.089 687.332 481.847C690.266 480.968 693.298 480.089 696.232 479.307C697.112 482.043 698.09 484.68 698.97 487.416C690.853 489.761 682.638 492.105 674.521 494.352C673.641 491.617 672.761 488.979 671.783 486.244C674.716 485.462 677.553 484.68 680.487 483.899C679.998 482.14 679.509 480.382 679.02 478.623C677.455 479.014 675.89 479.503 674.228 479.893C672.858 475.399 671.489 470.906 670.022 466.509C671.685 466.119 673.445 465.63 675.108 465.239C674.619 463.774 674.032 462.211 673.543 460.745C670.609 461.527 667.675 462.308 664.839 462.992C664.448 460.257 663.568 457.717 662.785 455.274Z" fill="#9198A0"/>
<path d="M673.022 445.31C681.333 443.628 685.896 431.547 683.215 418.327C680.533 405.106 671.622 395.753 663.31 397.435C654.999 399.118 650.436 411.199 653.117 424.419C655.799 437.639 664.711 446.993 673.022 445.31Z" fill="#9198A0"/>
</g>
<path d="M437.331 469.768C439.211 469.888 440.871 470.408 442.311 471.328C443.751 472.228 444.861 473.448 445.641 474.988C446.441 476.528 446.841 478.268 446.841 480.208C446.841 482.268 446.411 484.098 445.551 485.698C444.691 487.298 443.481 488.538 441.921 489.418C440.361 490.298 438.581 490.738 436.581 490.738H434.871C434.711 490.738 434.361 490.738 433.821 490.738C433.301 490.738 432.311 490.678 430.851 490.558L429.441 490.438V469.738L437.331 469.768ZM435.441 489.088C438.521 489.088 440.891 488.328 442.551 486.808C444.211 485.288 445.041 483.118 445.041 480.298C445.041 477.658 444.331 475.558 442.911 473.998C441.491 472.438 439.531 471.588 437.031 471.448H431.241V488.938L432.351 488.998C434.331 489.058 435.361 489.088 435.441 489.088ZM457.261 490.738C455.841 490.738 454.571 490.408 453.451 489.748C452.351 489.088 451.491 488.168 450.871 486.988C450.251 485.808 449.941 484.468 449.941 482.968C449.941 481.468 450.251 480.128 450.871 478.948C451.511 477.748 452.381 476.818 453.481 476.158C454.601 475.478 455.871 475.138 457.291 475.138C458.691 475.138 459.941 475.478 461.041 476.158C462.161 476.818 463.031 477.738 463.651 478.918C464.291 480.098 464.611 481.438 464.611 482.938C464.611 484.438 464.291 485.778 463.651 486.958C463.031 488.138 462.161 489.068 461.041 489.748C459.941 490.408 458.681 490.738 457.261 490.738ZM457.291 489.118C458.951 489.118 460.281 488.548 461.281 487.408C462.301 486.268 462.811 484.778 462.811 482.938C462.811 481.718 462.581 480.648 462.121 479.728C461.661 478.788 461.011 478.058 460.171 477.538C459.331 477.018 458.371 476.758 457.291 476.758C456.191 476.758 455.221 477.018 454.381 477.538C453.541 478.058 452.891 478.798 452.431 479.758C451.971 480.698 451.741 481.768 451.741 482.968C451.741 484.168 451.971 485.238 452.431 486.178C452.891 487.098 453.541 487.818 454.381 488.338C455.221 488.858 456.191 489.118 457.291 489.118ZM472.239 490.798C470.219 490.798 468.339 490.018 466.599 488.458L467.589 487.258C468.349 487.878 469.099 488.358 469.839 488.698C470.599 489.018 471.409 489.178 472.269 489.178C473.349 489.178 474.189 488.928 474.789 488.428C475.409 487.908 475.719 487.208 475.719 486.328C475.719 485.768 475.579 485.318 475.299 484.978C475.039 484.618 474.679 484.328 474.219 484.108C473.779 483.888 472.979 483.538 471.819 483.058C470.759 482.618 469.939 482.238 469.359 481.918C468.779 481.598 468.319 481.208 467.979 480.748C467.639 480.268 467.469 479.668 467.469 478.948C467.469 477.768 467.889 476.828 468.729 476.128C469.569 475.408 470.689 475.048 472.089 475.048C472.809 475.048 473.519 475.148 474.219 475.348C474.939 475.548 475.549 475.838 476.049 476.218L475.299 477.508C474.379 476.948 473.339 476.668 472.179 476.668C471.259 476.668 470.549 476.848 470.049 477.208C469.549 477.568 469.299 478.078 469.299 478.738C469.299 479.238 469.429 479.648 469.689 479.968C469.969 480.288 470.319 480.558 470.739 480.778C471.179 480.978 471.899 481.278 472.899 481.678C474.039 482.138 474.919 482.558 475.539 482.938C476.179 483.298 476.669 483.748 477.009 484.288C477.369 484.808 477.549 485.458 477.549 486.238C477.549 487.618 477.059 488.728 476.079 489.568C475.119 490.388 473.839 490.798 472.239 490.798ZM484.893 490.858C483.453 490.858 482.373 490.478 481.653 489.718C480.953 488.958 480.603 487.758 480.603 486.118V471.688H482.403V475.438H487.113V477.058H482.403V486.118C482.403 487.378 482.633 488.218 483.093 488.638C483.573 489.038 484.163 489.238 484.863 489.238C485.283 489.238 485.633 489.218 485.913 489.178C486.193 489.118 486.503 488.988 486.843 488.788L487.653 490.168C486.913 490.628 485.993 490.858 484.893 490.858ZM490.534 496.798C491.654 496.798 492.504 496.588 493.084 496.168C493.364 495.988 493.614 495.738 493.834 495.418C494.054 495.118 494.224 494.778 494.344 494.398L495.484 490.828L488.914 475.348H490.804L496.204 488.608L500.134 475.348H501.994L495.904 494.938C495.544 496.018 494.954 496.838 494.134 497.398C493.274 497.978 492.144 498.268 490.744 498.268L490.534 496.798ZM517.283 490.438H515.303L510.353 483.688C510.133 483.428 509.823 483.238 509.423 483.118C509.023 482.998 508.603 482.938 508.163 482.938H506.843V490.438H505.043V468.658H506.843V481.318H507.923C508.623 481.318 509.173 481.298 509.573 481.258C509.993 481.218 510.363 481.118 510.683 480.958C511.363 480.618 511.953 480.068 512.453 479.308C512.973 478.528 513.363 477.748 513.623 476.968C513.903 476.168 514.043 475.618 514.043 475.318H515.693C515.673 475.998 515.423 476.868 514.943 477.928C514.483 478.968 513.923 479.918 513.263 480.778C512.603 481.638 511.993 482.158 511.433 482.338L517.283 490.438ZM535.679 469.918C537.439 469.918 538.839 470.508 539.879 471.688C540.939 472.868 541.469 474.418 541.469 476.338C541.469 478.398 540.809 479.998 539.489 481.138C538.189 482.258 536.229 482.818 533.609 482.818C532.589 482.818 531.699 482.798 530.939 482.758V490.468H529.139V469.918H535.679ZM533.969 481.138C535.809 481.138 537.219 480.718 538.199 479.878C539.179 479.018 539.669 477.808 539.669 476.248C539.669 474.788 539.269 473.648 538.469 472.828C537.669 472.008 536.599 471.598 535.259 471.598H530.939V481.048L532.019 481.078C532.979 481.118 533.629 481.138 533.969 481.138ZM545.296 468.658H547.096V490.438H545.296V468.658ZM561.998 490.678C561.618 490.378 561.308 490.048 561.068 489.688C560.848 489.328 560.638 488.858 560.438 488.278C560.038 489.058 559.438 489.668 558.638 490.108C557.858 490.528 556.908 490.738 555.788 490.738C554.208 490.738 552.938 490.318 551.978 489.478C551.038 488.638 550.568 487.498 550.568 486.058C550.568 484.538 551.098 483.358 552.158 482.518C553.238 481.678 554.758 481.258 556.718 481.258H560.198V480.178C560.198 478.978 559.938 478.088 559.418 477.508C558.898 476.928 558.098 476.638 557.018 476.638C556.218 476.638 555.398 476.788 554.558 477.088C553.718 477.368 552.968 477.758 552.308 478.258L551.498 476.938C552.238 476.318 553.088 475.848 554.048 475.528C555.028 475.188 556.028 475.018 557.048 475.018C558.668 475.018 559.898 475.438 560.738 476.278C561.578 477.098 561.998 478.288 561.998 479.848V486.118C561.998 487.658 562.388 488.848 563.168 489.688L561.998 490.678ZM555.818 489.118C557.158 489.118 558.218 488.748 558.998 488.008C559.798 487.268 560.198 486.308 560.198 485.128V482.878H557.138C555.438 482.878 554.218 483.128 553.478 483.628C552.738 484.108 552.368 484.908 552.368 486.028C552.368 487.028 552.668 487.798 553.268 488.338C553.868 488.858 554.718 489.118 555.818 489.118ZM565.122 490.048L573.372 477.058H565.662V475.498H576.192V475.888L567.882 488.878H576.192V490.438H565.122V490.048ZM589.625 490.678C589.245 490.378 588.935 490.048 588.695 489.688C588.475 489.328 588.265 488.858 588.065 488.278C587.665 489.058 587.065 489.668 586.265 490.108C585.485 490.528 584.535 490.738 583.415 490.738C581.835 490.738 580.565 490.318 579.605 489.478C578.665 488.638 578.195 487.498 578.195 486.058C578.195 484.538 578.725 483.358 579.785 482.518C580.865 481.678 582.385 481.258 584.345 481.258H587.825V480.178C587.825 478.978 587.565 478.088 587.045 477.508C586.525 476.928 585.725 476.638 584.645 476.638C583.845 476.638 583.025 476.788 582.185 477.088C581.345 477.368 580.595 477.758 579.935 478.258L579.125 476.938C579.865 476.318 580.715 475.848 581.675 475.528C582.655 475.188 583.655 475.018 584.675 475.018C586.295 475.018 587.525 475.438 588.365 476.278C589.205 477.098 589.625 478.288 589.625 479.848V486.118C589.625 487.658 590.015 488.848 590.795 489.688L589.625 490.678ZM583.445 489.118C584.785 489.118 585.845 488.748 586.625 488.008C587.425 487.268 587.825 486.308 587.825 485.128V482.878H584.765C583.065 482.878 581.845 483.128 581.105 483.628C580.365 484.108 579.995 484.908 579.995 486.028C579.995 487.028 580.295 487.798 580.895 488.338C581.495 488.858 582.345 489.118 583.445 489.118Z" fill="white"/>
<path d="M203.308 486.148C203.121 484.653 203.43 483.473 204.235 482.608C205.055 481.756 206.29 481.207 207.94 480.963C208.085 480.934 208.31 480.903 208.614 480.87C209.794 480.744 210.98 480.73 212.171 480.83C213.375 480.929 214.32 481.182 215.008 481.591C215.565 481.907 216.019 482.321 216.369 482.833C216.732 483.344 217.019 483.896 217.231 484.49C217.442 485.084 217.696 485.889 217.993 486.903C218.064 487.19 218.184 487.62 218.353 488.192L217.265 488.55L216.848 487.106C216.495 485.817 216.125 484.81 215.739 484.087C215.354 483.378 214.793 482.835 214.055 482.458C213.332 482.093 212.334 481.912 211.06 481.915C211.717 482.287 212.218 482.709 212.564 483.182C212.91 483.654 213.127 484.301 213.215 485.123C213.31 485.877 213.185 486.588 212.841 487.255C212.512 487.934 211.996 488.499 211.293 488.95C210.591 489.401 209.749 489.68 208.768 489.785C207.88 489.881 207.033 489.804 206.229 489.555C205.438 489.305 204.776 488.887 204.243 488.3C203.711 487.714 203.399 486.996 203.308 486.148ZM204.393 485.951C204.463 486.6 204.708 487.137 205.13 487.561C205.564 487.984 206.092 488.282 206.714 488.457C207.35 488.63 208.006 488.68 208.682 488.608C209.331 488.538 209.929 488.359 210.475 488.073C211.021 487.786 211.449 487.405 211.76 486.929C212.071 486.453 212.193 485.903 212.126 485.28C212.058 484.523 211.743 483.84 211.181 483.23C210.621 482.633 209.951 482.262 209.171 482.118C208.978 482.072 208.776 482.06 208.564 482.083C207.052 482.245 205.945 482.612 205.242 483.184C204.541 483.769 204.258 484.691 204.393 485.951ZM200.019 492.978C200.099 493.721 200.299 494.269 200.618 494.624C200.758 494.796 200.941 494.944 201.169 495.067C201.384 495.192 201.621 495.28 201.881 495.333L204.329 495.834L214.122 490.376L214.256 491.629L205.852 496.153L214.921 497.813L215.054 499.046L201.635 496.405C200.893 496.243 200.308 495.911 199.878 495.407C199.432 494.878 199.159 494.15 199.06 493.222L200.019 492.978ZM205.016 502.229C204.954 501.646 205.135 501.15 205.561 500.743L206.331 501.545C206.161 501.711 206.088 501.906 206.112 502.132C206.136 502.357 206.228 502.521 206.387 502.625C206.558 502.727 206.816 502.814 207.159 502.884C207.981 503.05 209.118 503.089 210.571 503C212.024 502.924 213.639 502.791 215.416 502.6L216.097 509.125L206.134 510.195L206.006 509.002L214.895 508.047L214.442 503.831C213.061 503.966 211.644 504.065 210.189 504.127C208.734 504.19 207.65 504.146 206.936 503.994C206.346 503.87 205.89 503.678 205.567 503.417C205.257 503.156 205.073 502.76 205.016 502.229ZM216.544 513.471L213.024 513.849L213.416 517.307C213.471 517.945 213.372 518.519 213.118 519.029C212.878 519.537 212.52 519.951 212.045 520.271C211.569 520.59 211.027 520.782 210.417 520.848C209.41 520.956 208.587 520.729 207.95 520.168C207.328 519.618 206.973 518.811 206.886 517.747L206.473 513.346L216.416 512.278L216.544 513.471ZM207.986 517.508C208.098 518.301 208.354 518.87 208.753 519.216C209.166 519.561 209.664 519.702 210.247 519.639C210.87 519.572 211.379 519.316 211.774 518.872C212.182 518.425 212.338 517.819 212.242 517.051L211.93 513.967L207.655 514.426L207.986 517.508ZM218.021 526.465C218.128 527.459 217.964 528.248 217.531 528.831C217.111 529.413 216.556 529.74 215.867 529.814C215.495 529.854 215.122 529.814 214.747 529.693C214.374 529.586 214.038 529.394 213.74 529.118C213.526 529.623 213.195 530.035 212.746 530.351C212.297 530.667 211.794 530.856 211.238 530.915C210.469 530.998 209.785 530.81 209.186 530.351C208.601 529.905 208.238 529.206 208.095 528.256L207.554 523.406L217.556 522.331L218.021 526.465ZM213.893 527.17C214 527.668 214.228 528.046 214.578 528.304C214.929 528.574 215.316 528.687 215.74 528.641C216.178 528.594 216.505 528.391 216.721 528.033C216.939 527.688 217.018 527.237 216.958 526.68L216.624 523.578L213.522 523.911L213.893 527.17ZM209.139 528.043C209.2 528.613 209.402 529.054 209.744 529.366C210.099 529.677 210.555 529.802 211.112 529.742C211.642 529.685 212.081 529.47 212.43 529.098C212.792 528.723 212.948 528.237 212.897 527.639L212.488 524.022L208.77 524.422L209.139 528.043ZM208.625 534.115C208.6 533.89 208.659 533.683 208.799 533.493C208.954 533.316 209.145 533.215 209.37 533.19C209.609 533.165 209.816 533.223 209.992 533.365C210.183 533.519 210.291 533.708 210.315 533.934C210.341 534.172 210.276 534.38 210.121 534.558C209.98 534.747 209.79 534.855 209.552 534.881C209.326 534.905 209.118 534.84 208.927 534.686C208.751 534.544 208.65 534.354 208.625 534.115ZM223.601 543.013L216.864 549.57L224.854 554.666L224.892 555.023L211.112 556.505L210.983 555.312L220.33 554.307C220.727 554.264 221.383 554.247 222.295 554.257C221.239 553.659 220.005 552.914 218.595 552.019C217.185 551.125 216.078 550.372 215.275 549.761C216.966 547.903 218.428 546.345 219.66 545.086C219.891 544.86 220.104 544.662 220.301 544.494C220.497 544.325 220.72 544.154 220.97 543.979C221.009 543.975 220.833 544.021 220.441 544.117C220.049 544.212 219.747 544.272 219.535 544.295L209.91 545.329L209.782 544.136L223.563 542.655L223.601 543.013ZM216.102 560.077C215.175 560.19 214.345 560.507 213.609 561.029C212.888 561.549 212.597 562.465 212.738 563.778C212.797 564.321 212.924 564.817 213.119 565.266C213.328 565.712 213.633 566.236 214.033 566.837L213.253 567.444C212.838 566.952 212.49 566.393 212.208 565.766C211.926 565.139 211.748 564.488 211.676 563.812C211.526 562.42 211.853 561.285 212.658 560.407C213.476 559.541 214.615 559.03 216.073 558.873C217.041 558.769 217.954 558.845 218.813 559.102C219.686 559.357 220.409 559.789 220.984 560.397C221.561 561.019 221.899 561.794 221.998 562.722C222.081 563.491 221.976 564.2 221.684 564.848C221.405 565.495 220.965 566.025 220.366 566.438C219.782 566.863 219.092 567.118 218.296 567.203C218.084 567.226 217.891 567.24 217.717 567.246C217.557 567.249 217.416 567.251 217.295 567.251L216.874 567.256L216.102 560.077ZM217.838 566.126C217.933 566.129 218.066 566.122 218.238 566.103C218.835 566.039 219.351 565.85 219.786 565.535C220.235 565.218 220.568 564.82 220.785 564.341C221.001 563.862 221.08 563.351 221.022 562.807C220.935 561.998 220.555 561.335 219.883 560.817C219.223 560.298 218.323 560.033 217.182 560.021L217.838 566.126ZM213.454 578.299L213.326 577.106L217.681 576.638L217.091 571.149L212.734 571.597L212.603 570.384L220.08 569.581C220.796 569.504 221.412 569.183 221.928 568.618L222.789 569.33C222.434 569.77 222.048 570.107 221.63 570.339C221.213 570.572 220.746 570.716 220.229 570.772L218.18 570.992L218.775 576.52L223.269 576.037L223.397 577.23L213.454 578.299ZM211.966 589.531L214.631 589.245L213.793 581.45L211.128 581.736L211 580.543L214.78 580.157L214.857 580.873C216.001 581.407 217.029 581.799 217.941 582.05C218.854 582.314 219.764 582.484 220.671 582.561C221.579 582.651 222.683 582.693 223.983 582.688L224.552 587.977L215.725 588.946L215.873 590.318L212.094 590.724L211.966 589.531ZM223.052 583.753C221.413 583.728 220.005 583.605 218.828 583.383C217.664 583.159 216.385 582.733 214.99 582.106L215.597 587.753L223.392 586.915L223.052 583.753ZM225.703 598.689L225.84 599.962L215.897 601.03L215.769 599.837L223.863 598.967L215.128 593.871L214.993 592.619L222.073 591.858C223.12 591.745 223.859 591.384 224.289 590.775L225.17 591.485C225.006 591.824 224.718 592.143 224.308 592.442C223.911 592.74 223.467 592.915 222.976 592.968L217.011 593.609L225.703 598.689ZM226.308 604.315L222.013 604.776C222.026 604.896 222.048 605.101 222.079 605.393C222.11 605.685 222.141 605.903 222.169 606.047C222.213 606.203 222.264 606.365 222.322 606.533C222.459 606.934 222.668 607.314 222.948 607.673C223.229 608.045 223.546 608.313 223.899 608.476L224.426 608.701C225.111 608.963 225.683 609.23 226.141 609.502C226.775 609.904 227.186 610.362 227.376 610.878L226.354 611.29C226.224 610.955 225.922 610.646 225.449 610.361C225.091 610.145 224.695 609.953 224.261 609.785C223.829 609.63 223.563 609.531 223.465 609.488C223.059 609.331 222.75 609.143 222.539 608.924C222.328 608.705 222.114 608.4 221.897 608.007C221.667 608.609 221.402 609.073 221.102 609.4C220.802 609.728 220.476 610.004 220.125 610.229C219.422 610.68 218.923 611.029 218.628 611.275C218.151 611.702 217.89 612.079 217.844 612.406L216.758 612.221C216.874 611.551 217.339 610.891 218.155 610.24C218.376 610.055 218.612 609.876 218.861 609.701C219.125 609.539 219.295 609.434 219.37 609.385C219.711 609.188 219.955 609.021 220.101 608.884C220.392 608.598 220.627 608.224 220.805 607.763C220.983 607.301 221.071 606.869 221.068 606.467C221.072 606.252 221.052 605.946 221.01 605.548C220.977 605.243 220.947 605.025 220.919 604.894L216.365 605.383L216.237 604.19L226.18 603.122L226.308 604.315ZM213.077 614.466C213.157 615.208 213.357 615.757 213.676 616.111C213.816 616.284 213.999 616.432 214.227 616.555C214.441 616.679 214.679 616.768 214.939 616.82L217.387 617.322L227.18 611.864L227.314 613.117L218.91 617.641L227.979 619.301L228.112 620.534L214.693 617.893C213.951 617.731 213.366 617.399 212.936 616.895C212.49 616.366 212.217 615.638 212.118 614.71L213.077 614.466ZM218.074 623.717C218.012 623.134 218.193 622.638 218.619 622.23L219.389 623.033C219.219 623.198 219.146 623.394 219.17 623.619C219.194 623.845 219.286 624.009 219.445 624.113C219.616 624.215 219.874 624.301 220.217 624.372C221.039 624.538 222.176 624.577 223.629 624.488C225.082 624.412 226.697 624.279 228.474 624.088L229.155 630.612L219.192 631.683L219.064 630.49L227.953 629.535L227.5 625.319C226.119 625.454 224.702 625.553 223.247 625.615C221.792 625.678 220.708 625.633 219.994 625.482C219.404 625.358 218.947 625.165 218.624 624.905C218.315 624.643 218.131 624.247 218.074 623.717ZM219.783 639.051C219.682 638.11 219.81 637.245 220.168 636.455C220.527 635.679 221.075 635.044 221.813 634.549C222.551 634.054 223.417 633.753 224.412 633.646C225.406 633.539 226.316 633.649 227.143 633.976C227.984 634.314 228.662 634.825 229.178 635.507C229.708 636.201 230.024 637.019 230.125 637.96C230.225 638.888 230.089 639.741 229.717 640.518C229.359 641.308 228.811 641.95 228.073 642.445C227.336 642.953 226.471 643.261 225.477 643.368C224.483 643.474 223.571 643.358 222.744 643.018C221.917 642.691 221.239 642.18 220.708 641.486C220.193 640.804 219.884 639.993 219.783 639.051ZM220.859 638.956C220.977 640.056 221.45 640.897 222.277 641.479C223.105 642.074 224.129 642.306 225.349 642.174C226.157 642.088 226.85 641.859 227.427 641.488C228.017 641.116 228.455 640.634 228.74 640.04C229.025 639.446 229.129 638.791 229.052 638.075C228.973 637.346 228.732 636.722 228.327 636.202C227.923 635.682 227.386 635.304 226.717 635.067C226.061 634.83 225.335 634.753 224.54 634.839C223.745 634.924 223.052 635.153 222.461 635.525C221.884 635.895 221.453 636.377 221.169 636.971C220.884 637.565 220.78 638.227 220.859 638.956ZM231.242 649.467C231.349 650.462 231.185 651.25 230.752 651.833C230.331 652.415 229.777 652.743 229.087 652.817C228.716 652.857 228.343 652.816 227.968 652.696C227.594 652.588 227.259 652.397 226.961 652.12C226.747 652.626 226.416 653.037 225.967 653.353C225.518 653.67 225.015 653.858 224.458 653.918C223.69 654.001 223.006 653.813 222.406 653.354C221.822 652.907 221.459 652.209 221.316 651.258L220.775 646.409L230.777 645.333L231.242 649.467ZM227.113 650.173C227.221 650.671 227.449 651.049 227.798 651.306C228.149 651.577 228.537 651.689 228.961 651.644C229.399 651.597 229.726 651.394 229.942 651.035C230.159 650.69 230.238 650.239 230.179 649.682L229.845 646.58L226.743 646.914L227.113 650.173ZM222.359 651.046C222.421 651.616 222.622 652.057 222.964 652.369C223.32 652.679 223.776 652.804 224.332 652.745C224.863 652.688 225.302 652.473 225.651 652.1C226.013 651.726 226.169 651.24 226.118 650.642L225.709 647.025L221.99 647.424L222.359 651.046ZM222.436 663.361C222.608 663.088 222.804 662.859 223.026 662.674C223.249 662.503 223.546 662.33 223.916 662.156C223.37 661.946 222.923 661.592 222.574 661.093C222.241 660.606 222.034 659.991 221.954 659.249C221.841 658.202 222.029 657.33 222.518 656.634C223.007 655.951 223.73 655.558 224.684 655.456C225.692 655.347 226.512 655.615 227.144 656.257C227.778 656.913 228.164 657.891 228.304 659.19L228.552 661.497L229.268 661.42C230.063 661.334 230.635 661.099 230.982 660.713C231.329 660.327 231.465 659.776 231.388 659.06C231.331 658.53 231.173 657.997 230.914 657.461C230.669 656.924 230.357 656.455 229.978 656.053L230.796 655.422C231.259 655.869 231.631 656.399 231.912 657.012C232.207 657.637 232.391 658.288 232.464 658.964C232.579 660.038 232.388 660.883 231.891 661.5C231.408 662.115 230.649 662.478 229.615 662.589L225.459 663.036C224.438 663.146 223.677 663.489 223.176 664.066L222.436 663.361ZM223.03 659.154C223.125 660.042 223.446 660.718 223.992 661.182C224.54 661.66 225.204 661.857 225.987 661.773L227.478 661.612L227.26 659.584C227.139 658.457 226.886 657.666 226.502 657.211C226.131 656.755 225.575 656.567 224.832 656.647C224.169 656.718 223.68 656.972 223.365 657.408C223.063 657.842 222.951 658.424 223.03 659.154Z" fill="#333333"/>
<path d="M744.864 231.953L744.56 230.792L753.151 228.544L751.759 223.223L743.168 225.471L742.865 224.31L752.539 221.779L754.539 229.422L744.864 231.953ZM756.57 236.554C756.803 237.444 756.774 238.257 756.485 238.995C756.212 239.741 755.741 240.368 755.074 240.873C754.41 241.391 753.621 241.77 752.705 242.01C751.712 242.269 750.785 242.312 749.927 242.137C749.068 241.962 748.326 241.577 747.702 240.982C747.091 240.384 746.657 239.595 746.4 238.615C746.316 238.292 746.199 237.503 746.049 236.246L740.961 237.578L740.672 236.475L752.514 233.377C753.533 233.11 754.21 232.644 754.546 231.977L755.522 232.549C755.425 232.808 755.267 233.077 755.05 233.354C754.834 233.631 754.576 233.857 754.277 234.032C755.441 234.32 756.205 235.161 756.57 236.554ZM747.42 238.245C747.737 239.457 748.323 240.275 749.178 240.699C750.05 241.133 751.092 241.191 752.304 240.874C753.452 240.574 754.338 240.059 754.96 239.331C755.586 238.616 755.778 237.795 755.535 236.866C755.343 236.131 754.945 235.532 754.342 235.069C753.742 234.62 753.074 234.464 752.338 234.601L747.017 235.993C747.211 237.21 747.346 237.961 747.42 238.245ZM749.325 249.795C749.085 248.879 749.084 248.004 749.321 247.17C749.561 246.349 750.009 245.639 750.665 245.04C751.322 244.441 752.134 244.015 753.101 243.762C754.069 243.509 754.985 243.483 755.851 243.684C756.733 243.894 757.48 244.298 758.091 244.896C758.718 245.504 759.152 246.266 759.392 247.182C759.628 248.085 759.619 248.948 759.366 249.772C759.13 250.606 758.683 251.322 758.027 251.921C757.374 252.533 756.563 252.966 755.596 253.219C754.628 253.472 753.71 253.492 752.841 253.278C751.976 253.077 751.229 252.673 750.601 252.065C749.99 251.467 749.565 250.71 749.325 249.795ZM750.375 249.541C750.655 250.611 751.247 251.373 752.151 251.825C753.058 252.291 754.105 252.368 755.292 252.058C756.079 251.852 756.73 251.523 757.246 251.071C757.775 250.616 758.136 250.074 758.33 249.444C758.523 248.815 758.529 248.152 758.347 247.455C758.161 246.746 757.83 246.164 757.353 245.71C756.876 245.256 756.289 244.961 755.592 244.827C754.908 244.689 754.179 244.721 753.405 244.923C752.631 245.126 751.98 245.455 751.451 245.91C750.935 246.362 750.581 246.903 750.387 247.532C750.193 248.162 750.189 248.831 750.375 249.541ZM752.259 260.771C751.891 259.365 752.033 258.142 752.684 257.103C753.339 256.078 754.415 255.369 755.911 254.977C756.943 254.707 757.903 254.663 758.791 254.844C759.692 255.022 760.448 255.41 761.06 256.008C761.684 256.603 762.117 257.364 762.36 258.293C762.495 258.809 762.524 259.312 762.445 259.801C762.382 260.3 762.207 260.842 761.919 261.427L761.02 260.835C761.239 260.461 761.371 260.096 761.416 259.739C761.464 259.396 761.43 259.005 761.316 258.566C761.036 257.496 760.424 256.739 759.481 256.297C758.555 255.864 757.447 255.816 756.157 256.154C754.97 256.464 754.126 257.002 753.623 257.767C753.137 258.542 753.038 259.485 753.329 260.594C753.575 261.536 754.145 262.475 755.038 263.413L754.357 264.129C753.857 263.694 753.42 263.182 753.045 262.591C752.686 262.009 752.424 261.403 752.259 260.771ZM755.848 273.938L755.544 272.777L764.135 270.53L762.743 265.209L754.152 267.456L753.849 266.295L763.523 263.765L765.523 271.407L755.848 273.938ZM756.797 277.88C756.739 277.661 756.766 277.447 756.877 277.239C757.004 277.04 757.177 276.912 757.397 276.855C757.629 276.794 757.843 276.821 758.038 276.935C758.25 277.059 758.384 277.231 758.441 277.45C758.502 277.682 758.469 277.898 758.342 278.096C758.231 278.304 758.059 278.439 757.827 278.5C757.608 278.557 757.392 278.524 757.181 278.4C756.985 278.286 756.857 278.112 756.797 277.88ZM759.024 298.722L762.12 297.912L759.392 287.483L756.296 288.293L755.992 287.132L760.171 286.039L760.489 287.093C762.37 287.593 763.968 287.933 765.283 288.113C766.598 288.292 767.86 288.348 769.068 288.28C770.277 288.212 771.789 288.037 773.603 287.755L775.213 293.908L763.057 297.067L763.507 298.79L759.328 299.883L759.024 298.722ZM772.788 289.064C770.531 289.393 768.555 289.503 766.859 289.395C765.163 289.288 763.131 288.923 760.764 288.302L762.758 295.926L773.826 293.03L772.788 289.064ZM763.863 305.366C763.624 304.45 763.622 303.575 763.859 302.741C764.099 301.921 764.547 301.211 765.204 300.612C765.86 300.013 766.672 299.587 767.639 299.334C768.607 299.08 769.523 299.054 770.389 299.255C771.271 299.465 772.018 299.87 772.629 300.468C773.256 301.075 773.69 301.837 773.93 302.753C774.166 303.656 774.158 304.519 773.905 305.344C773.668 306.177 773.221 306.894 772.565 307.493C771.912 308.104 771.102 308.537 770.134 308.79C769.167 309.043 768.248 309.063 767.379 308.849C766.514 308.648 765.767 308.244 765.14 307.637C764.528 307.039 764.103 306.282 763.863 305.366ZM764.913 305.112C765.193 306.182 765.785 306.944 766.689 307.397C767.597 307.862 768.644 307.94 769.83 307.629C770.617 307.423 771.269 307.094 771.784 306.643C772.313 306.187 772.674 305.645 772.868 305.015C773.061 304.386 773.067 303.723 772.885 303.026C772.699 302.317 772.368 301.735 771.891 301.281C771.414 300.827 770.827 300.533 770.13 300.398C769.446 300.26 768.717 300.292 767.943 300.494C767.169 300.697 766.518 301.026 765.989 301.481C765.474 301.933 765.119 302.474 764.925 303.103C764.732 303.733 764.728 304.402 764.913 305.112ZM766.797 316.342C766.429 314.936 766.571 313.713 767.222 312.675C767.877 311.649 768.953 310.94 770.449 310.549C771.481 310.279 772.441 310.234 773.329 310.415C774.23 310.593 774.987 310.981 775.598 311.579C776.222 312.174 776.656 312.936 776.899 313.864C777.034 314.38 777.062 314.883 776.983 315.372C776.92 315.871 776.745 316.413 776.457 316.998L775.558 316.406C775.777 316.032 775.909 315.667 775.954 315.311C776.002 314.967 775.968 314.576 775.854 314.138C775.574 313.067 774.962 312.31 774.02 311.868C773.093 311.435 771.985 311.387 770.695 311.725C769.508 312.035 768.664 312.573 768.161 313.339C767.675 314.114 767.577 315.056 767.867 316.165C768.113 317.107 768.683 318.046 769.576 318.984L768.895 319.7C768.395 319.266 767.958 318.753 767.583 318.162C767.224 317.581 766.962 316.974 766.797 316.342ZM777.645 322.091L776.678 318.395L777.742 318.117L779.98 326.669L778.915 326.947L777.949 323.252L769.338 325.504L769.035 324.343L777.645 322.091ZM777.727 329.358C778.746 329.092 779.423 328.625 779.759 327.958L780.735 328.53C780.623 328.89 780.386 329.248 780.024 329.605C779.676 329.958 779.263 330.197 778.785 330.322L777.373 330.691L778.273 334.053C778.432 334.659 778.423 335.233 778.248 335.775C778.089 336.327 777.792 336.797 777.356 337.187C776.934 337.573 776.426 337.844 775.832 337.999C774.839 338.259 774.019 338.205 773.371 337.837C772.736 337.465 772.286 336.77 772.019 335.751L770.819 331.165L777.727 329.358ZM782.807 337.477L783.111 338.638L773.436 341.169L773.133 340.008L782.807 337.477ZM773.107 335.405C773.269 336.024 773.574 336.454 774.023 336.695C774.485 336.932 774.974 336.983 775.49 336.848C776.045 336.703 776.505 336.41 776.873 335.97C777.24 335.529 777.354 335.045 777.216 334.516L776.289 330.975L772.207 332.043L773.107 335.405ZM784.218 342.868L780.038 343.962C780.069 344.078 780.121 344.278 780.195 344.561C780.269 344.845 780.332 345.056 780.382 345.195C780.448 345.343 780.522 345.496 780.605 345.653C780.8 346.03 781.062 346.374 781.392 346.688C781.726 347.014 782.079 347.232 782.452 347.341L783.007 347.485C783.723 347.642 784.328 347.822 784.822 348.023C785.508 348.326 785.982 348.719 786.246 349.201L785.297 349.759C785.119 349.448 784.775 349.186 784.265 348.975C783.878 348.814 783.458 348.683 783.004 348.581C782.554 348.493 782.276 348.434 782.173 348.406C781.748 348.311 781.415 348.17 781.174 347.985C780.932 347.8 780.675 347.53 780.403 347.174C780.264 347.803 780.071 348.301 779.823 348.669C779.575 349.038 779.293 349.359 778.98 349.634C778.352 350.184 777.91 350.603 777.654 350.891C777.246 351.383 777.043 351.795 777.047 352.125L775.945 352.103C775.961 351.423 776.323 350.701 777.033 349.937C777.224 349.721 777.431 349.509 777.652 349.299C777.889 349.1 778.041 348.97 778.108 348.911C778.416 348.665 778.632 348.464 778.756 348.308C779.002 347.981 779.179 347.577 779.287 347.094C779.394 346.611 779.417 346.171 779.355 345.774C779.326 345.561 779.262 345.26 779.16 344.873C779.083 344.577 779.021 344.366 778.974 344.24L774.543 345.399L774.24 344.238L783.914 341.707L784.218 342.868Z" fill="#333333"/>
<path d="M41.8642 389.793C42.6073 389.72 43.1577 389.526 43.5153 389.21C43.6894 389.072 43.839 388.89 43.9642 388.663C44.0908 388.45 44.1815 388.213 44.2365 387.953L44.7613 385.511L39.3981 375.666L40.6521 375.543L45.0951 383.991L46.8426 374.938L48.0767 374.817L45.3066 388.211C45.1378 388.95 44.7995 389.533 44.2917 389.958C43.7587 390.398 43.0278 390.664 42.0989 390.755L41.8642 389.793ZM51.163 384.885C50.5791 384.942 50.0853 384.756 49.6816 384.326L50.4913 383.564C50.6554 383.736 50.8503 383.81 51.0759 383.788C51.3015 383.766 51.4669 383.676 51.572 383.519C51.6759 383.348 51.7647 383.091 51.8384 382.749C52.0127 381.928 52.0623 380.791 51.9873 379.338C51.9255 377.884 51.8077 376.268 51.6339 374.49L58.1647 373.872L59.1396 383.844L57.9453 383.961L57.0755 375.063L52.8556 375.476C52.9772 376.857 53.0623 378.276 53.1108 379.731C53.1593 381.187 53.1045 382.27 52.9464 382.982C52.8164 383.571 52.6197 384.026 52.3563 384.346C52.0916 384.654 51.6938 384.833 51.163 384.885ZM63.1772 383.53C62.9516 383.552 62.7448 383.492 62.5567 383.349C62.3806 383.192 62.2815 383.001 62.2595 382.775C62.2361 382.537 62.2963 382.33 62.44 382.155C62.5956 381.966 62.7862 381.86 63.0118 381.838C63.2507 381.814 63.4582 381.881 63.6343 382.038C63.8223 382.181 63.9281 382.371 63.9514 382.61C63.9735 382.836 63.9067 383.043 63.751 383.232C63.6073 383.407 63.4161 383.506 63.1772 383.53ZM77.6523 375.302C76.9092 375.375 76.2538 375.66 75.6862 376.158C75.1319 376.654 74.7797 377.231 74.6296 377.889L74.4307 378.732C74.1882 379.814 73.9881 380.577 73.8306 381.021C73.4835 381.993 73.0502 382.632 72.5308 382.937L71.9936 381.965C72.2474 381.819 72.4763 381.489 72.6804 380.973C72.8833 380.444 73.0456 379.912 73.1676 379.378L73.3364 378.638C73.4276 378.201 73.5126 377.837 73.5915 377.548C73.6705 377.259 73.7772 376.981 73.9118 376.713C74.2357 376.052 74.7418 375.473 75.4301 374.977C74.7316 374.684 74.1957 374.341 73.8224 373.949C73.4612 373.542 73.1359 373.024 72.8468 372.396C72.7979 372.307 72.6804 372.064 72.4942 371.667C72.3213 371.269 72.1231 370.886 71.8997 370.519C71.4701 369.825 71.0902 369.433 70.76 369.345L71.0788 368.289C71.6303 368.449 72.1501 368.901 72.638 369.643C72.9659 370.12 73.3768 370.897 73.8706 371.975C74.2284 372.757 74.7153 373.352 75.3313 373.761C75.9593 374.155 76.6515 374.315 77.4079 374.241L78.9188 374.073L78.3467 368.221L79.541 368.105L80.1131 373.957L81.9045 373.782C82.223 373.75 82.5722 373.622 82.9522 373.398C83.3308 373.16 83.6531 372.894 83.9191 372.6C84.1732 372.321 84.3789 371.959 84.5365 371.515C84.706 371.056 84.8784 370.49 85.0537 369.816C85.2558 369.006 85.4469 368.425 85.6267 368.072C85.9254 367.427 86.2978 366.989 86.7441 366.757L87.2415 367.734C86.9479 367.883 86.6583 368.347 86.3727 369.125C86.2258 369.541 86.0366 370.209 85.805 371.129L85.6604 371.706C85.5201 372.189 85.2769 372.648 84.931 373.084C84.5971 373.505 84.2102 373.864 83.7704 374.162C84.3893 374.463 84.8999 374.822 85.3023 375.238C85.571 375.52 85.8038 375.845 86.0007 376.215C86.1962 376.571 86.4234 377.044 86.6821 377.635C86.9593 378.278 87.1785 378.739 87.3397 379.018C87.7784 379.805 88.1635 380.25 88.495 380.352L88.1563 381.409C87.7957 381.284 87.4573 381.042 87.141 380.685C86.838 380.326 86.5391 379.873 86.2445 379.326C85.9327 378.74 85.6442 378.118 85.379 377.461C85.1889 377.024 85.037 376.704 84.9234 376.501C84.8097 376.297 84.6569 376.105 84.465 375.923C84.273 375.74 84.0001 375.553 83.6463 375.36C83.2488 375.13 82.9201 374.988 82.6602 374.933C82.4003 374.878 82.0845 374.869 81.713 374.905L80.2201 375.051L80.8719 381.72L79.6776 381.836L79.0258 375.168L77.6523 375.302ZM93.9992 380.637C93.057 380.729 92.193 380.593 91.407 380.228C90.6344 379.861 90.0041 379.306 89.5162 378.564C89.0283 377.821 88.7357 376.952 88.6384 375.957C88.5411 374.961 88.6599 374.052 88.9947 373.229C89.3415 372.391 89.8585 371.718 90.5455 371.209C91.2445 370.685 92.0651 370.377 93.0073 370.285C93.9362 370.194 94.7877 370.338 95.5616 370.718C96.3475 371.084 96.9845 371.638 97.4724 372.38C97.9735 373.122 98.2728 373.99 98.3701 374.985C98.4674 375.981 98.3419 376.89 97.9938 377.715C97.659 378.538 97.1421 379.212 96.443 379.735C95.756 380.245 94.9414 380.545 93.9992 380.637ZM93.914 379.561C95.0155 379.453 95.861 378.988 96.4505 378.167C97.0534 377.345 97.2951 376.323 97.1758 375.102C97.0966 374.293 96.8746 373.598 96.5097 373.017C96.1436 372.423 95.6649 371.981 95.0739 371.69C94.4828 371.4 93.829 371.29 93.1124 371.36C92.3825 371.431 91.7558 371.666 91.2322 372.066C90.7086 372.465 90.3253 372.999 90.0823 373.665C89.8381 374.319 89.7549 375.044 89.8327 375.84C89.9105 376.636 90.1325 377.331 90.4987 377.925C90.8636 378.506 91.3416 378.941 91.9327 379.232C92.5237 379.522 93.1842 379.632 93.914 379.561ZM101.451 379.969C100.867 380.026 100.373 379.84 99.9693 379.411L100.779 378.648C100.943 378.82 101.138 378.895 101.364 378.873C101.589 378.85 101.755 378.761 101.86 378.603C101.964 378.432 102.052 378.176 102.126 377.833C102.3 377.013 102.35 375.876 102.275 374.423C102.213 372.969 102.095 371.352 101.922 369.574L108.452 368.956L109.427 378.928L108.233 379.045L107.363 370.147L103.143 370.56C103.265 371.941 103.35 373.36 103.398 374.815C103.447 376.271 103.392 377.355 103.234 378.067C103.104 378.656 102.907 379.11 102.644 379.431C102.379 379.738 101.981 379.917 101.451 379.969ZM120.625 380.526L120.364 377.859L112.561 378.622L112.822 381.289L111.628 381.406L111.278 377.622L111.995 377.552C112.54 376.414 112.942 375.39 113.201 374.48C113.474 373.569 113.653 372.661 113.739 371.755C113.838 370.848 113.891 369.744 113.897 368.444L119.192 367.926L120.076 376.762L121.449 376.628L121.819 380.41L120.625 380.526ZM114.954 369.385C114.913 371.024 114.776 372.43 114.543 373.605C114.308 374.767 113.87 376.042 113.229 377.431L118.882 376.879L118.119 369.076L114.954 369.385ZM130.385 377.04C130.114 376.866 129.887 376.667 129.704 376.444C129.535 376.219 129.365 375.921 129.195 375.549C128.98 376.093 128.621 376.536 128.119 376.88C127.629 377.209 127.012 377.41 126.269 377.483C125.221 377.585 124.351 377.389 123.659 376.894C122.981 376.398 122.595 375.672 122.502 374.716C122.403 373.708 122.678 372.89 123.327 372.264C123.989 371.637 124.971 371.26 126.271 371.133L128.58 370.907L128.51 370.19C128.432 369.394 128.202 368.82 127.819 368.469C127.437 368.118 126.887 367.978 126.17 368.048C125.64 368.1 125.105 368.252 124.567 368.506C124.028 368.746 123.556 369.054 123.15 369.428L122.527 368.605C122.978 368.145 123.512 367.778 124.128 367.504C124.756 367.215 125.408 367.037 126.085 366.971C127.16 366.866 128.003 367.065 128.615 367.568C129.226 368.057 129.582 368.82 129.683 369.855L130.09 374.015C130.189 375.037 130.525 375.801 131.097 376.308L130.385 377.04ZM126.184 376.406C127.073 376.319 127.752 376.005 128.222 375.463C128.704 374.92 128.908 374.258 128.831 373.475L128.685 371.982L126.655 372.18C125.527 372.29 124.734 372.535 124.275 372.915C123.815 373.282 123.622 373.837 123.694 374.58C123.759 375.243 124.008 375.735 124.441 376.054C124.873 376.36 125.454 376.477 126.184 376.406ZM137.277 376.347C135.831 376.488 134.646 376.155 133.723 375.348C132.813 374.539 132.283 373.365 132.133 371.826C132.029 370.764 132.137 369.809 132.456 368.961C132.773 368.099 133.276 367.413 133.963 366.904C134.648 366.382 135.469 366.074 136.425 365.98C136.955 365.928 137.456 365.98 137.927 366.135C138.409 366.275 138.917 366.534 139.449 366.91L138.723 367.705C138.388 367.43 138.048 367.242 137.704 367.141C137.372 367.04 136.981 367.011 136.53 367.055C135.428 367.163 134.585 367.647 133.999 368.508C133.425 369.355 133.203 370.442 133.333 371.769C133.452 372.989 133.85 373.908 134.527 374.525C135.215 375.128 136.13 375.374 137.272 375.262C138.24 375.167 139.258 374.753 140.325 374.019L140.924 374.804C140.417 375.229 139.841 375.58 139.199 375.857C138.568 376.12 137.927 376.283 137.277 376.347ZM147.207 375.476C145.71 375.649 144.533 375.329 143.677 374.515C142.832 373.687 142.296 372.446 142.067 370.794C142.04 370.65 142.011 370.425 141.981 370.119C141.866 368.938 141.864 367.753 141.975 366.563C142.085 365.36 142.348 364.417 142.763 363.733C143.084 363.179 143.503 362.73 144.018 362.385C144.532 362.026 145.088 361.744 145.684 361.538C146.28 361.333 147.086 361.087 148.103 360.8C148.391 360.731 148.822 360.615 149.396 360.452L149.744 361.544L148.296 361.946C147.003 362.287 145.993 362.647 145.267 363.026C144.553 363.404 144.005 363.96 143.621 364.694C143.249 365.414 143.059 366.41 143.049 367.684C143.427 367.031 143.854 366.533 144.33 366.192C144.806 365.851 145.455 365.64 146.278 365.56C147.033 365.473 147.742 365.604 148.406 365.955C149.082 366.29 149.642 366.812 150.086 367.518C150.531 368.225 150.801 369.07 150.897 370.052C150.984 370.941 150.899 371.786 150.642 372.588C150.385 373.377 149.96 374.035 149.368 374.562C148.777 375.088 148.056 375.393 147.207 375.476ZM147.02 374.389C147.671 374.326 148.21 374.086 148.638 373.669C149.065 373.238 149.368 372.713 149.549 372.092C149.728 371.459 149.785 370.803 149.718 370.127C149.655 369.476 149.482 368.877 149.201 368.328C148.92 367.78 148.543 367.348 148.07 367.032C147.597 366.717 147.048 366.59 146.425 366.651C145.667 366.711 144.98 367.02 144.365 367.575C143.763 368.13 143.386 368.796 143.234 369.575C143.186 369.767 143.172 369.969 143.193 370.182C143.341 371.695 143.697 372.805 144.262 373.514C144.84 374.221 145.76 374.513 147.02 374.389ZM153.824 369.987C153.928 370.914 154.237 371.748 154.751 372.488C155.265 373.215 156.178 373.514 157.492 373.386C158.036 373.333 158.533 373.21 158.983 373.019C159.432 372.814 159.959 372.515 160.563 372.121L161.163 372.906C160.667 373.317 160.104 373.66 159.475 373.936C158.845 374.211 158.192 374.382 157.515 374.449C156.122 374.585 154.99 374.247 154.12 373.434C153.263 372.607 152.762 371.464 152.62 370.004C152.525 369.035 152.61 368.123 152.875 367.266C153.138 366.396 153.577 365.677 154.191 365.108C154.818 364.537 155.596 364.207 156.525 364.116C157.295 364.041 158.003 364.152 158.648 364.451C159.292 364.736 159.818 365.181 160.225 365.784C160.644 366.373 160.893 367.065 160.971 367.861C160.992 368.074 161.004 368.267 161.007 368.44C161.01 368.601 161.01 368.742 161.008 368.862L161.009 369.284L153.824 369.987ZM159.889 368.309C159.893 368.214 159.887 368.081 159.87 367.908C159.812 367.311 159.627 366.794 159.316 366.355C159.004 365.903 158.61 365.567 158.133 365.345C157.655 365.124 157.145 365.04 156.601 365.093C155.791 365.172 155.124 365.546 154.6 366.213C154.075 366.867 153.801 367.765 153.778 368.906L159.889 368.309ZM164.179 363.529L164.599 367.828C164.719 367.816 164.924 367.796 165.216 367.768C165.508 367.739 165.726 367.711 165.871 367.684C166.028 367.641 166.19 367.592 166.359 367.535C166.761 367.402 167.143 367.198 167.505 366.921C167.879 366.643 168.15 366.329 168.317 365.978L168.547 365.453C168.815 364.77 169.088 364.201 169.365 363.745C169.772 363.116 170.235 362.709 170.752 362.524L171.154 363.55C170.818 363.677 170.506 363.975 170.217 364.445C169.997 364.802 169.801 365.196 169.629 365.628C169.47 366.059 169.369 366.324 169.325 366.422C169.163 366.826 168.972 367.133 168.752 367.342C168.531 367.551 168.223 367.762 167.829 367.975C168.428 368.211 168.89 368.48 169.214 368.784C169.538 369.087 169.812 369.415 170.034 369.769C170.478 370.475 170.822 370.978 171.065 371.275C171.487 371.757 171.862 372.021 172.188 372.07L171.992 373.154C171.324 373.032 170.668 372.56 170.025 371.739C169.843 371.515 169.666 371.278 169.494 371.027C169.334 370.761 169.23 370.591 169.182 370.515C168.988 370.172 168.823 369.927 168.688 369.779C168.405 369.486 168.034 369.247 167.574 369.065C167.114 368.882 166.683 368.79 166.281 368.789C166.066 368.783 165.759 368.8 165.361 368.839C165.056 368.869 164.838 368.897 164.706 368.923L165.152 373.481L163.957 373.598L162.985 363.645L164.179 363.529ZM178.363 372.391C177.421 372.483 176.556 372.346 175.771 371.981C174.998 371.614 174.368 371.06 173.88 370.317C173.392 369.574 173.099 368.705 173.002 367.71C172.905 366.715 173.023 365.806 173.358 364.982C173.705 364.145 174.222 363.471 174.909 362.962C175.608 362.438 176.429 362.13 177.371 362.038C178.3 361.947 179.151 362.092 179.925 362.472C180.711 362.837 181.348 363.391 181.836 364.134C182.337 364.875 182.636 365.743 182.734 366.739C182.831 367.734 182.705 368.644 182.357 369.468C182.023 370.291 181.506 370.965 180.807 371.489C180.12 371.998 179.305 372.299 178.363 372.391ZM178.278 371.314C179.379 371.206 180.224 370.742 180.814 369.92C181.417 369.098 181.659 368.076 181.539 366.855C181.46 366.046 181.238 365.351 180.873 364.77C180.507 364.176 180.028 363.734 179.437 363.444C178.846 363.153 178.192 363.043 177.476 363.113C176.746 363.184 176.119 363.42 175.596 363.819C175.072 364.219 174.689 364.752 174.446 365.419C174.202 366.072 174.118 366.797 174.196 367.593C174.274 368.389 174.496 369.084 174.862 369.678C175.227 370.259 175.705 370.694 176.296 370.985C176.887 371.276 177.548 371.385 178.278 371.314ZM188.889 361.033C189.884 360.935 190.671 361.106 191.25 361.545C191.827 361.971 192.15 362.529 192.217 363.219C192.254 363.591 192.21 363.964 192.085 364.337C191.974 364.71 191.779 365.044 191.5 365.339C192.004 365.558 192.412 365.893 192.724 366.345C193.036 366.797 193.219 367.301 193.274 367.858C193.349 368.628 193.154 369.31 192.69 369.905C192.238 370.485 191.536 370.842 190.584 370.975L185.729 371.47L184.75 361.457L188.889 361.033ZM189.554 365.168C190.053 365.065 190.433 364.841 190.694 364.493C190.968 364.145 191.084 363.759 191.043 363.334C191 362.896 190.8 362.567 190.444 362.348C190.101 362.127 189.651 362.043 189.093 362.098L185.988 362.401L186.292 365.507L189.554 365.168ZM190.381 369.93C190.952 369.874 191.395 369.677 191.71 369.338C192.024 368.985 192.154 368.531 192.099 367.973C192.047 367.442 191.837 367.001 191.467 366.648C191.097 366.283 190.612 366.123 190.014 366.168L186.393 366.542L186.757 370.264L190.381 369.93ZM202.697 369.972C202.425 369.797 202.198 369.598 202.016 369.375C201.846 369.151 201.676 368.852 201.506 368.48C201.291 369.024 200.933 369.468 200.431 369.811C199.94 370.141 199.324 370.342 198.58 370.414C197.532 370.517 196.662 370.32 195.971 369.825C195.293 369.329 194.907 368.603 194.813 367.648C194.715 366.639 194.99 365.822 195.639 365.196C196.301 364.568 197.282 364.191 198.583 364.064L200.892 363.838L200.822 363.122C200.744 362.325 200.514 361.752 200.131 361.401C199.748 361.05 199.199 360.909 198.482 360.979C197.951 361.031 197.417 361.184 196.879 361.437C196.34 361.678 195.867 361.985 195.462 362.359L194.839 361.536C195.29 361.077 195.823 360.71 196.439 360.435C197.068 360.146 197.72 359.968 198.397 359.902C199.472 359.797 200.315 359.996 200.927 360.499C201.537 360.989 201.893 361.751 201.994 362.786L202.401 366.946C202.501 367.968 202.837 368.732 203.409 369.239L202.697 369.972ZM198.495 369.337C199.384 369.251 200.064 368.936 200.533 368.395C201.016 367.852 201.219 367.189 201.143 366.406L200.997 364.913L198.966 365.112C197.838 365.222 197.045 365.467 196.587 365.847C196.127 366.213 195.933 366.768 196.006 367.511C196.071 368.175 196.32 368.666 196.753 368.985C197.185 369.291 197.765 369.409 198.495 369.337Z" fill="#333333"/>
<path d="M522.806 293.375L518.148 293.831L518.039 292.716L528.549 291.689L528.658 292.803L524 293.259L525.222 305.759L524.028 305.876L522.806 293.375ZM531.171 291.432L532.385 291.314L533.609 303.834L540.895 303.122L539.671 290.601L540.865 290.485L542.089 303.005L543.98 302.82L544.396 307.08L543.202 307.197L542.895 304.052L532.544 305.063L531.171 291.432ZM550.96 289.498L559.698 288.644L559.807 289.758L552.263 290.496L552.726 295.233L558.28 294.69L558.389 295.805L552.835 296.348L553.376 301.882L561.318 301.105L561.427 302.22L552.291 303.113L550.96 289.498ZM566.988 291.548C567.983 291.451 568.77 291.622 569.349 292.061C569.926 292.487 570.249 293.045 570.316 293.735C570.353 294.106 570.309 294.479 570.185 294.853C570.074 295.225 569.879 295.559 569.599 295.855C570.103 296.073 570.511 296.409 570.823 296.86C571.135 297.312 571.318 297.817 571.373 298.374C571.448 299.144 571.253 299.826 570.789 300.421C570.337 301.001 569.635 301.357 568.683 301.49L563.828 301.985L562.85 291.973L566.988 291.548ZM567.653 295.683C568.152 295.581 568.532 295.356 568.793 295.009C569.067 294.661 569.184 294.274 569.142 293.85C569.099 293.412 568.9 293.083 568.543 292.863C568.2 292.642 567.75 292.559 567.192 292.613L564.087 292.917L564.391 296.022L567.653 295.683ZM568.481 300.445C569.051 300.389 569.494 300.192 569.809 299.853C570.123 299.501 570.253 299.046 570.198 298.489C570.146 297.958 569.936 297.516 569.566 297.164C569.196 296.798 568.711 296.638 568.113 296.683L564.492 297.057L564.856 300.779L568.481 300.445ZM577.09 290.48C578.005 290.391 578.804 290.547 579.487 290.949C580.181 291.337 580.725 291.9 581.119 292.639C581.526 293.376 581.775 294.216 581.867 295.158C581.967 296.18 581.863 297.101 581.555 297.921C581.246 298.742 580.749 299.413 580.064 299.936C579.377 300.445 578.529 300.749 577.52 300.848C577.188 300.88 576.39 300.871 575.126 300.82L575.638 306.056L574.503 306.166L573.313 293.984C573.21 292.936 572.856 292.194 572.251 291.757L572.969 290.883C573.21 291.02 573.451 291.218 573.69 291.476C573.93 291.734 574.112 292.024 574.238 292.347C574.706 291.243 575.656 290.621 577.09 290.48ZM577.316 299.783C578.563 299.661 579.464 299.211 580.017 298.433C580.583 297.641 580.805 296.621 580.683 295.374C580.567 294.193 580.199 293.238 579.579 292.508C578.971 291.777 578.19 291.458 577.234 291.551C576.478 291.625 575.824 291.924 575.272 292.447C574.734 292.968 574.474 293.603 574.494 294.351L575.029 299.825C576.261 299.825 577.024 299.811 577.316 299.783ZM591.546 299.436C591.274 299.262 591.047 299.063 590.864 298.84C590.695 298.615 590.525 298.317 590.355 297.945C590.14 298.489 589.782 298.932 589.279 299.276C588.789 299.605 588.172 299.806 587.429 299.879C586.381 299.982 585.511 299.785 584.819 299.29C584.141 298.794 583.755 298.068 583.662 297.112C583.563 296.104 583.839 295.287 584.487 294.661C585.15 294.033 586.131 293.656 587.431 293.529L589.74 293.303L589.67 292.586C589.592 291.79 589.362 291.217 588.98 290.865C588.597 290.514 588.047 290.374 587.331 290.444C586.8 290.496 586.266 290.648 585.728 290.902C585.188 291.142 584.716 291.45 584.311 291.824L583.688 291.001C584.138 290.542 584.672 290.175 585.288 289.9C585.916 289.611 586.569 289.433 587.246 289.367C588.32 289.262 589.164 289.461 589.776 289.964C590.386 290.453 590.742 291.216 590.843 292.251L591.25 296.411C591.35 297.433 591.686 298.197 592.258 298.704L591.546 299.436ZM587.344 298.802C588.233 298.715 588.912 298.401 589.382 297.86C589.865 297.317 590.068 296.654 589.991 295.871L589.845 294.378L587.815 294.576C586.687 294.687 585.894 294.932 585.435 295.311C584.975 295.678 584.782 296.233 584.854 296.976C584.919 297.639 585.168 298.131 585.601 298.45C586.033 298.756 586.614 298.874 587.344 298.802ZM597.274 299.017C596.584 299.085 595.89 299.045 595.193 298.899C594.509 298.752 593.908 298.496 593.39 298.131L594.034 297.324C594.336 297.536 594.782 297.707 595.37 297.837C595.958 297.954 596.55 297.983 597.147 297.924C597.784 297.862 598.345 297.7 598.828 297.439C599.312 297.177 599.675 296.853 599.919 296.468C600.176 296.081 600.283 295.669 600.24 295.231C600.187 294.687 599.935 294.236 599.485 293.878C599.048 293.519 598.498 293.371 597.834 293.436L595.465 293.668L595.366 292.653L597.717 292.443C598.195 292.396 598.586 292.224 598.892 291.926C599.198 291.628 599.332 291.287 599.294 290.902C599.242 290.371 598.899 290.01 598.264 289.817C597.629 289.625 596.946 289.564 596.217 289.636C595.274 289.728 594.386 289.955 593.55 290.318L593.212 289.326C594.24 288.878 595.298 288.6 596.386 288.494C597.196 288.415 597.898 288.473 598.493 288.669C599.102 288.865 599.572 289.147 599.902 289.516C600.247 289.885 600.441 290.294 600.485 290.746C600.521 291.117 600.457 291.485 600.291 291.85C600.138 292.2 599.924 292.475 599.649 292.676C600.2 292.971 600.615 293.312 600.894 293.7C601.186 294.086 601.366 294.551 601.432 295.094C601.518 295.836 601.375 296.493 601.002 297.065C600.628 297.624 600.109 298.07 599.445 298.403C598.781 298.736 598.057 298.941 597.274 299.017ZM610.416 287.383L611.69 287.259L612.663 297.211L611.469 297.328L610.677 289.227L605.497 297.912L604.243 298.035L603.55 290.948C603.448 289.9 603.094 289.158 602.489 288.721L603.207 287.847C603.545 288.015 603.861 288.306 604.156 288.719C604.45 289.119 604.621 289.564 604.669 290.055L605.252 296.027L610.416 287.383ZM615.812 297.165C615.652 297.18 615.478 297.177 615.288 297.156C615.099 297.134 614.947 297.095 614.835 297.039L615.382 296.061C615.482 296.119 615.59 296.128 615.706 296.09C615.875 296.033 616.125 295.781 616.456 295.333C616.728 294.959 616.974 294.593 617.193 294.237C617.683 293.492 618.013 293.024 618.181 292.834C618.314 292.687 618.478 292.577 618.672 292.505C618.579 292.514 618.341 292.544 617.957 292.594C617.586 292.631 617.208 292.607 616.825 292.524C616.454 292.427 616.094 292.247 615.747 291.987C615.402 291.739 615.132 291.444 614.937 291.101C614.742 290.745 614.625 290.368 614.586 289.97C614.514 289.24 614.698 288.586 615.137 288.007C615.66 287.326 616.408 286.891 617.381 286.703L622.059 286.245L623.032 296.198L621.837 296.315L621.429 292.135C621.071 292.17 620.636 292.319 620.126 292.583C619.616 292.848 619.232 293.166 618.974 293.54L618.592 294.16C618.453 294.375 618.208 294.747 617.858 295.277C617.507 295.807 617.261 296.159 617.117 296.334C616.671 296.846 616.236 297.123 615.812 297.165ZM616.214 290.796C616.53 291.153 616.892 291.366 617.301 291.433C617.721 291.485 618.329 291.466 619.124 291.375L621.332 291.139L620.972 287.457L618.72 287.657C618.135 287.701 617.693 287.764 617.393 287.847C617.091 287.917 616.834 288.022 616.62 288.164C616.305 288.369 616.075 288.619 615.929 288.914C615.797 289.209 615.747 289.515 615.778 289.833C615.813 290.192 615.958 290.512 616.214 290.796Z" fill="#333333"/>
<path d="M493.713 236.263C493.02 235.748 492.653 235.282 492.612 234.864C492.575 234.485 492.847 233.976 493.427 233.337L499.068 227.209L500.358 228.379L494.344 234.694L501.47 239.755L500.431 241.153L493.713 236.263ZM487.503 236.87C486.81 236.355 486.442 235.889 486.402 235.471C486.365 235.092 486.636 234.584 487.217 233.944L492.857 227.816L494.147 228.986L488.133 235.301L495.259 240.362L494.22 241.76L487.503 236.87ZM509.084 221.92L502.098 222.602L501.934 220.93L517.699 219.389L517.863 221.061L510.876 221.744L512.709 240.495L510.917 240.67L509.084 221.92ZM526.679 239.431C525.265 239.569 523.969 239.364 522.79 238.816C521.631 238.266 520.686 237.434 519.954 236.32C519.222 235.206 518.783 233.903 518.637 232.41C518.492 230.917 518.67 229.553 519.172 228.318C519.692 227.062 520.468 226.052 521.498 225.288C522.547 224.502 523.778 224.04 525.191 223.902C526.584 223.766 527.861 223.983 529.022 224.552C530.201 225.1 531.157 225.931 531.888 227.045C532.64 228.157 533.089 229.46 533.235 230.953C533.381 232.446 533.193 233.81 532.671 235.047C532.168 236.282 531.393 237.292 530.344 238.078C529.314 238.842 528.092 239.293 526.679 239.431ZM526.551 237.816C528.203 237.654 529.471 236.957 530.356 235.726C531.26 234.492 531.622 232.959 531.443 231.128C531.325 229.914 530.992 228.871 530.444 228C529.895 227.109 529.177 226.446 528.291 226.01C527.404 225.575 526.423 225.409 525.348 225.514C524.254 225.621 523.314 225.974 522.528 226.574C521.743 227.173 521.168 227.973 520.803 228.973C520.437 229.953 520.312 231.04 520.429 232.235C520.546 233.429 520.879 234.472 521.428 235.362C521.975 236.233 522.692 236.887 523.579 237.322C524.465 237.758 525.456 237.923 526.551 237.816ZM537.138 223.066L538.899 222.893L545.716 234.345L550.215 221.787L551.947 221.618L555.165 236.345L553.404 236.517L550.893 224.705L546.675 236.451L545.182 236.597L538.8 225.887L538.564 237.968L536.862 238.134L537.138 223.066ZM568.451 219.975L570.362 219.788L571.821 234.717L570.03 234.892L568.842 222.74L561.072 235.767L559.191 235.951L558.152 225.322C557.999 223.749 557.468 222.636 556.56 221.981L557.637 220.67C558.144 220.922 558.619 221.358 559.061 221.978C559.502 222.578 559.758 223.246 559.83 223.982L560.706 232.94L568.451 219.975ZM581.413 218.466C582.787 218.332 583.985 218.567 585.009 219.17C586.05 219.751 586.866 220.596 587.457 221.704C588.067 222.81 588.442 224.069 588.58 225.482C588.729 227.015 588.573 228.397 588.111 229.628C587.648 230.859 586.903 231.866 585.874 232.65C584.844 233.414 583.572 233.869 582.059 234.017C581.561 234.066 580.364 234.052 578.468 233.976L579.236 241.829L577.534 241.995L575.748 223.723C575.594 222.15 575.063 221.036 574.155 220.382L575.233 219.071C575.594 219.276 575.955 219.573 576.314 219.96C576.674 220.346 576.947 220.782 577.135 221.266C577.837 219.61 579.263 218.677 581.413 218.466ZM581.752 232.42C583.623 232.237 584.974 231.562 585.805 230.396C586.653 229.208 586.986 227.678 586.803 225.807C586.63 224.035 586.078 222.602 585.147 221.508C584.236 220.411 583.064 219.933 581.63 220.073C580.496 220.184 579.515 220.631 578.687 221.416C577.879 222.198 577.49 223.15 577.52 224.273L578.322 232.484C580.171 232.484 581.314 232.462 581.752 232.42ZM602.391 216.657L604.302 216.47L605.761 231.399L603.969 231.574L602.782 219.422L595.012 232.45L593.131 232.634L592.092 222.004C591.938 220.432 591.407 219.318 590.499 218.663L591.577 217.352C592.084 217.604 592.559 218.04 593.001 218.66C593.441 219.26 593.698 219.928 593.77 220.665L594.645 229.622L602.391 216.657ZM616.438 230.566C614.268 230.778 612.491 230.279 611.107 229.068C609.742 227.855 608.947 226.094 608.722 223.785C608.566 222.192 608.727 220.76 609.206 219.487C609.682 218.195 610.436 217.167 611.466 216.403C612.495 215.619 613.726 215.157 615.159 215.017C615.955 214.939 616.706 215.016 617.412 215.249C618.136 215.459 618.898 215.847 619.696 216.412L618.607 217.604C618.105 217.191 617.595 216.909 617.078 216.759C616.58 216.606 615.994 216.563 615.317 216.629C613.665 216.791 612.399 217.517 611.521 218.809C610.66 220.079 610.327 221.709 610.522 223.699C610.701 225.531 611.298 226.909 612.313 227.835C613.345 228.738 614.718 229.107 616.43 228.939C617.883 228.797 619.41 228.176 621.01 227.075L621.909 228.253C621.147 228.89 620.284 229.417 619.32 229.832C618.374 230.226 617.413 230.471 616.438 230.566ZM635.79 220.898L628.784 215.825L629.769 214.493L636.456 219.386C636.695 219.563 636.958 219.789 637.246 220.062C637.431 220.305 637.533 220.526 637.552 220.725C637.589 221.104 637.317 221.612 636.737 222.252L631.123 228.347L629.899 227.231L635.79 220.898ZM629.58 221.505L622.573 216.432L623.558 215.1L630.246 219.993C630.484 220.17 630.748 220.396 631.036 220.669C631.22 220.912 631.322 221.133 631.342 221.333C631.379 221.711 631.107 222.22 630.526 222.859L624.913 228.954L623.688 227.838L629.58 221.505Z" fill="#333333"/>
<g clip-path="url(#clip1_315_2019)">
<path d="M426.387 246.613C415.823 231.298 406.85 218.516 399.229 207.659C385.626 188.283 376.331 175.041 369.981 164.484C365.097 156.362 362.163 150.15 360.415 144.244C358.678 138.381 358.031 132.555 358.031 125.11C358.031 85.4706 390.165 53.3369 429.804 53.3369C469.443 53.3369 501.577 85.4706 501.577 125.11C501.577 132.555 500.93 138.381 499.194 144.244C497.445 150.15 494.511 156.362 489.627 164.484C483.277 175.041 473.982 188.283 460.38 207.659C452.759 218.516 443.785 231.298 433.221 246.613C431.57 248.993 428.037 248.993 426.387 246.613Z" fill="#B31F1F" stroke="#F2F3F7" stroke-width="11"/>
<path d="M469.18 123.596L429.387 83.6733L389.488 123.491L429.282 163.414L469.18 123.596Z" stroke="#FFD31F" stroke-width="3"/>
<path d="M469.18 132.15L429.387 92.2271L389.488 132.045L429.282 171.968L469.18 132.15Z" stroke="#FFD31F" stroke-width="3"/>
<path d="M469.18 140.702L429.387 100.779L389.488 140.597L429.282 180.52L469.18 140.702Z" stroke="#FFD31F" stroke-width="3"/>
<path d="M428.942 144.966V125.596H418.781V123.688H441.179V125.596H431.122V144.966H428.942Z" fill="white"/>
</g>
<defs>
<clipPath id="clip0_315_2019">
<rect width="389.724" height="198.222" fill="white" transform="translate(365.969 397.244)"/>
</clipPath>
<clipPath id="clip1_315_2019">
<rect width="155.607" height="207.158" fill="white" transform="translate(351.68 47.3223)"/>
</clipPath>
</defs>
</svg>
