<svg width="1075" height="844" viewBox="0 0 1075 844" fill="none" xmlns="http://www.w3.org/2000/svg">
<rect width="1075" height="844" fill="#F2F3F7"/>
<g clip-path="url(#clip0_315_2146)">
<path d="M41 402.184C48.0409 403.809 55.0818 405.57 62.258 407.195C63.4767 401.371 64.6953 395.547 66.0493 389.723C73.361 391.213 80.5372 392.838 87.8489 394.328C87.0365 398.933 86.2241 403.674 85.4117 408.279C113.846 414.78 142.28 421.281 170.579 427.782C173.152 415.457 175.589 403.267 178.162 390.942C149.863 384.441 121.564 377.94 93.265 371.438C92.9942 372.522 92.7234 373.606 92.4526 374.689C85.1409 373.064 77.6938 371.438 70.3821 369.813C70.7883 368.323 71.0591 366.698 71.4653 365.208C77.0168 366.427 82.7037 367.511 88.2551 368.73C89.7445 361.28 91.0986 353.696 92.588 346.246C102.201 348.413 111.68 350.445 121.293 352.612C122.512 346.517 123.595 340.558 124.814 334.463C115.471 332.431 105.993 330.264 96.65 328.232C97.4624 323.763 98.2748 319.293 99.0873 314.688C130.5 321.731 162.049 328.774 193.462 335.817C195.087 327.826 196.847 319.835 198.472 311.844C167.33 304.801 136.187 297.758 104.91 290.715C104.503 292.747 104.233 294.914 103.826 296.945C91.5048 294.778 79.0478 292.611 66.7263 290.309C57.9252 327.826 49.5303 364.937 41 402.184Z" fill="#9198A0"/>
<path d="M375.848 35C345.112 293.288 314.375 551.576 283.504 810L375.848 35Z" fill="#9198A0"/>
<path d="M283.506 810C279.85 809.593 277.142 806.207 277.548 802.415L368.267 40.9593C368.673 37.3024 372.058 34.5935 375.85 34.9998C379.506 35.4062 382.214 38.7922 381.807 42.5846L291.088 804.04C290.682 807.833 287.297 810.406 283.506 810Z" fill="#9198A0"/>
<path d="M347.547 35C316.811 293.288 286.075 551.576 255.203 810L347.547 35Z" fill="#9198A0"/>
<path d="M255.205 810C251.549 809.593 248.841 806.207 249.247 802.415L339.966 40.9593C340.373 37.3024 343.758 34.5935 347.549 34.9998C351.205 35.4062 353.913 38.7922 353.507 42.5846L262.788 804.04C262.246 807.833 258.996 810.406 255.205 810Z" fill="#9198A0"/>
<path d="M522.489 280.286C544.153 362.77 565.818 445.39 587.482 527.874C570.15 532.208 552.954 536.678 535.623 541.012C514.365 538.303 493.242 535.459 471.984 532.75C481.192 458.799 490.399 384.712 499.606 310.76C497.034 302.498 494.596 294.101 492.024 285.839C492.972 282.588 493.919 279.338 494.732 276.223C504.075 277.442 513.282 278.796 522.489 280.286Z" fill="#9198A0"/>
<path d="M360.277 165.702C533.185 216.222 705.957 266.742 878.865 317.126L360.277 165.702Z" fill="#9198A0"/>
<path d="M874.667 319.564L362.579 169.9C360.818 169.358 359.735 167.462 360.277 165.701C360.818 163.941 362.714 162.857 364.474 163.399L876.563 312.927C878.323 313.469 879.406 315.365 878.865 317.126C878.323 319.022 876.427 320.106 874.667 319.564Z" fill="#9198A0"/>
<path d="M531.426 215.544C584.368 411.258 637.174 606.972 690.116 802.686L531.426 215.544Z" fill="#9198A0"/>
<path d="M685.919 800.383L529.124 219.743C528.582 217.982 529.665 216.086 531.561 215.544C533.321 215.002 535.217 216.086 535.758 217.982L692.689 798.623C693.23 800.383 692.147 802.28 690.252 802.821C688.356 803.228 686.46 802.144 685.919 800.383Z" fill="#9198A0"/>
<path d="M403.874 258.073C382.481 442.004 360.952 626.07 339.559 810L403.874 258.073Z" fill="#9198A0"/>
<path d="M339.56 810C338.477 809.865 337.665 808.917 337.8 807.698L401.574 259.834C401.709 258.751 402.657 257.938 403.876 258.073C404.959 258.209 405.771 259.157 405.636 260.376L341.862 808.239C341.727 809.323 340.643 810.136 339.56 810Z" fill="#9198A0"/>
<path d="M317.762 571.757C334.145 573.247 350.529 574.737 366.912 576.227L317.762 571.757Z" fill="#9198A0"/>
<path d="M317.762 571.757C334.145 573.247 350.529 574.737 366.912 576.227" stroke="#9198A0" stroke-width="3" stroke-miterlimit="10"/>
<path d="M496.896 206.199C472.659 407.059 448.557 607.785 424.32 808.645L496.896 206.199Z" fill="#9198A0"/>
<path d="M424.322 808.646C423.239 808.51 422.426 807.562 422.562 806.343L494.595 207.96C494.731 206.876 495.678 206.063 496.897 206.199C497.98 206.334 498.793 207.282 498.657 208.501L426.488 806.885C426.353 807.968 425.405 808.781 424.322 808.646Z" fill="#9198A0"/>
<path d="M647.868 799.3L571.908 562.683C571.637 561.87 570.96 561.328 570.012 561.328L457.764 557.4C456.681 557.4 455.733 556.452 455.868 555.233C455.868 554.15 456.816 553.202 458.035 553.337L573.262 557.4C574.074 557.4 574.886 557.942 575.157 558.755L651.659 797.946C652.065 799.029 651.388 800.113 650.305 800.519C649.357 800.925 648.139 800.248 647.868 799.3Z" fill="#9198A0"/>
<path d="M152.027 356.54C166.786 360.061 181.545 363.583 196.304 367.104" stroke="#9198A0" stroke-width="4" stroke-miterlimit="10"/>
<path d="M300.565 368.052C268.881 364.531 237.062 360.874 205.378 357.353C201.18 356.946 197.389 359.926 196.848 363.989C192.515 398.527 188.317 433.065 183.984 467.602C218.647 472.207 253.445 476.813 288.108 481.418" stroke="#9198A0" stroke-width="4" stroke-miterlimit="10"/>
<g clip-path="url(#clip1_315_2146)">
<path d="M196.493 507C216.101 509.414 235.551 511.828 255.159 514.08C254.841 519.552 254.362 525.023 254.043 530.494C244.797 530.011 235.551 529.368 226.304 528.885C222.638 565.897 219.13 603.069 215.464 640.08C223.116 640.885 230.609 641.529 238.261 642.333C237.464 648.609 236.826 654.724 236.029 661C216.739 658.586 197.29 656.172 178 653.92C184.217 604.839 190.275 555.92 196.493 507Z" fill="#9198A0"/>
</g>
</g>
<path d="M574.989 262.961L569.639 270.693L578.46 274.156L578.567 274.499L565.329 278.605L564.974 277.459L573.952 274.674C574.334 274.556 574.974 274.413 575.871 274.247C574.719 273.864 573.366 273.369 571.809 272.763C570.253 272.157 569.022 271.631 568.117 271.186C569.419 269.037 570.553 267.227 571.52 265.754C571.703 265.488 571.875 265.253 572.035 265.05C572.195 264.847 572.381 264.636 572.592 264.417C572.63 264.405 572.466 264.484 572.1 264.653C571.734 264.822 571.449 264.939 571.245 265.002L562 267.869L561.644 266.723L574.882 262.618L574.989 262.961ZM567.45 286.119C567.17 285.215 567.129 284.341 567.328 283.498C567.531 282.667 567.947 281.938 568.576 281.31C569.205 280.682 569.997 280.22 570.952 279.924C571.907 279.628 572.822 279.56 573.695 279.722C574.586 279.893 575.35 280.263 575.987 280.833C576.642 281.412 577.109 282.153 577.389 283.058C577.666 283.949 577.696 284.812 577.48 285.647C577.281 286.49 576.867 287.226 576.238 287.854C575.613 288.494 574.823 288.963 573.868 289.259C572.913 289.555 571.997 289.616 571.119 289.441C570.245 289.28 569.481 288.909 568.827 288.331C568.189 287.76 567.73 287.023 567.45 286.119ZM568.487 285.818C568.815 286.875 569.441 287.61 570.364 288.021C571.292 288.446 572.341 288.476 573.513 288.113C574.289 287.872 574.925 287.514 575.42 287.04C575.928 286.561 576.265 286.003 576.43 285.365C576.595 284.728 576.571 284.065 576.358 283.378C576.14 282.677 575.783 282.111 575.286 281.679C574.789 281.246 574.19 280.979 573.488 280.875C572.798 280.768 572.072 280.833 571.308 281.07C570.543 281.307 569.908 281.665 569.4 282.143C568.905 282.618 568.575 283.174 568.41 283.811C568.244 284.449 568.27 285.118 568.487 285.818ZM570.873 296.953C570.442 295.564 570.529 294.337 571.134 293.27C571.742 292.216 572.785 291.46 574.262 291.002C575.281 290.686 576.238 290.598 577.133 290.739C578.041 290.876 578.814 291.23 579.451 291.8C580.102 292.366 580.569 293.108 580.853 294.025C581.011 294.534 581.062 295.035 581.005 295.527C580.965 296.028 580.814 296.578 580.553 297.175L579.628 296.624C579.83 296.241 579.946 295.87 579.974 295.512C580.007 295.167 579.956 294.778 579.822 294.345C579.494 293.288 578.849 292.559 577.888 292.16C576.943 291.769 575.834 291.771 574.56 292.165C573.389 292.529 572.569 293.104 572.101 293.891C571.65 294.687 571.594 295.633 571.934 296.728C572.222 297.658 572.833 298.571 573.768 299.468L573.119 300.213C572.601 299.802 572.141 299.309 571.74 298.736C571.355 298.171 571.066 297.577 570.873 296.953ZM582.61 300.566L578.483 301.845C578.519 301.96 578.58 302.157 578.667 302.437C578.754 302.718 578.826 302.926 578.882 303.062C578.955 303.207 579.036 303.356 579.125 303.51C579.337 303.877 579.615 304.21 579.958 304.508C580.306 304.819 580.669 305.02 581.046 305.113L581.607 305.232C582.33 305.357 582.942 305.509 583.444 305.688C584.143 305.96 584.635 306.331 584.92 306.801L583.997 307.401C583.805 307.098 583.449 306.852 582.93 306.664C582.537 306.521 582.111 306.409 581.653 306.327C581.199 306.259 580.92 306.213 580.815 306.19C580.386 306.113 580.047 305.988 579.798 305.814C579.549 305.64 579.28 305.381 578.992 305.038C578.882 305.672 578.711 306.179 578.479 306.558C578.248 306.937 577.981 307.271 577.68 307.56C577.078 308.137 576.655 308.576 576.413 308.874C576.026 309.385 575.843 309.805 575.861 310.134L574.76 310.161C574.744 309.482 575.074 308.745 575.749 307.949C575.931 307.725 576.127 307.504 576.338 307.285C576.566 307.074 576.713 306.938 576.777 306.876C577.074 306.617 577.281 306.406 577.398 306.244C577.628 305.907 577.787 305.495 577.873 305.008C577.959 304.521 577.962 304.08 577.882 303.686C577.844 303.474 577.766 303.178 577.647 302.796C577.557 302.503 577.485 302.294 577.433 302.171L573.058 303.528L572.703 302.382L582.254 299.419L582.61 300.566ZM586.658 313.35C586.954 314.305 586.946 315.11 586.633 315.766C586.332 316.417 585.851 316.846 585.189 317.051C584.832 317.162 584.458 317.194 584.067 317.148C583.68 317.114 583.313 316.991 582.968 316.777C582.855 317.314 582.609 317.781 582.23 318.178C581.85 318.575 581.393 318.857 580.858 319.022C580.119 319.251 579.412 319.199 578.736 318.864C578.076 318.538 577.585 317.922 577.263 317.017L575.798 312.362L585.407 309.382L586.658 313.35ZM582.743 314.836C582.944 315.304 583.241 315.631 583.633 315.817C584.03 316.015 584.432 316.051 584.839 315.924C585.259 315.794 585.541 315.532 585.684 315.139C585.831 314.758 585.822 314.3 585.656 313.765L584.732 310.785L581.752 311.709L582.743 314.836ZM578.246 316.608C578.415 317.155 578.698 317.549 579.094 317.79C579.502 318.026 579.974 318.061 580.509 317.895C581.018 317.737 581.408 317.442 581.679 317.009C581.962 316.572 582.021 316.065 581.856 315.488L580.759 312.017L577.187 313.125L578.246 316.608ZM590.549 326.165L590.928 327.388L581.377 330.35L581.021 329.204L588.796 326.793L579.244 323.473L578.871 322.27L585.671 320.161C586.677 319.849 587.333 319.352 587.638 318.671L588.639 319.198C588.543 319.563 588.322 319.932 587.977 320.304C587.645 320.672 587.243 320.93 586.772 321.076L581.041 322.853L590.549 326.165ZM584.718 341.122L584.362 339.976L588.546 338.679L586.91 333.406L582.721 334.685L582.36 333.519L589.542 331.292C590.23 331.079 590.773 330.645 591.17 329.991L592.152 330.524C591.888 331.025 591.574 331.43 591.209 331.738C590.844 332.047 590.413 332.278 589.917 332.432L587.949 333.042L589.596 338.353L593.913 337.014L594.269 338.16L584.718 341.122ZM587.512 350.672C587.628 350.371 587.777 350.108 587.959 349.885C588.144 349.673 588.402 349.447 588.732 349.205C588.156 349.104 587.649 348.843 587.211 348.42C586.79 348.006 586.468 347.443 586.247 346.73C585.935 345.724 585.952 344.832 586.297 344.055C586.646 343.291 587.279 342.766 588.196 342.482C589.164 342.182 590.02 342.286 590.764 342.795C591.513 343.317 592.08 344.202 592.467 345.45L593.154 347.666L593.842 347.453C594.606 347.216 595.122 346.874 595.388 346.429C595.655 345.983 595.682 345.416 595.468 344.729C595.31 344.219 595.053 343.727 594.696 343.251C594.352 342.772 593.955 342.371 593.507 342.049L594.187 341.273C594.728 341.622 595.195 342.07 595.589 342.618C595.999 343.175 596.304 343.778 596.506 344.428C596.826 345.459 596.801 346.325 596.432 347.026C596.076 347.723 595.401 348.225 594.408 348.534L590.415 349.772C589.435 350.076 588.754 350.559 588.373 351.222L587.512 350.672ZM587.285 346.429C587.549 347.282 587.994 347.884 588.619 348.235C589.249 348.598 589.939 348.663 590.69 348.43L592.123 347.986L591.519 346.037C591.183 344.955 590.783 344.227 590.318 343.855C589.867 343.478 589.284 343.401 588.571 343.622C587.934 343.82 587.503 344.163 587.278 344.651C587.065 345.136 587.067 345.729 587.285 346.429Z" fill="#333333"/>
<path d="M348.081 517.547L334.464 516.048L334.601 514.836L347.101 516.248L347.766 510.366L335.265 508.953L335.4 507.761L347.901 509.174L348.566 503.291L336.065 501.878L336.2 500.686L349.833 502.227L348.081 517.547ZM350.887 494.503C350.781 495.443 350.467 496.26 349.946 496.952C349.427 497.632 348.753 498.132 347.925 498.455C347.097 498.777 346.186 498.882 345.192 498.77C344.198 498.658 343.334 498.352 342.599 497.853C341.852 497.339 341.301 496.693 340.946 495.915C340.579 495.122 340.449 494.255 340.555 493.315C340.66 492.387 340.979 491.585 341.512 490.907C342.033 490.214 342.708 489.707 343.536 489.384C344.365 489.049 345.277 488.937 346.271 489.049C347.264 489.162 348.128 489.474 348.862 489.986C349.597 490.486 350.148 491.132 350.515 491.924C350.869 492.702 350.994 493.562 350.887 494.503ZM349.816 494.361C349.941 493.262 349.663 492.338 348.982 491.59C348.304 490.829 347.355 490.38 346.136 490.242C345.328 490.151 344.602 490.223 343.958 490.459C343.301 490.693 342.768 491.069 342.361 491.586C341.954 492.104 341.709 492.72 341.629 493.436C341.546 494.165 341.646 494.827 341.927 495.422C342.209 496.017 342.651 496.503 343.252 496.88C343.84 497.255 344.532 497.488 345.327 497.577C346.122 497.667 346.848 497.595 347.505 497.361C348.149 497.125 348.674 496.748 349.082 496.231C349.489 495.713 349.734 495.09 349.816 494.361ZM352.104 483.207C351.941 484.651 351.368 485.74 350.386 486.474C349.405 487.195 348.147 487.469 346.61 487.295C345.55 487.176 344.638 486.871 343.875 486.382C343.099 485.892 342.533 485.258 342.178 484.48C341.81 483.7 341.68 482.833 341.788 481.88C341.847 481.35 342.002 480.871 342.252 480.443C342.49 480 342.848 479.557 343.328 479.115L343.953 479.991C343.614 480.261 343.36 480.554 343.19 480.871C343.021 481.174 342.912 481.55 342.861 482.001C342.736 483.1 343.034 484.026 343.754 484.779C344.463 485.516 345.479 485.96 346.804 486.11C348.023 486.248 349.005 486.05 349.749 485.517C350.482 484.969 350.913 484.125 351.042 482.986C351.151 482.019 350.958 480.937 350.463 479.74L351.356 479.318C351.665 479.903 351.889 480.539 352.026 481.225C352.151 481.897 352.177 482.557 352.104 483.207ZM353.214 473.386C353.051 474.83 352.478 475.92 351.496 476.654C350.515 477.375 349.257 477.649 347.72 477.475C346.66 477.355 345.748 477.051 344.985 476.562C344.209 476.072 343.643 475.438 343.288 474.66C342.92 473.88 342.79 473.013 342.898 472.059C342.957 471.529 343.112 471.05 343.362 470.622C343.6 470.18 343.958 469.737 344.438 469.295L345.063 470.171C344.724 470.441 344.47 470.734 344.3 471.05C344.131 471.353 344.022 471.73 343.971 472.181C343.846 473.28 344.144 474.206 344.864 474.958C345.573 475.696 346.589 476.14 347.914 476.289C349.133 476.427 350.115 476.23 350.859 475.697C351.592 475.149 352.023 474.305 352.152 473.166C352.261 472.198 352.068 471.117 351.573 469.92L352.466 469.498C352.775 470.083 352.999 470.719 353.136 471.405C353.261 472.077 353.287 472.737 353.214 473.386ZM349.245 466.474C350.174 466.566 351.054 466.437 351.885 466.088C352.703 465.738 353.186 464.907 353.334 463.595C353.396 463.052 353.38 462.54 353.286 462.06C353.18 461.578 352.997 461.001 352.738 460.327L353.631 459.905C353.928 460.475 354.147 461.097 354.285 461.77C354.424 462.444 354.455 463.118 354.379 463.794C354.221 465.185 353.655 466.221 352.679 466.902C351.691 467.569 350.468 467.82 349.011 467.655C348.044 467.546 347.169 467.273 346.386 466.835C345.591 466.396 344.979 465.817 344.55 465.098C344.123 464.365 343.962 463.535 344.067 462.608C344.153 461.839 344.41 461.171 344.837 460.602C345.25 460.031 345.794 459.61 346.469 459.337C347.132 459.05 347.861 458.951 348.656 459.041C348.868 459.065 349.06 459.093 349.23 459.126C349.388 459.157 349.525 459.186 349.643 459.213L350.056 459.3L349.245 466.474ZM348.868 460.192C348.777 460.168 348.645 460.147 348.473 460.127C347.877 460.06 347.332 460.132 346.838 460.345C346.331 460.556 345.92 460.872 345.604 461.292C345.288 461.713 345.099 462.195 345.038 462.738C344.947 463.546 345.173 464.276 345.716 464.928C346.247 465.578 347.067 466.033 348.179 466.293L348.868 460.192ZM356.584 445.349C356.44 446.621 355.993 447.731 355.242 448.68C354.49 449.628 353.545 450.333 352.406 450.795C351.267 451.256 350.068 451.416 348.81 451.274C347.524 451.128 346.353 450.687 345.296 449.951C344.239 449.214 343.431 448.284 342.874 447.161C342.317 446.038 342.107 444.867 342.245 443.648C342.37 442.535 342.74 441.524 343.352 440.613C343.967 439.69 344.926 439.275 346.23 439.369L346.096 440.561C345.217 440.502 344.575 440.839 344.17 441.571C343.767 442.291 343.519 443.061 343.426 443.882C343.313 444.876 343.507 445.83 344.008 446.746C344.495 447.66 345.188 448.416 346.086 449.014C346.985 449.612 347.957 449.97 349.004 450.088C350.011 450.202 350.985 450.071 351.927 449.694C352.855 449.316 353.631 448.739 354.256 447.965C354.882 447.176 355.254 446.253 355.374 445.193C355.483 444.225 355.366 443.306 355.022 442.436C354.679 441.551 354.163 440.829 353.475 440.268L354.261 439.371C355.131 440.1 355.768 440.997 356.171 442.062C356.574 443.128 356.711 444.223 356.584 445.349ZM352.623 436.586C353.552 436.678 354.432 436.549 355.263 436.2C356.081 435.85 356.564 435.019 356.713 433.707C356.774 433.164 356.758 432.652 356.665 432.172C356.558 431.691 356.375 431.113 356.116 430.44L357.009 430.017C357.307 430.588 357.525 431.209 357.664 431.883C357.802 432.556 357.833 433.23 357.757 433.906C357.6 435.297 357.033 436.333 356.057 437.015C355.069 437.681 353.847 437.932 352.389 437.767C351.422 437.658 350.547 437.385 349.765 436.947C348.969 436.509 348.357 435.93 347.928 435.21C347.501 434.478 347.34 433.648 347.445 432.72C347.532 431.952 347.788 431.283 348.215 430.714C348.628 430.143 349.173 429.722 349.847 429.449C350.511 429.162 351.24 429.063 352.035 429.153C352.247 429.177 352.438 429.205 352.609 429.238C352.766 429.269 352.904 429.298 353.021 429.325L353.434 429.412L352.623 436.586ZM352.247 430.304C352.155 430.28 352.024 430.259 351.851 430.239C351.255 430.172 350.71 430.245 350.217 430.457C349.71 430.668 349.298 430.984 348.982 431.404C348.666 431.825 348.478 432.307 348.416 432.85C348.325 433.658 348.551 434.388 349.095 435.04C349.625 435.69 350.446 436.146 351.557 436.405L352.247 430.304ZM348.721 422.142C348.833 421.148 349.165 420.414 349.715 419.94C350.252 419.464 350.864 419.265 351.553 419.343C351.924 419.384 352.28 419.505 352.619 419.705C352.961 419.891 353.247 420.151 353.477 420.486C353.796 420.039 354.209 419.71 354.716 419.499C355.223 419.288 355.754 419.214 356.311 419.276C357.079 419.363 357.706 419.696 358.191 420.274C358.664 420.837 358.866 421.598 358.798 422.557L358.27 427.408L348.274 426.278L348.721 422.142ZM352.904 422.353C352.908 421.844 352.767 421.425 352.482 421.098C352.199 420.757 351.845 420.563 351.421 420.515C350.984 420.466 350.62 420.592 350.331 420.895C350.044 421.185 349.868 421.608 349.805 422.164L349.455 425.264L352.555 425.615L352.904 422.353ZM357.734 422.537C357.798 421.967 357.697 421.493 357.432 421.114C357.153 420.734 356.735 420.512 356.178 420.449C355.648 420.389 355.173 420.503 354.751 420.791C354.316 421.077 354.058 421.518 353.978 422.112L353.589 425.732L357.305 426.152L357.734 422.537ZM354.929 416.189C355.858 416.28 356.738 416.152 357.569 415.803C358.387 415.452 358.87 414.621 359.018 413.31C359.08 412.767 359.064 412.255 358.97 411.775C358.864 411.293 358.681 410.716 358.421 410.042L359.315 409.62C359.612 410.19 359.831 410.812 359.969 411.485C360.108 412.158 360.139 412.833 360.062 413.508C359.905 414.9 359.339 415.936 358.363 416.617C357.375 417.284 356.152 417.535 354.695 417.37C353.728 417.261 352.853 416.987 352.07 416.55C351.275 416.111 350.662 415.532 350.234 414.813C349.807 414.08 349.646 413.25 349.75 412.323C349.837 411.554 350.094 410.885 350.521 410.316C350.934 409.746 351.478 409.324 352.153 409.052C352.816 408.764 353.545 408.666 354.34 408.756C354.552 408.78 354.743 408.808 354.914 408.841C355.072 408.872 355.209 408.901 355.327 408.928L355.74 409.014L354.929 416.189ZM354.552 409.907C354.461 409.883 354.329 409.861 354.157 409.842C353.561 409.774 353.016 409.847 352.522 410.06C352.015 410.271 351.604 410.587 351.288 411.007C350.972 411.428 350.783 411.909 350.722 412.453C350.631 413.261 350.857 413.991 351.4 414.643C351.931 415.293 352.751 415.748 353.863 416.008L354.552 409.907ZM350.954 401.676C351.057 400.762 351.377 400.013 351.912 399.43C352.436 398.831 353.1 398.417 353.905 398.185C354.71 397.941 355.584 397.872 356.524 397.978C357.545 398.094 358.424 398.388 359.162 398.86C359.9 399.333 360.453 399.959 360.822 400.738C361.176 401.517 361.297 402.409 361.183 403.416C361.146 403.747 360.97 404.526 360.657 405.752L365.884 406.343L365.756 407.475L353.594 406.101C352.547 405.982 351.747 406.174 351.194 406.675L350.489 405.79C350.673 405.583 350.917 405.389 351.219 405.208C351.521 405.028 351.843 404.91 352.185 404.854C351.202 404.166 350.792 403.107 350.954 401.676ZM360.099 403.394C360.24 402.149 359.987 401.174 359.342 400.471C358.686 399.752 357.734 399.323 356.489 399.182C355.31 399.049 354.299 399.209 353.456 399.664C352.614 400.106 352.139 400.804 352.031 401.758C351.946 402.513 352.102 403.215 352.498 403.863C352.896 404.499 353.463 404.885 354.199 405.022L359.664 405.639C359.921 404.434 360.066 403.686 360.099 403.394ZM362.718 388.055L362.583 389.248L358.231 388.756L357.611 394.241L361.961 394.752L361.824 395.965L354.352 395.12C353.636 395.039 352.965 395.218 352.339 395.657L351.653 394.775C352.096 394.422 352.546 394.178 353.004 394.042C353.462 393.906 353.95 393.867 354.467 393.925L356.514 394.157L357.138 388.632L352.647 388.124L352.781 386.932L362.718 388.055ZM363.749 380.715C363.643 381.656 363.329 382.473 362.808 383.165C362.288 383.844 361.615 384.345 360.786 384.668C359.958 384.99 359.047 385.095 358.054 384.983C357.06 384.87 356.196 384.565 355.46 384.066C354.713 383.552 354.162 382.906 353.808 382.128C353.441 381.335 353.311 380.468 353.417 379.527C353.522 378.6 353.841 377.797 354.374 377.12C354.895 376.427 355.569 375.92 356.397 375.597C357.227 375.262 358.139 375.15 359.132 375.262C360.126 375.375 360.99 375.687 361.723 376.199C362.459 376.698 363.01 377.344 363.376 378.137C363.731 378.915 363.855 379.775 363.749 380.715ZM362.678 380.574C362.802 379.475 362.524 378.551 361.844 377.803C361.165 377.042 360.216 376.593 358.998 376.455C358.189 376.363 357.463 376.436 356.819 376.672C356.162 376.906 355.63 377.282 355.223 377.799C354.815 378.317 354.571 378.933 354.49 379.649C354.408 380.377 354.508 381.039 354.789 381.635C355.071 382.23 355.512 382.716 356.114 383.093C356.702 383.468 357.394 383.7 358.188 383.79C358.983 383.88 359.709 383.808 360.367 383.574C361.011 383.338 361.536 382.961 361.944 382.444C362.351 381.926 362.596 381.303 362.678 380.574ZM359.887 372.327C360.816 372.419 361.696 372.29 362.527 371.942C363.345 371.591 363.828 370.76 363.976 369.449C364.037 368.905 364.021 368.394 363.928 367.913C363.821 367.432 363.639 366.854 363.379 366.181L364.272 365.758C364.57 366.329 364.788 366.951 364.927 367.624C365.066 368.297 365.097 368.971 365.02 369.647C364.863 371.038 364.296 372.074 363.32 372.756C362.333 373.422 361.11 373.673 359.653 373.509C358.685 373.399 357.811 373.126 357.028 372.689C356.232 372.25 355.62 371.671 355.192 370.951C354.764 370.219 354.603 369.389 354.708 368.461C354.795 367.693 355.052 367.024 355.478 366.455C355.892 365.885 356.436 365.463 357.111 365.19C357.774 364.903 358.503 364.804 359.298 364.894C359.51 364.918 359.701 364.947 359.872 364.979C360.029 365.011 360.167 365.039 360.285 365.066L360.698 365.153L359.887 372.327ZM359.51 366.045C359.419 366.022 359.287 366 359.115 365.981C358.519 365.913 357.974 365.986 357.48 366.198C356.973 366.409 356.562 366.725 356.246 367.146C355.93 367.566 355.741 368.048 355.68 368.591C355.588 369.399 355.814 370.129 356.358 370.781C356.888 371.432 357.709 371.887 358.82 372.147L359.51 366.045ZM356.381 355.089L360.673 355.575C360.687 355.455 360.71 355.25 360.743 354.959C360.776 354.667 360.794 354.448 360.797 354.3C360.789 354.138 360.774 353.969 360.754 353.792C360.708 353.371 360.587 352.955 360.392 352.544C360.198 352.119 359.947 351.789 359.638 351.553L359.173 351.219C358.561 350.814 358.061 350.429 357.673 350.063C357.143 349.533 356.841 348.996 356.769 348.451L357.856 348.272C357.91 348.627 358.136 348.995 358.536 349.375C358.839 349.665 359.184 349.938 359.57 350.197C359.959 350.442 360.196 350.596 360.283 350.66C360.645 350.902 360.905 351.153 361.063 351.412C361.222 351.672 361.364 352.016 361.49 352.447C361.846 351.91 362.206 351.514 362.57 351.26C362.934 351.006 363.312 350.808 363.704 350.664C364.488 350.377 365.051 350.145 365.393 349.969C365.951 349.657 366.288 349.346 366.404 349.037L367.424 349.454C367.165 350.082 366.567 350.625 365.629 351.083C365.373 351.215 365.104 351.339 364.822 351.455C364.529 351.556 364.341 351.622 364.257 351.652C363.881 351.771 363.607 351.881 363.434 351.982C363.088 352.198 362.777 352.512 362.503 352.923C362.228 353.335 362.048 353.737 361.964 354.13C361.913 354.339 361.866 354.643 361.821 355.04C361.786 355.345 361.768 355.564 361.766 355.698L366.317 356.213L366.183 357.405L356.246 356.282L356.381 355.089ZM368.005 343.065C367.899 344.005 367.585 344.822 367.064 345.514C366.544 346.194 365.87 346.694 365.042 347.017C364.214 347.339 363.303 347.444 362.31 347.332C361.316 347.22 360.451 346.914 359.716 346.415C358.969 345.901 358.418 345.255 358.063 344.477C357.697 343.684 357.567 342.817 357.673 341.877C357.778 340.949 358.097 340.147 358.629 339.469C359.15 338.776 359.825 338.269 360.653 337.946C361.483 337.611 362.394 337.499 363.388 337.612C364.382 337.724 365.245 338.036 365.979 338.548C366.715 339.048 367.265 339.694 367.632 340.486C367.987 341.264 368.111 342.124 368.005 343.065ZM366.934 342.923C367.058 341.824 366.78 340.9 366.1 340.152C365.421 339.391 364.472 338.942 363.253 338.804C362.445 338.713 361.719 338.785 361.075 339.021C360.418 339.255 359.886 339.631 359.478 340.148C359.071 340.666 358.827 341.282 358.746 341.998C358.664 342.727 358.763 343.389 359.045 343.984C359.326 344.579 359.768 345.065 360.369 345.442C360.958 345.817 361.649 346.05 362.444 346.139C363.239 346.229 363.965 346.157 364.622 345.923C365.266 345.687 365.792 345.31 366.199 344.793C366.607 344.275 366.852 343.652 366.934 342.923ZM368.905 335.638C368.839 336.22 368.554 336.665 368.05 336.97L367.473 336.019C367.675 335.894 367.788 335.719 367.814 335.494C367.839 335.269 367.786 335.088 367.654 334.953C367.508 334.815 367.276 334.675 366.957 334.532C366.19 334.19 365.089 333.905 363.652 333.675C362.217 333.432 360.611 333.211 358.836 333.01L359.593 326.494L369.549 327.619L369.415 328.812L360.531 327.807L360.055 332.021C361.431 332.19 362.836 332.402 364.27 332.658C365.704 332.914 366.752 333.194 367.416 333.497C367.964 333.747 368.368 334.034 368.627 334.358C368.872 334.681 368.965 335.108 368.905 335.638ZM360.103 322.155L363.621 322.552L363.992 319.092C364.077 318.458 364.299 317.919 364.658 317.477C365.003 317.033 365.442 316.706 365.976 316.498C366.509 316.29 367.081 316.221 367.69 316.29C368.697 316.403 369.45 316.804 369.949 317.491C370.437 318.163 370.608 319.028 370.461 320.085L369.905 324.47L359.969 323.347L360.103 322.155ZM369.335 320.078C369.398 319.28 369.273 318.669 368.959 318.244C368.631 317.818 368.176 317.572 367.593 317.506C366.97 317.436 366.418 317.575 365.936 317.923C365.44 318.269 365.156 318.828 365.082 319.598L364.714 322.676L368.987 323.159L369.335 320.078ZM374.913 305.092L374.779 306.285L371.996 305.97L371.039 314.436L361.103 313.313L361.238 312.121L370.061 313.118L370.711 307.375L361.887 306.377L362.022 305.185L370.845 306.182L371.016 304.672L374.913 305.092ZM373.026 298.64C372.92 299.581 372.606 300.398 372.085 301.09C371.566 301.769 370.892 302.27 370.064 302.593C369.235 302.915 368.325 303.02 367.331 302.908C366.337 302.795 365.473 302.49 364.737 301.991C363.99 301.477 363.44 300.831 363.085 300.053C362.718 299.26 362.588 298.393 362.694 297.452C362.799 296.525 363.118 295.722 363.651 295.045C364.172 294.352 364.846 293.845 365.675 293.522C366.504 293.187 367.416 293.075 368.409 293.187C369.403 293.3 370.267 293.612 371.001 294.124C371.736 294.623 372.287 295.269 372.653 296.062C373.008 296.84 373.133 297.7 373.026 298.64ZM371.955 298.499C372.08 297.4 371.802 296.476 371.121 295.728C370.442 294.967 369.494 294.518 368.275 294.38C367.467 294.288 366.74 294.361 366.097 294.596C365.439 294.831 364.907 295.207 364.5 295.724C364.092 296.242 363.848 296.858 363.767 297.574C363.685 298.302 363.785 298.964 364.066 299.56C364.348 300.155 364.789 300.641 365.391 301.018C365.979 301.393 366.671 301.625 367.466 301.715C368.261 301.805 368.987 301.733 369.644 301.499C370.288 301.263 370.813 300.886 371.221 300.369C371.628 299.851 371.873 299.228 371.955 298.499Z" fill="#333333"/>
<path d="M413.613 652.416L413.656 652.039L428.288 647.775L428.144 649.047L423.415 650.465L422.774 656.129L427.072 658.527L426.929 659.799L413.613 652.416ZM417.386 652.158C416.832 652.311 416.297 652.418 415.78 652.48C416.385 652.709 416.884 652.927 417.276 653.132L421.715 655.526L422.248 650.816L417.386 652.158ZM428.717 644.686C428.692 644.911 428.59 645.101 428.411 645.255C428.221 645.395 428.014 645.452 427.788 645.426C427.55 645.399 427.36 645.297 427.219 645.12C427.066 644.929 427.003 644.72 427.028 644.495C427.055 644.256 427.164 644.067 427.354 643.928C427.532 643.774 427.741 643.71 427.979 643.737C428.204 643.762 428.393 643.871 428.546 644.063C428.687 644.24 428.744 644.447 428.717 644.686ZM416.016 634.549C416.147 633.383 416.643 632.5 417.503 631.899C418.364 631.285 419.43 631.05 420.702 631.194C422.067 631.348 423.077 631.905 423.733 632.865C424.378 633.81 424.602 635.151 424.406 636.886C424.33 637.562 424.25 638.15 424.166 638.65L429.274 639.228L429.139 640.42L415.526 638.881L416.016 634.549ZM423.32 636.522C423.458 635.303 423.285 634.338 422.802 633.625C422.306 632.912 421.541 632.497 420.508 632.38C419.54 632.27 418.755 632.45 418.152 632.919C417.549 633.387 417.197 634.065 417.097 634.953L416.773 637.815L423.034 638.522L423.134 637.809C423.233 637.176 423.295 636.747 423.32 636.522ZM431.201 623.423C430.974 623.652 430.732 623.833 430.476 623.965C430.221 624.084 429.894 624.188 429.495 624.277C429.981 624.6 430.34 625.043 430.572 625.606C430.792 626.154 430.86 626.799 430.776 627.541C430.658 628.588 430.284 629.398 429.656 629.971C429.029 630.531 428.239 630.757 427.285 630.649C426.278 630.535 425.536 630.096 425.059 629.33C424.583 628.552 424.419 627.514 424.566 626.215L424.826 623.91L424.111 623.829C423.316 623.739 422.707 623.845 422.284 624.146C421.86 624.447 421.608 624.955 421.528 625.671C421.468 626.201 421.506 626.755 421.641 627.334C421.764 627.911 421.966 628.437 422.248 628.912L421.313 629.35C420.958 628.813 420.71 628.215 420.57 627.555C420.418 626.88 420.38 626.205 420.457 625.53C420.578 624.456 420.948 623.673 421.568 623.179C422.174 622.684 422.994 622.495 424.027 622.612L428.18 623.082C429.201 623.197 430.018 623.028 430.633 622.574L431.201 623.423ZM429.705 627.4C429.805 626.512 429.64 625.783 429.208 625.21C428.778 624.625 428.172 624.288 427.39 624.2L425.899 624.031L425.67 626.058C425.543 627.185 425.617 628.011 425.893 628.539C426.156 629.065 426.658 629.37 427.4 629.454C428.062 629.529 428.595 629.388 428.997 629.031C429.387 628.672 429.623 628.129 429.705 627.4ZM421.696 615.277C421.741 614.879 421.846 614.489 422.01 614.105L423.123 614.23C422.986 614.604 422.897 614.983 422.853 615.367C422.777 616.043 422.88 616.612 423.164 617.073C423.447 617.534 423.875 617.965 424.447 618.365L431.522 619.165L431.387 620.357L424.431 619.571C423.384 619.453 422.584 619.644 422.031 620.145L421.326 619.26C421.499 619.038 421.743 618.838 422.058 618.659C422.374 618.48 422.716 618.364 423.084 618.312C422.516 617.872 422.141 617.454 421.958 617.057C421.705 616.559 421.618 615.966 421.696 615.277ZM433.117 605.051L432.969 606.363L428.126 609.136C427.938 609.263 427.789 609.454 427.679 609.71C427.57 609.966 427.499 610.24 427.466 610.531L427.367 611.405L432.335 611.967L432.2 613.159L417.772 611.529L417.907 610.336L426.294 611.284L426.374 610.569C426.427 610.105 426.455 609.739 426.458 609.471C426.463 609.19 426.425 608.937 426.343 608.713C426.168 608.237 425.848 607.805 425.382 607.417C424.904 607.014 424.417 606.698 423.92 606.467C423.411 606.222 423.057 606.088 422.858 606.065L422.982 604.972C423.431 605.036 423.988 605.267 424.654 605.665C425.309 606.047 425.896 606.489 426.417 606.991C426.937 607.492 427.236 607.935 427.313 608.32L433.117 605.051ZM423.373 602.039L423.508 600.847L433.465 601.972L433.33 603.165L423.373 602.039ZM422.164 601.339C422.139 601.564 422.037 601.754 421.859 601.908C421.668 602.048 421.461 602.105 421.235 602.079C420.997 602.052 420.807 601.95 420.666 601.773C420.513 601.582 420.45 601.373 420.475 601.148C420.502 600.909 420.611 600.72 420.801 600.581C420.979 600.427 421.188 600.363 421.426 600.39C421.652 600.415 421.841 600.524 421.993 600.716C422.134 600.893 422.191 601.1 422.164 601.339ZM426.82 597.905C425.799 597.79 424.987 597.973 424.382 598.455L423.732 597.617C424.209 597.08 424.847 596.777 425.647 596.706C425.074 596.199 424.672 595.657 424.442 595.081C424.199 594.503 424.12 593.83 424.207 593.061C424.324 592.028 424.693 591.258 425.314 590.751C425.936 590.231 426.77 590.037 427.815 590.168L434.704 591.007L434.574 592.16L427.899 591.385C426.309 591.206 425.432 591.838 425.269 593.282C425.193 593.958 425.293 594.553 425.57 595.067C425.836 595.567 426.291 596.115 426.934 596.711L433.97 597.506L433.835 598.698L426.82 597.905ZM440.636 584.293C440.292 587.34 438.867 588.722 436.363 588.439C436.151 588.415 435.764 588.338 435.202 588.207L434.672 588.087C434.43 588.328 434.14 588.517 433.803 588.653C433.467 588.776 433.12 588.817 432.763 588.777C432.392 588.735 432.019 588.592 431.644 588.348C431.269 588.105 431.002 587.732 430.844 587.231C430.796 587.065 430.767 586.901 430.759 586.739C430.752 586.564 430.758 586.329 430.778 586.037C430.111 586.471 429.361 586.641 428.526 586.547C427.797 586.464 427.187 586.228 426.694 585.837C426.19 585.431 425.824 584.926 425.597 584.324C425.37 583.721 425.296 583.075 425.373 582.386C425.432 581.87 425.577 581.416 425.809 581.027L426.18 577.748L427.193 577.862L426.87 579.657C427.573 579.133 428.395 578.924 429.336 579.03C430.422 579.153 431.237 579.601 431.78 580.373C432.312 581.131 432.515 582.066 432.389 583.179C432.306 583.908 432.095 584.535 431.754 585.06C431.694 585.348 431.652 585.605 431.626 585.831C431.593 586.122 431.588 586.349 431.609 586.513C431.65 586.746 431.778 586.981 431.992 587.22C432.208 587.446 432.502 587.58 432.873 587.622C433.297 587.67 433.612 587.551 433.819 587.266C434.026 586.981 434.163 586.54 434.23 585.944L434.343 584.588L434.494 582.894C434.647 581.543 435.013 580.504 435.591 579.778C436.171 579.038 436.958 578.724 437.952 578.837C439.078 578.964 439.844 579.547 440.25 580.586C440.67 581.613 440.799 582.849 440.636 584.293ZM431.36 583.023C431.453 582.201 431.298 581.553 430.895 581.078C430.494 580.59 429.936 580.306 429.221 580.225C428.452 580.138 427.822 580.308 427.331 580.736C426.828 581.149 426.533 581.746 426.444 582.528C426.355 583.323 426.509 583.971 426.909 584.472C427.309 584.973 427.886 585.267 428.641 585.352C429.423 585.441 430.053 585.27 430.53 584.841C430.995 584.411 431.272 583.805 431.36 583.023ZM439.563 584.171C439.856 581.575 439.288 580.195 437.857 580.034C436.572 579.888 435.805 580.909 435.558 583.095C435.489 583.704 435.441 584.249 435.414 584.729L435.335 585.606C435.262 586.255 435.171 586.761 435.063 587.125L436.379 587.233C437.11 587.289 437.689 587.22 438.113 587.027C438.551 586.835 438.875 586.516 439.087 586.07C439.313 585.612 439.471 584.98 439.563 584.171Z" fill="#333333"/>
<path d="M182.69 130.32C183.863 130.32 184.797 130.713 185.49 131.5C186.197 132.287 186.55 133.32 186.55 134.6C186.55 135.973 186.11 137.04 185.23 137.8C184.363 138.547 183.057 138.92 181.31 138.92C180.63 138.92 180.037 138.907 179.53 138.88V144.02H178.33V130.32H182.69ZM181.55 137.8C182.777 137.8 183.717 137.52 184.37 136.96C185.023 136.387 185.35 135.58 185.35 134.54C185.35 133.567 185.083 132.807 184.55 132.26C184.017 131.713 183.303 131.44 182.41 131.44H179.53V137.74L180.25 137.76C180.89 137.787 181.323 137.8 181.55 137.8ZM188.401 136.86C188.401 135.807 188.121 135.033 187.561 134.54L188.361 133.74C188.681 133.94 188.968 134.26 189.221 134.7C189.474 135.127 189.601 135.587 189.601 136.08V137.54L193.081 137.52C193.708 137.52 194.261 137.673 194.741 137.98C195.234 138.273 195.614 138.68 195.881 139.2C196.148 139.707 196.281 140.267 196.281 140.88C196.281 141.907 196.021 142.687 195.501 143.22C194.981 143.74 194.194 144 193.141 144H188.401V136.86ZM197.541 134H198.741V144H197.541V134ZM193.081 142.86C193.721 142.86 194.214 142.673 194.561 142.3C194.908 141.913 195.081 141.453 195.081 140.92C195.081 140.347 194.914 139.827 194.581 139.36C194.248 138.893 193.808 138.66 193.261 138.66H189.601V142.88L193.081 142.86ZM210.014 144H208.814V139.62H203.294L203.274 144H202.054V136.48C202.054 135.76 201.801 135.113 201.294 134.54L202.094 133.76C202.494 134.16 202.787 134.58 202.974 135.02C203.161 135.46 203.254 135.94 203.254 136.46V138.52H208.814V134H210.014V144ZM217.423 144.2C216.476 144.2 215.63 143.98 214.883 143.54C214.15 143.1 213.576 142.487 213.163 141.7C212.75 140.913 212.543 140.02 212.543 139.02C212.543 138.02 212.75 137.127 213.163 136.34C213.59 135.54 214.17 134.92 214.903 134.48C215.65 134.027 216.496 133.8 217.443 133.8C218.376 133.8 219.21 134.027 219.943 134.48C220.69 134.92 221.27 135.533 221.683 136.32C222.11 137.107 222.323 138 222.323 139C222.323 140 222.11 140.893 221.683 141.68C221.27 142.467 220.69 143.087 219.943 143.54C219.21 143.98 218.37 144.2 217.423 144.2ZM217.443 143.12C218.55 143.12 219.436 142.74 220.103 141.98C220.783 141.22 221.123 140.227 221.123 139C221.123 138.187 220.97 137.473 220.663 136.86C220.356 136.233 219.923 135.747 219.363 135.4C218.803 135.053 218.163 134.88 217.443 134.88C216.71 134.88 216.063 135.053 215.503 135.4C214.943 135.747 214.51 136.24 214.203 136.88C213.896 137.507 213.743 138.22 213.743 139.02C213.743 139.82 213.896 140.533 214.203 141.16C214.51 141.773 214.943 142.253 215.503 142.6C216.063 142.947 216.71 143.12 217.443 143.12ZM226.024 134V138.32C226.144 138.32 226.351 138.32 226.644 138.32C226.937 138.32 227.157 138.313 227.304 138.3C227.464 138.273 227.631 138.24 227.804 138.2C228.217 138.107 228.617 137.94 229.004 137.7C229.404 137.46 229.704 137.173 229.904 136.84L230.184 136.34C230.517 135.687 230.844 135.147 231.164 134.72C231.631 134.133 232.131 133.773 232.664 133.64L232.964 134.7C232.617 134.793 232.277 135.06 231.944 135.5C231.691 135.833 231.457 136.207 231.244 136.62C231.044 137.033 230.917 137.287 230.864 137.38C230.664 137.767 230.444 138.053 230.204 138.24C229.964 138.427 229.637 138.607 229.224 138.78C229.797 139.073 230.231 139.387 230.524 139.72C230.817 140.053 231.057 140.407 231.244 140.78C231.617 141.527 231.911 142.06 232.124 142.38C232.497 142.9 232.844 143.2 233.164 143.28L232.864 144.34C232.211 144.153 231.604 143.62 231.044 142.74C230.884 142.5 230.731 142.247 230.584 141.98C230.451 141.7 230.364 141.52 230.324 141.44C230.164 141.08 230.024 140.82 229.904 140.66C229.651 140.34 229.304 140.067 228.864 139.84C228.424 139.613 228.004 139.48 227.604 139.44C227.391 139.413 227.084 139.4 226.684 139.4C226.377 139.4 226.157 139.407 226.024 139.42V144H224.824V134H226.024ZM245.779 129.94H246.159L252.039 144H250.759L248.819 139.46H243.119L241.219 144H239.939L245.779 129.94ZM246.459 133.66C246.246 133.127 246.079 132.607 245.959 132.1C245.799 132.727 245.639 133.247 245.479 133.66L243.599 138.34H248.339L246.459 133.66ZM256.877 144.3C256.184 144.3 255.497 144.193 254.817 143.98C254.15 143.767 253.577 143.453 253.097 143.04L253.817 142.3C254.097 142.54 254.524 142.753 255.097 142.94C255.67 143.113 256.257 143.2 256.857 143.2C257.497 143.2 258.07 143.093 258.577 142.88C259.084 142.667 259.477 142.38 259.757 142.02C260.05 141.66 260.197 141.26 260.197 140.82C260.197 140.273 259.99 139.8 259.577 139.4C259.177 139 258.644 138.8 257.977 138.8H255.597V137.78L257.957 137.8C258.437 137.8 258.844 137.667 259.177 137.4C259.51 137.133 259.677 136.807 259.677 136.42C259.677 135.887 259.37 135.493 258.757 135.24C258.144 134.987 257.47 134.86 256.737 134.86C255.79 134.86 254.884 135 254.017 135.28L253.777 134.26C254.844 133.913 255.924 133.74 257.017 133.74C257.83 133.74 258.524 133.867 259.097 134.12C259.684 134.373 260.124 134.7 260.417 135.1C260.724 135.5 260.877 135.927 260.877 136.38C260.877 136.753 260.777 137.113 260.577 137.46C260.39 137.793 260.15 138.047 259.857 138.22C260.377 138.567 260.757 138.947 260.997 139.36C261.25 139.773 261.384 140.253 261.397 140.8C261.41 141.547 261.204 142.187 260.777 142.72C260.35 143.24 259.79 143.633 259.097 143.9C258.404 144.167 257.664 144.3 256.877 144.3ZM271.088 134H272.368V144H271.168V135.86L265.168 144H263.908V136.88C263.908 135.827 263.628 135.053 263.068 134.56L263.868 133.76C264.188 133.96 264.475 134.28 264.728 134.72C264.982 135.147 265.108 135.607 265.108 136.1V142.1L271.088 134ZM275.507 144.26C275.347 144.26 275.173 144.24 274.987 144.2C274.8 144.16 274.653 144.107 274.547 144.04L275.187 143.12C275.28 143.187 275.387 143.207 275.507 143.18C275.68 143.14 275.953 142.913 276.327 142.5C276.633 142.153 276.913 141.813 277.167 141.48C277.727 140.787 278.1 140.353 278.287 140.18C278.433 140.047 278.607 139.953 278.807 139.9C278.713 139.9 278.473 139.907 278.087 139.92C277.713 139.92 277.34 139.86 276.967 139.74C276.607 139.607 276.267 139.393 275.947 139.1C275.627 138.82 275.387 138.5 275.227 138.14C275.067 137.767 274.987 137.38 274.987 136.98C274.987 136.247 275.233 135.613 275.727 135.08C276.313 134.453 277.1 134.093 278.087 134H282.787V144H281.587V139.8C281.227 139.8 280.78 139.907 280.247 140.12C279.713 140.333 279.3 140.613 279.007 140.96L278.567 141.54C278.407 141.74 278.127 142.087 277.727 142.58C277.327 143.073 277.047 143.4 276.887 143.56C276.393 144.027 275.933 144.26 275.507 144.26ZM276.527 137.96C276.807 138.347 277.147 138.593 277.547 138.7C277.96 138.793 278.567 138.833 279.367 138.82L281.587 138.8V135.1L279.327 135.08C278.74 135.067 278.293 135.087 277.987 135.14C277.68 135.18 277.413 135.26 277.187 135.38C276.853 135.553 276.6 135.78 276.427 136.06C276.267 136.34 276.187 136.64 276.187 136.96C276.187 137.32 276.3 137.653 276.527 137.96Z" fill="#333333"/>
<path d="M158.414 97.4014C157.774 96.8214 157.454 96.3214 157.454 95.9014C157.454 95.5214 157.774 95.0414 158.414 94.4614L164.624 88.9114L165.794 90.2014L159.194 95.9014L165.794 101.631L164.624 102.921L158.414 97.4014ZM152.174 97.4014C151.534 96.8214 151.214 96.3214 151.214 95.9014C151.214 95.5214 151.534 95.0414 152.174 94.4614L158.384 88.9114L159.554 90.2014L152.954 95.9014L159.554 101.631L158.384 102.921L152.174 97.4014ZM175.108 84.6214H168.088V82.9414H183.928V84.6214H176.908V103.461H175.108V84.6214ZM190.915 103.761C189.495 103.761 188.225 103.431 187.105 102.771C186.005 102.111 185.145 101.191 184.525 100.011C183.905 98.8314 183.595 97.4914 183.595 95.9914C183.595 94.4914 183.905 93.1514 184.525 91.9714C185.165 90.7714 186.035 89.8414 187.135 89.1814C188.255 88.5014 189.525 88.1614 190.945 88.1614C192.345 88.1614 193.595 88.5014 194.695 89.1814C195.815 89.8414 196.685 90.7614 197.305 91.9414C197.945 93.1214 198.265 94.4614 198.265 95.9614C198.265 97.4614 197.945 98.8014 197.305 99.9814C196.685 101.161 195.815 102.091 194.695 102.771C193.595 103.431 192.335 103.761 190.915 103.761ZM190.945 102.141C192.605 102.141 193.935 101.571 194.935 100.431C195.955 99.2914 196.465 97.8014 196.465 95.9614C196.465 94.7414 196.235 93.6714 195.775 92.7514C195.315 91.8114 194.665 91.0814 193.825 90.5614C192.985 90.0414 192.025 89.7814 190.945 89.7814C189.845 89.7814 188.875 90.0414 188.035 90.5614C187.195 91.0814 186.545 91.8214 186.085 92.7814C185.625 93.7214 185.395 94.7914 185.395 95.9914C185.395 97.1914 185.625 98.2614 186.085 99.2014C186.545 100.121 187.195 100.841 188.035 101.361C188.875 101.881 189.845 102.141 190.945 102.141ZM202.916 88.4914H204.686L210.356 100.551L216.056 88.4914H217.796L219.566 103.461H217.796L216.446 91.4614L211.106 102.741H209.606L204.296 91.4614L202.886 103.461H201.176L202.916 88.4914ZM234.382 88.4614H236.302V103.461H234.502V91.2514L225.502 103.461H223.612V92.7814C223.612 91.2014 223.192 90.0414 222.352 89.3014L223.552 88.1014C224.032 88.4014 224.462 88.8814 224.842 89.5414C225.222 90.1814 225.412 90.8714 225.412 91.6114V100.611L234.382 88.4614ZM247.429 88.2214C248.809 88.2214 249.979 88.5714 250.939 89.2714C251.919 89.9514 252.649 90.8714 253.129 92.0314C253.629 93.1914 253.879 94.4814 253.879 95.9014C253.879 97.4414 253.589 98.8014 253.009 99.9814C252.429 101.161 251.589 102.091 250.489 102.771C249.389 103.431 248.079 103.761 246.559 103.761C246.059 103.761 244.869 103.631 242.989 103.371V111.261H241.279V92.9014C241.279 91.3214 240.859 90.1614 240.019 89.4214L241.219 88.2214C241.559 88.4614 241.889 88.7914 242.209 89.2114C242.529 89.6314 242.759 90.0914 242.899 90.5914C243.759 89.0114 245.269 88.2214 247.429 88.2214ZM246.409 102.141C248.289 102.141 249.699 101.601 250.639 100.521C251.599 99.4214 252.079 97.9314 252.079 96.0514C252.079 94.2714 251.669 92.7914 250.849 91.6114C250.049 90.4314 248.929 89.8414 247.489 89.8414C246.349 89.8414 245.329 90.1914 244.429 90.8914C243.549 91.5914 243.069 92.5014 242.989 93.6214V101.871C244.829 102.051 245.969 102.141 246.409 102.141ZM268.483 88.4614H270.403V103.461H268.603V91.2514L259.603 103.461H257.713V92.7814C257.713 91.2014 257.293 90.0414 256.453 89.3014L257.653 88.1014C258.133 88.4014 258.563 88.8814 258.943 89.5414C259.323 90.1814 259.513 90.8714 259.513 91.6114V100.611L268.483 88.4614ZM281.111 103.671C278.931 103.671 277.211 103.001 275.951 101.661C274.711 100.321 274.091 98.4914 274.091 96.1714C274.091 94.5714 274.391 93.1614 274.991 91.9414C275.591 90.7014 276.441 89.7514 277.541 89.0914C278.641 88.4114 279.911 88.0714 281.351 88.0714C282.151 88.0714 282.891 88.2214 283.571 88.5214C284.271 88.8014 284.991 89.2614 285.731 89.9014L284.531 90.9814C284.071 90.5214 283.591 90.1914 283.091 89.9914C282.611 89.7914 282.031 89.6914 281.351 89.6914C279.691 89.6914 278.361 90.2914 277.361 91.4914C276.381 92.6714 275.891 94.2614 275.891 96.2614C275.891 98.1014 276.351 99.5314 277.271 100.551C278.211 101.551 279.541 102.051 281.261 102.051C282.721 102.051 284.301 101.581 286.001 100.641L286.781 101.901C285.961 102.461 285.051 102.901 284.051 103.221C283.071 103.521 282.091 103.671 281.111 103.671ZM301.312 95.9314L294.832 90.2014L295.942 88.9714L302.122 94.4914C302.342 94.6914 302.582 94.9414 302.842 95.2414C303.002 95.5014 303.082 95.7314 303.082 95.9314C303.082 96.3114 302.762 96.7914 302.122 97.3714L295.942 102.891L294.832 101.661L301.312 95.9314ZM295.072 95.9314L288.592 90.2014L289.702 88.9714L295.882 94.4914C296.102 94.6914 296.342 94.9414 296.602 95.2414C296.762 95.5014 296.842 95.7314 296.842 95.9314C296.842 96.3114 296.522 96.7914 295.882 97.3714L289.702 102.891L288.592 101.661L295.072 95.9314Z" fill="#333333"/>
<path d="M228.463 622.198L229.276 613.456L230.391 613.559L229.69 621.107L234.429 621.548L234.946 615.992L236.061 616.095L235.544 621.651L241.08 622.166L241.819 614.22L242.934 614.324L242.085 623.465L228.463 622.198ZM228.7 610.577L228.811 609.383L243.269 610.727L243.158 611.922L228.7 610.577ZM233.588 606.618L233.699 605.424L243.676 606.351L243.565 607.546L233.588 606.618ZM232.365 605.942C232.344 606.168 232.246 606.36 232.071 606.517C231.883 606.661 231.677 606.722 231.451 606.701C231.212 606.679 231.02 606.581 230.876 606.406C230.719 606.218 230.651 606.011 230.672 605.785C230.695 605.546 230.799 605.355 230.987 605.212C231.162 605.054 231.369 604.986 231.608 605.008C231.834 605.029 232.025 605.134 232.182 605.323C232.326 605.497 232.387 605.703 232.365 605.942ZM244.5 600.508C244.411 601.464 244.093 602.157 243.544 602.588C242.996 603.006 242.178 603.164 241.089 603.063L231.51 602.172L231.622 600.978L234.111 601.209L234.402 598.083L235.477 598.183L235.186 601.309L241.2 601.868C242.037 601.946 242.608 601.845 242.916 601.566C243.211 601.272 243.38 600.893 243.423 600.428C243.449 600.149 243.457 599.916 243.448 599.727C243.426 599.538 243.358 599.324 243.247 599.086L244.213 598.633C244.472 599.153 244.568 599.778 244.5 600.508ZM240.033 596.065C240.963 596.138 241.834 595.992 242.644 595.625C243.455 595.259 243.922 594.418 244.044 593.104C244.097 592.533 244.073 592.002 243.971 591.51C243.871 591.006 243.681 590.452 243.402 589.851L244.287 589.411C244.596 589.975 244.826 590.592 244.978 591.263C245.13 591.933 245.175 592.606 245.112 593.284C244.982 594.678 244.436 595.725 243.474 596.425C242.5 597.111 241.282 597.387 239.822 597.251C238.879 597.163 238.012 596.908 237.221 596.487C236.417 596.064 235.788 595.49 235.333 594.765C234.878 594.039 234.693 593.219 234.778 592.303C234.85 591.533 235.101 590.853 235.53 590.263C235.948 589.66 236.492 589.208 237.163 588.909C237.821 588.595 238.536 588.474 239.306 588.546C239.518 588.565 239.71 588.59 239.881 588.619C240.039 588.647 240.178 588.674 240.296 588.698L240.71 588.777L240.033 596.065ZM239.531 589.792C239.439 589.77 239.307 589.751 239.135 589.735C238.577 589.683 238.06 589.769 237.584 589.992C237.095 590.215 236.696 590.539 236.389 590.966C236.081 591.393 235.902 591.878 235.852 592.423C235.777 593.232 236.01 593.957 236.554 594.597C237.085 595.222 237.888 595.658 238.963 595.905L239.531 589.792Z" fill="#333333"/>
<g clip-path="url(#clip2_315_2146)">
<path d="M91.7073 326.291C81.1429 310.975 72.1699 298.193 64.5488 287.337C50.9467 267.961 41.6513 254.719 35.3017 244.161C30.4173 236.04 27.4838 229.827 25.7349 223.922C23.9985 218.058 23.3516 212.233 23.3516 204.787C23.3516 165.148 55.4852 133.015 95.1244 133.015C134.764 133.015 166.897 165.148 166.897 204.787C166.897 212.233 166.25 218.058 164.514 223.922C162.765 229.827 159.831 236.04 154.947 244.161C148.598 254.719 139.302 267.961 125.7 287.337C118.079 298.193 109.106 310.976 98.5412 326.291C96.8905 328.671 93.3574 328.67 91.7073 326.291Z" fill="#B31F1F" stroke="#F2F3F7" stroke-width="11"/>
<path d="M134.501 203.274L94.707 163.351L54.8087 203.169L94.6023 243.092L134.501 203.274Z" stroke="#FFD31F" stroke-width="3"/>
<path d="M134.501 211.828L94.707 171.905L54.8087 211.723L94.6023 251.646L134.501 211.828Z" stroke="#FFD31F" stroke-width="3"/>
<path d="M134.501 220.38L94.707 180.457L54.8087 220.275L94.6023 260.198L134.501 220.38Z" stroke="#FFD31F" stroke-width="3"/>
<path d="M94.2622 224.644V205.274H84.1016V203.366H106.499V205.274H96.4419V224.644H94.2622Z" fill="white"/>
</g>
<defs>
<clipPath id="clip0_315_2146">
<rect width="838" height="775" fill="white" transform="translate(41 35)"/>
</clipPath>
<clipPath id="clip1_315_2146">
<rect width="77" height="154" fill="white" transform="translate(178 507)"/>
</clipPath>
<clipPath id="clip2_315_2146">
<rect width="155.607" height="207.158" fill="white" transform="translate(17 127)"/>
</clipPath>
</defs>
</svg>
