<svg width="1075" height="848" viewBox="0 0 1075 848" fill="none" xmlns="http://www.w3.org/2000/svg">
<rect y="4" width="1075" height="844" fill="#F2F3F7"/>
<g clip-path="url(#clip0_315_2295)">
<path d="M321.86 15.9248C302.963 60.44 284.158 105.048 265.261 149.564C255.114 145.559 244.967 141.648 234.821 137.643C230.259 149.098 225.605 160.46 221.043 171.914C217.413 170.611 213.782 169.4 210.152 168.096L204.008 185.232C210.524 187.653 217.04 189.981 223.464 192.403L218.251 205.72C279.597 229.84 340.85 253.867 402.197 277.987C428.541 210.749 454.793 143.603 481.137 76.3649C468.291 71.336 455.444 66.214 442.598 61.1851C440.084 66.8659 437.571 72.6398 434.964 78.3206L421.094 73.1986C420.535 74.7818 420.07 76.3649 419.511 77.9481C410.947 74.4092 402.383 70.9635 393.819 67.4246C391.026 66.3071 389.816 63.0476 391.026 60.3469L391.212 59.8813C385.813 57.5531 380.414 55.2249 375.014 52.9898L378.459 43.9564C368.777 39.6725 359.096 35.4817 349.508 31.1978C349.787 30.4528 350.066 29.8009 350.345 29.0559L321.86 15.9248Z" fill="#9198A0"/>
<path d="M421.374 52.7104C426.401 54.9455 431.334 57.1806 436.361 59.3225C434.313 64.1652 432.265 69.0079 430.217 73.9437C425.004 71.6155 419.791 69.2873 414.578 66.9591C416.812 62.2095 419.046 57.46 421.374 52.7104Z" fill="white"/>
<path d="M118.921 182.438C204.191 215.405 289.369 248.373 374.639 281.34C361.141 317.287 347.736 353.328 334.238 389.275C336.472 389.927 338.706 390.579 340.847 391.138C340.01 393.839 339.265 396.539 338.427 399.24C263.303 370.743 188.18 342.153 113.149 313.655C119.014 299.407 124.878 285.065 130.743 270.817C128.416 269.885 126.182 268.954 123.854 268.023C123.389 269.42 122.924 270.723 122.458 272.12C112.404 268.395 102.351 264.577 92.2969 260.852C101.14 234.683 110.077 208.514 118.921 182.438Z" fill="#9198A0"/>
<path d="M275.128 378.007C294.956 385.643 314.784 393.187 334.519 400.823C318.601 441.986 302.682 483.148 286.857 524.311C266.749 516.395 246.642 508.572 226.441 500.657C242.732 459.773 258.93 418.89 275.128 378.007Z" fill="#9198A0"/>
<path d="M569 10L245 840" stroke="#9198A0" stroke-width="10" stroke-miterlimit="10" stroke-linecap="round" stroke-linejoin="round"/>
<path d="M586 10L264 840" stroke="#9198A0" stroke-width="10" stroke-miterlimit="10" stroke-linecap="round"/>
<path d="M339.918 835.825C343.548 826.698 350.81 808.166 354.626 798.294C366.356 768.307 368.124 763.837 372.22 756.014C381.436 738.32 385.067 737.202 393.631 720.811C402.847 703.21 406.757 688.962 409.363 680.394C415.507 659.813 427.423 624.983 453.022 561.097C453.581 559.7 455.07 559.048 456.467 559.607C509.528 581.119 565.941 602.818 626.542 620.885C650.932 628.149 675.322 635.506 699.711 642.77C702.597 643.329 709.579 644.167 717.305 640.908C727.266 636.717 731.827 628.522 733.038 626.193C742.347 613.155 751.749 600.211 761.058 587.173C762.733 585.31 771.018 575.997 783.865 575.718C788.892 575.625 792.988 576.929 795.78 578.139C798.48 580.654 801.179 583.168 803.879 585.776C842.232 644.446 880.585 703.117 918.938 761.695C930.854 780.879 942.676 800.064 954.592 819.248" stroke="#9198A0" stroke-width="10" stroke-miterlimit="10" stroke-linecap="round"/>
<path d="M163.067 163.707L139.508 155.219L136.89 162.492L160.449 170.979L163.067 163.707Z" stroke="#9198A0" stroke-width="10" stroke-miterlimit="10"/>
<path d="M364.959 524.125L348.669 518.723C344.387 517.327 342.152 512.484 343.828 508.293L369.242 444.035C370.824 440.03 375.292 438.075 379.295 439.565C384.601 441.52 390.001 443.476 395.307 445.432" stroke="#9198A0" stroke-width="4" stroke-miterlimit="10"/>
<path d="M422.955 272.958C425.375 274.355 430.402 276.963 435.336 278.174C436.732 278.546 438.408 278.825 439.897 277.894C441.201 277.149 441.759 275.752 442.038 275.007C453.302 247.721 510.18 109.239 510.925 102.627C511.204 100.02 510.18 98.0639 510.18 98.0639C509.808 97.412 508.97 96.1082 504.688 94.0594C500.127 91.8243 497.799 90.7068 495.193 91.4518C493.238 92.0105 491.935 93.3143 491.19 94.3388C465.963 160.18 440.735 226.022 415.508 291.77" stroke="#9198A0" stroke-width="4" stroke-miterlimit="10"/>
<path d="M33.1875 185.418C55.6222 187.839 77.9638 190.261 100.399 192.682C102.912 192.961 104.308 192.309 105.146 191.751C108.87 189.236 107.008 183.462 110.825 179.365C112.5 177.595 114.548 176.85 115.852 176.478C118.086 176.198 120.878 176.012 124.137 176.198C127.767 176.385 130.932 177.13 133.352 177.781C152.622 185.045 171.799 192.403 191.068 199.667C200.191 204.044 209.221 208.327 218.344 212.704C233.89 218.944 249.436 225.184 264.889 231.423C326.701 256.195 388.512 280.874 450.231 305.646" stroke="#9198A0" stroke-width="4" stroke-miterlimit="10" stroke-linecap="round"/>
<path d="M250.271 225.836C249.433 228.164 248.502 230.492 247.664 232.82" stroke="#9198A0" stroke-width="4" stroke-miterlimit="10"/>
<path d="M454.324 192.682C466.147 196.5 477.969 200.319 489.792 204.137" stroke="#9198A0" stroke-width="4" stroke-miterlimit="10"/>
<path d="M398.938 286.183C385.998 320.733 373.059 355.284 360.119 389.927C358.63 393.932 360.585 398.495 364.588 400.078C378.737 405.759 392.98 411.44 407.13 417.214" stroke="#9198A0" stroke-width="4" stroke-miterlimit="10"/>
<path d="M425.562 312.817C412.902 345.04 400.242 377.262 387.488 409.484" stroke="#9198A0" stroke-width="4" stroke-miterlimit="10"/>
<path d="M393.166 303.039L402.568 306.578C406.664 308.161 408.712 312.724 407.13 316.822C396.145 345.692 385.16 374.654 374.176 403.524" stroke="#9198A0" stroke-width="4" stroke-miterlimit="10"/>
<path d="M122.738 643.701C178.499 665.307 218.993 681.232 227.837 684.585C229.42 685.237 233.888 686.82 238.263 690.731C241.894 693.897 244.035 697.343 245.431 699.765C247.944 703.21 250.458 706.749 253.064 710.195C256.23 712.523 262.746 716.714 272.055 718.297C282.109 719.973 290.114 717.738 293.931 716.434" stroke="#9198A0" stroke-width="4" stroke-miterlimit="10" stroke-linecap="round"/>
<path d="M232.492 666.052C241.708 670.616 252.879 675.365 265.725 679.37C278.665 683.467 290.673 685.889 300.913 687.472" stroke="#9198A0" stroke-width="4" stroke-miterlimit="10" stroke-linecap="round"/>
<path d="M329.027 617.998C326.42 619.674 322.604 622.189 318.135 625.448C313.388 628.894 310.968 630.664 309.106 632.712C306.592 635.599 305.01 639.324 301.938 646.682C298.68 654.504 297.097 658.416 296.725 662.7C296.445 665.68 296.725 668.753 297.19 674.899C297.563 679.649 298.028 683.56 298.493 686.354" stroke="#9198A0" stroke-width="4" stroke-miterlimit="10"/>
<path d="M343.455 642.211C344.013 643.981 344.851 646.588 345.968 649.848C347.83 655.063 348.668 656.646 349.413 659.72C349.971 661.955 350.53 665.307 350.344 669.591C346.434 679.649 342.524 689.707 338.614 699.671C337.683 700.603 336.287 701.813 334.518 703.117C333.867 703.583 332.377 704.7 330.05 706.004C324.465 709.171 315.714 712.803 314.504 713.268" stroke="#9198A0" stroke-width="4" stroke-miterlimit="10"/>
</g>
<path d="M430.82 715.948C431.097 715.255 431.178 714.677 431.061 714.214C431.019 713.996 430.926 713.779 430.783 713.564C430.651 713.354 430.483 713.164 430.277 712.996L428.35 711.407L417.141 711.642L417.609 710.472L427.154 710.411L419.919 704.696L420.379 703.545L430.998 712.164C431.577 712.654 431.939 713.222 432.082 713.869C432.229 714.544 432.128 715.316 431.782 716.182L430.82 715.948ZM430.738 705.434C430.52 705.979 430.128 706.332 429.561 706.493L429.256 705.423C429.484 705.356 429.64 705.218 429.724 705.007C429.808 704.797 429.805 704.609 429.713 704.443C429.609 704.272 429.422 704.075 429.152 703.852C428.503 703.32 427.517 702.753 426.192 702.152C424.872 701.538 423.383 700.899 421.724 700.236L424.178 694.152L433.482 697.872L433.036 698.987L424.735 695.667L423.161 699.604C424.444 700.131 425.742 700.708 427.057 701.334C428.372 701.961 429.309 702.508 429.869 702.976C430.332 703.362 430.645 703.746 430.808 704.127C430.96 704.503 430.936 704.939 430.738 705.434ZM435.06 694.143C434.975 694.353 434.827 694.509 434.614 694.611C434.394 694.695 434.178 694.695 433.968 694.611C433.745 694.521 433.589 694.373 433.5 694.165C433.403 693.94 433.397 693.722 433.481 693.511C433.57 693.288 433.725 693.135 433.945 693.051C434.158 692.949 434.376 692.943 434.599 693.032C434.809 693.116 434.963 693.271 435.06 693.496C435.149 693.704 435.149 693.92 435.06 694.143ZM426.437 678.539L432.027 680.774L432.257 680.198C432.584 679.381 432.788 678.673 432.869 678.074C432.956 677.462 432.831 676.895 432.494 676.373C432.323 676.118 432.099 675.87 431.822 675.63C431.545 675.39 431.195 675.114 430.774 674.802C430.22 674.393 429.796 674.052 429.504 673.777C429.205 673.485 429.014 673.172 428.932 672.837C428.818 672.404 428.865 671.928 429.073 671.408C429.261 670.937 429.562 670.49 429.976 670.067L430.715 670.858C430.437 671.12 430.222 671.443 430.069 671.827C429.95 672.124 429.916 672.369 429.968 672.563C430.01 672.709 430.126 672.87 430.314 673.045C430.495 673.204 430.825 673.472 431.305 673.851C432.261 674.549 432.921 675.143 433.285 675.634C433.642 676.106 433.86 676.675 433.939 677.338C434.471 676.833 435.033 676.469 435.625 676.246C436.217 676.023 436.865 675.909 437.571 675.904C438.47 675.919 439.3 675.871 440.063 675.759C440.831 675.635 441.372 675.414 441.686 675.094L442.525 675.796C442.095 676.299 441.499 676.621 440.739 676.762C439.984 676.891 439.042 676.966 437.913 676.989L437.107 677.011C436.481 677.033 435.854 677.235 435.228 677.617C434.601 677.998 434.184 678.449 433.976 678.969L433.067 681.19L439.213 683.648L438.768 684.762L425.991 679.653L426.437 678.539ZM444.766 670.194C444.414 671.073 443.895 671.778 443.21 672.308C442.529 672.825 441.746 673.13 440.862 673.222C439.979 673.313 439.072 673.173 438.144 672.802C437.215 672.431 436.463 671.907 435.886 671.231C435.301 670.538 434.941 669.769 434.805 668.925C434.661 668.063 434.765 667.193 435.116 666.314C435.463 665.448 435.983 664.758 436.676 664.245C437.362 663.715 438.147 663.405 439.031 663.313C439.919 663.209 440.828 663.343 441.757 663.714C442.685 664.085 443.435 664.615 444.007 665.303C444.584 665.979 444.945 666.748 445.088 667.609C445.225 668.454 445.117 669.315 444.766 670.194ZM443.77 669.775C444.181 668.747 444.157 667.783 443.699 666.882C443.246 665.968 442.45 665.284 441.311 664.828C440.556 664.526 439.837 664.404 439.153 664.461C438.458 664.513 437.845 664.734 437.315 665.126C436.785 665.517 436.387 666.047 436.119 666.715C435.847 667.396 435.768 668.061 435.882 668.71C435.996 669.358 436.293 669.944 436.773 670.466C437.241 670.984 437.847 671.391 438.589 671.688C439.332 671.985 440.052 672.107 440.747 672.055C441.431 671.998 442.037 671.774 442.567 671.383C443.097 670.992 443.498 670.456 443.77 669.775ZM438.488 658.421L442.499 660.025C442.544 659.913 442.621 659.722 442.73 659.449C442.839 659.177 442.914 658.97 442.956 658.829C442.991 658.67 443.022 658.503 443.049 658.328C443.116 657.909 443.11 657.476 443.03 657.028C442.956 656.567 442.801 656.182 442.566 655.873L442.206 655.427C441.723 654.875 441.343 654.371 441.065 653.916C440.694 653.264 440.545 652.667 440.62 652.122L441.715 652.237C441.673 652.593 441.794 653.008 442.079 653.481C442.295 653.84 442.555 654.195 442.859 654.547C443.169 654.886 443.357 655.098 443.424 655.182C443.709 655.511 443.893 655.822 443.977 656.114C444.061 656.406 444.107 656.776 444.115 657.224C444.6 656.801 445.052 656.515 445.47 656.366C445.889 656.218 446.306 656.126 446.722 656.091C447.554 656.022 448.158 655.948 448.534 655.868C449.156 655.715 449.563 655.504 449.756 655.237L450.629 655.909C450.213 656.446 449.492 656.812 448.467 657.005C448.185 657.064 447.893 657.113 447.591 657.15C447.281 657.17 447.082 657.183 446.993 657.191C446.599 657.206 446.306 657.239 446.113 657.291C445.722 657.407 445.339 657.628 444.965 657.952C444.591 658.277 444.312 658.617 444.126 658.974C444.022 659.162 443.896 659.442 443.747 659.813C443.633 660.098 443.558 660.305 443.521 660.433L447.773 662.134L447.328 663.248L438.043 659.535L438.488 658.421ZM442.157 649.301L442.595 648.206L451.464 647.681L445.409 641.168L445.84 640.09L455.545 642.7L455.107 643.796L447.344 641.661L453.005 647.759L452.634 648.687L444.337 649.182L451.416 653.025L450.993 654.084L442.157 649.301ZM459.167 634.072C458.888 634.233 458.607 634.343 458.324 634.402C458.047 634.45 457.704 634.463 457.296 634.443C457.68 634.884 457.909 635.406 457.983 636.011C458.05 636.597 457.945 637.237 457.667 637.931C457.276 638.909 456.702 639.591 455.944 639.977C455.192 640.351 454.37 640.36 453.478 640.003C452.537 639.627 451.938 639.007 451.681 638.143C451.428 637.267 451.544 636.222 452.029 635.008L452.891 632.854L452.222 632.587C451.48 632.29 450.864 632.231 450.377 632.409C449.889 632.587 449.511 633.011 449.244 633.679C449.046 634.174 448.936 634.719 448.914 635.313C448.879 635.903 448.935 636.463 449.081 636.996L448.063 637.17C447.863 636.559 447.782 635.916 447.822 635.243C447.854 634.552 447.996 633.891 448.249 633.26C448.65 632.257 449.214 631.599 449.942 631.287C450.657 630.97 451.498 631.005 452.464 631.391L456.345 632.943C457.298 633.324 458.131 633.377 458.844 633.103L459.167 634.072ZM456.672 637.511C457.004 636.682 457.037 635.934 456.772 635.268C456.512 634.59 456.017 634.104 455.286 633.812L453.894 633.255L453.136 635.149C452.715 636.202 452.568 637.019 452.694 637.601C452.808 638.178 453.212 638.605 453.905 638.882C454.524 639.129 455.075 639.134 455.558 638.897C456.028 638.654 456.4 638.192 456.672 637.511ZM453.531 620.803L454.006 619.615L463.292 623.328L462.846 624.442L455.288 621.42L460.618 630.013L460.15 631.183L453.539 628.54C452.561 628.148 451.739 628.121 451.073 628.458L450.627 627.418C450.932 627.195 451.336 627.048 451.838 626.976C452.328 626.899 452.803 626.953 453.261 627.136L458.832 629.364L453.531 620.803ZM451.407 622.991C451.075 623.821 450.591 624.367 449.955 624.629C449.324 624.879 448.613 624.861 447.823 624.574L448.254 623.497C449.343 623.86 450.081 623.56 450.467 622.594C450.849 621.641 450.512 620.939 449.457 620.488L449.888 619.411C450.707 619.768 451.245 620.255 451.5 620.874C451.76 621.481 451.729 622.186 451.407 622.991ZM465.927 617.115C465.387 618.464 464.547 619.363 463.405 619.811C462.269 620.247 460.983 620.178 459.547 619.604C458.556 619.208 457.758 618.673 457.151 617.999C456.532 617.321 456.154 616.56 456.018 615.716C455.869 614.866 455.973 613.996 456.33 613.105C456.528 612.609 456.804 612.188 457.158 611.842C457.505 611.478 457.967 611.146 458.547 610.846L458.918 611.856C458.52 612.027 458.197 612.243 457.949 612.503C457.706 612.75 457.501 613.085 457.333 613.506C456.922 614.533 456.964 615.505 457.459 616.421C457.947 617.32 458.81 618.017 460.048 618.512C461.187 618.967 462.186 619.036 463.045 618.719C463.897 618.385 464.536 617.686 464.961 616.621C465.323 615.717 465.423 614.623 465.262 613.338L466.235 613.167C466.379 613.813 466.426 614.485 466.376 615.183C466.319 615.864 466.17 616.508 465.927 617.115ZM470.582 605.527C470.302 605.688 470.021 605.799 469.739 605.858C469.462 605.905 469.119 605.919 468.71 605.899C469.094 606.34 469.323 606.862 469.398 607.466C469.465 608.053 469.359 608.693 469.082 609.386C468.691 610.364 468.117 611.046 467.359 611.433C466.606 611.807 465.784 611.815 464.893 611.459C463.952 611.083 463.353 610.463 463.095 609.599C462.843 608.722 462.959 607.677 463.444 606.464L464.306 604.31L463.637 604.042C462.894 603.745 462.279 603.686 461.791 603.864C461.303 604.043 460.926 604.466 460.659 605.135C460.461 605.63 460.35 606.175 460.328 606.769C460.294 607.358 460.349 607.919 460.495 608.451L459.478 608.626C459.277 608.014 459.197 607.372 459.236 606.698C459.268 606.008 459.411 605.346 459.663 604.715C460.064 603.712 460.629 603.055 461.357 602.743C462.072 602.426 462.913 602.46 463.878 602.847L467.76 604.399C468.713 604.78 469.546 604.833 470.259 604.558L470.582 605.527ZM468.087 608.967C468.418 608.137 468.452 607.389 468.187 606.723C467.927 606.045 467.432 605.56 466.701 605.268L465.308 604.711L464.551 606.605C464.13 607.657 463.983 608.474 464.109 609.056C464.223 609.633 464.627 610.06 465.32 610.337C465.939 610.585 466.49 610.59 466.973 610.352C467.443 610.109 467.814 609.648 468.087 608.967Z" fill="#333333"/>
<path d="M431.887 502.049C432.159 501.354 432.235 500.775 432.115 500.313C432.071 500.095 431.977 499.88 431.832 499.665C431.699 499.456 431.529 499.268 431.322 499.101L429.382 497.527L418.176 497.849L418.634 496.675L428.178 496.541L420.899 490.882L421.35 489.727L432.036 498.263C432.619 498.749 432.985 499.314 433.134 499.96C433.285 500.634 433.191 501.406 432.851 502.276L431.887 502.049ZM431.724 491.536C431.51 492.082 431.121 492.438 430.555 492.604L430.242 491.536C430.469 491.468 430.624 491.328 430.707 491.117C430.789 490.906 430.784 490.718 430.691 490.552C430.586 490.382 430.397 490.187 430.126 489.966C429.473 489.439 428.482 488.88 427.152 488.289C425.828 487.685 424.334 487.058 422.67 486.408L425.077 480.305L434.409 483.953L433.972 485.071L425.646 481.816L424.102 485.765C425.389 486.282 426.692 486.849 428.011 487.465C429.331 488.081 430.272 488.621 430.836 489.084C431.302 489.467 431.618 489.848 431.784 490.228C431.938 490.603 431.918 491.039 431.724 491.536ZM435.958 480.211C435.875 480.422 435.728 480.579 435.516 480.682C435.296 480.768 435.081 480.77 434.869 480.688C434.646 480.6 434.489 480.453 434.398 480.246C434.3 480.021 434.292 479.803 434.374 479.592C434.462 479.369 434.615 479.214 434.835 479.128C435.047 479.025 435.265 479.017 435.488 479.104C435.699 479.187 435.854 479.34 435.952 479.565C436.043 479.772 436.045 479.987 435.958 480.211ZM442.006 465.453C441.54 466.645 440.822 467.603 439.852 468.326C438.882 469.049 437.787 469.488 436.568 469.641C435.348 469.794 434.149 469.64 432.969 469.179C431.764 468.708 430.746 467.981 429.914 466.997C429.081 466.013 428.54 464.907 428.291 463.678C428.041 462.45 428.139 461.264 428.586 460.121C428.994 459.078 429.611 458.196 430.437 457.474C431.268 456.739 432.302 456.585 433.538 457.011L433.101 458.129C432.267 457.846 431.56 458.006 430.981 458.61C430.406 459.201 429.968 459.882 429.667 460.652C429.303 461.583 429.245 462.555 429.493 463.568C429.729 464.577 430.204 465.485 430.918 466.294C431.633 467.103 432.481 467.7 433.462 468.083C434.406 468.452 435.381 468.576 436.388 468.454C437.382 468.327 438.28 467.97 439.083 467.382C439.89 466.781 440.488 465.984 440.877 464.99C441.231 464.084 441.354 463.166 441.245 462.235C441.141 461.293 440.829 460.462 440.308 459.743L441.298 459.078C441.952 460.006 442.336 461.037 442.451 462.17C442.567 463.303 442.418 464.398 442.006 465.453ZM440.432 455.966C441.306 456.294 442.189 456.395 443.082 456.272C443.963 456.144 444.643 455.465 445.124 454.236C445.323 453.726 445.439 453.228 445.472 452.74C445.493 452.247 445.465 451.642 445.387 450.924L446.359 450.746C446.5 451.374 446.551 452.031 446.512 452.717C446.473 453.403 446.329 454.063 446.082 454.696C445.572 456 444.758 456.856 443.64 457.263C442.514 457.653 441.268 457.581 439.902 457.047C438.995 456.693 438.22 456.204 437.576 455.58C436.92 454.951 436.477 454.234 436.248 453.429C436.024 452.611 436.082 451.768 436.421 450.898C436.703 450.178 437.123 449.598 437.682 449.158C438.228 448.713 438.862 448.445 439.584 448.355C440.299 448.248 441.029 448.34 441.774 448.632C441.973 448.709 442.15 448.786 442.307 448.861C442.451 448.932 442.577 448.995 442.684 449.051L443.06 449.242L440.432 455.966ZM441.683 449.798C441.601 449.752 441.479 449.697 441.318 449.634C440.759 449.416 440.214 449.346 439.682 449.424C439.138 449.498 438.659 449.697 438.246 450.022C437.832 450.347 437.526 450.765 437.327 451.274C437.031 452.031 437.062 452.795 437.419 453.565C437.764 454.329 438.441 454.98 439.448 455.517L441.683 449.798ZM440.375 441.004C440.739 440.073 441.248 439.449 441.902 439.132C442.543 438.81 443.186 438.775 443.832 439.027C444.18 439.163 444.492 439.371 444.769 439.651C445.051 439.919 445.26 440.244 445.397 440.627C445.82 440.277 446.304 440.065 446.848 439.991C447.392 439.918 447.925 439.983 448.447 440.187C449.167 440.468 449.687 440.951 450.007 441.634C450.319 442.3 450.319 443.088 450.007 443.996L448.249 448.549L438.879 444.886L440.375 441.004ZM444.363 442.284C444.498 441.793 444.469 441.352 444.278 440.962C444.092 440.56 443.8 440.282 443.402 440.126C442.993 439.966 442.609 439.995 442.252 440.213C441.899 440.419 441.621 440.783 441.417 441.304L440.281 444.21L443.187 445.346L444.363 442.284ZM448.983 443.704C449.192 443.17 449.216 442.685 449.057 442.251C448.885 441.811 448.538 441.49 448.017 441.286C447.52 441.092 447.031 441.079 446.55 441.249C446.056 441.414 445.693 441.773 445.462 442.327L444.156 445.725L447.639 447.086L448.983 443.704ZM447.905 436.848C448.779 437.175 449.663 437.277 450.556 437.154C451.436 437.025 452.117 436.346 452.597 435.117C452.796 434.608 452.912 434.109 452.946 433.621C452.967 433.128 452.938 432.523 452.861 431.806L453.832 431.627C453.974 432.255 454.025 432.912 453.985 433.598C453.946 434.284 453.803 434.944 453.555 435.577C453.046 436.881 452.232 437.737 451.113 438.145C449.987 438.535 448.741 438.463 447.375 437.929C446.469 437.574 445.693 437.085 445.05 436.461C444.394 435.833 443.951 435.116 443.722 434.31C443.497 433.493 443.555 432.649 443.895 431.78C444.177 431.06 444.597 430.479 445.155 430.039C445.701 429.594 446.336 429.327 447.058 429.237C447.773 429.13 448.503 429.222 449.248 429.513C449.446 429.591 449.624 429.667 449.781 429.743C449.925 429.813 450.05 429.877 450.157 429.933L450.534 430.123L447.905 436.848ZM449.156 430.68C449.074 430.633 448.953 430.579 448.791 430.516C448.232 430.297 447.687 430.227 447.155 430.306C446.611 430.379 446.132 430.579 445.719 430.904C445.306 431.229 444.999 431.646 444.8 432.155C444.504 432.913 444.535 433.676 444.893 434.446C445.238 435.211 445.914 435.862 446.921 436.398L449.156 430.68ZM447.796 421.801C448.131 420.944 448.632 420.302 449.3 419.876C449.96 419.433 450.708 419.203 451.545 419.186C452.387 419.157 453.248 419.315 454.13 419.66C455.086 420.034 455.86 420.544 456.452 421.19C457.044 421.837 457.418 422.584 457.573 423.432C457.716 424.275 457.603 425.169 457.234 426.113C457.112 426.423 456.743 427.131 456.125 428.235L461.024 430.15L460.609 431.212L449.209 426.755C448.228 426.372 447.406 426.351 446.742 426.693L446.289 425.657C446.52 425.504 446.805 425.379 447.144 425.282C447.482 425.185 447.823 425.154 448.168 425.189C447.396 424.271 447.272 423.142 447.796 421.801ZM456.191 425.813C456.648 424.645 456.655 423.639 456.212 422.793C455.762 421.93 454.953 421.27 453.786 420.814C452.681 420.382 451.662 420.277 450.731 420.5C449.804 420.71 449.166 421.263 448.816 422.157C448.54 422.865 448.509 423.583 448.725 424.312C448.947 425.028 449.395 425.547 450.071 425.868L455.194 427.871C455.752 426.772 456.085 426.086 456.191 425.813ZM462.667 411.663L462.23 412.781L458.151 411.186L456.141 416.327L460.213 417.941L459.769 419.077L452.765 416.339C452.095 416.077 451.4 416.077 450.682 416.341L450.247 415.312C450.765 415.085 451.263 414.964 451.74 414.951C452.218 414.937 452.699 415.025 453.184 415.214L455.102 415.964L457.126 410.786L452.917 409.14L453.354 408.022L462.667 411.663ZM465.551 404.835C465.206 405.717 464.693 406.426 464.012 406.961C463.335 407.484 462.555 407.794 461.672 407.893C460.788 407.991 459.881 407.859 458.95 407.495C458.018 407.131 457.262 406.613 456.679 405.941C456.09 405.253 455.723 404.487 455.581 403.644C455.43 402.783 455.527 401.912 455.872 401.03C456.212 400.161 456.726 399.468 457.416 398.95C458.097 398.414 458.88 398.097 459.763 397.999C460.651 397.888 461.56 398.014 462.492 398.379C463.423 398.743 464.178 399.267 464.755 399.95C465.337 400.622 465.703 401.388 465.854 402.248C465.997 403.091 465.896 403.954 465.551 404.835ZM464.552 404.424C464.955 403.393 464.924 402.429 464.459 401.531C463.999 400.621 463.197 399.943 462.055 399.496C461.297 399.2 460.577 399.083 459.894 399.146C459.199 399.203 458.588 399.429 458.061 399.825C457.534 400.22 457.14 400.753 456.878 401.424C456.611 402.107 456.537 402.772 456.656 403.42C456.775 404.068 457.077 404.651 457.561 405.169C458.033 405.683 458.642 406.086 459.387 406.377C460.132 406.668 460.852 406.785 461.547 406.728C462.23 406.665 462.835 406.437 463.362 406.041C463.889 405.646 464.285 405.107 464.552 404.424ZM463.976 395.736C464.85 396.064 465.733 396.166 466.626 396.042C467.507 395.914 468.187 395.235 468.668 394.006C468.867 393.497 468.983 392.998 469.016 392.51C469.037 392.017 469.009 391.412 468.931 390.695L469.903 390.516C470.044 391.144 470.095 391.801 470.056 392.487C470.017 393.173 469.873 393.833 469.626 394.466C469.116 395.77 468.302 396.626 467.184 397.033C466.058 397.423 464.812 397.352 463.446 396.818C462.539 396.463 461.764 395.974 461.12 395.35C460.464 394.722 460.021 394.005 459.792 393.199C459.568 392.381 459.626 391.538 459.965 390.669C460.247 389.948 460.667 389.368 461.226 388.928C461.772 388.483 462.406 388.215 463.128 388.126C463.843 388.018 464.573 388.11 465.318 388.402C465.517 388.479 465.694 388.556 465.851 388.632C465.995 388.702 466.121 388.766 466.228 388.822L466.604 389.012L463.976 395.736ZM465.227 389.569C465.145 389.522 465.023 389.467 464.862 389.404C464.303 389.186 463.758 389.116 463.226 389.194C462.682 389.268 462.203 389.467 461.79 389.793C461.376 390.118 461.07 390.535 460.871 391.044C460.575 391.801 460.606 392.565 460.963 393.335C461.308 394.1 461.985 394.75 462.992 395.287L465.227 389.569ZM465.02 378.176L469.044 379.749C469.088 379.637 469.163 379.445 469.27 379.172C469.377 378.899 469.45 378.691 469.491 378.55C469.525 378.391 469.554 378.224 469.58 378.048C469.644 377.629 469.634 377.196 469.551 376.748C469.474 376.288 469.316 375.904 469.078 375.597L468.714 375.154C468.227 374.606 467.843 374.105 467.562 373.651C467.186 373.003 467.033 372.406 467.103 371.861L468.199 371.968C468.16 372.324 468.284 372.738 468.573 373.209C468.791 373.566 469.054 373.919 469.361 374.269C469.673 374.605 469.863 374.816 469.931 374.899C470.218 375.226 470.405 375.536 470.491 375.827C470.578 376.118 470.626 376.488 470.637 376.936C471.119 376.509 471.569 376.22 471.986 376.068C472.403 375.916 472.82 375.821 473.236 375.783C474.067 375.707 474.67 375.628 475.046 375.546C475.666 375.388 476.072 375.174 476.263 374.905L477.141 375.57C476.729 376.111 476.012 376.482 474.988 376.683C474.707 376.745 474.415 376.795 474.113 376.835C473.804 376.857 473.604 376.872 473.515 376.88C473.122 376.898 472.829 376.934 472.636 376.987C472.246 377.107 471.865 377.33 471.494 377.658C471.122 377.985 470.845 378.327 470.662 378.685C470.56 378.874 470.436 379.155 470.29 379.528C470.179 379.813 470.105 380.021 470.068 380.15L474.334 381.817L473.897 382.935L464.584 379.294L465.02 378.176ZM479.346 369.545C479.001 370.427 478.488 371.135 477.807 371.671C477.13 372.193 476.35 372.504 475.467 372.603C474.583 372.701 473.676 372.569 472.745 372.204C471.813 371.84 471.057 371.323 470.475 370.651C469.885 369.963 469.518 369.197 469.376 368.354C469.225 367.493 469.322 366.622 469.667 365.74C470.007 364.871 470.521 364.177 471.211 363.659C471.892 363.124 472.675 362.807 473.558 362.709C474.446 362.598 475.356 362.724 476.287 363.088C477.218 363.452 477.973 363.976 478.55 364.66C479.132 365.332 479.498 366.097 479.649 366.958C479.792 367.801 479.691 368.664 479.346 369.545ZM478.347 369.133C478.75 368.103 478.719 367.139 478.254 366.241C477.794 365.331 476.992 364.653 475.85 364.206C475.092 363.91 474.372 363.793 473.689 363.855C472.994 363.913 472.383 364.139 471.856 364.535C471.33 364.93 470.935 365.463 470.673 366.133C470.406 366.816 470.332 367.482 470.451 368.13C470.57 368.777 470.872 369.361 471.356 369.879C471.828 370.393 472.437 370.796 473.182 371.087C473.927 371.378 474.647 371.495 475.342 371.438C476.025 371.375 476.63 371.146 477.157 370.751C477.684 370.356 478.08 369.816 478.347 369.133ZM482.126 362.599C481.912 363.146 481.522 363.502 480.957 363.667L480.644 362.6C480.871 362.531 481.026 362.391 481.108 362.18C481.191 361.969 481.186 361.781 481.093 361.616C480.987 361.446 480.799 361.251 480.527 361.03C479.874 360.503 478.883 359.943 477.554 359.352C476.23 358.749 474.735 358.122 473.071 357.471L475.478 351.369L484.811 355.017L484.374 356.134L476.047 352.879L474.504 356.828C475.79 357.346 477.093 357.912 478.413 358.528C479.733 359.144 480.674 359.684 481.237 360.148C481.703 360.53 482.019 360.912 482.186 361.292C482.34 361.667 482.32 362.103 482.126 362.599ZM477.088 347.307L480.385 348.595L481.633 345.347C481.878 344.756 482.231 344.292 482.692 343.957C483.14 343.617 483.648 343.415 484.217 343.351C484.786 343.287 485.356 343.367 485.927 343.59C486.871 343.959 487.496 344.54 487.802 345.332C488.1 346.107 488.043 346.986 487.629 347.97L485.964 352.065L476.651 348.424L477.088 347.307ZM486.543 347.674C486.809 346.919 486.845 346.296 486.651 345.805C486.444 345.309 486.067 344.954 485.521 344.741C484.937 344.513 484.367 344.505 483.812 344.717C483.244 344.925 482.826 345.391 482.556 346.116L481.409 348.996L485.414 350.561L486.543 347.674ZM495.787 334.627L495.35 335.745L492.743 334.725L489.641 342.66L480.327 339.02L480.764 337.902L489.034 341.135L491.139 335.752L482.868 332.519L483.305 331.401L491.576 334.634L492.129 333.218L495.787 334.627ZM495.623 327.907C495.278 328.788 494.765 329.497 494.083 330.032C493.407 330.555 492.627 330.865 491.743 330.964C490.86 331.063 489.953 330.93 489.022 330.566C488.09 330.202 487.333 329.684 486.751 329.013C486.161 328.324 485.795 327.558 485.652 326.715C485.502 325.854 485.599 324.983 485.944 324.102C486.284 323.232 486.798 322.539 487.487 322.021C488.169 321.485 488.951 321.169 489.835 321.07C490.723 320.959 491.632 321.086 492.564 321.45C493.495 321.814 494.249 322.338 494.827 323.021C495.409 323.693 495.775 324.459 495.926 325.319C496.068 326.162 495.967 327.025 495.623 327.907ZM494.624 327.495C495.027 326.464 494.996 325.5 494.531 324.602C494.071 323.692 493.269 323.014 492.127 322.567C491.369 322.271 490.649 322.154 489.966 322.217C489.271 322.274 488.66 322.5 488.133 322.896C487.606 323.291 487.212 323.824 486.95 324.495C486.683 325.178 486.609 325.843 486.728 326.491C486.847 327.139 487.148 327.722 487.633 328.241C488.105 328.754 488.713 329.157 489.458 329.448C490.204 329.739 490.924 329.856 491.619 329.799C492.302 329.736 492.907 329.508 493.434 329.112C493.96 328.717 494.357 328.178 494.624 327.495Z" fill="#333333"/>
<path d="M347.407 117.683L347.992 123.674L348.609 123.614C349.485 123.528 350.208 123.384 350.778 123.181C351.36 122.977 351.806 122.605 352.115 122.066C352.263 121.797 352.38 121.484 352.466 121.127C352.551 120.77 352.636 120.333 352.719 119.816C352.827 119.136 352.936 118.603 353.045 118.217C353.167 117.817 353.357 117.503 353.617 117.277C353.949 116.976 354.394 116.799 354.951 116.745C355.455 116.695 355.991 116.757 356.557 116.929L356.194 117.949C355.834 117.824 355.448 117.781 355.036 117.821C354.718 117.852 354.485 117.936 354.337 118.071C354.227 118.175 354.137 118.351 354.067 118.599C354.01 118.833 353.923 119.25 353.808 119.85C353.627 121.02 353.403 121.879 353.135 122.428C352.88 122.962 352.475 123.417 351.922 123.793C352.616 124.033 353.197 124.365 353.668 124.788C354.138 125.21 354.537 125.734 354.866 126.358C355.266 127.163 355.691 127.879 356.141 128.505C356.604 129.129 357.049 129.508 357.478 129.64L357.24 130.708C356.596 130.557 356.036 130.176 355.561 129.566C355.1 128.955 354.599 128.153 354.06 127.161L353.67 126.455C353.362 125.909 352.895 125.446 352.268 125.065C351.641 124.684 351.049 124.521 350.492 124.576L348.101 124.789L348.745 131.378L347.551 131.494L346.212 117.8L347.407 117.683ZM366.76 129.737C366.489 129.563 366.262 129.364 366.079 129.141C365.91 128.916 365.74 128.618 365.57 128.246C365.355 128.789 364.996 129.233 364.494 129.577C364.004 129.906 363.387 130.107 362.644 130.18C361.596 130.282 360.726 130.086 360.034 129.591C359.356 129.095 358.97 128.369 358.877 127.413C358.778 126.405 359.053 125.587 359.702 124.961C360.364 124.334 361.346 123.957 362.646 123.829L364.955 123.604L364.885 122.887C364.807 122.091 364.577 121.517 364.194 121.166C363.812 120.815 363.262 120.675 362.546 120.745C362.015 120.797 361.48 120.949 360.943 121.203C360.403 121.443 359.931 121.75 359.526 122.125L358.902 121.302C359.353 120.842 359.887 120.475 360.503 120.201C361.131 119.912 361.784 119.734 362.46 119.668C363.535 119.563 364.379 119.762 364.99 120.265C365.601 120.754 365.957 121.516 366.058 122.551L366.465 126.712C366.565 127.733 366.9 128.498 367.473 129.004L366.76 129.737ZM362.559 129.103C363.448 129.016 364.127 128.702 364.597 128.16C365.08 127.617 365.283 126.954 365.206 126.172L365.06 124.679L363.03 124.877C361.902 124.987 361.109 125.232 360.65 125.612C360.19 125.979 359.997 126.533 360.069 127.277C360.134 127.94 360.383 128.431 360.816 128.751C361.248 129.057 361.829 129.174 362.559 129.103ZM372.489 129.318C371.799 129.385 371.105 129.346 370.408 129.2C369.724 129.052 369.122 128.796 368.604 128.432L369.249 127.625C369.551 127.837 369.996 128.008 370.585 128.138C371.173 128.254 371.765 128.283 372.362 128.225C372.999 128.163 373.559 128.001 374.043 127.739C374.526 127.478 374.89 127.154 375.134 126.769C375.391 126.382 375.498 125.969 375.455 125.531C375.402 124.987 375.15 124.536 374.7 124.178C374.263 123.819 373.712 123.672 373.049 123.737L370.68 123.969L370.581 122.953L372.932 122.744C373.409 122.697 373.801 122.525 374.107 122.227C374.413 121.929 374.547 121.588 374.509 121.203C374.457 120.672 374.114 120.31 373.479 120.118C372.844 119.926 372.161 119.865 371.431 119.936C370.489 120.028 369.6 120.256 368.765 120.619L368.427 119.627C369.455 119.178 370.513 118.901 371.601 118.794C372.411 118.715 373.113 118.774 373.708 118.97C374.317 119.165 374.786 119.448 375.117 119.817C375.461 120.185 375.656 120.595 375.7 121.046C375.736 121.418 375.671 121.786 375.506 122.15C375.353 122.5 375.139 122.776 374.863 122.977C375.415 123.271 375.83 123.612 376.109 124.001C376.401 124.387 376.581 124.852 376.647 125.395C376.733 126.137 376.59 126.794 376.217 127.366C375.843 127.925 375.324 128.371 374.66 128.704C373.996 129.037 373.272 129.241 372.489 129.318ZM378.783 121.227C378.681 120.179 378.327 119.436 377.721 119L378.44 118.126C378.778 118.294 379.094 118.584 379.389 118.998C379.683 119.398 379.854 119.843 379.902 120.334L380.044 121.787L383.505 121.429C384.129 121.368 384.694 121.467 385.202 121.725C385.722 121.969 386.139 122.337 386.455 122.828C386.77 123.307 386.957 123.851 387.017 124.461C387.117 125.483 386.934 126.285 386.468 126.866C386.001 127.434 385.244 127.77 384.195 127.872L379.478 128.333L378.783 121.227ZM387.602 117.492L388.796 117.375L389.769 127.327L388.574 127.444L387.602 117.492ZM384.025 126.743C384.662 126.681 385.134 126.447 385.443 126.042C385.751 125.624 385.878 125.149 385.826 124.618C385.771 124.047 385.554 123.546 385.177 123.114C384.8 122.682 384.339 122.493 383.795 122.546L380.153 122.902L380.563 127.102L384.025 126.743ZM400.988 126.231L399.794 126.347L399.368 121.988L393.874 122.525L394.28 126.886L393.066 127.005L392.334 119.521C392.264 118.804 391.949 118.185 391.389 117.664L392.109 116.81C392.546 117.169 392.879 117.558 393.108 117.978C393.336 118.398 393.476 118.867 393.527 119.384L393.727 121.434L399.261 120.893L398.821 116.395L400.015 116.278L400.988 126.231ZM410.905 125.422C410.634 125.248 410.407 125.049 410.224 124.825C410.055 124.601 409.885 124.303 409.715 123.931C409.5 124.474 409.141 124.918 408.639 125.262C408.149 125.591 407.532 125.792 406.789 125.865C405.741 125.967 404.871 125.771 404.179 125.276C403.501 124.779 403.115 124.053 403.022 123.098C402.923 122.089 403.199 121.272 403.847 120.646C404.509 120.019 405.491 119.641 406.791 119.514L409.1 119.288L409.03 118.572C408.952 117.776 408.722 117.202 408.339 116.851C407.957 116.5 407.407 116.359 406.691 116.429C406.16 116.481 405.625 116.634 405.088 116.887C404.548 117.128 404.076 117.435 403.671 117.81L403.048 116.986C403.498 116.527 404.032 116.16 404.648 115.886C405.276 115.596 405.929 115.419 406.605 115.353C407.68 115.247 408.524 115.446 409.135 115.949C409.746 116.439 410.102 117.201 410.203 118.236L410.61 122.396C410.71 123.418 411.046 124.182 411.618 124.689L410.905 125.422ZM406.704 124.788C407.593 124.701 408.272 124.387 408.742 123.845C409.225 123.302 409.428 122.639 409.351 121.856L409.205 120.363L407.175 120.562C406.047 120.672 405.254 120.917 404.795 121.297C404.335 121.663 404.142 122.218 404.214 122.961C404.279 123.625 404.528 124.116 404.961 124.436C405.393 124.742 405.974 124.859 406.704 124.788Z" fill="white"/>
<path d="M159.272 281.94C158.632 281.36 158.312 280.86 158.312 280.44C158.312 280.06 158.632 279.58 159.272 279L165.482 273.45L166.652 274.74L160.052 280.44L166.652 286.17L165.482 287.46L159.272 281.94ZM153.032 281.94C152.392 281.36 152.072 280.86 152.072 280.44C152.072 280.06 152.392 279.58 153.032 279L159.242 273.45L160.412 274.74L153.812 280.44L160.412 286.17L159.242 287.46L153.032 281.94ZM175.966 269.16H168.946V267.48H184.786V269.16H177.766V288H175.966V269.16ZM191.773 288.3C190.353 288.3 189.083 287.97 187.963 287.31C186.863 286.65 186.003 285.73 185.383 284.55C184.763 283.37 184.453 282.03 184.453 280.53C184.453 279.03 184.763 277.69 185.383 276.51C186.023 275.31 186.893 274.38 187.993 273.72C189.113 273.04 190.383 272.7 191.803 272.7C193.203 272.7 194.453 273.04 195.553 273.72C196.673 274.38 197.543 275.3 198.163 276.48C198.803 277.66 199.123 279 199.123 280.5C199.123 282 198.803 283.34 198.163 284.52C197.543 285.7 196.673 286.63 195.553 287.31C194.453 287.97 193.193 288.3 191.773 288.3ZM191.803 286.68C193.463 286.68 194.793 286.11 195.793 284.97C196.813 283.83 197.323 282.34 197.323 280.5C197.323 279.28 197.093 278.21 196.633 277.29C196.173 276.35 195.523 275.62 194.683 275.1C193.843 274.58 192.883 274.32 191.803 274.32C190.703 274.32 189.733 274.58 188.893 275.1C188.053 275.62 187.403 276.36 186.943 277.32C186.483 278.26 186.253 279.33 186.253 280.53C186.253 281.73 186.483 282.8 186.943 283.74C187.403 284.66 188.053 285.38 188.893 285.9C189.733 286.42 190.703 286.68 191.803 286.68ZM203.775 273.03H205.545L211.215 285.09L216.915 273.03H218.655L220.425 288H218.655L217.305 276L211.965 287.28H210.465L205.155 276L203.745 288H202.035L203.775 273.03ZM235.24 273H237.16V288H235.36V275.79L226.36 288H224.47V277.32C224.47 275.74 224.05 274.58 223.21 273.84L224.41 272.64C224.89 272.94 225.32 273.42 225.7 274.08C226.08 274.72 226.27 275.41 226.27 276.15V285.15L235.24 273ZM248.288 272.76C249.668 272.76 250.838 273.11 251.798 273.81C252.778 274.49 253.508 275.41 253.988 276.57C254.488 277.73 254.738 279.02 254.738 280.44C254.738 281.98 254.448 283.34 253.868 284.52C253.288 285.7 252.448 286.63 251.348 287.31C250.248 287.97 248.938 288.3 247.418 288.3C246.918 288.3 245.728 288.17 243.848 287.91V295.8H242.138V277.44C242.138 275.86 241.718 274.7 240.878 273.96L242.078 272.76C242.418 273 242.748 273.33 243.068 273.75C243.388 274.17 243.618 274.63 243.758 275.13C244.618 273.55 246.128 272.76 248.288 272.76ZM247.268 286.68C249.148 286.68 250.558 286.14 251.498 285.06C252.458 283.96 252.938 282.47 252.938 280.59C252.938 278.81 252.528 277.33 251.708 276.15C250.908 274.97 249.788 274.38 248.348 274.38C247.208 274.38 246.188 274.73 245.288 275.43C244.408 276.13 243.928 277.04 243.848 278.16V286.41C245.688 286.59 246.828 286.68 247.268 286.68ZM269.342 273H271.262V288H269.462V275.79L260.462 288H258.572V277.32C258.572 275.74 258.152 274.58 257.312 273.84L258.512 272.64C258.992 272.94 259.422 273.42 259.802 274.08C260.182 274.72 260.372 275.41 260.372 276.15V285.15L269.342 273ZM281.969 288.21C279.789 288.21 278.069 287.54 276.809 286.2C275.569 284.86 274.949 283.03 274.949 280.71C274.949 279.11 275.249 277.7 275.849 276.48C276.449 275.24 277.299 274.29 278.399 273.63C279.499 272.95 280.769 272.61 282.209 272.61C283.009 272.61 283.749 272.76 284.429 273.06C285.129 273.34 285.849 273.8 286.589 274.44L285.389 275.52C284.929 275.06 284.449 274.73 283.949 274.53C283.469 274.33 282.889 274.23 282.209 274.23C280.549 274.23 279.219 274.83 278.219 276.03C277.239 277.21 276.749 278.8 276.749 280.8C276.749 282.64 277.209 284.07 278.129 285.09C279.069 286.09 280.399 286.59 282.119 286.59C283.579 286.59 285.159 286.12 286.859 285.18L287.639 286.44C286.819 287 285.909 287.44 284.909 287.76C283.929 288.06 282.949 288.21 281.969 288.21ZM302.17 280.47L295.69 274.74L296.8 273.51L302.98 279.03C303.2 279.23 303.44 279.48 303.7 279.78C303.86 280.04 303.94 280.27 303.94 280.47C303.94 280.85 303.62 281.33 302.98 281.91L296.8 287.43L295.69 286.2L302.17 280.47ZM295.93 280.47L289.45 274.74L290.56 273.51L296.74 279.03C296.96 279.23 297.2 279.48 297.46 279.78C297.62 280.04 297.7 280.27 297.7 280.47C297.7 280.85 297.38 281.33 296.74 281.91L290.56 287.43L289.45 286.2L295.93 280.47ZM174.536 299.32C175.709 299.32 176.642 299.713 177.336 300.5C178.042 301.287 178.396 302.32 178.396 303.6C178.396 304.973 177.956 306.04 177.076 306.8C176.209 307.547 174.902 307.92 173.156 307.92C172.476 307.92 171.882 307.907 171.376 307.88V313.02H170.176V299.32H174.536ZM173.396 306.8C174.622 306.8 175.562 306.52 176.216 305.96C176.869 305.387 177.196 304.58 177.196 303.54C177.196 302.567 176.929 301.807 176.396 301.26C175.862 300.713 175.149 300.44 174.256 300.44H171.376V306.74L172.096 306.76C172.736 306.787 173.169 306.8 173.396 306.8ZM180.247 305.86C180.247 304.807 179.967 304.033 179.407 303.54L180.207 302.74C180.527 302.94 180.814 303.26 181.067 303.7C181.32 304.127 181.447 304.587 181.447 305.08V306.54L184.927 306.52C185.554 306.52 186.107 306.673 186.587 306.98C187.08 307.273 187.46 307.68 187.727 308.2C187.994 308.707 188.127 309.267 188.127 309.88C188.127 310.907 187.867 311.687 187.347 312.22C186.827 312.74 186.04 313 184.987 313H180.247V305.86ZM189.387 303H190.587V313H189.387V303ZM184.927 311.86C185.567 311.86 186.06 311.673 186.407 311.3C186.754 310.913 186.927 310.453 186.927 309.92C186.927 309.347 186.76 308.827 186.427 308.36C186.094 307.893 185.654 307.66 185.107 307.66H181.447V311.88L184.927 311.86ZM201.86 313H200.66V308.62H195.14L195.12 313H193.9V305.48C193.9 304.76 193.646 304.113 193.14 303.54L193.94 302.76C194.34 303.16 194.633 303.58 194.82 304.02C195.006 304.46 195.1 304.94 195.1 305.46V307.52H200.66V303H201.86V313ZM209.269 313.2C208.322 313.2 207.475 312.98 206.729 312.54C205.995 312.1 205.422 311.487 205.009 310.7C204.595 309.913 204.389 309.02 204.389 308.02C204.389 307.02 204.595 306.127 205.009 305.34C205.435 304.54 206.015 303.92 206.749 303.48C207.495 303.027 208.342 302.8 209.289 302.8C210.222 302.8 211.055 303.027 211.789 303.48C212.535 303.92 213.115 304.533 213.529 305.32C213.955 306.107 214.169 307 214.169 308C214.169 309 213.955 309.893 213.529 310.68C213.115 311.467 212.535 312.087 211.789 312.54C211.055 312.98 210.215 313.2 209.269 313.2ZM209.289 312.12C210.395 312.12 211.282 311.74 211.949 310.98C212.629 310.22 212.969 309.227 212.969 308C212.969 307.187 212.815 306.473 212.509 305.86C212.202 305.233 211.769 304.747 211.209 304.4C210.649 304.053 210.009 303.88 209.289 303.88C208.555 303.88 207.909 304.053 207.349 304.4C206.789 304.747 206.355 305.24 206.049 305.88C205.742 306.507 205.589 307.22 205.589 308.02C205.589 308.82 205.742 309.533 206.049 310.16C206.355 310.773 206.789 311.253 207.349 311.6C207.909 311.947 208.555 312.12 209.289 312.12ZM217.87 303V307.32C217.99 307.32 218.197 307.32 218.49 307.32C218.783 307.32 219.003 307.313 219.15 307.3C219.31 307.273 219.477 307.24 219.65 307.2C220.063 307.107 220.463 306.94 220.85 306.7C221.25 306.46 221.55 306.173 221.75 305.84L222.03 305.34C222.363 304.687 222.69 304.147 223.01 303.72C223.477 303.133 223.977 302.773 224.51 302.64L224.81 303.7C224.463 303.793 224.123 304.06 223.79 304.5C223.537 304.833 223.303 305.207 223.09 305.62C222.89 306.033 222.763 306.287 222.71 306.38C222.51 306.767 222.29 307.053 222.05 307.24C221.81 307.427 221.483 307.607 221.07 307.78C221.643 308.073 222.077 308.387 222.37 308.72C222.663 309.053 222.903 309.407 223.09 309.78C223.463 310.527 223.757 311.06 223.97 311.38C224.343 311.9 224.69 312.2 225.01 312.28L224.71 313.34C224.057 313.153 223.45 312.62 222.89 311.74C222.73 311.5 222.577 311.247 222.43 310.98C222.297 310.7 222.21 310.52 222.17 310.44C222.01 310.08 221.87 309.82 221.75 309.66C221.497 309.34 221.15 309.067 220.71 308.84C220.27 308.613 219.85 308.48 219.45 308.44C219.237 308.413 218.93 308.4 218.53 308.4C218.223 308.4 218.003 308.407 217.87 308.42V313H216.67V303H217.87ZM237.625 298.94H238.005L243.885 313H242.605L240.665 308.46H234.965L233.065 313H231.785L237.625 298.94ZM238.305 302.66C238.092 302.127 237.925 301.607 237.805 301.1C237.645 301.727 237.485 302.247 237.325 302.66L235.445 307.34H240.185L238.305 302.66ZM250.168 302.84C251.088 302.84 251.868 303.073 252.508 303.54C253.161 303.993 253.648 304.607 253.968 305.38C254.301 306.153 254.468 307.013 254.468 307.96C254.468 308.987 254.274 309.893 253.888 310.68C253.501 311.467 252.941 312.087 252.208 312.54C251.474 312.98 250.601 313.2 249.588 313.2C249.254 313.2 248.461 313.113 247.208 312.94V318.2H246.068V305.96C246.068 304.907 245.788 304.133 245.228 303.64L246.028 302.84C246.254 303 246.474 303.22 246.688 303.5C246.901 303.78 247.054 304.087 247.148 304.42C247.721 303.367 248.728 302.84 250.168 302.84ZM249.488 312.12C250.741 312.12 251.681 311.76 252.308 311.04C252.948 310.307 253.268 309.313 253.268 308.06C253.268 306.873 252.994 305.887 252.448 305.1C251.914 304.313 251.168 303.92 250.208 303.92C249.448 303.92 248.768 304.153 248.168 304.62C247.581 305.087 247.261 305.693 247.208 306.44V311.94C248.434 312.06 249.194 312.12 249.488 312.12ZM257.004 313.26C256.417 313.26 255.944 313.027 255.584 312.56L256.464 311.88C256.61 312.067 256.797 312.16 257.024 312.16C257.25 312.16 257.424 312.087 257.544 311.94C257.664 311.78 257.777 311.533 257.884 311.2C258.137 310.4 258.297 309.273 258.364 307.82C258.444 306.367 258.484 304.747 258.484 302.96L265.044 302.98V313H263.844V304.06H259.604C259.59 305.447 259.537 306.867 259.444 308.32C259.35 309.773 259.19 310.847 258.964 311.54C258.777 312.113 258.537 312.547 258.244 312.84C257.95 313.12 257.537 313.26 257.004 313.26ZM274.973 313.16C274.719 312.96 274.513 312.74 274.353 312.5C274.206 312.26 274.066 311.947 273.933 311.56C273.666 312.08 273.266 312.487 272.733 312.78C272.213 313.06 271.579 313.2 270.833 313.2C269.779 313.2 268.933 312.92 268.293 312.36C267.666 311.8 267.353 311.04 267.353 310.08C267.353 309.067 267.706 308.28 268.413 307.72C269.133 307.16 270.146 306.88 271.453 306.88H273.773V306.16C273.773 305.36 273.599 304.767 273.253 304.38C272.906 303.993 272.373 303.8 271.653 303.8C271.119 303.8 270.573 303.9 270.013 304.1C269.453 304.287 268.953 304.547 268.513 304.88L267.973 304C268.466 303.587 269.033 303.273 269.673 303.06C270.326 302.833 270.993 302.72 271.673 302.72C272.753 302.72 273.573 303 274.133 303.56C274.693 304.107 274.973 304.9 274.973 305.94V310.12C274.973 311.147 275.233 311.94 275.753 312.5L274.973 313.16ZM270.853 312.12C271.746 312.12 272.453 311.873 272.973 311.38C273.506 310.887 273.773 310.247 273.773 309.46V307.96H271.733C270.599 307.96 269.786 308.127 269.293 308.46C268.799 308.78 268.553 309.313 268.553 310.06C268.553 310.727 268.753 311.24 269.153 311.6C269.553 311.947 270.119 312.12 270.853 312.12ZM286.215 313H285.015V308.62H279.495L279.475 313H278.255V305.48C278.255 304.76 278.002 304.113 277.495 303.54L278.295 302.76C278.695 303.16 278.988 303.58 279.175 304.02C279.362 304.46 279.455 304.94 279.455 305.46V307.52H285.015V303H286.215V313Z" fill="white"/>
<g clip-path="url(#clip1_315_2295)">
<path d="M222.707 242.291C212.143 226.975 203.17 214.193 195.549 203.337C181.947 183.961 172.651 170.719 166.302 160.161C161.417 152.04 158.484 145.827 156.735 139.922C154.999 134.058 154.352 128.233 154.352 120.787C154.352 81.1483 186.485 49.0146 226.124 49.0146C265.764 49.0146 297.897 81.1483 297.897 120.787C297.897 128.233 297.25 134.058 295.514 139.922C293.765 145.827 290.831 152.04 285.947 160.161C279.598 170.719 270.302 183.961 256.7 203.337C249.079 214.193 240.106 226.976 229.541 242.291C227.89 244.671 224.357 244.67 222.707 242.291Z" fill="#B31F1F" stroke="#F2F3F7" stroke-width="11"/>
<path d="M265.501 119.274L225.707 79.3513L185.809 119.169L225.602 159.092L265.501 119.274Z" stroke="#FFD31F" stroke-width="3"/>
<path d="M265.501 127.828L225.707 87.9048L185.809 127.723L225.602 167.646L265.501 127.828Z" stroke="#FFD31F" stroke-width="3"/>
<path d="M265.501 136.38L225.707 96.457L185.809 136.275L225.602 176.198L265.501 136.38Z" stroke="#FFD31F" stroke-width="3"/>
<path d="M225.262 140.644V121.274H215.102V119.366H237.499V121.274H227.442V140.644H225.262Z" fill="white"/>
</g>
<defs>
<clipPath id="clip0_315_2295">
<rect width="939" height="847" fill="white" transform="translate(33)"/>
</clipPath>
<clipPath id="clip1_315_2295">
<rect width="155.607" height="207.158" fill="white" transform="translate(148 43)"/>
</clipPath>
</defs>
</svg>
