<svg viewBox="0 0 50 50" fill="none" xmlns="http://www.w3.org/2000/svg">
<rect width="50" height="50" fill="#B31F1F"/>
<path d="M29.57 35.0001C29.8356 35.0017 30.0989 34.9503 30.3444 34.849C30.5899 34.7477 30.8128 34.5985 31 34.4101L33.71 31.7001C33.8963 31.5128 34.0008 31.2593 34.0008 30.9951C34.0008 30.731 33.8963 30.4775 33.71 30.2901L29.71 26.2901C29.5227 26.1039 29.2692 25.9993 29.005 25.9993C28.7408 25.9993 28.4874 26.1039 28.3 26.2901L26.7 27.8801C25.5923 27.5848 24.5663 27.041 23.7 26.2901C22.9512 25.4224 22.4077 24.397 22.11 23.2901L23.7 21.6901C23.8863 21.5028 23.9908 21.2493 23.9908 20.9851C23.9908 20.721 23.8863 20.4675 23.7 20.2801L19.7 16.2801C19.5127 16.0939 19.2592 15.9893 18.995 15.9893C18.7308 15.9893 18.4774 16.0939 18.29 16.2801L15.59 19.0001C15.4017 19.1874 15.2525 19.4103 15.1512 19.6558C15.0499 19.9013 14.9985 20.1645 15 20.4301C15.0908 24.2724 16.6261 27.9394 19.3 30.7001C22.0608 33.3741 25.7277 34.9094 29.57 35.0001V35.0001ZM19 18.4101L21.59 21.0001L20.3 22.2901C20.1779 22.4046 20.0864 22.5479 20.0339 22.7069C19.9815 22.8659 19.9699 23.0355 20 23.2001C20.3738 24.8705 21.1651 26.4188 22.3 27.7001C23.5804 28.8365 25.1291 29.628 26.8 30.0001C26.9622 30.034 27.1303 30.0271 27.2891 29.98C27.4479 29.9329 27.5926 29.847 27.71 29.7301L29 28.4101L31.59 31.0001L29.59 33.0001C26.2738 32.9148 23.1095 31.5913 20.72 29.2901C18.4129 26.8997 17.0856 23.7313 17 20.4101L19 18.4101ZM33 24.0001H35C35.026 22.8111 34.8109 21.6292 34.3678 20.5255C33.9247 19.4219 33.2627 18.4194 32.4217 17.5784C31.5808 16.7375 30.5783 16.0755 29.4746 15.6324C28.371 15.1893 27.189 14.9742 26 15.0001V17.0001C26.9279 16.968 27.8525 17.1272 28.7163 17.4676C29.5801 17.808 30.3647 18.3225 31.0212 18.979C31.6777 19.6355 32.1922 20.42 32.5326 21.2838C32.873 22.1476 33.0321 23.0722 33 24.0001Z" fill="#FFD31F"/>
<path d="M26 21C28.1 21 29 21.9 29 24H31C31 20.78 29.22 19 26 19V21Z" fill="#FFD31F"/>
</svg>
