<svg width="13" height="13" viewBox="0 0 13 13" fill="none" xmlns="http://www.w3.org/2000/svg">
<path d="M7.21289 11.4766L7.21289 7.21094L11.4785 7.21094C11.9051 7.21094 12.1895 6.92656 12.1895 6.5C12.1895 6.07344 11.9051 5.78906 11.4785 5.78906L7.21289 5.78906L7.21289 1.52344C7.21289 1.09687 6.92852 0.8125 6.50195 0.8125C6.07539 0.8125 5.79102 1.09687 5.79102 1.52344L5.79102 5.78906L1.52539 5.78906C1.09883 5.78906 0.814453 6.07344 0.814453 6.5C0.814453 6.92656 1.09883 7.21094 1.52539 7.21094L5.79102 7.21094L5.79102 11.4766C5.79102 11.9031 6.07539 12.1875 6.50195 12.1875C6.92852 12.1875 7.21289 11.9031 7.21289 11.4766Z" fill="#1F2D3D"/>
</svg>
