<svg  viewBox="0 0 1518 1232" fill="none" xmlns="http://www.w3.org/2000/svg">
    <path d="M0.479523 5.90999H197.7V63H189.742C188.358 50.544 184.667 40.3947 178.67 32.552C172.672 24.7093 162.408 20.788 147.876 20.788H126.77V201.4C126.77 212.703 128.5 219.853 131.96 222.852C135.42 225.851 141.763 227.581 150.99 228.042V236H52.3795V228.042C59.0689 227.581 63.9129 225.851 66.9115 222.852C69.9102 219.853 71.4095 212.703 71.4095 201.4V20.788H49.9575C35.8869 20.788 25.7375 24.7093 19.5095 32.552C13.5122 40.3947 9.82152 50.544 8.43752 63H0.479523V5.90999ZM336.262 0.719998C352.639 0.719998 367.863 3.488 381.934 9.02399C396.004 14.56 408.46 22.6333 419.302 33.244C430.143 43.624 438.562 56.1953 444.56 70.958C450.557 85.7207 453.556 102.213 453.556 120.436C453.556 138.659 450.557 155.151 444.56 169.914C438.562 184.677 430.143 197.363 419.302 207.974C408.691 218.585 396.235 226.773 381.934 232.54C367.632 238.307 352.293 241.19 335.916 241.19C319.769 241.19 304.545 238.422 290.244 232.886C276.173 227.35 263.717 219.392 252.876 209.012C242.034 198.401 233.615 185.715 227.618 170.952C221.62 156.189 218.622 139.697 218.622 121.474C218.622 103.251 221.62 86.7587 227.618 71.996C233.615 57.2333 241.919 44.5466 252.53 33.936C263.371 23.3253 275.942 15.1367 290.244 9.36999C304.545 3.60333 319.884 0.719998 336.262 0.719998ZM343.182 226.312C355.176 226.312 364.634 222.391 371.554 214.548C378.474 206.475 383.433 195.403 386.432 181.332C389.661 167.261 391.276 150.884 391.276 132.2C391.276 94.6013 385.509 65.768 373.976 45.7C362.673 25.632 347.68 15.598 328.996 15.598C317.232 15.598 307.774 19.5193 300.624 27.362C293.704 35.2047 288.629 46.2767 285.4 60.578C282.401 74.6487 280.902 91.026 280.902 109.71C280.902 147.309 286.553 176.142 297.856 196.21C309.389 216.278 324.498 226.312 343.182 226.312ZM613.727 238.768C611.881 233.463 609.575 228.042 606.807 222.506C604.269 216.739 600.809 209.243 596.427 200.016L534.147 69.92H533.455L527.227 201.4C526.996 209.243 528.841 215.586 532.763 220.43C536.684 225.043 543.835 227.581 554.215 228.042V236H490.205V228.042C496.894 227.581 501.623 225.043 504.391 220.43C507.389 215.586 509.004 209.243 509.235 201.4L516.501 40.51C516.962 32.4367 516.385 26.67 514.771 23.21C513.387 19.75 510.849 17.5587 507.159 16.636C503.468 15.4827 498.509 14.56 492.281 13.868V5.90999H566.325C568.17 11.9073 570.246 17.5586 572.553 22.864C575.09 28.1693 577.858 34.0513 580.857 40.51L640.369 165.07H641.061L696.421 40.51C701.726 28.746 705.763 17.2127 708.531 5.90999H781.883V13.868C777.5 14.0987 773.809 14.7907 770.811 15.944C767.812 17.0973 765.621 19.5193 764.237 23.21C763.083 26.67 762.622 32.4367 762.853 40.51L770.119 201.4C770.58 208.781 771.503 214.317 772.887 218.008C774.501 221.699 777.039 224.236 780.499 225.62C783.959 226.773 788.572 227.581 794.339 228.042V236H695.729V228.042C703.11 227.581 708.185 225.851 710.953 222.852C713.951 219.853 715.22 212.703 714.759 201.4L708.877 59.886H708.185L645.559 200.016C641.176 209.704 637.947 217.316 635.871 222.852C634.025 228.157 632.411 233.463 631.027 238.768H613.727ZM827.541 236V228.042C834.23 227.581 839.074 225.851 842.073 222.852C845.072 219.853 846.571 212.703 846.571 201.4V40.51C846.571 29.2073 844.841 22.0567 841.381 19.058C838.152 15.8287 831.808 14.0987 822.351 13.868V5.90999H920.961V13.868C914.272 14.0987 909.428 15.8287 906.429 19.058C903.431 22.0567 901.931 29.2073 901.931 40.51V201.4C901.931 212.703 903.661 219.853 907.121 222.852C910.581 225.851 916.925 227.581 926.151 228.042V236H827.541ZM1165.06 241.19C1154.68 241.19 1145.8 239.46 1138.42 236C1131.04 232.771 1124.81 228.388 1119.73 222.852C1114.66 217.316 1109.93 211.203 1105.55 204.514L1057.11 129.086C1054.8 125.165 1052.72 122.743 1050.88 121.82C1049.03 120.897 1046.84 120.321 1044.3 120.09V107.98C1058.14 107.057 1068.87 104.289 1076.48 99.676C1084.09 95.0627 1089.4 89.4113 1092.4 82.722C1095.4 75.802 1096.9 68.6513 1096.9 61.27C1096.9 47.1993 1092.98 36.704 1085.13 29.784C1077.29 22.6333 1068.29 19.058 1058.14 19.058C1050.53 19.058 1045.11 20.442 1041.88 23.21C1038.88 25.7473 1037.38 31.514 1037.38 40.51V201.4C1037.38 212.703 1039.11 219.853 1042.57 222.852C1046.03 225.851 1052.38 227.581 1061.6 228.042V236H962.995V228.042C969.684 227.581 974.528 225.851 977.527 222.852C980.525 219.853 982.025 212.703 982.025 201.4V40.51C982.025 29.2073 980.295 22.0567 976.835 19.058C973.605 15.8287 967.262 14.0987 957.805 13.868V5.90999H982.025C999.325 5.90999 1015.01 5.67932 1029.08 5.21798C1043.15 4.52599 1055.15 4.17999 1065.06 4.17999C1087.9 4.17999 1106.01 6.37133 1119.39 10.754C1133 14.906 1142.68 20.788 1148.45 28.4C1154.45 36.012 1157.45 44.662 1157.45 54.35C1157.45 63.5767 1155.14 71.996 1150.53 79.608C1146.14 87.22 1140.26 93.6787 1132.88 98.984C1125.73 104.059 1117.89 107.634 1109.35 109.71V110.402L1166.79 200.362C1173.48 210.973 1179.59 218.239 1185.13 222.16C1190.66 226.081 1195.62 228.042 1200 228.042V236C1195.39 237.615 1189.86 238.883 1183.4 239.806C1177.17 240.729 1171.06 241.19 1165.06 241.19ZM1216.45 236V228.042C1223.14 227.581 1227.99 225.851 1230.99 222.852C1233.98 219.853 1235.48 212.703 1235.48 201.4V40.51C1235.48 29.2073 1233.75 22.0567 1230.29 19.058C1227.06 15.8287 1220.72 14.0987 1211.26 13.868V5.90999H1309.87V13.868C1303.18 14.0987 1298.34 15.8287 1295.34 19.058C1292.34 22.0567 1290.84 29.2073 1290.84 40.51V201.4C1290.84 212.703 1292.57 219.853 1296.03 222.852C1299.49 225.851 1305.84 227.581 1315.06 228.042V236H1216.45ZM1427.33 241.19C1415.57 241.19 1404.04 239.691 1392.73 236.692C1381.43 233.924 1372.09 229.08 1364.71 222.16C1357.33 215.24 1353.64 206.013 1353.64 194.48C1353.64 190.097 1354.44 184.907 1356.06 178.91C1357.67 172.682 1360.9 166.339 1365.75 159.88H1373.7C1374.17 170.952 1376.47 181.563 1380.62 191.712C1384.78 201.631 1390.89 209.819 1398.96 216.278C1407.04 222.506 1417.07 225.62 1429.06 225.62C1438.52 225.62 1446.02 223.775 1451.55 220.084C1457.09 216.163 1461.13 211.434 1463.66 205.898C1466.2 200.362 1467.47 194.826 1467.47 189.29C1467.47 180.294 1464.82 172.682 1459.51 166.454C1454.21 160.226 1447.4 154.69 1439.1 149.846C1431.03 145.002 1422.26 140.158 1412.8 135.314C1403.58 130.47 1394.81 125.165 1386.51 119.398C1378.2 113.401 1371.4 106.25 1366.09 97.946C1361.02 89.4113 1358.48 79.0313 1358.48 66.806C1358.48 46.046 1366.44 29.8993 1382.35 18.366C1398.5 6.602 1419.84 0.719998 1446.36 0.719998C1458.13 0.719998 1469.32 1.758 1479.93 3.834C1490.77 5.67932 1499.42 7.75532 1505.88 10.062V64.73H1497.92C1494.23 52.0433 1489.5 42.24 1483.73 35.32C1478.2 28.4 1471.97 23.556 1465.05 20.788C1458.36 17.7893 1451.44 16.29 1444.29 16.29C1435.52 16.29 1428.49 17.9046 1423.18 21.134C1418.11 24.1327 1414.42 27.9387 1412.11 32.552C1409.8 36.9347 1408.65 41.4327 1408.65 46.046C1408.65 53.658 1411.19 60.3473 1416.26 66.114C1421.57 71.65 1428.37 76.7247 1436.68 81.338C1444.98 85.9513 1453.75 90.7953 1462.97 95.87C1472.43 100.945 1481.2 106.711 1489.27 113.17C1497.57 119.629 1504.38 127.471 1509.68 136.698C1514.99 145.694 1517.64 156.766 1517.64 169.914C1517.64 185.369 1513.72 198.401 1505.88 209.012C1498.03 219.623 1487.31 227.696 1473.7 233.232C1460.09 238.537 1444.63 241.19 1427.33 241.19Z" fill="#F2F3F7"/>
    <path d="M0.479523 995.91H197.7V1053H189.742C188.358 1040.54 184.667 1030.39 178.67 1022.55C172.672 1014.71 162.408 1010.79 147.876 1010.79H126.77V1191.4C126.77 1202.7 128.5 1209.85 131.96 1212.85C135.42 1215.85 141.763 1217.58 150.99 1218.04V1226H52.3795V1218.04C59.0689 1217.58 63.9129 1215.85 66.9115 1212.85C69.9102 1209.85 71.4095 1202.7 71.4095 1191.4V1010.79H49.9575C35.8869 1010.79 25.7375 1014.71 19.5095 1022.55C13.5122 1030.39 9.82152 1040.54 8.43752 1053H0.479523V995.91ZM336.262 990.72C352.639 990.72 367.863 993.488 381.934 999.024C396.004 1004.56 408.46 1012.63 419.302 1023.24C430.143 1033.62 438.562 1046.2 444.56 1060.96C450.557 1075.72 453.556 1092.21 453.556 1110.44C453.556 1128.66 450.557 1145.15 444.56 1159.91C438.562 1174.68 430.143 1187.36 419.302 1197.97C408.691 1208.58 396.235 1216.77 381.934 1222.54C367.632 1228.31 352.293 1231.19 335.916 1231.19C319.769 1231.19 304.545 1228.42 290.244 1222.89C276.173 1217.35 263.717 1209.39 252.876 1199.01C242.034 1188.4 233.615 1175.71 227.618 1160.95C221.62 1146.19 218.622 1129.7 218.622 1111.47C218.622 1093.25 221.62 1076.76 227.618 1062C233.615 1047.23 241.919 1034.55 252.53 1023.94C263.371 1013.33 275.942 1005.14 290.244 999.37C304.545 993.603 319.884 990.72 336.262 990.72ZM343.182 1216.31C355.176 1216.31 364.634 1212.39 371.554 1204.55C378.474 1196.47 383.433 1185.4 386.432 1171.33C389.661 1157.26 391.276 1140.88 391.276 1122.2C391.276 1084.6 385.509 1055.77 373.976 1035.7C362.673 1015.63 347.68 1005.6 328.996 1005.6C317.232 1005.6 307.774 1009.52 300.624 1017.36C293.704 1025.2 288.629 1036.28 285.4 1050.58C282.401 1064.65 280.902 1081.03 280.902 1099.71C280.902 1137.31 286.553 1166.14 297.856 1186.21C309.389 1206.28 324.498 1216.31 343.182 1216.31ZM613.727 1228.77C611.881 1223.46 609.575 1218.04 606.807 1212.51C604.269 1206.74 600.809 1199.24 596.427 1190.02L534.147 1059.92H533.455L527.227 1191.4C526.996 1199.24 528.841 1205.59 532.763 1210.43C536.684 1215.04 543.835 1217.58 554.215 1218.04V1226H490.205V1218.04C496.894 1217.58 501.623 1215.04 504.391 1210.43C507.389 1205.59 509.004 1199.24 509.235 1191.4L516.501 1030.51C516.962 1022.44 516.385 1016.67 514.771 1013.21C513.387 1009.75 510.849 1007.56 507.159 1006.64C503.468 1005.48 498.509 1004.56 492.281 1003.87V995.91H566.325C568.17 1001.91 570.246 1007.56 572.553 1012.86C575.09 1018.17 577.858 1024.05 580.857 1030.51L640.369 1155.07H641.061L696.421 1030.51C701.726 1018.75 705.763 1007.21 708.531 995.91H781.883V1003.87C777.5 1004.1 773.809 1004.79 770.811 1005.94C767.812 1007.1 765.621 1009.52 764.237 1013.21C763.083 1016.67 762.622 1022.44 762.853 1030.51L770.119 1191.4C770.58 1198.78 771.503 1204.32 772.887 1208.01C774.501 1211.7 777.039 1214.24 780.499 1215.62C783.959 1216.77 788.572 1217.58 794.339 1218.04V1226H695.729V1218.04C703.11 1217.58 708.185 1215.85 710.953 1212.85C713.951 1209.85 715.22 1202.7 714.759 1191.4L708.877 1049.89H708.185L645.559 1190.02C641.176 1199.7 637.947 1207.32 635.871 1212.85C634.025 1218.16 632.411 1223.46 631.027 1228.77H613.727ZM827.541 1226V1218.04C834.23 1217.58 839.074 1215.85 842.073 1212.85C845.072 1209.85 846.571 1202.7 846.571 1191.4V1030.51C846.571 1019.21 844.841 1012.06 841.381 1009.06C838.152 1005.83 831.808 1004.1 822.351 1003.87V995.91H920.961V1003.87C914.272 1004.1 909.428 1005.83 906.429 1009.06C903.431 1012.06 901.931 1019.21 901.931 1030.51V1191.4C901.931 1202.7 903.661 1209.85 907.121 1212.85C910.581 1215.85 916.925 1217.58 926.151 1218.04V1226H827.541ZM1165.06 1231.19C1154.68 1231.19 1145.8 1229.46 1138.42 1226C1131.04 1222.77 1124.81 1218.39 1119.73 1212.85C1114.66 1207.32 1109.93 1201.2 1105.55 1194.51L1057.11 1119.09C1054.8 1115.16 1052.72 1112.74 1050.88 1111.82C1049.03 1110.9 1046.84 1110.32 1044.3 1110.09V1097.98C1058.14 1097.06 1068.87 1094.29 1076.48 1089.68C1084.09 1085.06 1089.4 1079.41 1092.4 1072.72C1095.4 1065.8 1096.9 1058.65 1096.9 1051.27C1096.9 1037.2 1092.98 1026.7 1085.13 1019.78C1077.29 1012.63 1068.29 1009.06 1058.14 1009.06C1050.53 1009.06 1045.11 1010.44 1041.88 1013.21C1038.88 1015.75 1037.38 1021.51 1037.38 1030.51V1191.4C1037.38 1202.7 1039.11 1209.85 1042.57 1212.85C1046.03 1215.85 1052.38 1217.58 1061.6 1218.04V1226H962.995V1218.04C969.684 1217.58 974.528 1215.85 977.527 1212.85C980.525 1209.85 982.025 1202.7 982.025 1191.4V1030.51C982.025 1019.21 980.295 1012.06 976.835 1009.06C973.605 1005.83 967.262 1004.1 957.805 1003.87V995.91H982.025C999.325 995.91 1015.01 995.679 1029.08 995.218C1043.15 994.526 1055.15 994.18 1065.06 994.18C1087.9 994.18 1106.01 996.371 1119.39 1000.75C1133 1004.91 1142.68 1010.79 1148.45 1018.4C1154.45 1026.01 1157.45 1034.66 1157.45 1044.35C1157.45 1053.58 1155.14 1062 1150.53 1069.61C1146.14 1077.22 1140.26 1083.68 1132.88 1088.98C1125.73 1094.06 1117.89 1097.63 1109.35 1099.71V1100.4L1166.79 1190.36C1173.48 1200.97 1179.59 1208.24 1185.13 1212.16C1190.66 1216.08 1195.62 1218.04 1200 1218.04V1226C1195.39 1227.61 1189.86 1228.88 1183.4 1229.81C1177.17 1230.73 1171.06 1231.19 1165.06 1231.19ZM1216.45 1226V1218.04C1223.14 1217.58 1227.99 1215.85 1230.99 1212.85C1233.98 1209.85 1235.48 1202.7 1235.48 1191.4V1030.51C1235.48 1019.21 1233.75 1012.06 1230.29 1009.06C1227.06 1005.83 1220.72 1004.1 1211.26 1003.87V995.91H1309.87V1003.87C1303.18 1004.1 1298.34 1005.83 1295.34 1009.06C1292.34 1012.06 1290.84 1019.21 1290.84 1030.51V1191.4C1290.84 1202.7 1292.57 1209.85 1296.03 1212.85C1299.49 1215.85 1305.84 1217.58 1315.06 1218.04V1226H1216.45ZM1427.33 1231.19C1415.57 1231.19 1404.04 1229.69 1392.73 1226.69C1381.43 1223.92 1372.09 1219.08 1364.71 1212.16C1357.33 1205.24 1353.64 1196.01 1353.64 1184.48C1353.64 1180.1 1354.44 1174.91 1356.06 1168.91C1357.67 1162.68 1360.9 1156.34 1365.75 1149.88H1373.7C1374.17 1160.95 1376.47 1171.56 1380.62 1181.71C1384.78 1191.63 1390.89 1199.82 1398.96 1206.28C1407.04 1212.51 1417.07 1215.62 1429.06 1215.62C1438.52 1215.62 1446.02 1213.77 1451.55 1210.08C1457.09 1206.16 1461.13 1201.43 1463.66 1195.9C1466.2 1190.36 1467.47 1184.83 1467.47 1179.29C1467.47 1170.29 1464.82 1162.68 1459.51 1156.45C1454.21 1150.23 1447.4 1144.69 1439.1 1139.85C1431.03 1135 1422.26 1130.16 1412.8 1125.31C1403.58 1120.47 1394.81 1115.16 1386.51 1109.4C1378.2 1103.4 1371.4 1096.25 1366.09 1087.95C1361.02 1079.41 1358.48 1069.03 1358.48 1056.81C1358.48 1036.05 1366.44 1019.9 1382.35 1008.37C1398.5 996.602 1419.84 990.72 1446.36 990.72C1458.13 990.72 1469.32 991.758 1479.93 993.834C1490.77 995.679 1499.42 997.755 1505.88 1000.06V1054.73H1497.92C1494.23 1042.04 1489.5 1032.24 1483.73 1025.32C1478.2 1018.4 1471.97 1013.56 1465.05 1010.79C1458.36 1007.79 1451.44 1006.29 1444.29 1006.29C1435.52 1006.29 1428.49 1007.9 1423.18 1011.13C1418.11 1014.13 1414.42 1017.94 1412.11 1022.55C1409.8 1026.93 1408.65 1031.43 1408.65 1036.05C1408.65 1043.66 1411.19 1050.35 1416.26 1056.11C1421.57 1061.65 1428.37 1066.72 1436.68 1071.34C1444.98 1075.95 1453.75 1080.8 1462.97 1085.87C1472.43 1090.94 1481.2 1096.71 1489.27 1103.17C1497.57 1109.63 1504.38 1117.47 1509.68 1126.7C1514.99 1135.69 1517.64 1146.77 1517.64 1159.91C1517.64 1175.37 1513.72 1188.4 1505.88 1199.01C1498.03 1209.62 1487.31 1217.7 1473.7 1223.23C1460.09 1228.54 1444.63 1231.19 1427.33 1231.19Z" fill="#F2F3F7"/>
    </svg>