<svg width="19" height="19" viewBox="0 0 19 19" fill="none" xmlns="http://www.w3.org/2000/svg">
<path d="M13.8813 11.3197C13.6446 11.1999 12.4918 10.6374 12.2763 10.5571C12.0609 10.4804 11.9045 10.4402 11.7475 10.6769C11.594 10.9077 11.1418 11.436 11.0037 11.5901C10.8656 11.7442 10.7298 11.756 10.4967 11.6515C10.26 11.5317 9.50382 11.2855 8.60601 10.4804C7.90476 9.85645 7.43785 9.08791 7.29913 8.8512C7.16101 8.61745 7.28378 8.48523 7.40066 8.36836C7.50809 8.26093 7.63736 8.09801 7.75719 7.95634C7.87111 7.81468 7.90771 7.71964 7.99094 7.56617C8.06767 7.4003 8.02812 7.27103 7.96969 7.15416C7.91125 7.03728 7.4408 5.87857 7.24424 5.41697C7.05653 4.95892 6.85997 5.01735 6.71535 5.01735C6.58017 5.00496 6.42316 5.00496 6.26674 5.00496C6.11031 5.00496 5.85472 5.0634 5.63927 5.2877C5.42382 5.5244 4.81525 6.08989 4.81525 7.23385C4.81525 8.38075 5.65757 9.49047 5.77445 9.65634C5.89427 9.80981 7.43135 12.1709 9.78951 13.1856C10.352 13.4223 10.7888 13.564 11.13 13.6809C11.6926 13.8591 12.2061 13.8343 12.6116 13.7759C13.0602 13.7021 14.0011 13.2069 14.1983 12.6538C14.3984 12.0971 14.3984 11.6361 14.34 11.5317C14.2815 11.4242 14.128 11.3658 13.8913 11.2613L13.8813 11.3197ZM9.60475 17.118H9.59236C8.19635 17.118 6.81629 16.7397 5.61094 16.0325L5.3282 15.8637L2.37681 16.6322L3.17014 13.7605L2.97948 13.4654C2.2 12.226 1.78647 10.7917 1.78653 9.32756C1.78653 5.04215 5.29455 1.54653 9.61066 1.54653C11.7014 1.54653 13.6629 2.36111 15.1386 3.8368C15.8666 4.55611 16.444 5.41319 16.8372 6.35803C17.2305 7.30287 17.4316 8.31656 17.4289 9.33995C17.423 13.6224 13.9179 17.118 9.60771 17.118H9.60475ZM16.2607 2.71468C14.4651 0.98045 12.104 0 9.59236 0C4.41209 0 0.193967 4.19982 0.191016 9.3612C0.191016 11.0093 0.621328 12.6172 1.44535 14.0403L0.111328 18.8889L5.09799 17.5885C6.47942 18.3333 8.02354 18.725 9.59295 18.7289H9.5959C14.7791 18.7289 18.9972 14.5291 19.0002 9.36416C19.0002 6.86492 18.0256 4.51267 16.2489 2.74479L16.2607 2.71468Z" fill="white"/>
</svg>
