<svg width="22" height="22" viewBox="0 0 22 22" fill="none" xmlns="http://www.w3.org/2000/svg">
<path d="M16.038 13.1842C15.7623 13.0446 14.4196 12.3894 14.1687 12.2959C13.9177 12.2066 13.7356 12.1598 13.5527 12.4355C13.3739 12.7043 12.8473 13.3196 12.6864 13.4991C12.5256 13.6785 12.3674 13.6923 12.0959 13.5706C11.8202 13.431 10.9395 13.1443 9.89381 12.2066C9.07706 11.4799 8.53325 10.5848 8.37169 10.3091C8.21081 10.0368 8.35381 9.88281 8.48994 9.74669C8.61506 9.62156 8.76562 9.43181 8.90519 9.26681C9.03788 9.10181 9.0805 8.99113 9.17744 8.81238C9.26681 8.61919 9.22075 8.46863 9.15269 8.3325C9.08463 8.19637 8.53669 6.84681 8.30775 6.30919C8.08912 5.77569 7.86019 5.84375 7.69175 5.84375C7.53431 5.82931 7.35144 5.82931 7.16925 5.82931C6.98706 5.82931 6.68937 5.89738 6.43844 6.15863C6.1875 6.43431 5.47869 7.09294 5.47869 8.42531C5.47869 9.76112 6.45975 11.0536 6.59587 11.2468C6.73544 11.4256 8.52569 14.1756 11.2723 15.3574C11.9274 15.6331 12.4362 15.7981 12.8336 15.9342C13.4887 16.1418 14.0869 16.1129 14.5592 16.0449C15.0817 15.9589 16.1776 15.3821 16.4072 14.7379C16.6402 14.0896 16.6402 13.5527 16.5722 13.431C16.5041 13.3059 16.3254 13.2378 16.0497 13.1161L16.038 13.1842ZM11.0571 19.9375H11.0426C9.41669 19.9375 7.80931 19.4968 6.40544 18.6732L6.07613 18.4766L2.63863 19.3717L3.56263 16.027L3.34056 15.6833C2.43269 14.2397 1.95106 12.5691 1.95113 10.8639C1.95113 5.87262 6.03694 1.80125 11.0639 1.80125C13.4991 1.80125 15.7836 2.75 17.5024 4.46875C18.3503 5.30653 19.0228 6.30478 19.4808 7.40524C19.9388 8.5057 20.173 9.68635 20.1699 10.8783C20.163 15.8661 16.0806 19.9375 11.0605 19.9375H11.0571ZM18.8093 3.16181C16.7179 1.14194 13.9679 0 11.0426 0C5.00913 0 0.09625 4.89156 0.0928125 10.9031C0.0928125 12.8226 0.594 14.6953 1.55375 16.3529L0 22L5.808 20.4854C7.41696 21.3529 9.21541 21.8092 11.0433 21.8137H11.0468C17.0837 21.8137 21.9966 16.9221 22 10.9065C22 7.99563 20.8649 5.25594 18.7956 3.19688L18.8093 3.16181Z" fill="#333333"/>
</svg>
