<svg width="54" height="54" viewBox="0 0 54 54" fill="none" xmlns="http://www.w3.org/2000/svg">
<path d="M39.366 32.3612C38.6893 32.0186 35.3936 30.4104 34.7777 30.1809C34.1617 29.9616 33.7146 29.8468 33.2657 30.5235C32.8269 31.1833 31.5343 32.6936 31.1394 33.1341C30.7446 33.5745 30.3564 33.6082 29.6899 33.3096C29.0132 32.967 26.8515 32.2633 24.2848 29.9616C22.2801 28.1779 20.9452 25.9807 20.5487 25.3041C20.1538 24.6358 20.5048 24.2578 20.8389 23.9237C21.1461 23.6166 21.5156 23.1508 21.8582 22.7458C22.1839 22.3408 22.2885 22.0691 22.5264 21.6304C22.7458 21.1562 22.6327 20.7866 22.4657 20.4525C22.2986 20.1184 20.9537 16.8058 20.3917 15.4862C19.8551 14.1767 19.2932 14.3437 18.8797 14.3437C18.4933 14.3083 18.0444 14.3083 17.5973 14.3083C17.1501 14.3083 16.4194 14.4754 15.8034 15.1166C15.1875 15.7933 13.4477 17.4099 13.4477 20.6803C13.4477 23.9591 15.8558 27.1316 16.1899 27.6058C16.5324 28.0446 20.9267 34.7946 27.6682 37.6954C29.2764 38.3721 30.5252 38.7771 31.5006 39.1112C33.1087 39.6208 34.5769 39.5499 35.7362 39.3829C37.0187 39.1719 39.7086 37.7561 40.2722 36.1749C40.8442 34.5836 40.8442 33.2657 40.6772 32.967C40.5101 32.6599 40.0714 32.4928 39.3947 32.1941L39.366 32.3612ZM27.1401 48.9375H27.1046C23.1137 48.9375 19.1683 47.8558 15.7224 45.8342L14.9141 45.3516L6.47662 47.5487L8.74463 39.339L8.19956 38.4953C5.97116 34.9521 4.78895 30.8515 4.78912 26.6659C4.78912 14.4146 14.8179 4.42125 27.1569 4.42125C33.1341 4.42125 38.7416 6.75 42.9604 10.9688C45.0415 13.0251 46.6923 15.4754 47.8165 18.1765C48.9406 20.8776 49.5156 23.7756 49.5079 26.7013C49.491 38.9441 39.4706 48.9375 27.1485 48.9375H27.1401ZM46.1683 7.76081C41.0349 2.80294 34.2849 0 27.1046 0C12.2951 0 0.23625 12.0066 0.227813 26.7621C0.227813 31.4736 1.458 36.0703 3.81375 40.1389L0 54L14.256 50.2824C18.2053 52.4117 22.6196 53.5316 27.1063 53.5427H27.1147C41.9327 53.5427 53.9916 41.5361 54 26.7705C54 19.6256 51.2139 12.9009 46.1346 7.84687L46.1683 7.76081Z" fill="#B31F1F"/>
</svg>
