<svg width="96" height="89" viewBox="0 0 96 89" fill="none" xmlns="http://www.w3.org/2000/svg">
<path d="M43.0356 52.0183C43.1091 52.0384 43.1826 52.0651 43.2628 52.0852C43.343 52.0985 43.4366 52.1186 43.5235 52.132C43.7106 52.1654 43.9178 52.2055 44.1451 52.2389C44.3723 52.259 44.6196 52.2723 44.8869 52.2924C45.0206 52.3057 45.1543 52.2924 45.2946 52.2924C45.435 52.2857 45.582 52.2857 45.7291 52.279C45.8761 52.279 46.0298 52.2456 46.1835 52.2322C46.3373 52.2122 46.4977 52.1921 46.6648 52.1654C46.8252 52.1387 46.9856 52.0919 47.1527 52.0584C47.2329 52.0384 47.3198 52.0183 47.4066 51.9983C47.4935 51.9782 47.5804 51.9582 47.6606 51.9248C47.9948 51.8045 48.349 51.7042 48.6899 51.5304C49.3917 51.2364 50.0667 50.7952 50.7083 50.2739C50.8621 50.1336 51.0225 49.9999 51.1762 49.8595C51.3299 49.7192 51.4703 49.5521 51.6173 49.3984C51.6908 49.3182 51.7643 49.238 51.8378 49.1645C51.9047 49.0776 51.9715 48.9907 52.0317 48.9105C52.1587 48.7367 52.299 48.5696 52.4126 48.3825C52.5263 48.1953 52.6399 48.0082 52.7535 47.8211L52.8404 47.6807L52.9139 47.527L53.0609 47.2195L53.2013 46.9121C53.2548 46.8118 53.2748 46.7116 53.3149 46.6113L53.5355 45.9898C53.7627 45.1343 53.8964 44.2453 53.8897 43.3698C53.8897 43.1492 53.863 42.9354 53.8496 42.7215C53.8429 42.6145 53.8296 42.5076 53.8229 42.4007C53.8028 42.2937 53.7828 42.1868 53.7694 42.0865C53.7293 41.8794 53.7026 41.6655 53.6491 41.4583C53.5956 41.2578 53.5355 41.0506 53.482 40.8568C53.2213 40.0681 52.8939 39.3329 52.4594 38.7047C52.2656 38.3772 52.025 38.0964 51.8044 37.8157C51.751 37.7422 51.6908 37.6821 51.6307 37.6219C51.5705 37.5618 51.5104 37.4949 51.4502 37.4348C51.3299 37.3145 51.2163 37.1875 51.096 37.0739C50.969 36.9669 50.8487 36.86 50.7284 36.7597C50.6081 36.6595 50.5011 36.5525 50.3675 36.4723C50.2472 36.3855 50.1269 36.3052 50.0065 36.225C49.8862 36.1515 49.7793 36.058 49.659 36.0045C49.4251 35.8775 49.2112 35.7572 49.0107 35.6503C48.8035 35.5567 48.603 35.4832 48.4292 35.4096C48.3423 35.3762 48.2621 35.3361 48.1819 35.3094C48.1017 35.2827 48.0282 35.2626 47.9547 35.2426C47.8143 35.2025 47.694 35.169 47.6005 35.1423C47.4066 35.0888 47.3064 35.0554 47.3064 35.0554C47.3064 35.0554 47.4066 35.0955 47.5938 35.1757C47.6873 35.2158 47.801 35.2626 47.9346 35.3161C48.0015 35.3428 48.075 35.3695 48.1485 35.4096C48.222 35.4498 48.3022 35.4899 48.3824 35.53C48.5495 35.6168 48.73 35.7104 48.9238 35.8173C49.1109 35.9377 49.3115 36.0713 49.532 36.2117C49.6456 36.2785 49.7392 36.3721 49.8461 36.4523C49.9531 36.5392 50.06 36.6261 50.1736 36.7129C50.2873 36.7998 50.3875 36.9068 50.5011 37.0137C50.6081 37.1206 50.7217 37.2276 50.8353 37.3345C50.9422 37.4481 51.0425 37.5751 51.1494 37.6954C51.2029 37.7556 51.2564 37.8224 51.3098 37.8826C51.3633 37.9427 51.4168 38.0096 51.4636 38.0831C51.6507 38.3638 51.878 38.6311 52.045 38.9519C52.426 39.5602 52.7 40.2686 52.934 41.0105C53.1612 41.7591 53.2414 42.5611 53.2681 43.3765C53.2681 44.1919 53.1345 45.014 52.9139 45.816L52.7067 46.4108C52.6666 46.5111 52.6399 46.618 52.5998 46.7116L52.4728 46.9856L52.3458 47.2596L52.2857 47.4L52.2054 47.5337C52.0985 47.7074 51.9983 47.8879 51.8913 48.0617C51.4302 48.73 50.9222 49.365 50.334 49.8729L50.2271 49.9732L50.1269 50.0534C50.0533 50.1135 49.9731 50.1737 49.8996 50.2271C49.7459 50.3408 49.5989 50.4678 49.4384 50.5613C49.278 50.6616 49.1243 50.7618 48.9706 50.8621C48.8102 50.9557 48.6498 51.0292 48.4894 51.1161C48.1753 51.2965 47.8411 51.3968 47.5269 51.5304C47.4467 51.5639 47.3665 51.5906 47.2863 51.6106C47.2061 51.6374 47.1259 51.6574 47.0457 51.6842C46.8853 51.731 46.7383 51.7844 46.5846 51.8178C46.4308 51.8513 46.2771 51.878 46.1301 51.9047C45.983 51.9315 45.836 51.9716 45.6956 51.9782C45.5553 51.9916 45.4149 52.005 45.2746 52.0183C45.1409 52.0317 45.0072 52.0584 44.8802 52.0518C44.6196 52.0518 44.379 52.0518 44.1584 52.0584C43.9379 52.0451 43.7307 52.025 43.5435 52.005C43.45 51.9983 43.3631 51.9916 43.2762 51.9849C43.196 51.9716 43.1158 51.9582 43.0489 51.9448C42.9086 51.9181 42.7816 51.898 42.688 51.878C42.4875 51.8446 42.3873 51.8245 42.3873 51.8245C42.3873 51.8245 42.4875 51.8579 42.6813 51.9114C42.7749 51.9381 42.8952 51.9782 43.0356 52.0183Z" fill="#FCC463"/>
<path d="M53.5155 51.0491C53.4019 51.1427 53.295 51.2296 53.2014 51.3098C53.1012 51.39 53.0076 51.4702 52.9207 51.5437C52.8271 51.6039 52.7403 51.664 52.6667 51.7175C52.3593 51.9247 52.1788 52.0517 52.1788 52.0517C52.1788 52.0517 52.366 51.9514 52.6935 51.771C52.7737 51.7242 52.8672 51.6707 52.9675 51.6172C53.0611 51.5504 53.1613 51.4836 53.2683 51.4101C53.3752 51.3365 53.4888 51.2563 53.6091 51.1694C53.6693 51.1293 53.7294 51.0759 53.7829 51.0291C53.843 50.9756 53.9032 50.9288 53.9633 50.8687C54.0837 50.7617 54.2106 50.6481 54.3443 50.5345C54.4646 50.4075 54.5849 50.2738 54.7119 50.1335C54.7721 50.0667 54.8389 49.9931 54.9057 49.9263C54.9659 49.8528 55.0194 49.7726 55.0795 49.6991C55.1931 49.5386 55.3134 49.3782 55.4337 49.2178C55.6342 48.8636 55.8815 48.5161 56.0419 48.1217C56.2358 47.7408 56.3628 47.3197 56.5098 46.912C56.61 46.4909 56.7304 46.0699 56.7705 45.6421C56.8507 45.2211 56.8306 44.7933 56.8573 44.3856C56.844 44.1851 56.8306 43.9846 56.8172 43.7841C56.8106 43.6838 56.8039 43.5903 56.7905 43.4967C56.7771 43.4031 56.7571 43.3096 56.7437 43.216C56.7103 43.0355 56.6836 42.8551 56.6501 42.6813C56.6034 42.5142 56.5566 42.3471 56.5098 42.1934C56.4897 42.1132 56.463 42.0397 56.443 41.9662C56.4229 41.8926 56.4029 41.8191 56.3694 41.7523C56.316 41.6186 56.2625 41.4849 56.209 41.3646C56.1622 41.2443 56.1155 41.1307 56.0687 41.0238C56.0152 40.9235 55.9684 40.8299 55.9216 40.7497C55.7412 40.4222 55.6409 40.2351 55.6409 40.2351C55.6409 40.2351 55.7211 40.4356 55.8682 40.7765C55.9083 40.8634 55.9484 40.9569 55.9885 41.0639C56.0219 41.1708 56.062 41.2844 56.0954 41.4114C56.1355 41.5317 56.1756 41.6654 56.2224 41.8057C56.2692 41.9394 56.2892 42.0931 56.3293 42.2469C56.3628 42.4006 56.3962 42.561 56.4363 42.7281C56.4563 42.8952 56.4831 43.0756 56.5031 43.2561C56.5165 43.343 56.5232 43.4365 56.5365 43.5301C56.5432 43.6237 56.5432 43.7173 56.5499 43.8108C56.5566 43.998 56.5633 44.1918 56.5699 44.3923C56.5432 44.7866 56.5432 45.1943 56.463 45.602C56.4229 46.0164 56.3026 46.4174 56.2023 46.8251C56.062 47.2194 55.9417 47.6271 55.7545 47.9947C55.6008 48.3824 55.3803 48.7233 55.1864 49.0708C55.0728 49.2312 54.9659 49.3916 54.8523 49.5453C54.7988 49.6255 54.7453 49.7057 54.6919 49.7793C54.6317 49.8528 54.5716 49.9196 54.5114 49.9931C54.3978 50.1335 54.2842 50.2672 54.1705 50.4008C54.0502 50.5211 53.9299 50.6348 53.823 50.7484C53.7361 50.8419 53.6292 50.9622 53.5155 51.0491Z" fill="#FCC463"/>
<path d="M89.4331 41.8927C89.0454 41.8927 88.6912 41.9929 88.3704 42.16L85.1088 38.8984C84.2199 32.6426 81.8071 26.868 78.2448 21.9756L79.4612 19.6297C80.183 19.6765 80.9115 19.3957 81.4128 18.8009C82.148 17.9254 82.1346 16.6688 81.4328 15.8133L81.4395 15.8067H81.4262C81.3326 15.693 81.239 15.5928 81.1254 15.4925C80.1295 14.6571 78.6525 14.7841 77.817 15.7799C77.8103 15.7866 77.8037 15.8 77.797 15.8067H72.6372C67.2035 11.0079 60.3929 7.7329 52.8806 6.67021L49.6257 3.40863C49.7928 3.08781 49.893 2.7269 49.893 2.34594C49.893 1.04932 48.8437 0 47.5471 0C46.2505 0 45.2011 1.04932 45.2011 2.34594C45.2011 2.73358 45.3014 3.08781 45.4685 3.40863L42.2069 6.67021C34.6946 7.7329 27.884 11.0079 22.4502 15.8067H17.2905C17.197 15.693 17.1034 15.5928 16.9898 15.4925C15.9939 14.6571 14.5168 14.7841 13.6814 15.7799C13.6747 15.7866 13.668 15.8 13.6613 15.8067H13.6547L13.6613 15.8133C12.8526 16.8025 12.9863 18.2662 13.9688 19.0883C14.45 19.496 15.0515 19.6698 15.633 19.6297L16.8427 21.9756C13.2871 26.868 10.8676 32.6426 9.97868 38.8984L6.7171 42.16C6.39629 41.9929 6.03537 41.8927 5.65441 41.8927C4.35779 41.8927 3.30847 42.942 3.30847 44.2386C3.30847 45.5352 4.35779 46.5845 5.65441 46.5845C6.04206 46.5845 6.39629 46.4843 6.7171 46.3172L9.97868 49.5788C10.8676 55.8346 13.2804 61.6092 16.836 66.5016L15.1785 69.7031C14.6104 69.7766 14.069 70.0439 13.6747 70.5184C12.8393 71.5143 12.9662 72.9914 13.9621 73.8268C14.958 74.6623 16.435 74.5353 17.2705 73.5394C17.491 73.2788 17.6381 72.978 17.725 72.6706H22.4436C27.8773 77.4694 34.6879 80.7443 42.2002 81.807L45.4618 85.0686C45.2947 85.3894 45.1945 85.7503 45.1945 86.1313C45.1945 87.4279 46.2438 88.4772 47.5404 88.4772C48.837 88.4772 49.8863 87.4279 49.8863 86.1313C49.8863 85.7436 49.7861 85.3894 49.619 85.0686L52.8806 81.807C60.3929 80.7443 67.2035 77.4694 72.6372 72.6706H77.797C77.8905 72.7842 77.9841 72.8844 78.0977 72.9847C79.0936 73.8201 80.5707 73.6931 81.4061 72.6973C81.4128 72.6906 81.4195 72.6772 81.4262 72.6706H81.4328L81.4262 72.6639C82.2349 71.6747 82.1012 70.2177 81.1187 69.3889C80.6375 68.9812 80.036 68.8075 79.4545 68.8476L78.2448 66.5016C81.8004 61.6092 84.2199 55.8413 85.1021 49.5788L88.3637 46.3172C88.6845 46.4843 89.0454 46.5845 89.4264 46.5845C90.723 46.5845 91.7723 45.5352 91.7723 44.2386C91.7857 42.942 90.7297 41.8927 89.4331 41.8927ZM9.74476 47.5336L7.65948 45.4483C7.87336 45.0941 8.00034 44.6864 8.00034 44.2386C8.00034 43.7908 7.87336 43.3831 7.65948 43.0289L9.74476 40.9436C9.65119 42.033 9.59104 43.1291 9.59104 44.2386C9.59104 45.3481 9.65119 46.4442 9.74476 47.5336ZM77.2823 17.0899C77.2222 17.8251 77.4962 18.5804 78.1044 19.0883C78.1512 19.1284 78.198 19.1485 78.2448 19.1819L77.3893 20.8394C76.3466 19.5161 75.2238 18.2595 74.0207 17.0899H77.2823ZM46.3374 4.35101C46.6916 4.56489 47.0993 4.69187 47.5471 4.69187C47.9882 4.69187 48.4026 4.56489 48.7568 4.35101L50.8421 6.43629C49.7527 6.34272 48.6566 6.28256 47.5471 6.28256C46.4376 6.28256 45.3415 6.34272 44.2521 6.43629L46.3374 4.35101ZM17.2705 18.8009C17.6849 18.3063 17.8653 17.6848 17.8118 17.0899H21.0667C19.8637 18.2662 18.7409 19.5161 17.6982 20.8394L16.8427 19.1886C16.9964 19.0816 17.1435 18.9546 17.2705 18.8009ZM17.7316 71.3873C17.6046 70.9529 17.3574 70.5452 16.9831 70.2311C16.836 70.1041 16.6756 70.0105 16.5085 69.9303L17.6982 67.6378C18.7409 68.9612 19.8637 70.2177 21.0667 71.3873H17.7316ZM48.7501 84.1262C48.3959 83.9123 47.9882 83.7854 47.5404 83.7854C47.0993 83.7854 46.6849 83.9123 46.3307 84.1262L44.2454 82.0409C45.3348 82.1345 46.4309 82.1947 47.5404 82.1947C48.6499 82.1947 49.746 82.1345 50.8354 82.0409L48.7501 84.1262ZM73.8737 27.6567L63.307 17.0899H67.0698C70.1911 19.3423 72.9113 22.116 75.1035 25.284L73.8737 27.6567ZM75.9055 26.5138C77.1353 28.472 78.1712 30.5573 78.9733 32.7562L74.8228 28.6057L75.9055 26.5138ZM75.852 45.034C74.2881 46.3306 72.0023 47.9681 68.9613 49.512C69.0548 49.4384 69.1484 49.3649 69.2353 49.2914C70.0841 48.6297 70.7658 47.9747 71.3139 47.4334C71.8619 46.892 72.2496 46.4241 72.5103 46.1033C72.7709 45.7825 72.8979 45.6021 72.8979 45.6021C72.8979 45.6021 72.7442 45.7558 72.4367 46.0298C72.1293 46.3038 71.6681 46.6781 71.0599 47.1393C70.4517 47.6005 69.7032 48.1285 68.8076 48.6832C68.3598 48.9572 67.8919 49.258 67.3639 49.532C66.8493 49.8194 66.3146 50.1269 65.7264 50.3942C65.439 50.5345 65.145 50.6816 64.8442 50.8286C64.5367 50.969 64.2226 51.0893 63.9018 51.2296C63.581 51.3633 63.2602 51.5037 62.9327 51.644C62.5985 51.7643 62.2576 51.8913 61.9101 52.0116C61.5626 52.1386 61.215 52.2656 60.8608 52.3926C60.4999 52.4995 60.1323 52.6065 59.7647 52.7134C59.3971 52.8203 59.0228 52.934 58.6485 53.0409C58.2675 53.1278 57.8799 53.2213 57.4923 53.3082C57.1046 53.3951 56.7103 53.4887 56.3159 53.5823C55.9216 53.6691 55.5139 53.7159 55.1062 53.7828C54.8857 53.8162 54.6584 53.8496 54.4379 53.8897C53.9165 53.9565 53.3885 54.0167 52.8472 54.0702C56.3494 52.1854 58.7354 48.4827 58.7354 44.2186C58.7354 39.9678 56.3627 36.2651 52.8672 34.3803C54.5114 34.5474 56.0686 34.7813 57.5457 35.0687C57.92 35.1556 58.2943 35.2425 58.6619 35.3294C59.0362 35.443 59.4104 35.55 59.778 35.6569C60.1456 35.7638 60.5132 35.8708 60.8741 35.9777C61.2284 36.1047 61.5759 36.2317 61.9235 36.3587C62.271 36.4857 62.6119 36.606 62.9461 36.733C63.2736 36.8733 63.601 37.0137 63.9152 37.1473C64.236 37.281 64.5501 37.408 64.8576 37.5484C65.1583 37.6954 65.4524 37.8424 65.7398 37.9828C66.3279 38.2501 66.8626 38.5643 67.3773 38.845C67.8986 39.119 68.3731 39.4198 68.8209 39.6938C69.7098 40.2552 70.4651 40.7832 71.0733 41.2377C71.6748 41.6989 72.1427 42.0798 72.4501 42.3472C72.7576 42.6212 72.9113 42.7749 72.9113 42.7749C72.9113 42.7749 72.7843 42.5945 72.5236 42.2736C72.263 41.9595 71.8753 41.4917 71.3273 40.9436C70.7792 40.4022 70.0975 39.7539 69.2487 39.0856L69.242 39.0789C69.8235 39.3797 70.3715 39.6737 70.8728 39.9678C72.9781 41.1842 74.6356 42.4073 75.852 43.4165L60.6202 44.2386L75.852 45.034ZM19.202 43.47C20.7192 42.2068 22.9315 40.6161 25.8589 39.0989L25.8522 39.1056C25.0034 39.774 24.3216 40.4223 23.7736 40.9637C23.2255 41.505 22.8379 41.9729 22.5772 42.2937C22.3166 42.6145 22.1896 42.795 22.1896 42.795C22.1896 42.795 22.3433 42.6412 22.6508 42.3672C22.9582 42.0932 23.426 41.7189 24.0276 41.2577C24.6358 40.8033 25.3843 40.2686 26.2799 39.7138C26.7277 39.4398 27.1956 39.139 27.7236 38.865C28.2382 38.5776 28.7729 38.2702 29.3611 38.0028C29.6485 37.8625 29.9425 37.7154 30.2433 37.5684C30.5507 37.428 30.8649 37.3077 31.1857 37.1674C31.5065 37.0337 31.8273 36.8934 32.1548 36.753C32.489 36.6327 32.8298 36.5057 33.1774 36.3854C33.5249 36.2584 33.8725 36.1381 34.2267 36.0044C34.5876 35.8975 34.9552 35.7906 35.3228 35.6836C35.6904 35.5767 36.0647 35.4631 36.439 35.3561C36.8199 35.2693 37.2076 35.1757 37.5952 35.0888C37.7222 35.0621 37.8492 35.0286 37.9762 35.0019C39.333 34.7479 40.7566 34.5474 42.2403 34.4004C38.7381 36.2852 36.3521 39.9879 36.3521 44.252C36.3521 48.5027 38.7248 52.2054 42.2203 54.0902C41.5987 54.0301 40.9905 53.9565 40.389 53.8763C40.2486 53.8563 40.1149 53.8296 39.9746 53.8095C39.5669 53.7427 39.1592 53.6959 38.7649 53.609C38.3705 53.5154 37.9762 53.4285 37.5886 53.335C37.2009 53.2414 36.8133 53.1545 36.4323 53.0676C36.058 52.954 35.6837 52.8471 35.3161 52.7401C34.9485 52.6332 34.5809 52.5263 34.22 52.4193C33.8658 52.2923 33.5183 52.1653 33.1707 52.0384C32.8232 51.9114 32.4823 51.7911 32.1481 51.6708C31.8206 51.5304 31.4931 51.39 31.179 51.2564C30.8582 51.1227 30.5441 50.9957 30.2366 50.8554C29.9359 50.7083 29.6418 50.5613 29.3544 50.4209C28.7662 50.1536 28.2315 49.8461 27.7169 49.5587C27.1956 49.2847 26.7211 48.984 26.2733 48.7099C25.3843 48.1485 24.6291 47.6205 24.0209 47.166C23.4194 46.7049 22.9515 46.3239 22.6441 46.0565C22.3366 45.7825 22.1829 45.6288 22.1829 45.6288C22.1829 45.6288 22.3099 45.8093 22.5705 46.1301C22.8312 46.4442 23.2189 46.912 23.7669 47.4601C24.315 48.0015 24.9967 48.6498 25.8455 49.3181C25.9324 49.385 26.026 49.4585 26.1195 49.532C25.4378 49.1845 24.8029 48.8436 24.2214 48.5094C22.096 47.2796 20.4251 46.0499 19.202 45.0273L33.8391 44.2587L19.202 43.47ZM39.8543 38.8115C39.8543 37.6085 40.8301 36.6394 42.0264 36.6394C43.2295 36.6394 44.1986 37.6152 44.1986 38.8115C44.1986 39.8676 43.4501 40.7431 42.4542 40.9436C42.4876 41.0639 42.5144 41.1909 42.5144 41.3179C42.5144 42.0731 41.8995 42.688 41.1442 42.688C40.389 42.688 39.7741 42.0731 39.7741 41.3179C39.7741 40.85 40.008 40.4423 40.3622 40.195C40.0548 39.8208 39.8543 39.3396 39.8543 38.8115ZM48.1887 50.568C52.2323 48.3624 53.7227 43.2895 51.5171 39.246C50.1002 36.6528 47.507 35.1088 44.7667 34.915C46.5178 34.387 48.436 34.3402 50.3208 34.895C55.4805 36.4121 58.428 41.8192 56.9108 46.9789C55.3936 52.1386 49.9866 55.0861 44.8269 53.5689C42.9421 53.0142 41.3514 51.9381 40.1684 50.5479C42.5812 51.8779 45.5955 51.9849 48.1887 50.568ZM47.5471 31.5599C43.1292 31.5599 39.1859 32.0545 35.6837 32.8498L43.831 17.0899H51.2565L59.4038 32.8498C55.9082 32.0611 51.9649 31.5599 47.5471 31.5599ZM34.0329 33.2508C30.8515 34.0863 28.0778 35.1623 25.6985 36.3119L21.842 28.853L33.6051 17.0899H42.394L34.0329 33.2508ZM34.0329 55.2264L42.3874 71.3873H33.5985L21.8354 59.6242L25.6918 52.1653C28.0778 53.3149 30.8515 54.3843 34.0329 55.2264ZM35.6837 55.6274C39.1792 56.4161 43.1292 56.9174 47.5471 56.9174C51.9649 56.9174 55.9082 56.4228 59.4104 55.6274L51.2632 71.3873H43.831L35.6837 55.6274ZM61.0613 55.2264C64.2427 54.391 67.0164 53.3149 69.3957 52.1653L73.2521 59.6242L61.489 71.3873H52.7068L61.0613 55.2264ZM61.0613 33.2508L52.7068 17.0899H61.489L73.2521 28.853L69.3957 36.3119C67.0164 35.1623 64.2427 34.0863 61.0613 33.2508ZM62.0237 15.8067L59.0228 12.8057C61.1816 13.5944 63.2335 14.6103 65.1516 15.8067H62.0237ZM60.2058 15.8067H52.0385L49.472 10.8408C51.8446 10.9744 54.1505 11.3621 56.3694 11.9703L60.2058 15.8067ZM50.5948 15.8067H44.4994L47.0926 10.794C47.2463 10.794 47.3934 10.7806 47.5471 10.7806C47.7008 10.7806 47.8478 10.7873 48.0016 10.794L50.5948 15.8067ZM43.049 15.8067H34.8817L38.7181 11.9703C40.937 11.3621 43.2429 10.9744 45.6155 10.8408L43.049 15.8067ZM33.0705 15.8067H29.9359C31.8607 14.6103 33.9126 13.6011 36.0647 12.8057L33.0705 15.8067ZM31.7872 17.0899L21.2205 27.6567L19.9974 25.284C22.1829 22.116 24.9031 19.3423 28.031 17.0899H31.7872ZM20.2647 28.6057L16.1142 32.7562C16.9229 30.5573 17.9589 28.472 19.182 26.5138L20.2647 28.6057ZM20.8863 29.8021L24.5489 36.8867C19.9172 39.3061 16.963 41.9127 15.5929 43.2762L15.4659 43.4032C14.958 43.9312 14.704 44.2386 14.704 44.2386C14.704 44.2386 14.958 44.5461 15.4726 45.0741L15.5996 45.201C16.963 46.5645 19.9172 49.1778 24.5556 51.5906L20.893 58.6751L15.2854 53.0676C14.5168 50.2538 14.0958 47.2997 14.0958 44.2453C14.0958 41.1909 14.5168 38.2368 15.2854 35.423L20.8863 29.8021ZM20.2647 59.8715L19.182 61.9635C17.9522 60.0052 16.9162 57.9199 16.1142 55.721L20.2647 59.8715ZM21.2205 60.8206L31.7872 71.3873H28.0243C24.9031 69.1349 22.1829 66.3613 19.9974 63.1932L21.2205 60.8206ZM33.0705 72.6706L36.0714 75.6715C33.9126 74.8828 31.8607 73.8669 29.9359 72.6706H33.0705ZM34.8817 72.6706H43.049L45.6155 77.6365C43.2429 77.5028 40.937 77.1151 38.7181 76.5069L34.8817 72.6706ZM44.4994 72.6706H50.5948L48.0016 77.6833C47.8478 77.6833 47.7008 77.6966 47.5471 77.6966C47.3934 77.6966 47.2463 77.6899 47.0926 77.6833L44.4994 72.6706ZM49.472 77.6365L52.0385 72.6706H60.2058L56.3694 76.5069C54.1505 77.1151 51.8446 77.5028 49.472 77.6365ZM59.0228 75.6648L62.0237 72.6639H65.1583C63.2334 73.8669 61.1816 74.8761 59.0228 75.6648ZM67.0698 71.3873H63.307L73.8737 60.8206L75.0968 63.1932C72.9113 66.3613 70.1911 69.1349 67.0698 71.3873ZM77.8237 69.6763C77.4093 70.1709 77.2289 70.7925 77.2823 71.3873H74.0274C75.2305 70.211 76.3533 68.9612 77.396 67.6378L78.2515 69.2887C78.0977 69.3956 77.9507 69.5226 77.8237 69.6763ZM75.9055 61.9635L74.8228 59.8715L78.9733 55.721C78.1712 57.9199 77.1353 60.0052 75.9055 61.9635ZM79.8154 53.0609L74.2079 58.6685L70.5453 51.5839C77.1954 48.1151 80.3902 44.2386 80.3902 44.2386C80.3902 44.2386 77.1954 40.3555 70.5453 36.8934L74.2079 29.8088L79.8154 35.4163C80.584 38.2301 81.0051 41.1842 81.0051 44.2386C81.0051 47.293 80.584 50.2472 79.8154 53.0609ZM83.097 42.3538C83.0703 42.0464 83.0436 41.7055 83.0168 41.3313C82.9901 40.957 82.9701 40.5426 82.8698 40.1082C82.7161 39.2326 82.5356 38.2234 82.3351 37.1006C82.021 35.9978 81.7135 34.768 81.2925 33.4647C81.0452 32.8231 80.7845 32.1547 80.5105 31.4663C80.3701 31.1254 80.2432 30.7645 80.0961 30.417C79.9223 30.0761 79.7486 29.7286 79.5681 29.3743C78.2314 26.5004 76.1862 23.5195 73.5663 20.6656C70.9329 17.8251 67.5911 15.1784 63.6278 13.1867C59.6778 11.1883 55.1129 9.88501 50.3408 9.53747C45.4952 9.17656 40.5093 9.8516 35.7639 11.5693C31.032 13.2803 26.6074 16.0807 22.9782 19.6831C19.3691 23.3123 16.5754 27.7369 14.8577 32.4688C14.6572 33.0637 14.3898 33.6385 14.2361 34.2467C14.0757 34.8549 13.922 35.4564 13.7616 36.0646C13.3873 37.2676 13.2737 38.4841 13.0598 39.6871L12.9128 40.5894C12.886 40.8968 12.8727 41.2176 12.8526 41.5318C12.8192 42.16 12.7791 42.7883 12.7457 43.4098L12.719 43.8777L12.7056 44.1116L12.6989 44.2252C12.6989 44.2252 12.6989 44.2453 12.6989 44.2587V44.2988L12.739 45.2077C12.7657 45.8159 12.7925 46.4175 12.8192 47.019C13.1668 51.8178 14.47 56.376 16.4684 60.326C18.4601 64.2827 21.1068 67.6245 23.9474 70.2645C26.8013 72.8844 29.7821 74.9363 32.6561 76.2663C33.0103 76.4468 33.3578 76.6206 33.6987 76.7943C34.0529 76.9481 34.4072 77.075 34.748 77.2087C35.4364 77.4761 36.1048 77.7367 36.7464 77.9907C38.0564 78.4118 39.2862 78.7125 40.3823 79.0333C41.5051 79.2338 42.5143 79.4076 43.3899 79.568C43.8243 79.6616 44.2387 79.6883 44.6197 79.715C44.994 79.7418 45.3415 79.7685 45.6489 79.7953C46.8787 79.8888 47.5337 79.9423 47.5337 79.9423C47.5337 79.9423 46.8787 79.9289 45.6423 79.9022C45.3348 79.8955 44.9873 79.8888 44.613 79.8755C44.232 79.8688 43.8176 79.8688 43.3765 79.7953C42.4876 79.6816 41.4583 79.548 40.3155 79.4009C39.1926 79.1269 37.9361 78.8662 36.5927 78.4986C35.931 78.2714 35.2426 78.0375 34.5342 77.7902C34.1799 77.6632 33.8123 77.5496 33.4447 77.4092C33.0905 77.2488 32.7296 77.0817 32.362 76.9146C29.3744 75.6782 26.2265 73.7065 23.2322 71.0665C20.238 68.4265 17.4108 65.0379 15.2387 60.9743C13.0665 56.924 11.5493 52.1854 11.1416 47.1527C11.1082 46.5244 11.0681 45.8895 11.0347 45.2545L10.9812 44.2988L10.9745 44.2386L10.9812 44.1384L10.9879 44.0247L11.0013 43.7908L11.0213 43.323C11.0481 42.6947 11.0748 42.0731 11.1015 41.4382C11.1149 41.1241 11.1216 40.8099 11.1483 40.4891L11.2887 39.5133C11.4959 38.2167 11.6095 36.88 11.9838 35.6235C12.1442 34.9885 12.3113 34.3469 12.4717 33.7053C12.6254 33.0637 12.9061 32.4555 13.1133 31.8272C14.8978 26.8279 17.8252 22.1561 21.6148 18.313C25.4579 14.5234 30.1364 11.596 35.129 9.80481C40.1149 7.99356 45.4551 7.40541 50.421 7.83316C55.4805 8.24085 60.2125 9.75134 64.2694 11.9302C68.333 14.1024 71.7216 16.9295 74.3616 19.9237C77.0083 22.918 78.9733 26.066 80.2164 29.0602C80.3835 29.4278 80.5506 29.7887 80.711 30.1429C80.8514 30.5105 80.965 30.8781 81.092 31.2324C81.3393 31.9475 81.5732 32.6359 81.8004 33.2909C82.168 34.6343 82.4287 35.8908 82.7027 37.0137C82.8498 38.1566 82.9834 39.1791 83.097 40.0747C83.1706 40.5159 83.1706 40.9302 83.1772 41.3112C83.1839 41.6922 83.1906 42.033 83.204 42.3472C83.2307 43.5769 83.2441 44.2386 83.2441 44.2386C83.2441 44.2386 83.1973 43.5836 83.097 42.3538ZM87.4347 45.4483L85.3494 47.5336C85.443 46.4442 85.5031 45.3481 85.5031 44.2386C85.5031 43.1291 85.443 42.033 85.3494 40.9436L87.4347 43.0289C87.2208 43.3831 87.0938 43.7908 87.0938 44.2386C87.0871 44.6797 87.2208 45.0941 87.4347 45.4483Z" fill="#FCC463"/>
<path d="M93.9176 43.0623C93.2693 43.0623 92.7413 43.5903 92.7413 44.2386C92.7413 44.8869 93.2693 45.4149 93.9176 45.4149C94.5659 45.4149 95.0939 44.8869 95.0939 44.2386C95.0939 43.5903 94.5659 43.0623 93.9176 43.0623Z" fill="#FCC463"/>
<path d="M1.17631 43.0623C0.528003 43.0623 0 43.5903 0 44.2386C0 44.8869 0.528003 45.4149 1.17631 45.4149C1.82462 45.4149 2.35262 44.8869 2.35262 44.2386C2.34594 43.5903 1.82462 43.0623 1.17631 43.0623Z" fill="#FCC463"/>
<path d="M45.2613 64.4899C45.9296 65.0513 46.7384 65.3253 47.5471 65.3253C48.563 65.3253 49.5655 64.8976 50.2673 64.0554C51.5305 62.5516 51.3367 60.3126 49.8329 59.0494C49.1645 58.488 48.3558 58.214 47.5471 58.214C46.5312 58.214 45.5286 58.6417 44.8269 59.4839C43.5637 60.9877 43.7575 63.2267 45.2613 64.4899ZM45.8093 60.3126C46.2438 59.798 46.872 59.5039 47.5471 59.5039C48.0818 59.5039 48.5964 59.6911 49.0041 60.0386C49.9598 60.8406 50.0868 62.2776 49.2848 63.2334C48.8504 63.748 48.2221 64.0421 47.5471 64.0421C47.0124 64.0421 46.4978 63.8549 46.0901 63.5074C45.1276 62.6987 45.0073 61.2684 45.8093 60.3126Z" fill="#FCC463"/>
<path d="M46.1835 67.2635C45.5552 68.012 45.6488 69.1349 46.404 69.7631C47.1526 70.3914 48.2754 70.2978 48.9037 69.5426C49.5319 68.794 49.4384 67.6712 48.6831 67.0429C47.9346 66.4146 46.8184 66.5082 46.1835 67.2635Z" fill="#FCC463"/>
<path d="M47.5471 23.1587C46.7384 23.1587 45.9296 23.4327 45.2613 23.9941C43.7575 25.2573 43.5637 27.4963 44.8269 29.0001C45.5286 29.8356 46.5379 30.27 47.5471 30.27C48.3558 30.27 49.1645 29.996 49.8329 29.4346C51.3367 28.1714 51.5305 25.9324 50.2673 24.4286C49.5655 23.5864 48.5563 23.1587 47.5471 23.1587ZM49.0041 28.4454C48.5964 28.7863 48.0818 28.9801 47.5471 28.9801C46.872 28.9801 46.2438 28.686 45.8093 28.1714C45.0073 27.2156 45.1276 25.7787 46.0901 24.9766C46.4978 24.6358 47.0124 24.4419 47.5471 24.4419C48.2221 24.4419 48.8504 24.736 49.2848 25.2506C50.0868 26.2064 49.9598 27.6367 49.0041 28.4454Z" fill="#FCC463"/>
<path d="M48.6898 21.4343C49.4384 20.806 49.5387 19.6832 48.9104 18.9346C48.2821 18.186 47.1593 18.0858 46.4107 18.714C45.6622 19.3423 45.5619 20.4651 46.1902 21.2137C46.8184 21.9623 47.9346 22.0625 48.6898 21.4343Z" fill="#FCC463"/>
</svg>
