<svg width="67" height="9" viewBox="0 0 67 9" fill="none" xmlns="http://www.w3.org/2000/svg">
<path d="M55.4599 8.46199L56.41 4.47199C56.42 4.42199 56.42 4.37199 56.41 4.31199L55.4199 0.541994C55.3499 0.251994 55.6699 0.0219943 55.9299 0.171994L58.8599 1.78199C59.8699 2.33199 60.9499 2.75199 62.0799 3.01199L66.44 4.03199C66.78 4.11199 66.7999 4.57199 66.4599 4.67199L61.38 6.18199C60.73 6.37199 60.1 6.63199 59.51 6.95199L55.9599 8.83199C55.7099 8.97199 55.3999 8.75199 55.4599 8.46199Z" fill="#FCC463"/>
<path d="M7.19 5.292C6.2 6.182 4.16999 7.332 2.95999 7.332C1.31999 7.332 0 6.062 0 4.502C0 2.942 1.32999 1.672 2.95999 1.672C4.22999 1.672 6.42 2.742 7.34 3.712H47V4.502V5.292H7.19Z" fill="#FCC463"/>
<path d="M51.12 6.53192C49.95 6.53192 49 5.62192 49 4.50192C49 3.38192 49.95 2.47192 51.12 2.47192C52.29 2.47192 53.24 3.38192 53.24 4.50192C53.25 5.62192 52.3 6.53192 51.12 6.53192Z" fill="#FCC463"/>
</svg>
