<svg width="27" height="27" viewBox="0 0 27 27" fill="none" xmlns="http://www.w3.org/2000/svg">
<path d="M13.5 0.84375C10.9968 0.84375 8.54988 1.58603 6.46857 2.97671C4.38726 4.3674 2.76508 6.34404 1.80716 8.65666C0.849234 10.9693 0.598598 13.514 1.08694 15.9691C1.57529 18.4242 2.78068 20.6793 4.55069 22.4493C6.32069 24.2193 8.57582 25.4247 11.0309 25.9131C13.486 26.4014 16.0307 26.1508 18.3433 25.1929C20.656 24.2349 22.6326 22.6127 24.0233 20.5314C25.414 18.4501 26.1563 16.0032 26.1563 13.5C26.1563 10.1434 24.8228 6.92419 22.4493 4.55068C20.0758 2.17717 16.8567 0.84375 13.5 0.84375ZM14.0425 8.61806C15.193 8.6194 16.296 9.07702 17.1095 9.89052C17.923 10.704 18.3806 11.807 18.3819 12.9575H17.2969C17.296 12.0946 16.9528 11.2674 16.3427 10.6573C15.7326 10.0472 14.9054 9.70402 14.0425 9.70312V8.61806ZM17.5568 21.0938C17.5239 21.0938 14.2661 21.0381 10.0769 16.9231C5.96194 12.7356 5.90626 9.47616 5.90626 9.44325C5.90626 9.03741 8.43751 5.90625 8.99691 5.90625C9.19098 5.90625 9.34201 6.03787 9.50738 6.23531C9.90563 6.7095 11.6665 9.48881 11.5855 9.95203C11.5467 10.1697 11.3619 10.3351 10.8321 10.7797C10.571 10.985 10.3266 11.2107 10.1014 11.4548C10.2093 11.9013 10.3696 12.3334 10.5789 12.7423C11.359 14.3462 12.6551 15.6417 14.2594 16.4211C14.6682 16.6304 15.1004 16.7907 15.5469 16.8986C15.791 16.6734 16.0167 16.429 16.2219 16.1679C16.6666 15.6381 16.832 15.4533 17.0497 15.4145C17.5129 15.3301 20.2922 17.0944 20.7664 17.4926C20.9638 17.6614 21.0954 17.809 21.0954 18.0031C21.0938 18.5625 17.9626 21.0938 17.5568 21.0938ZM20.0087 12.9575C20.0069 11.3757 19.3778 9.85922 18.2593 8.74073C17.1408 7.62225 15.6243 6.9931 14.0425 6.99131V5.90625C15.912 5.90848 17.7042 6.65209 19.026 7.97397C20.3479 9.29585 21.0915 11.0881 21.0938 12.9575H20.0087Z" fill="#FCC463"/>
</svg>
