<svg width="99" height="99" fill="#fff" xmlns="http://www.w3.org/2000/svg"><g clip-path="url(#clip0_28_336)" fill="#fff"><path d="M59.21 47.713c-.417-.344-.85-.667-1.3-.968l-.015-.011.076-.123.017.01c.468.287.91.617 1.319.986l.013.012-.097.11-.013-.016zm-1.8-1.271a.169.169 0 01-.071-.06l-.148-.241.297.174v.022l-.034.067-.027.05-.016-.012z"/><path d="M63.692 48.864a.226.226 0 01-.322.107.246.246 0 01-.086-.082 32.557 32.557 0 00-1.07-1.485l-.29-.371c-.18-.231-.365-.469-.553-.692l-.082-.1c-.261-.32-.542-.634-.729-.843l-.094-.104a16.158 16.158 0 00-.738-.74l-.117-.107a13.098 13.098 0 00-.775-.659l-.09-.07c-.245-.19-.537-.415-.84-.616-.026-.017-.062-.042-.073-.048a13.454 13.454 0 00-.839-.519l-.094-.05a13.586 13.586 0 00-.66-.341l-.083-.039a18.8 18.8 0 00-.76-.322c-.032-.012-.063-.026-.097-.037a10.34 10.34 0 00-.83-.277l-.118-.034a20.186 20.186 0 00-3.13-.592 13.934 13.934 0 00-1.42-.063h-.62c-.473-.003-.947.018-1.418.063a20.171 20.171 0 00-3.129.592l-.119.034c-.249.075-.521.167-.83.277l-.097.036c-.277.109-.527.215-.76.323l-.084.04a11.1 11.1 0 00-.659.34l-.094.052c-.267.15-.54.318-.83.513l-.075.051a17.89 17.89 0 00-.83.611l-.097.076a20.185 20.185 0 00-.893.768c-.26.245-.509.494-.737.739l-.094.103c-.233.252-.472.528-.73.842l-.081.101a64.48 64.48 0 00-.723.917l-.113.148c-.385.498-.745.999-1.071 1.486a.242.242 0 01-.2.113.225.225 0 01-.207-.138.234.234 0 01.028-.231c.315-.458.647-.89.968-1.31l.201-.263.118-.15.228-.29a37.7 37.7 0 01.502-.634l.085-.103c.214-.262.45-.533.741-.852l.097-.105c.213-.228.458-.473.749-.747l.129-.118c.245-.224.509-.45.783-.67l.097-.076c.26-.206.537-.415.845-.626l.076-.051.168-.112c.23-.151.46-.29.68-.415l.021-.011.078-.043c.198-.11.415-.224.668-.345l.087-.04c.258-.119.514-.228.762-.323l.106-.04c.277-.104.563-.201.848-.287l.13-.037a19.131 19.131 0 014.729-.667h.533a19.17 19.17 0 014.733.667l.112.032c.3.09.582.185.864.291l.107.04c.303.118.545.22.761.323l.087.041c.218.108.45.224.67.345l.097.054c.221.126.451.267.68.415l.17.111.066.048c.277.194.567.406.854.63l.095.076c.252.2.517.426.785.67l.127.117c.25.231.503.483.75.748l.097.105c.267.292.51.57.742.851l.084.104c.17.207.345.431.501.63l.248.317.1.127.207.277c.302.394.644.842.96 1.3a.236.236 0 01.027.224z"/><path d="M55.339 55.143a.2.2 0 01-.029-.028l-.028-.032.22-.243c.612-.672 1.373-1.51 1.857-2.976l.075.027c-.624 2.01-1.79 3.181-2.06 3.259h-.018l-.017-.007zm2.41-5.779a9.327 9.327 0 00-.193-1.714l.07-.011c.139.567.205 1.15.198 1.734l-.074-.008zm1.211 4.372a7.809 7.809 0 00.939-4.55h.075c0 .038.01.097.013.129.16 1.51 0 2.766-.49 3.85v.01c-.022.01-.066.025-.094.034l-.037.015-.007.013a1.03 1.03 0 00-.083.218c-.022.087-.054.17-.097.25l-.138.106-.082-.075zm1.447-1.28l.087-.238a4.301 4.301 0 00.221-2.351c0-.042-.012-.083-.02-.125l-.042-.256.138.11v.015a3.088 3.088 0 01.09.44c.103.767.139 1.586-.318 2.388l-.068.073-.088-.056zm-3.037 2.392h-.03a.687.687 0 01-.15-.022l-.071-.018.045-.054c1.156-1.373 1.69-3.07 1.68-5.341h.076c.096 2.373-.393 4.14-1.494 5.417l-.046.054-.01-.036zm-6.187-6.674v.056a1.24 1.24 0 01-.016.156 1.694 1.694 0 01-.212.656l-.039.067a1.65 1.65 0 01-.323.402l-.038.03a1.323 1.323 0 01-.243.179l-.086.049-.017.008a1.646 1.646 0 01-.753.184h-.015a1.698 1.698 0 01-.213-.017 1.67 1.67 0 01-.266-.053 1.594 1.594 0 01-.346-.138 1.37 1.37 0 01-.154-.091l-.07-.05a1.77 1.77 0 01-.524-.618l-.032-.065a2.022 2.022 0 01-.155-1.19l.053-.291.034-.026c.037-.1.083-.196.139-.287.044-.083.097-.161.157-.233l.038-.043c.144-.169.318-.31.513-.415.026-.017.06-.032.098-.051a1.97 1.97 0 01.47-.139c.108-.027.22-.041.333-.043.22.002.437.055.632.155.144.06.276.143.392.246l.079.071c.057.057.11.118.16.183l-.24.294-.04.05-.097.129-.111.138c-.067.088-.138.178-.208.265l-.044.056c.368-.034.74-.042 1.107-.047 0 .026.008.047.012.066v.026l.007.074c.012.085.018.17.018.257z"/><path d="M48.398 47.496c0-.01.01-.022.018-.033a.79.79 0 01.055-.086 1.118 1.118 0 01.32-.326l.043-.028a1.06 1.06 0 01.307-.138l.032-.008a.898.898 0 01.196-.034h.076a1.129 1.129 0 01.5.115h.008c.042.022.083.046.122.074.05.031.096.068.138.109a.988.988 0 01.162.186.906.906 0 01.065.1l.027.048a1.179 1.179 0 01.127.52v.049a1.276 1.276 0 01-.257.75l-.118.157h-.028a1.198 1.198 0 01-.325.221l-.035.014a1.195 1.195 0 01-.819.042.886.886 0 01-.537-.352.898.898 0 01-.159-.261c-.01-.02-.018-.043-.026-.065a1.271 1.271 0 01-.04-.155l.23-.116.037-.02.097-.045.106-.051.202-.097.043-.02a9.957 9.957 0 01-.67-.298c0-.018.009-.03.013-.044v-.017l.018-.046c.02-.05.045-.098.072-.145z"/><path d="M52.309 48.092c-.026.91-.387 1.79-.98 2.351a2.923 2.923 0 01-1.998.788 2.74 2.74 0 01-1.405-.377c-1.005-.6-1.574-1.902-1.384-3.167a3.074 3.074 0 012.498-2.521c.15-.024.3-.036.451-.036a3.173 3.173 0 011.738.536c.078.05.153.106.223.166l.037.032-.304.423-.039.052-.068.092-.027-.02a2.832 2.832 0 00-1.589-.552c-.397 0-.787.104-1.132.3-1.107.622-1.493 2.087-.86 3.27a2.147 2.147 0 001.924 1.139c.474.001.937-.148 1.32-.428.598-.434.944-1.149.969-1.998a2.632 2.632 0 000-.295v-.094c.214 0 .425 0 .628-.015v.047c-.002.1-.002.205-.002.307z"/><path d="M49.182 52.157a3.32 3.32 0 01-1.576-.392 3.293 3.293 0 01-.571-.391 3.935 3.935 0 01-1.057-1.431 4.048 4.048 0 01-.342-1.376 3.67 3.67 0 01.43-2.047 4.265 4.265 0 011.106-1.329c.103-.083.19-.139.293-.21a.77.77 0 01.079-.05c.033-.022.058-.036.083-.051.138-.08.28-.152.428-.215l.02-.008c.04-.017.076-.032.115-.046.039-.014.096-.036.139-.05l.022-.007.029.052h.34c.248 0 .507 0 .767.014h.05l.263.012h.02l.333.022h.017c.287.02.575.05.86.09a3.107 3.107 0 01.506.29c.019.01.037.022.054.034l.022.016c.1.073.195.152.285.235a2.902 2.902 0 01.731 1.047l.02.044c.054.127.1.256.14.388.079.282.131.572.156.864a5.184 5.184 0 01-.013.988c-.01.096-.025.19-.041.276a3.505 3.505 0 01-.108.46 3.974 3.974 0 01-.3.743 3.309 3.309 0 01-.218.372 3.5 3.5 0 01-.462.56c-.04.042-.084.083-.138.139-.112.1-.23.192-.353.276a3.68 3.68 0 01-.708.389c-.11.048-.224.09-.34.124a3.599 3.599 0 01-1.053.168h-.028zm.191-7.396c-.15 0-.301.01-.45.03l-.116.02-.065.01-.033.007a3.193 3.193 0 00-.538.163 3.13 3.13 0 00-.461.227 3.425 3.425 0 00-.299.2c-.11.08-.215.167-.311.262a3.494 3.494 0 00-.543.652c-.074.115-.14.234-.199.358a3.533 3.533 0 00-.295.832 3.632 3.632 0 00-.04 1.37 3.734 3.734 0 00.375 1.099l.068.123c.152.267.338.513.553.732a3.253 3.253 0 001.292.792c.302.098.616.15.932.154h.063a3.099 3.099 0 00.912-.14 3.34 3.34 0 00.866-.404l.086-.055.024-.02a3.076 3.076 0 00.324-.264c.2-.187.378-.397.529-.626a3.3 3.3 0 00.219-.38 3.667 3.667 0 00.333-.95l.03-.13a4.41 4.41 0 00.068-.723 3.935 3.935 0 00-.008-.415 3.343 3.343 0 00-.375-1.382 2.478 2.478 0 00-.59-.699 3.525 3.525 0 00-.308-.227 4.073 4.073 0 00-1.208-.51l-.08-.017-.06-.01-.025-.008-.07-.012-.139-.022a3.483 3.483 0 00-.332-.026l-.129-.011z"/><path d="M49.28 53.415h-.194a4.202 4.202 0 01-1.639-.423 4.631 4.631 0 01-1.089-.74l-.025-.022a5.2 5.2 0 01-1.652-3.498 4.916 4.916 0 01.115-1.378 5.426 5.426 0 01.96-2.077c.051-.068.11-.139.18-.225l.122-.138.015-.012c.018 0 .1-.03.277-.068a3.25 3.25 0 01.182-.037l.11-.023-.175.173a4.846 4.846 0 00-.931 1.236 5.027 5.027 0 00-.58 2.09v.415a3 3 0 00.039.415c.056.387.16.765.307 1.126.049.116.1.228.17.364a4.838 4.838 0 001.567 1.793 4.309 4.309 0 00.827.439c.398.157.819.246 1.246.265h.379a4.007 4.007 0 001.283-.279c.262-.103.513-.231.75-.383.07-.046.138-.094.22-.15.123-.09.241-.184.354-.284.296-.266.56-.566.783-.894l.013-.018a4.605 4.605 0 00.775-2.682c0-.138-.01-.252-.022-.362a4.253 4.253 0 00-.058-.415 5.21 5.21 0 00-1.083-2.381c-.05-.064-.1-.125-.155-.185l-.065-.074.097.024c.118.027.212.051.3.075l.021.01a5.102 5.102 0 01.666 1.012 5.478 5.478 0 01.55 1.917 5.361 5.361 0 01-.038 1.281 4.822 4.822 0 01-.785 1.998 5.024 5.024 0 01-.874.981c-.114.1-.226.19-.343.277a5.006 5.006 0 01-1.066.584c-.12.045-.235.084-.35.117-.325.096-.66.152-.998.167-.054-.012-.119-.01-.185-.01z"/><path d="M49.223 54.555h-.22a5.053 5.053 0 01-1.625-.342l-.043-.012a5.49 5.49 0 01-.277-.127 5.312 5.312 0 01-.728-.415 5.736 5.736 0 01-.715-.587 6.1 6.1 0 01-1.344-1.925v-.022a4.25 4.25 0 01-.162-.402 6.59 6.59 0 01-.364-1.81v-.02a6.574 6.574 0 01.113-1.642v-.02a5.235 5.235 0 01.096-.417 6.174 6.174 0 01.532-1.334l.023-.043.028-.014.338-.107.078-.023-.041.066a6.258 6.258 0 00-.15.262l-.013.018-.009.02a6.287 6.287 0 00-.494 1.197l-.007.026a8.19 8.19 0 00-.098.389v.02a6.12 6.12 0 00-.138 1.559v.03c0 .137.014.276.03.403v.02c.025.228.063.455.117.678.05.22.113.437.19.649l.01.022a5.416 5.416 0 001.193 1.909c.089.092.181.18.277.276l.025.015c.394.36.842.656 1.328.877.11.053.217.096.317.139a5.26 5.26 0 001.84.352h.104a4.925 4.925 0 001.505-.263l.02-.008a4.666 4.666 0 001.284-.67l.017-.01c.113-.079.221-.164.324-.255l.016-.012c.4-.34.747-.735 1.033-1.174l.027-.043c.056-.087.109-.173.164-.277l.073.02.042-.108-.05-.028a6.03 6.03 0 00.534-1.425v-.027c.033-.138.057-.268.078-.393v-.046c.082-.502.1-1.014.053-1.52a5.755 5.755 0 00-.05-.424v-.043a6.107 6.107 0 00-.511-1.66l-.078-.16c-.033-.066-.068-.138-.108-.205l-.04-.07.08.029c.092.033.188.07.294.112h.01l.012.018c.026.048.053.102.08.156l.014.032.017.032.047.102a6.446 6.446 0 01.486 1.606v.023c.021.122.04.253.055.401a6.72 6.72 0 01-.05 1.703v.025a7.06 7.06 0 01-.08.392v.018a5.862 5.862 0 01-.857 1.965l-.011.019a5.763 5.763 0 01-1.135 1.237l-.016.014a5.778 5.778 0 01-2.081 1.069 5.377 5.377 0 01-1.218.187l-.191-.004z"/><path d="M56.22 46.547a4.327 4.327 0 00-.066-.251 1.71 1.71 0 00-.062-.176.6.6 0 01-.314-.062.647.647 0 00-.12-.048 1.266 1.266 0 01-.453-.208v.018c.01.032.041.118.076.216l.026.074c.038.101.072.198.082.233a6.91 6.91 0 01.24 1.28 7.531 7.531 0 01-.165 2.481 7.277 7.277 0 01-1.002 2.346 6.56 6.56 0 01-1.66 1.715l-.047.032a6.13 6.13 0 01-1.69.825 5.819 5.819 0 01-1.704.255h-.084c-.089 0-.179 0-.29-.011a6.151 6.151 0 01-2.246-.581 6.429 6.429 0 01-1.767-1.23l-.015-.013-.097-.097-.036-.036a6.673 6.673 0 01-1.485-2.433 6.972 6.972 0 01-.386-2.069 7.586 7.586 0 01.373-2.677c-.1.03-.2.058-.3.085a1.262 1.262 0 00-.373.164.675.675 0 01-.116.073 8.081 8.081 0 00-.238 2.52v.06c0 .064.01.13.015.198.225 2.428 1.454 4.535 3.37 5.786a6.603 6.603 0 003.615 1.073c2.71 0 5.141-1.55 6.347-4.046a8.35 8.35 0 00.573-5.496z"/><path d="M46.827 55.278a.139.139 0 01-.123-.063.152.152 0 01-.007-.139l2.09-5.622c.043-.117.086-.248.12-.354.119-.365.24-.742.478-1.012l.026-.017h.01a.06.06 0 01.054.06c0 .397-.172.809-.34 1.207a7.77 7.77 0 00-.163.403l-1.994 5.421a.164.164 0 01-.15.116zm2.318.556a.138.138 0 01-.138-.138c-.008-.97.045-1.94.16-2.904v-.021c.039-.393.078-.8.107-1.192l.138-1.97c.011-.138.02-.294.025-.428a6.42 6.42 0 01.15-1.281c.012-.044.041-.05.053-.05a.08.08 0 01.074.073c.038.492.026.987-.036 1.476-.018.197-.033.376-.044.553l-.118 1.862c-.024.368-.039.748-.054 1.119a22.492 22.492 0 01-.217 2.802.103.103 0 01-.1.1z"/><path d="M50.976 55.706a.187.187 0 01-.181-.179 46.233 46.233 0 00-.57-3.939 34.968 34.968 0 00-.4-1.774 35.41 35.41 0 01-.392-1.715.121.121 0 01.02-.104.102.102 0 01.078-.036.112.112 0 01.104.08c.429 1.117.672 2.385.908 3.612l.014.07c.23 1.198.415 2.48.553 3.812a.157.157 0 01-.033.127.14.14 0 01-.101.046z"/><path d="M53.032 54.617a.138.138 0 01-.123-.095 66.078 66.078 0 00-3.506-6.372.122.122 0 010-.13.146.146 0 01.12-.079.09.09 0 01.075.042c1.298 1.755 2.538 3.95 3.582 6.346a.218.218 0 01-.01.201.168.168 0 01-.138.087z"/><path d="M54.827 52.87a.154.154 0 01-.105-.05c-1.911-1.936-3.844-3.637-5.481-5.046a.094.094 0 01-.025-.112.128.128 0 01.105-.083c.017 0 .033.006.047.015 1.799 1.297 3.668 2.972 5.56 4.979a.178.178 0 01.042.19.163.163 0 01-.143.107z"/><path d="M55.812 50.366a.168.168 0 01-.055-.01c-.643-.225-1.316-.448-1.908-.644l-.08-.027c-1.495-.496-3.044-1.01-4.483-1.63a.139.139 0 01-.079-.158.107.107 0 01.104-.091h.035c1.503.4 3.023.951 4.493 1.482.628.227 1.32.479 1.983.707a.199.199 0 01.126.219c-.01.094-.064.152-.136.152zm-.936-4.648l-1.184.402-1.191.405c.077.12.13.252.155.392.415-.148.82-.299 1.226-.447l.077-.03c.43-.157.901-.33 1.384-.5a.745.745 0 01-.468-.222z"/><path d="M56.067 47.692a.13.13 0 01-.122.071c-1.01.138-2.1.238-3.443.317l-.192.012c-.147.011-.294.02-.436.033h-.026l-.166.013c-.165.012-.333.026-.499.034-.254.018-.51.03-.763.03-.254 0-.468-.012-.676-.031l-.211-.025a4.88 4.88 0 01-.309-.053.083.083 0 01-.055-.084.085.085 0 01.058-.087 6.44 6.44 0 01.492-.084c.107-.013.212-.025.32-.035.368-.033.74-.041 1.107-.047h.526c.214 0 .425 0 .628-.015l.191-.011c1.157-.075 2.303-.2 3.413-.321h.033a.14.14 0 01.116.066.239.239 0 01.014.217z"/><path d="M44.866 53.754a.138.138 0 01-.117-.088.172.172 0 01.03-.181c.386-.465.797-.934 1.16-1.348l.025-.029c.423-.484.862-.983 1.28-1.492.398-.485.784-.968 1.148-1.431.11-.139.219-.288.316-.415a7.66 7.66 0 01.802-.968.074.074 0 01.056-.025.083.083 0 01.07.041.093.093 0 010 .092c-.402.79-1.02 1.52-1.62 2.23-.19.227-.353.415-.516.623l-.173.2c-.747.924-1.523 1.878-2.368 2.745a.129.129 0 01-.093.046z"/><path d="M43.146 51.398a.139.139 0 01-.127-.12.118.118 0 01.068-.138 7.86 7.86 0 011.072-.437c.206-.072.395-.138.579-.211a31.898 31.898 0 003.337-1.563c.139-.076.285-.166.415-.246.331-.206.673-.415 1.018-.487.045 0 .06.018.069.033a.07.07 0 01-.011.078c-.277.333-.716.553-1.107.756-.125.064-.23.118-.33.171-.528.29-1.07.568-1.613.83l-.497.241c-.931.454-1.893.922-2.844 1.093h-.029zm-.546-1.96a.129.129 0 01-.125-.13.215.215 0 01.13-.233l.03-.008c1.128-.162 2.29-.329 3.497-.574.416-.084.823-.195 1.218-.301a12.705 12.705 0 012.076-.436.08.08 0 01.076.07.085.085 0 01-.035.1c-.83.415-1.798.61-2.74.797l-.034.007c-.224.044-.407.08-.587.119a35.79 35.79 0 01-3.487.588H42.6z"/><path d="M49.126 47.908a5.027 5.027 0 01-.839-.095h-.028a9.438 9.438 0 00-.332-.053l-1.624-.224c-1.062-.146-2.183-.304-3.333-.466a.2.2 0 01-.163-.171.172.172 0 01.065-.169h.058l.173.018.108.015c.077.013.154.02.231.024a.532.532 0 00.097-.009c.943.139 1.875.277 2.81.424 0 0 1.393.211 1.717.262.106.017.218.03.326.043a3.23 3.23 0 011.085.262.065.065 0 01.027.067s-.009.046-.04.053a1.908 1.908 0 01-.338.02z"/><path d="M49.585 48.207h-.017l-.138-.046-.04-.012-.075-.025-.023-.007v-.068l-.05-.007v-.037l-.107-.012-.022.047v.016l-.112-.04a6.597 6.597 0 01-.346-.14l-.023-.008-.06-.028-.046-.019a10.981 10.981 0 01-.336-.153l-.264-.129-.053-.026-.303-.16-.069-.037a9.584 9.584 0 01-.242-.131l-.38-.217-.326-.188-.162-.099a26.084 26.084 0 01-.332-.199 20.845 20.845 0 01-.483-.31l-.29-.196a3.973 3.973 0 01-.16-.108l-.06-.041a6.856 6.856 0 00-.287-.192c-.025-.018-.086-.06-.095-.068-.072-.047-.139-.094-.204-.139l-.069-.05.06-.02c.132-.044.263-.086.39-.124h.01l.103.071c.06.047.12.096.183.139.094.07.166.125.242.177l.062.043c.096.066.193.13.297.197.15.1.32.212.485.313.116.076.223.138.323.2l.164.1c.104.062.21.122.314.181.153.086.277.151.384.21l.598.309-.018.068.107.038.025-.047.607.305.018.01a.354.354 0 01.048.026l.068.033.38.199.218.119.043.025h.013v.008l.072.039.038.022a.07.07 0 01.027.025.083.083 0 01.02.06c0 .015-.003.03-.01.044a.207.207 0 01-.02.033.08.08 0 01-.042.026h-.034z"/><path d="M49.403 48.01l-.021-.021a.505.505 0 01-.056-.047l-.025-.023-.05-.045-.132-.12c-.072-.066-.139-.122-.21-.196a.339.339 0 01-.045-.042l-.112-.107a13.368 13.368 0 01-.277-.277l-.218-.22-.262-.277-.207-.226-.294-.326c-.097-.11-.23-.257-.358-.405l-.248-.287-.346-.405.043-.052-.083-.078-.043.033-.058-.068.055-.012.285-.054h.01l.277.295.375.415.206.222.675.73c.038.043.111.122.269.29.041.05.083.095.126.14l.06.064.012.017.01.008.008.007c.025.032.091.107.21.238l.138.152.139.155.33.379v.016h-.045l-.015.115.042.01a.111.111 0 01-.023.02l-.012-.012h-.095v.014l-.035-.02z"/><path d="M49.458 48.044a.063.063 0 01-.038-.011l-.017-.013-.01-.02-.017-.019c0-.015-.014-.034-.02-.053l-.035-.078c0-.014-.035-.086-.035-.086l-.008-.02a.84.84 0 01-.037-.089l-.139-.329-.012-.033a2.784 2.784 0 00-.045-.115c-.052-.138-.098-.256-.138-.379-.032-.083-.06-.163-.091-.242l-.151-.402-.093-.24-.176-.431a11.734 11.734 0 01-.187-.467l-.069-.191a5.315 5.315 0 01-.058-.17l-.012-.038h.115l.045-.015.107-.036h.03l.017.028c.03.072.06.148.097.247l.008.02.022.057c.054.139.104.291.152.433l.06.17c.04.114.075.215.112.315l.02.059c.008.018.248.653.248.653l.124.332a16.502 16.502 0 01.137.374c.048.139.095.27.138.415l.03.092.034.108.015.04a.093.093 0 010 .05l-.01.04a.245.245 0 01-.034.031l-.018.011-.061.002zm.396-.285a.14.14 0 01-.092-.036.118.118 0 01-.033-.084l.02-.348.01-.159.031-.442.018-.252.03-.48.009-.188v-1.131l.307.02v.222c0 .17-.011.324-.017.453l-.029.501-.01.188c-.01.21-.02.392-.033.553l-.016.212c-.013.138-.027.29-.046.441a.307.307 0 010 .043c-.008.075-.02.165-.035.256l-.008.057c0 .03-.008.06-.012.088a.1.1 0 01-.094.086z"/><path d="M52.154 44.947l-.139.184-.112.16c-.078.104-.155.208-.23.316l-.19.265-.305.424-.039.05-.068.093c-.092.13-.192.267-.303.415l-.23.306-.038.05-.099.128-.11.139c-.067.088-.138.178-.208.265l-.044.056a3.03 3.03 0 01-.101.13l-.194.237v.007l-.015.016-.023.035-.168.195a.158.158 0 01-.028.017l-.034.014-.033-.014a.155.155 0 01-.049-.035.106.106 0 01-.014-.138l.075-.117.065.025.018-.035.035-.068-.046-.03.065-.097.007-.017.008-.012.074.02.047-.103-.049-.03.018-.017.039-.057c.076-.112.138-.21.21-.305.035-.053.07-.103.107-.154l.023-.035.234-.331.127-.175.104-.138.17-.23.09-.121.067-.092c.086-.116.188-.254.295-.394l.072-.091c.127-.176.402-.54.438-.585l.16-.21.13.026.19.058z"/><path d="M64.104 51.673a.193.193 0 01-.073-.013c-.09-.022-.184-.047-.277-.071a13.554 13.554 0 01-.807-.252 7.08 7.08 0 01-1.714-.942 7.01 7.01 0 01-.316-.242l-.203-.162-.222-.18-.033-.029-.277-.228-.22-.19-1.123-.969-.129-.11a78.618 78.618 0 00-.603-.501c-.188-.155-.415-.318-.61-.463a13.336 13.336 0 00-1.984-1.166l-.14-.07-.31-.138a13.766 13.766 0 00-.395-.16c-.087-.033-.166-.064-.245-.091l-.152-.054-.074-.027c-.138-.044-.254-.084-.377-.121a10.62 10.62 0 00-.99-.257l-.034-.007-.317-.06-.132-.022-.24-.042h-.023l-.07-.01-.424-.059-.138-.018a14.46 14.46 0 00-.843-.073l-.173-.01-.242-.01-.22-.008h-.473c-.24 0-.489 0-.743.014h-.032l-.2.01-.14.008c-.084 0-.167.011-.25.018a13.676 13.676 0 00-1.1.123l-.117.018-.262.044-.138.024-.184.035c-.056.01-.113.02-.166.033-.139.027-.277.06-.416.095l-.065.015c-.15.04-.312.085-.498.139-.11.031-.221.069-.324.103l-.02.007h-.009l-.13.045-.362.138-.096.04c-.087.033-.174.07-.277.113l-.094.04-.108.049a6.23 6.23 0 00-.178.08l-.101.048-.259.128-.115.058c-.106.054-.203.106-.297.157l-.028.016a4.768 4.768 0 00-.166.091 15.583 15.583 0 00-2.508 1.83l-.968.843-.328.277-.277.23-.028.023c-.277.227-.524.434-.741.588a7.202 7.202 0 01-1.716.942c-.256.09-.529.174-.807.251l-.277.075a.192.192 0 01-.062.01.22.22 0 01-.213-.21.217.217 0 01.173-.239c1.467-.344 2.535-1.066 3.784-2.118l.126-.108.692-.6.386-.334.139-.12c.361-.31.68-.57.968-.795.605-.47 1.25-.883 1.93-1.237a10.372 10.372 0 01.721-.341l.087-.037.308-.124.092-.034.224-.082.076-.026c.145-.05.284-.093.415-.138l.043-.014.077-.022c.316-.093.596-.162.82-.217l.276-.07c.03-.013.155-.045.3-.077.113-.025.247-.052.403-.079h.025a16.49 16.49 0 011.557-.193h.062l.212-.014c.277-.018.554-.038.846-.038h.06c1.352.014 2.482.147 3.459.408 1.994.491 3.61 1.234 5.082 2.338.245.184.5.394.737.594l.379.322.356.308.348.303.491.423.309.261c.073.062.131.11.19.156 1.136.919 2.12 1.426 3.288 1.701a.22.22 0 01.171.241.215.215 0 01-.206.207l-.003.002z"/><path d="M35.072 51.635a.192.192 0 01-.072-.358c1.173-.604 1.996-1.354 2.873-2.294 1.783-1.914 3.679-3.238 5.964-4.164a14.91 14.91 0 0111.326 0 16.467 16.467 0 015.965 4.164c.867.943 1.697 1.686 2.872 2.294a.183.183 0 01.093.206.188.188 0 01-.167.152h-.052l-.007-.008c-1.227-.37-2.056-1.245-2.933-2.175l-.3-.32a29.443 29.443 0 00-.7-.724c-.639-.627-1.41-1.334-2.306-1.815-.064-.035-.13-.07-.184-.104l-.026-.016c-2.491-1.473-5.004-2.234-7.699-2.326h-.427c-2.695.092-5.213.853-7.698 2.326l-.027.016c-.06.036-.127.074-.184.104-.895.481-1.667 1.188-2.305 1.816-.236.23-.464.474-.692.708l-.296.314c-.858.909-1.745 1.848-2.956 2.196l-.054.01-.008-.002z"/><path d="M49.5 57.03a15.532 15.532 0 01-2.652-.305 20.194 20.194 0 01-3.46-.932c-1-.368-1.956-.844-2.853-1.42a11.396 11.396 0 01-2.214-1.875 9.928 9.928 0 01-1.19-1.594.207.207 0 010-.219.243.243 0 01.205-.114.21.21 0 01.178.096 10.328 10.328 0 001.755 2.104 11.817 11.817 0 002.405 1.69c.97.514 1.99.926 3.044 1.23a20.99 20.99 0 002.227.518c.734.149 1.477.248 2.225.297.108 0 .217.007.327.007.94 0 1.906-.17 2.896-.36a19.157 19.157 0 003.38-.968 14.77 14.77 0 001.398-.634c.078-.04.157-.082.25-.139a12.43 12.43 0 001.575-1.02c.1-.076.2-.156.298-.237l.036-.03c.398-.327.771-.683 1.117-1.065l.026-.029c.057-.064.113-.127.167-.19 0 0 .059-.07.068-.084a9.84 9.84 0 00.799-1.1.21.21 0 01.18-.097.242.242 0 01.203.111.216.216 0 010 .22 9.659 9.659 0 01-1.21 1.619l-.027.03a8.22 8.22 0 01-.385.397l-.138.127a11.365 11.365 0 01-1.322 1.077c-.344.241-.711.47-1.087.68-.967.535-1.988.967-3.045 1.288a20.384 20.384 0 01-4.492.891 8.662 8.662 0 01-.61.022l-.073.007z"/><path d="M43.635 55.15c-.277-.08-1.445-1.255-2.062-3.26l.08-.028c.491 1.476 1.245 2.31 1.857 2.98l.219.243-.028.03a.174.174 0 01-.029.028l-.017.012-.02-.005zm-2.451-5.798a6.924 6.924 0 01.192-1.704l.072.011a9.324 9.324 0 00-.192 1.689l-.072.004zM39.826 53.7a1.21 1.21 0 01-.087-.242 1.553 1.553 0 00-.073-.212l-.007-.015-.139-.054-.013-.019c-.486-1.077-.646-2.337-.489-3.846 0-.032.011-.091.015-.13h.075a7.847 7.847 0 00.94 4.551l-.078.074-.144-.107zm-1.385-1.268c-.444-.792-.415-1.611-.31-2.377.01-.068.022-.157.04-.241a2.43 2.43 0 01.052-.205l.138-.117-.064.377a4.318 4.318 0 00.223 2.352l.087.239-.084.058-.082-.086zm3.212 2.413a.283.283 0 01-.064 0l-.018-.008c-1.107-1.299-1.59-3.023-1.489-5.419h.076c-.006 2.278.526 3.971 1.678 5.346l.047.056-.075.017a.724.724 0 01-.155.008z"/><path d="M49.42 58.837a16.105 16.105 0 01-7.25-2.154 15.42 15.42 0 01-3.725-3.023l-.029-.033.022-.043.148-.138.028.032a15.454 15.454 0 006.537 4.232c1.386.448 2.826.709 4.28.774h.128a16.27 16.27 0 004.279-.774 15.408 15.408 0 006.523-4.218l.032-.035.044.023.145.139-.012.015a15.554 15.554 0 01-3.749 3.05 16.123 16.123 0 01-7.251 2.153h-.15zm10.873 22.652a36.373 36.373 0 01-10.623 1.568 38.363 38.363 0 01-5.377-.36 33.922 33.922 0 01-5.258-1.147.072.072 0 01-.052-.087.071.071 0 01.087-.052 51.34 51.34 0 005.273.845c1.767.19 3.544.283 5.321.276a47.54 47.54 0 005.318-.31 50.382 50.382 0 005.258-.894.085.085 0 01.101.064.085.085 0 01-.048.097z"/><path d="M49.521 85.483a71.67 71.67 0 01-8.145-.454c-2.36-.261-4.7-.677-7.006-1.245a.414.414 0 01-.309-.45c.398-3.206 1.584-4.765 3.626-4.765a.416.416 0 010 .83c-1.036 0-2.274.427-2.757 3.678a54.02 54.02 0 006.539 1.138 72.585 72.585 0 0016.103 0 53.966 53.966 0 006.54-1.138c-.484-3.25-1.721-3.678-2.757-3.678a.415.415 0 110-.83c2.042 0 3.228 1.559 3.625 4.764a.413.413 0 01-.309.451 54.205 54.205 0 01-7.004 1.245 71.83 71.83 0 01-8.144.454h-.002zm14.55 2.16c-.59.166-1.179.339-1.775.488-.597.15-1.195.277-1.8.415-.301.06-.603.113-.904.169-.302.055-.604.117-.908.158-.608.088-1.214.189-1.824.265-.61.076-1.218.155-1.83.205-.614.05-1.226.098-1.837.138l-1.84.085-1.843.036c-.614 0-1.228-.014-1.843-.028l-1.84-.089c-.612-.039-1.225-.093-1.837-.138-.611-.046-1.222-.123-1.832-.198-.61-.074-1.215-.181-1.822-.276-.608-.096-1.208-.22-1.812-.33-.603-.109-1.197-.277-1.799-.415-.602-.138-1.184-.325-1.772-.496a.146.146 0 01-.099-.18.14.14 0 01.066-.088.152.152 0 01.054-.017.143.143 0 01.056.005c2.36.604 4.76 1.04 7.182 1.303 2.423.275 4.86.413 7.298.416a66.855 66.855 0 007.296-.416 51.623 51.623 0 007.18-1.308.167.167 0 01.121.015.162.162 0 01.06.22.162.162 0 01-.097.075l.001-.014z"/><path d="M49.52 91.415c-1.048 0-2.106-.016-3.15-.05-5.074-.16-10.573-.92-15.902-2.196a.416.416 0 01-.31-.476c.553-3.034 1.2-5.214 4.404-5.618a.414.414 0 01.35.651.417.417 0 01-.246.168c-2.327.293-3.02 1.465-3.624 4.564 5.156 1.208 10.456 1.929 15.36 2.084a98.51 98.51 0 006.245 0c4.9-.155 10.2-.876 15.36-2.084-.602-3.099-1.294-4.271-3.623-4.564a.417.417 0 01-.177-.718.414.414 0 01.28-.101c3.205.404 3.848 2.584 4.405 5.618a.416.416 0 01-.31.476c-5.341 1.279-10.84 2.036-15.914 2.197-1.042.033-2.102.05-3.148.05z"/><path d="M49.519 99c-8.877 0-15.615-.76-21.205-2.386l-.138-.041c-.985-.285-2.1-.608-2.604-1.571-.35-.672-.34-1.535.033-2.637.778-2.296 3.363-3.62 5.436-3.881a.412.412 0 01.498.524.42.42 0 01-.225.256.42.42 0 01-.17.037c-1.826.23-4.094 1.37-4.757 3.328-.294.866-.321 1.536-.083 1.991.34.652 1.235.91 2.102 1.16l.138.04c5.512 1.606 12.178 2.352 20.973 2.352 8.796 0 15.463-.75 20.973-2.351l.139-.04c.866-.25 1.763-.51 2.102-1.16.238-.456.21-1.126-.083-1.992-.663-1.959-2.931-3.099-4.758-3.328a.417.417 0 01-.172-.715.417.417 0 01.276-.102c2.076.26 4.658 1.585 5.436 3.88.373 1.107.384 1.966.033 2.638-.504.968-1.62 1.286-2.604 1.57l-.139.041C65.135 98.242 58.397 99 49.52 99z"/><path d="M29.124 96.578a.274.274 0 01-.184-.072c-.782-.707-.926-1.787-.443-3.3.756-2.371 3.29-3.743 5.322-4.01a.29.29 0 01.116-.004.283.283 0 01.187.127.273.273 0 01.03.224.275.275 0 01-.26.198c-1.867.25-4.187 1.492-4.872 3.636-.553 1.713-.097 2.377.29 2.727a.278.278 0 01.017.388.27.27 0 01-.203.086z"/><path d="M32.243 97.363a.283.283 0 01-.221-.112c-.375-.51-.916-1.66-.34-3.596.669-2.268 2.846-3.567 4.506-3.989a.275.275 0 01.221.018.272.272 0 01.138.175.274.274 0 01-.115.299.286.286 0 01-.105.043c-1.64.414-3.55 1.693-4.116 3.61-.508 1.72-.058 2.693.256 3.12a.278.278 0 01-.083.39.276.276 0 01-.14.042zm3.444.415a.275.275 0 01-.246-.153c-.491-.991-.542-2.115-.16-3.537.535-1.99 2.254-3.347 3.685-3.955a.277.277 0 01.214.505c-1.31.553-2.884 1.799-3.368 3.596-.346 1.285-.307 2.286.122 3.151a.275.275 0 01-.123.367.266.266 0 01-.124.026zm3.69.595a.273.273 0 01-.262-.189c-.354-1.076-.365-2.272-.035-3.658.355-1.486 1.394-2.904 2.854-3.91a.285.285 0 01.218-.07.282.282 0 01.196.12.279.279 0 01-.013.329.276.276 0 01-.091.074c-1.348.923-2.306 2.23-2.63 3.584-.31 1.303-.302 2.37.024 3.36a.275.275 0 01-.261.36zm3.689.214a.279.279 0 01-.27-.219c-.231-1.127-.205-2.365.083-3.784.342-1.684 1.287-3.023 2.02-3.848a.278.278 0 01.305-.097.274.274 0 01.193.255.274.274 0 01-.082.205c-.692.775-1.575 2.029-1.892 3.596-.277 1.344-.3 2.51-.083 3.562a.277.277 0 01-.215.326.29.29 0 01-.06.004zm3.995.214a.279.279 0 01-.277-.245c-.156-1.4.011-2.766.197-3.913.21-1.309.613-2.58 1.195-3.77a.278.278 0 01.383-.159.281.281 0 01.152.29.275.275 0 01-.04.109 12.943 12.943 0 00-1.144 3.622c-.178 1.106-.341 2.43-.192 3.764a.275.275 0 01-.244.304l-.03-.002zm22.852-2.223a.276.276 0 01-.203-.09.277.277 0 01.018-.388c.386-.35.83-1.014.29-2.727-.684-2.144-3.005-3.387-4.872-3.636a.276.276 0 01-.15-.505.282.282 0 01.107-.044.289.289 0 01.115.004c2.034.276 4.567 1.643 5.324 4.01.481 1.512.337 2.592-.443 3.3a.271.271 0 01-.186.076z"/><path d="M66.79 97.363a.28.28 0 01-.273-.299.275.275 0 01.052-.14c.314-.427.765-1.4.256-3.12-.566-1.916-2.475-3.194-4.116-3.61a.278.278 0 01-.059-.495.276.276 0 01.198-.04c1.66.422 3.837 1.72 4.507 3.99.575 1.946.034 3.091-.34 3.594a.273.273 0 01-.224.12zm-3.44.415a.276.276 0 01-.246-.397c.429-.865.468-1.866.121-3.151-.484-1.797-2.057-3.034-3.368-3.596a.278.278 0 01-.119-.348.277.277 0 01.334-.157c1.43.607 3.15 1.966 3.685 3.955.382 1.422.332 2.546-.16 3.537a.28.28 0 01-.247.157zm-3.69.595a.275.275 0 01-.262-.36c.328-.99.335-2.057.025-3.36-.324-1.354-1.282-2.66-2.63-3.584a.274.274 0 01-.14-.179.276.276 0 01.452-.274c1.458 1 2.49 2.424 2.852 3.91.33 1.383.32 2.582-.035 3.658a.279.279 0 01-.261.19zm-3.689.214a.32.32 0 01-.055 0 .277.277 0 01-.215-.326c.218-1.052.192-2.212-.082-3.562-.317-1.565-1.204-2.819-1.892-3.596a.276.276 0 01.415-.363c.733.83 1.679 2.164 2.02 3.848.288 1.42.316 2.657.083 3.785a.278.278 0 01-.274.214zm-4.015.214h-.03a.278.278 0 01-.244-.304c.148-1.335-.014-2.652-.193-3.765a12.943 12.943 0 00-1.147-3.618.278.278 0 01.02-.327.274.274 0 01.204-.099.273.273 0 01.27.186c.582 1.19.985 2.46 1.196 3.77.184 1.149.353 2.513.196 3.912a.276.276 0 01-.272.245zM81.23 49.579a31.622 31.622 0 01-8.16 21.255 31.666 31.666 0 01-42.295 4.248 31.617 31.617 0 01-8.384-41.648 31.65 31.65 0 0117.927-14.048 31.67 31.67 0 0122.721 1.619 31.642 31.642 0 0115.75 16.448 31.79 31.79 0 012.441 12.126zm-.733 0a30.928 30.928 0 00-8.036-20.77 30.97 30.97 0 00-41.38-4.043 30.923 30.923 0 00-8.087 40.758 30.954 30.954 0 0017.573 13.692 30.974 30.974 0 0022.22-1.648A30.946 30.946 0 0080.5 49.578h-.003z"/><path d="M40.075 34.897a.2.2 0 01-.192-.177c-.08-.604-.361-2.264-.692-2.672-.212-.265-1.13-.607-1.66-.76a.209.209 0 010-.395c.528-.153 1.447-.495 1.66-.759.328-.415.61-2.074.692-2.673a.194.194 0 01.385 0c.08.606.361 2.265.692 2.673.213.266 1.13.607 1.66.76a.207.207 0 010 .395c-.528.152-1.447.494-1.66.76-.327.414-.608 2.074-.692 2.671a.2.2 0 01-.193.177zM40 29.004c-.159.692-.335 1.177-.508 1.394-.154.192-.517.405-1.05.617l-.194.076.194.076c.533.212.896.425 1.05.617.173.216.35.699.508 1.393h.151c.16-.692.337-1.177.51-1.393.153-.192.516-.405 1.05-.617l.192-.076-.192-.076c-.534-.212-.897-.425-1.05-.617-.173-.217-.35-.698-.51-1.394H40zm25.637 39.599a.198.198 0 01-.192-.175c-.082-.605-.362-2.264-.692-2.674-.212-.265-1.13-.606-1.66-.759a.208.208 0 010-.395c.528-.153 1.447-.494 1.66-.76.328-.415.61-2.067.692-2.672a.193.193 0 01.383 0c.082.606.363 2.266.692 2.674.212.265 1.13.607 1.66.759a.209.209 0 010 .395c-.528.154-1.447.494-1.66.76-.328.415-.607 2.074-.692 2.673a.198.198 0 01-.19.174zm-.076-5.891c-.159.691-.335 1.177-.509 1.392-.154.193-.516.406-1.049.617l-.194.076.194.078c.533.21.895.423 1.05.615.173.217.35.692.508 1.394h.151c.16-.691.337-1.177.51-1.394.153-.192.516-.405 1.048-.615l.194-.078-.194-.076c-.532-.21-.895-.424-1.049-.617-.174-.215-.35-.691-.509-1.392h-.15zM49.126 33.639a1.063 1.063 0 00.055 1.045.089.089 0 01-.026.11.089.089 0 01-.112-.004 1.32 1.32 0 01-.22-1.281.167.167 0 01.216-.114.167.167 0 01.11.16.164.164 0 01-.015.066.122.122 0 01-.008.018z"/><path d="M50.34 32.224a1.964 1.964 0 011.347.665 1.935 1.935 0 01-.93 3.126 1.911 1.911 0 01-2.03-.638 1.87 1.87 0 01-.414-1.37 1.99 1.99 0 01.638-1.288 1.88 1.88 0 011.388-.495zm-.037.415a1.608 1.608 0 00-1.154.31 1.521 1.521 0 00-.592 1.076c-.03.425.109.845.387 1.168a1.575 1.575 0 001.09.526c.405.02.803-.12 1.107-.39a1.548 1.548 0 00.172-2.126 1.522 1.522 0 00-1.01-.574v.01zm-23.88 9.079c.413.025.802.202 1.093.496.149.154.264.335.34.534.074.205.104.422.087.64a1.66 1.66 0 01-.589 1.122 1.614 1.614 0 01-2.575-.788 1.579 1.579 0 01-.054-.616 1.539 1.539 0 01.575-1.04 1.609 1.609 0 011.123-.348zm-.036.415a1.122 1.122 0 00-.435.044c-.139.047-.267.12-.376.219a1.106 1.106 0 00-.361.756 1.07 1.07 0 00.27.77 1.03 1.03 0 001.79-.59 1.173 1.173 0 00-.182-.76.98.98 0 00-.706-.442v.003zm21.998 31.326c.422.027.82.208 1.117.509a1.54 1.54 0 01.436 1.199 1.703 1.703 0 01-.602 1.146 1.65 1.65 0 01-2.339-.244 1.62 1.62 0 01-.347-1.19 1.573 1.573 0 01.588-1.065 1.66 1.66 0 011.147-.355zm-.036.415a1.16 1.16 0 00-.447.046 1.121 1.121 0 00-.39.224 1.144 1.144 0 00-.372.78c-.016.29.084.575.277.793a1.066 1.066 0 001.85-.608 1.206 1.206 0 00-.19-.784 1.02 1.02 0 00-.728-.453v.002zM73.878 42.98a.762.762 0 11-1.523 0 .762.762 0 011.523 0zM49.192 26.992a.76.76 0 01-.91.749.763.763 0 11.91-.75zm-11.98 33.46a.762.762 0 11-1.523 0 .762.762 0 011.523 0zm-12.415-6.944a.762.762 0 11-1.524 0 .762.762 0 011.524 0zm38.296 6.022a.761.761 0 11-1.523 0 .761.761 0 011.523 0zM35.014 41.273a.762.762 0 100-1.525.762.762 0 000 1.525zm-3.828 9.685a.54.54 0 11-1.078 0 .54.54 0 011.078 0zm41.509 6.436a.539.539 0 11-1.077 0 .539.539 0 011.077 0zM58.974 71.916a.538.538 0 01-.921.38.539.539 0 01.59-.879.538.538 0 01.331.499zm-.687-45.685a.539.539 0 11-1.078 0 .539.539 0 011.078 0zM37.048 71.379a.538.538 0 01-.644.53.54.54 0 11.644-.53zM32.25 34.211a.54.54 0 11-1.078 0 .54.54 0 011.078 0zm22.24 31.343a.54.54 0 11-1.077 0 .54.54 0 011.078 0zm6.095-28.321a.54.54 0 11-1.08.002.54.54 0 011.08-.002zm11.389-.538a.539.539 0 11-1.078 0 .539.539 0 011.078 0zM29.093 65.554a.129.129 0 01-.114-.123c-.058-.48-.263-1.798-.504-2.125-.158-.214-.83-.488-1.222-.61a.138.138 0 01-.087-.138.137.137 0 01.087-.138c.389-.123 1.064-.397 1.222-.611.24-.327.445-1.645.504-2.125a.115.115 0 11.228 0c.058.48.264 1.798.504 2.125.157.214.83.488 1.222.61a.138.138 0 01.087.14.138.138 0 01-.087.138c-.39.121-1.065.395-1.222.61-.241.327-.446 1.644-.504 2.124a.129.129 0 01-.114.123zm.025-3.651a.582.582 0 00-.462.202.657.657 0 00-.153.433.597.597 0 00.61.626.586.586 0 00.46-.2.664.664 0 00.154-.435.6.6 0 00-.609-.63v.004zM65.052 33.48a.129.129 0 01-.113-.122c-.06-.48-.265-1.798-.504-2.124-.158-.215-.83-.489-1.222-.612a.138.138 0 01-.089-.138.138.138 0 01.089-.138c.389-.122 1.064-.396 1.222-.61.24-.328.444-1.645.504-2.125a.113.113 0 01.227 0c.059.48.264 1.798.503 2.125.158.214.83.488 1.222.61a.139.139 0 01.087.138.137.137 0 01-.087.138c-.389.123-1.064.397-1.222.611-.24.327-.444 1.645-.503 2.125a.129.129 0 01-.114.123zm.025-3.65a.588.588 0 00-.462.2.669.669 0 00-.154.433.598.598 0 00.61.628.59.59 0 00.463-.202.663.663 0 00.153-.433.6.6 0 00-.61-.626zm5.256 18.759a.374.374 0 01-.373-.411l.233-2.36a.138.138 0 01.138-.128h.014a.14.14 0 01.127.127l.241 2.36a.373.373 0 01-.336.416l-.044-.004zm-.919.951a.28.28 0 01-.049 0l-1.85-.232a.138.138 0 01-.094-.053.14.14 0 01-.029-.105.139.139 0 01.123-.121l1.852-.233a.377.377 0 01.093.748.25.25 0 01-.046-.004zm1.864-.004a.377.377 0 01-.285-.613.377.377 0 01.238-.135h.094l1.852.234a.14.14 0 01.094.053.14.14 0 01.027.104.138.138 0 01-.121.122l-1.852.232a.274.274 0 01-.047.003zm-.959 3.138a.139.139 0 01-.126-.126l-.232-2.36a.373.373 0 01.336-.416h.037a.372.372 0 01.371.413l-.232 2.369a.138.138 0 01-.139.127l-.015-.007z"/><path d="M70.333 47.904l-1.28 1.285 1.285 1.285 1.286-1.285-1.291-1.285zm.01 1.838c-.744 0-.737-1.153 0-1.153.736 0 .741 1.153 0 1.153zm-26.346 14.44a.374.374 0 01-.372-.41l.233-2.367a.138.138 0 01.138-.126h.014a.137.137 0 01.126.126l.233 2.362a.373.373 0 01-.084.277.368.368 0 01-.252.138h-.036zm-.919.957a.28.28 0 01-.048 0l-1.85-.233a.139.139 0 01-.094-.053.138.138 0 01.094-.226l1.857-.242h.048a.376.376 0 01-.007.754zm1.864-.009a.377.377 0 01-.047-.749h.094l1.852.232a.15.15 0 01.125.122.137.137 0 01-.055.133.138.138 0 01-.07.026l-1.852.232-.047.003zm-.959 3.137a.138.138 0 01-.125-.126l-.233-2.362a.372.372 0 01.335-.408h.037a.372.372 0 01.373.413l-.226 2.357a.139.139 0 01-.138.128l-.023-.002z"/><path d="M43.997 63.497l-1.285 1.285 1.285 1.285 1.286-1.285-1.286-1.285zm.01 1.837c-.743 0-.736-1.152 0-1.152s.742 1.152-.001 1.152h.001zM49.5 9.527a.393.393 0 01-.385-.342l.006-.139.331-8.99a.054.054 0 01.107 0l.33 9v.138a.39.39 0 01-.39.333zm-.002 5.633a.581.581 0 01-.583-.565v-.038l.088-2.38.013-.35a.52.52 0 01.969 0l.013.345.088 2.376a.592.592 0 01-.566.608l-.022.003zM20.96 21.342a.397.397 0 01-.24-.081l-.093-.102-6.131-6.596a.054.054 0 01.016-.085.052.052 0 01.021-.005c.014 0 .027.006.037.015l6.602 6.13.102.095.023.039a.392.392 0 01-.339.59h.001zm3.85 4.038a.588.588 0 01-.426-.183l-1.623-1.745-.238-.258a.52.52 0 01.692-.691l.253.236 1.744 1.618a.586.586 0 01-.399 1.017l-.004.007zM.051 49.523a.055.055 0 01-.037-.012.05.05 0 01-.014-.037.053.053 0 01.051-.053l9.006-.33h.138c.016.002.03.006.045.01a.392.392 0 010 .757l-.046.01-9.143-.345zm12.134.446l-.352-.014a.52.52 0 010-.968l.345-.015 2.398-.089a.586.586 0 01.016 1.172h-.022l-2.385-.086zm2.387 34.485a.054.054 0 01-.057.01.054.054 0 01-.032-.05c0-.014.006-.027.015-.037l6.133-6.598.096-.1.039-.024a.396.396 0 01.476.06.39.39 0 01.034.518l-.102.093-6.602 6.128zm8.423-7.974a.515.515 0 01-.51-.427.52.52 0 01.038-.307l.237-.253 1.619-1.742a.579.579 0 01.429-.187.59.59 0 01.535.342.587.587 0 01-.131.67L23.465 76.2l-.257.238a.514.514 0 01-.213.042zm61.469 7.988a.055.055 0 01-.037-.015l-6.6-6.13-.102-.095-.023-.04a.391.391 0 01.339-.59.397.397 0 01.24.082l.092.102 6.131 6.596a.05.05 0 01.015.036.051.051 0 01-.015.037.045.045 0 01-.018.012.04.04 0 01-.022.005zm-8.46-7.988a.523.523 0 01-.215-.046l-.253-.237-1.744-1.618a.587.587 0 11.796-.866.16.16 0 01.026.027l1.623 1.745.239.257a.517.517 0 01-.474.73l.002.007zM89.81 49.858a.395.395 0 01-.341-.39.393.393 0 01.345-.388l.139.007 8.995.33a.05.05 0 01.036.017.05.05 0 01.014.037.05.05 0 01-.015.037.052.052 0 01-.037.016l-8.998.33-.138.004zm-5.39.206a.585.585 0 01-.016-1.171h.024l2.394.087.352.014a.52.52 0 010 .968l-.348.012-2.406.09zM78.037 21.34a.382.382 0 01-.277-.115.39.39 0 01-.036-.515l.104-.094 6.6-6.129a.052.052 0 01.035-.014c.007 0 .014.002.02.005a.052.052 0 01.017.012c.01.01.016.023.016.037a.054.054 0 01-.016.038l-6.13 6.595-.096.1-.038.024a.395.395 0 01-.2.056zm-3.847 4.04a.582.582 0 01-.402-1.005l1.747-1.622.257-.238a.519.519 0 01.685.688l-.237.253-1.619 1.742a.59.59 0 01-.43.181zm-38.054-7.577a.588.588 0 01-.533-.341l-.018-.043-2.819-7.535.024-.023-.04-.042a.303.303 0 01.441-.276l.04.023.012.011.03.027.006.01.014.016 3.378 7.342a.587.587 0 01-.535.831zM32.085 7.706a.208.208 0 01-.108-.029l-.018-.012-.019-.015-.072-.173-1.364-3.647a.054.054 0 01.032-.068h.01a.055.055 0 01.056.028l1.705 3.7-.013.052a.205.205 0 01-.092.131.214.214 0 01-.117.033zM17.23 36.695a.57.57 0 01-.204-.037l-.044-.018-7.323-3.336v-.032h-.058a.303.303 0 01-.093-.224.301.301 0 01.208-.276l.045-.011h.088l7.587 2.797a.585.585 0 01.13 1.032.59.59 0 01-.336.105zm-9.91-4.459l-3.545-1.614a.052.052 0 01.024-.1h.018l3.823 1.411.028.046a.211.211 0 01-.011.24.21.21 0 01-.118.08h-.055l-.164-.063zM9.825 66.21a.295.295 0 01-.218-.092.3.3 0 01-.053-.346l.024-.04.012-.014.025-.027.01-.007.016-.014 7.347-3.376a.587.587 0 01.49 1.065l-.043.02-7.582 2.829h-.028v.003zm-6.01 2.248a.054.054 0 01-.051-.034.054.054 0 01.028-.067l3.703-1.697.051.013a.205.205 0 01.133.095.215.215 0 01.003.22l-.013.018-.015.02-.173.071-3.65 1.361h-.016zm85.368-2.267h-.034l-7.582-2.809a.586.586 0 11.41-1.099l.045.018 7.323 3.336v.032h.05a.31.31 0 01.093.225.302.302 0 01-.208.277l-.046.012h-.052l.001.008zm6.024 2.229h-.018l-3.83-1.415c-.011-.023-.02-.034-.027-.046a.182.182 0 01-.029-.073.204.204 0 01.04-.166.21.21 0 01.118-.08h.045l.174.071 3.545 1.609a.049.049 0 01.026.024.055.055 0 01.005.036.055.055 0 01-.02.03.056.056 0 01-.035.01h.006zM81.773 36.7a.588.588 0 01-.525-.847.587.587 0 01.28-.271l.043-.018 7.576-2.831h.025a.303.303 0 01.276.438l-.022.04-.012.014-.026.03h-.012l-.014.013-7.344 3.381a.575.575 0 01-.245.052zm9.733-4.418a.219.219 0 01-.052 0 .207.207 0 01-.13-.092.204.204 0 01-.005-.216l.013-.027.017-.02.173-.071 3.649-1.364h.016a.052.052 0 01.055.04.055.055 0 01-.004.037.054.054 0 01-.027.024l-3.692 1.699-.013-.01zM62.87 17.806a.586.586 0 01-.55-.79l.018-.044 3.338-7.319h.032v-.058a.304.304 0 01.507.115l.01.046v.089l-2.804 7.58a.59.59 0 01-.551.381zm4.02-10.11a.212.212 0 01-.13-.044.21.21 0 01-.08-.117v-.046l.071-.173 1.61-3.543a.054.054 0 01.048-.03.04.04 0 01.022 0 .054.054 0 01.028.066l-1.414 3.827a.426.426 0 00-.044.027.191.191 0 01-.075.03.16.16 0 01-.036.003zM27.223 33.374a25.093 25.093 0 0114.984-10.58 26.097 26.097 0 016.227-.728.402.402 0 010 .802h-.014a25.253 25.253 0 00-6.045.625 24.357 24.357 0 00-5.704 2.092 24.642 24.642 0 00-9.054 8.042.234.234 0 01-.389-.258l-.005.005zm49.632 16.32a25 25 0 01-3.451 14.4A25.023 25.023 0 0162.41 74.02a.184.184 0 01-.243-.088.185.185 0 01.087-.243 24.706 24.706 0 006.08-4.124 24.509 24.509 0 007.776-19.819.373.373 0 01.745-.058v.006z"/></g><defs><clipPath id="clip0_28_336"><path fill="#fff" d="M0 0h99v99H0z"/></clipPath></defs></svg>