<svg width="27" height="27" viewBox="0 0 27 27" fill="none" xmlns="http://www.w3.org/2000/svg">
<path fill-rule="evenodd" clip-rule="evenodd" d="M0 13.5C0 6.0453 6.0453 0 13.5 0C20.9547 0 27 6.0453 27 13.5C27 20.9547 20.9547 27 13.5 27C6.0453 27 0 20.9547 0 13.5ZM13.7828 21.3601H13.7861C18.2391 21.3601 21.8642 17.7365 21.866 13.2827C21.8668 11.1245 21.0272 9.09503 19.5016 7.56821C17.9762 6.04159 15.9474 5.20031 13.7861 5.19949C9.33254 5.19949 5.70788 8.82271 5.70602 13.2763C5.70541 14.6999 6.07743 16.0895 6.78461 17.3144L5.63825 21.5002L9.92148 20.3769C11.1016 21.0204 12.4305 21.3595 13.7828 21.3601ZM7.07013 13.2769C7.07177 9.57516 10.0844 6.56374 13.7888 6.56374C15.5824 6.56436 17.2687 7.26371 18.5366 8.53263C19.8044 9.80155 20.5023 11.4882 20.5017 13.2822C20.5001 16.9841 17.4874 19.9958 13.7859 19.9958H13.7833C12.5782 19.9953 11.3962 19.6717 10.3652 19.0599L10.1199 18.9145L7.57811 19.5811L8.25665 17.1036L8.097 16.8496C7.42485 15.7807 7.06971 14.5454 7.07013 13.2769ZM16.3763 17.123C16.7642 17.0649 17.5707 16.6346 17.7389 16.1632C17.9072 15.6917 17.9072 15.2878 17.8566 15.2035C17.816 15.1358 17.721 15.0899 17.5804 15.0219C17.5462 15.0053 17.5092 14.9875 17.4697 14.9677C17.2678 14.8667 16.2754 14.3783 16.0902 14.3112C15.9052 14.2438 15.7705 14.21 15.636 14.4121C15.5014 14.6142 15.1144 15.0688 14.9968 15.2035C14.8789 15.338 14.7611 15.3549 14.5594 15.254C14.5263 15.2374 14.4812 15.2178 14.4255 15.1936C14.1411 15.0703 13.5806 14.8271 12.9358 14.2522C12.3357 13.7171 11.9303 13.056 11.8127 12.8542C11.7072 12.6732 11.7899 12.575 11.8727 12.4766C11.8823 12.4652 11.892 12.4538 11.9013 12.4422C12.1149 12.1773 12.3386 11.8866 12.406 11.7519C12.4731 11.6172 12.4396 11.4993 12.3891 11.3982C12.3553 11.3307 12.1636 10.8642 11.99 10.4416C11.9039 10.2323 11.8223 10.0337 11.7666 9.89981C11.622 9.55224 11.4753 9.55314 11.3576 9.55386C11.342 9.55396 11.3269 9.55405 11.3124 9.55332C11.1947 9.54756 11.06 9.54632 10.9255 9.54632C10.791 9.54632 10.5722 9.59679 10.387 9.79887C10.3752 9.81176 10.362 9.82582 10.3477 9.84111C10.1376 10.0652 9.68048 10.5526 9.68048 11.4825C9.68048 12.4704 10.3958 13.4249 10.5031 13.5681L10.5049 13.5704C10.5115 13.5792 10.5233 13.5962 10.5403 13.6206C10.7822 13.9674 12.0612 15.8009 13.9536 16.6179C14.4354 16.8257 14.8114 16.9499 15.1047 17.043C15.5884 17.1965 16.0284 17.1749 16.3763 17.123Z" fill="#FCC463"/>
</svg>
